<?xml version="1.0" encoding="UTF-8"?>
<svg id="Layer_1" data-name="Layer 1" xmlns="http://www.w3.org/2000/svg" viewBox="0 0 388.45 257.22">
  <defs>
    <style>
      .cls-1 {
        fill: #aba9ab;
      }

      .cls-2 {
        fill: #ed2c7a;
      }

      .cls-3 {
        fill: #fefefe;
      }

      .cls-4 {
        fill: #e4e2e5;
      }
    </style>
  </defs>
  <rect class="cls-4" x="98.92" y="-50.17" width="189.3" height="362.4" rx="16.4" ry="16.4" transform="translate(26.29 294.3) rotate(-78.4)"/>
  <rect class="cls-3" x="99.69" y="-54.03" width="189.3" height="362.4" rx="16.4" ry="16.4" transform="translate(30.69 291.97) rotate(-78.4)"/>
  <path class="cls-2" d="M388.11,85.83l-4.3,20.8L28.71,33.93l4.3-20.8C34.81,4.23,43.51-1.47,52.31.33l323,66.1c8.9,1.8,14.6,10.5,12.8,19.3v.1Z"/>
  <path class="cls-1" d="M189.01,144.33l-9.5,12.4,3.4.4c.7,0,1.3-.1,1.8-.5l12.6-10.4c10.8,2.1,14.6,1.3,15-.6.4-1.9-2.8-4.2-13.5-6.4l-7.5-14.5c-.3-.6-.8-1-1.5-1.2l-3.3-.9,3.9,15.1c-4.9-.7-9.5-1.1-12.6-1.1l-2.8-6-2.2-.4.5,6.3c-.9,0-1.4.3-1.5.8,0,.5.3,1,1.1,1.3l-3,5.6,2.2.4,4.9-4.4c2.9,1.3,7.3,2.7,12,4v.1Z"/>
  <g>
    <path class="cls-2" d="M85.61,164.53l-13.5-2.8v-35.4l-6-1.2-7,34-13.3-2.7,17.3-84.6,20.1,4.1c5.7,1.2,10,3.8,13,7.9,3.3,4.5,4.2,10.2,2.8,16.9l-1.9,9.1c-1.4,6.8-4.5,11.7-9.3,14.6-.7.4-1.4.8-2.3,1.2v38.9h.1ZM85.71,98.03c.6-2.8.4-5-.6-6.4-.8-1.2-2.4-2-4.7-2.5l-6.8-1.4-4.9,24,6.8,1.4c2.3.5,4,.3,5.3-.4,1.4-.9,2.5-2.8,3.1-5.7l1.9-9.1-.1.1Z"/>
    <path class="cls-2" d="M113.81,170.33l-20.1-4.1,17.3-84.6,20.1,4.1c5.7,1.2,10,3.8,13,7.9,3.3,4.5,4.2,10.2,2.8,16.9l-8.9,43.5c-.7,3.3-1.8,6.1-3.3,8.5-1.7,2.5-3.7,4.4-6.1,5.8-4.1,2.4-9.1,3.1-14.9,1.9l.1.1ZM109.81,155.63l6.8,1.4c2.4.5,4.2.4,5.3-.3,1.3-.7,2.3-2.5,2.9-5.3l8.9-43.5c.6-2.8.4-5-.6-6.4-.8-1.2-2.4-2-4.7-2.5l-6.8-1.4-11.9,58h.1Z"/>
  </g>
  <path class="cls-3" d="M57.81,22.83l-.9,9.1,1.8-.8c.4-.2.6-.5.8-.8l3.1-9.1c6-2.3,7.7-3.9,7.3-4.9s-2.7-1.2-8.7,1l-8.2-4.9c-.3-.2-.7-.3-1.1-.1l-1.9.6,6.6,6.4c-2.6,1.2-5.1,2.4-6.6,3.4l-3.3-2.1-1.2.4,2.2,3c-.4.3-.6.6-.5.9,0,.3.4.4,1,.3l.2,3.7,1.2-.4,1.1-3.7c1.8-.3,4.5-.9,7.2-1.7l-.1-.3Z"/>
  <g>
    <path class="cls-3" d="M272.91,68.33l-2.4-.5-.9,2.3-1.4-.3,4.7-10.9,1.3.3v11.9l-1.4-.3v-2.5h.1ZM272.91,66.93v-5.1l-1.9,4.7,1.9.4h0Z"/>
    <path class="cls-3" d="M281.01,72.43l-1.5-.3-.6-5.1-.8-.2-1,4.8-1.4-.3,2.3-11.4,2.6.5c.7.1,1.3.5,1.7,1,.4.6.5,1.3.3,2.2l-.3,1.3c-.2.9-.6,1.5-1.2,1.9-.3.2-.6.3-.9.3l.6,5.2.2.1ZM280.61,65.73c.2-.2.4-.5.5-.9l.3-1.3v-1c-.1-.3-.4-.4-.8-.5l-1.2-.2-.8,3.9,1.2.2c.4,0,.7,0,1-.1l-.2-.1Z"/>
    <path class="cls-3" d="M282.71,72.83l2.3-11.4,2.3.5c.8.2,1.3.5,1.7,1,.4.6.6,1.3.4,2.2l-.2,1.1c0,.4-.2.7-.4,1s-.4.5-.7.7c.6.6.8,1.4.6,2.3l-.2,1.1c-.2.9-.6,1.5-1.2,1.9-.5.3-1.2.4-1.9.2l-2.6-.5-.1-.1ZM285.11,68.13l-.7,3.6,1.2.2h.9c.2-.2.4-.5.5-.9l.2-1.1v-1c-.1-.3-.4-.4-.8-.5l-1.2-.2-.1-.1ZM285.41,66.73l.9.2c.4,0,.7,0,1-.1.2-.2.4-.5.5-.9l.2-1.1v-1c-.1-.2-.4-.4-.9-.5l-.9-.2-.7,3.6h-.1Z"/>
    <path class="cls-3" d="M293.91,72.63l-2.4-.5-.9,2.3-1.4-.3,4.7-10.9,1.3.3v11.9l-1.4-.3v-2.5h.1ZM293.91,71.23v-5.1l-1.9,4.7,1.9.4h0Z"/>
    <path class="cls-3" d="M299.01,76.33c-.7-.1-1.3-.5-1.7-1-.4-.6-.5-1.3-.3-2.2l.3-1.5,1.4.3-.3,1.5v1c.1.3.4.4.8.5.4,0,.7,0,1-.1.2-.2.4-.5.5-.9l1.8-8.9,1.4.3-1.8,8.9c-.2.9-.6,1.5-1.2,1.9-.6.3-1.2.4-1.9.3v-.1Z"/>
    <path class="cls-3" d="M307.01,67.33l-.7,3.5,2.2.4-.3,1.4-2.2-.4-.8,3.8,3.1.6-.3,1.4-4.5-.9,2.3-11.4,4.5.9-.3,1.4-3.1-.6.1-.1Z"/>
    <path class="cls-3" d="M317.31,77.43l-2.4-.5-.9,2.3-1.4-.3,4.7-10.9,1.3.3v11.9l-1.4-.3v-2.5h.1ZM317.41,76.03v-5.1l-1.9,4.7,1.9.4h0Z"/>
    <path class="cls-3" d="M322.91,81.03l-2.6-.5,2.3-11.4,2.6.5c.7.2,1.3.5,1.7,1,.4.6.5,1.3.4,2.2l-1.2,6.1c-.2.9-.6,1.5-1.2,1.9-.5.3-1.2.4-1.9.2h-.1ZM322.01,79.43l1.2.2h.9c.3-.2.4-.5.5-.9l1.2-6.1v-1c-.1-.3-.4-.4-.8-.5l-1.2-.2-1.8,8.6v-.1Z"/>
    <path class="cls-3" d="M335.31,71.73l-4.7,10.9-1.4-.3v-11.9l1.4.3v9c-.1,0,3.3-8.3,3.3-8.3l1.4.3Z"/>
    <path class="cls-3" d="M337.91,73.73l-.7,3.5,2.2.4-.3,1.4-2.2-.4-.8,3.8,3.1.6-.3,1.4-4.5-.9,2.3-11.4,4.5.9-.3,1.4-3.1-.6.1-.1Z"/>
    <path class="cls-3" d="M342.11,85.03l-1.4-.3,2.3-11.4.8.2,1.8,7.5,1.4-6.9,1.4.3-2.3,11.4-.8-.2-1.8-7.5-1.4,6.9Z"/>
    <path class="cls-3" d="M354.81,77.23l-1.9-.4-2,10-1.4-.3,2-10-1.9-.4.3-1.4,5.2,1.1-.3,1.4h0Z"/>
    <path class="cls-3" d="M356.81,88.13c-.7-.2-1.3-.5-1.7-1-.4-.6-.5-1.3-.4-2.2l1.8-8.9,1.4.3-1.8,8.9v1c.2.3.4.4.8.5.4,0,.7,0,1-.1.2-.2.4-.5.5-.9l1.8-8.9,1.4.3-1.8,8.9c-.2.9-.6,1.5-1.2,1.9-.3.2-.6.3-.9.3h-1l.1-.1Z"/>
    <path class="cls-3" d="M366.51,90.03l-1.5-.3-.6-5.1-.8-.2-1,4.8-1.4-.3,2.3-11.4,2.6.5c.7.1,1.3.5,1.7,1,.4.6.5,1.3.3,2.2l-.3,1.3c-.2.9-.6,1.5-1.2,1.9-.3.2-.6.3-.9.3l.6,5.2.2.1ZM366.11,83.23c.2-.2.4-.5.5-.9l.3-1.3v-1c-.1-.3-.4-.4-.8-.5l-1.2-.2-.8,3.9,1.2.2c.4,0,.7,0,1-.1l-.2-.1Z"/>
    <path class="cls-3" d="M371.71,80.63l-.7,3.5,2.2.4-.3,1.4-2.2-.4-.8,3.8,3.1.6-.3,1.4-4.5-.9,2.3-11.4,4.5.9-.3,1.4-3.1-.6.1-.1Z"/>
  </g>
  <g>
    <path class="cls-2" d="M274.81,210.13c-14.3-2.9-26.6-11.8-33.9-24.5-6.2-10.8-8.2-23.4-5.8-35.6s9.3-23,19.3-30.5c11.7-8.8,26.5-12.1,40.8-9.2,14.3,2.9,26.6,11.8,33.9,24.5,6.2,10.8,8.3,23.4,5.8,35.6-2.5,12.2-9.3,23-19.3,30.5-11.7,8.7-26.5,12.1-40.8,9.2ZM294.81,112.93c-13.6-2.8-27.7.4-38.8,8.7-9.4,7.1-15.9,17.4-18.3,29-2.4,11.6-.4,23.6,5.5,33.8,6.9,12,18.7,20.5,32.2,23.2,13.6,2.8,27.7-.4,38.7-8.7,9.4-7.1,16-17.4,18.3-29,2.4-11.6.4-23.6-5.5-33.8-6.9-12-18.6-20.5-32.2-23.2h.1Z"/>
    <path class="cls-2" d="M274.81,210.13c-7.6-1.6-13.6-8.3-16.9-19-3.2-10.4-3.5-23.4-.8-36.6s8.1-25,15.1-33.3c7.2-8.5,15.4-12.4,23-10.8,7.6,1.6,13.6,8.3,16.9,19,3.2,10.4,3.5,23.4.8,36.6-2.7,13.2-8.1,25-15.1,33.3-7.2,8.5-15.4,12.4-23,10.8ZM294.81,112.93c-6.7-1.4-14,2.2-20.6,9.9-6.8,8-12,19.4-14.6,32.2s-2.3,25.3.8,35.4c3,9.8,8.4,15.9,15,17.2,6.7,1.4,14-2.2,20.6-9.9,6.8-8,12-19.4,14.6-32.2s2.3-25.3-.8-35.4c-3-9.8-8.4-15.9-15-17.2Z"/>
    <path class="cls-2" d="M274.81,210.13c-14.3-2.9-26.6-11.8-33.9-24.5l-.6-1,.9-.7c11.7-8.8,26.5-12.1,40.8-9.2,14.3,2.9,26.6,11.8,33.9,24.5l.6,1-.9.7c-11.7,8.7-26.5,12.1-40.8,9.2ZM243.71,185.33c7,11.5,18.4,19.6,31.6,22.3s26.9-.2,37.8-8c-7-11.5-18.4-19.6-31.6-22.3s-26.9.2-37.8,8Z"/>
    <path class="cls-2" d="M288.01,145.73c-14.3-2.9-26.6-11.8-33.9-24.5l-.6-1,.9-.7c11.7-8.8,26.5-12.1,40.8-9.2,14.3,2.9,26.6,11.8,33.9,24.5l.6,1-.9.7c-11.7,8.8-26.5,12.1-40.8,9.2ZM256.91,120.93c7,11.5,18.4,19.6,31.6,22.3,13.2,2.7,26.9-.2,37.8-8-7-11.5-18.4-19.6-31.6-22.3-13.2-2.7-26.9.2-37.8,8Z"/>
    <rect class="cls-2" x="283.84" y="110.61" width="2.5" height="99.3" transform="translate(70.89 407.4) rotate(-78.43)"/>
    <rect class="cls-2" x="235.44" y="159.01" width="99.3" height="2.5" transform="translate(70.89 407.4) rotate(-78.43)"/>
  </g>
</svg>