<?xml version="1.0" encoding="UTF-8"?>
<svg id="Layer_1" data-name="Layer 1" xmlns="http://www.w3.org/2000/svg" viewBox="0 0 468.69 266.76">
  <defs>
    <style>
      .cls-1 {
        stroke-dasharray: .2 3;
      }

      .cls-1, .cls-2 {
        fill: none;
        stroke: #dfdfdf;
        stroke-linecap: round;
        stroke-linejoin: round;
      }

      .cls-3 {
        fill: #0963c9;
      }

      .cls-4 {
        fill: #fefefe;
      }

      .cls-5 {
        fill: #e4e2e5;
      }
    </style>
  </defs>
  <rect class="cls-5" x="11.55" y="41.14" width="446.7" height="189.3" rx="18.9" ry="18.9" transform="translate(-20.97 45.53) rotate(-10.6)"/>
  <rect class="cls-4" x="10.84" y="37.23" width="446.7" height="189.3" rx="18.9" ry="18.9" transform="translate(-20.26 45.33) rotate(-10.6)"/>
  <path class="cls-3" d="M439.24,12.84l3.9,20.9L4.14,116.04.24,95.14c-1.7-8.9,5.9-17.8,16.8-19.8L416.34.44c11-2.1,21.2,3.5,22.9,12.4h0Z"/>
  <g>
    <path class="cls-3" d="M80.24,213.34l-11.2,2.1-10.9-27-5,.9,5.3,28-11,2.1-13.1-69.8,16.6-3.1c4.7-.9,8.8-.2,12.4,2,3.9,2.4,6.4,6.4,7.4,12l1.4,7.5c1.1,5.7.2,10.3-2.5,14-.4.6-.8,1.1-1.4,1.6l12.1,29.7h-.1ZM59.74,162.64c-.4-2.3-1.2-3.9-2.4-4.7-1-.6-2.5-.8-4.3-.4l-5.6,1,3.7,19.9,5.6-1c1.9-.3,3.2-1,3.9-2,.8-1.1,1-2.9.6-5.3l-1.4-7.5h-.1Z"/>
    <path class="cls-3" d="M103.64,208.94l-16.6,3.1-13.1-69.8,16.6-3.1c4.7-.9,8.8-.2,12.4,2,3.9,2.4,6.4,6.4,7.4,12l6.7,35.9c.5,2.7.6,5.2.2,7.5-.5,2.4-1.5,4.5-2.8,6.3-2.4,3.1-6,5.1-10.7,6l-.1.1ZM95.94,199.04l5.6-1c2-.4,3.3-1,4-1.9.8-1,1-2.6.5-5l-6.7-35.9c-.4-2.3-1.2-3.9-2.4-4.7-1-.6-2.5-.8-4.3-.4l-5.6,1,9,47.9h-.1Z"/>
  </g>
  <g>
    <path class="cls-3" d="M183.84,182.44l-12.6,2.4v11.4l-11.1,2.1.9-72.5,11-2.1,27.1,67.2-11.2,2.1-4.1-10.7v.1ZM179.84,171.84l-9.1-24.2.3,25.9,8.8-1.6v-.1Z"/>
    <path class="cls-3" d="M238.14,183.74l-6.4,1.2-23.4-32.3,6.6,35.4-11,2.1-13.1-69.8,6.4-1.2,23.4,32.2-6.6-35.3,11-2.1,13.1,69.8h0Z"/>
    <path class="cls-3" d="M262.24,153.84l4.6,24.5-11.1,2.1-4.6-24.5-22-42.8,11.6-2.2,12.1,23.7,2.9-26.5,11.6-2.2-5.1,47.8v.1Z"/>
    <path class="cls-3" d="M318.54,96.34l4.5,71.4-6.1,1.1-16.3-32.9-3.2,36.5-6.1,1.1-21.7-68.2,11.1-2.1,10.3,34.1,1.9-24.9,6.3-1.2,10.8,22.5-2.7-35.5,11.1-2.1.1.2Z"/>
    <path class="cls-3" d="M337.04,104.24l3.3,17.6,12.4-2.3,2.1,11-12.4,2.3,3.6,19.4,18-3.4,2.1,11-28.9,5.4-13.1-69.8,28.9-5.4,2.1,11-18,3.4-.1-.2Z"/>
    <path class="cls-3" d="M405.64,152.34l-11.2,2.1-10.9-27-5,.9,5.3,28-11,2.1-13.1-69.8,16.6-3.1c4.7-.9,8.8-.2,12.4,2,3.9,2.4,6.4,6.4,7.4,12l1.4,7.5c1.1,5.7.2,10.3-2.5,14-.4.6-.8,1.1-1.4,1.6l12.1,29.7h-.1ZM385.14,101.64c-.4-2.3-1.2-3.9-2.4-4.7-1-.6-2.5-.8-4.3-.4l-5.6,1,3.7,19.9,5.6-1c1.9-.3,3.1-1,3.9-2,.8-1.1,1-2.9.6-5.3l-1.4-7.5h-.1Z"/>
    <path class="cls-3" d="M412.44,90.14l3.3,17.6,12.4-2.3,2.1,11-12.4,2.3,3.6,19.4,18-3.4,2.1,11-28.9,5.4-13.1-69.8,28.9-5.4,2.1,11-18,3.4-.1-.2Z"/>
  </g>
  <g>
    <line class="cls-2" x1="116.64" y1="56.74" x2="116.64" y2="56.84"/>
    <line class="cls-1" x1="117.24" y1="59.74" x2="151.24" y2="241.24"/>
    <line class="cls-2" x1="151.54" y1="242.64" x2="151.54" y2="242.74"/>
  </g>
  <path class="cls-4" d="M25.84,95.04l2.6,8.8,1.4-1.5c.3-.3.4-.7.4-1.1l-.6-9.6c4.7-4.4,5.7-6.5,4.9-7.3s-2.9-.1-7.7,4.2l-9.5-1.4c-.4,0-.8,0-1.1.3l-1.6,1.2,8.5,3.4c-2,2.1-3.8,4.1-4.9,5.6l-3.8-.7-1,.9,3.2,1.9c-.3.4-.3.8-.2,1,.2.2.6.2,1,0l1.6,3.4,1-.9-.4-3.9c1.6-.9,3.8-2.5,6.1-4.3h.1Z"/>
  <g>
    <path class="cls-4" d="M326.74,40.04l-2.4.4v2.5l-1.4.3.3-11.9,1.3-.3,4.5,11-1.4.3-.9-2.3h0ZM326.24,38.74l-1.9-4.7v5.1l1.9-.3v-.1Z"/>
    <path class="cls-4" d="M335.84,40.84l-1.5.3-2.4-4.5h-.8c0,.1.9,4.9.9,4.9l-1.4.3-2.1-11.4,2.6-.5c.7-.1,1.4,0,1.9.3.6.4,1,1,1.2,1.9l.2,1.3c.2.9,0,1.6-.4,2.2-.2.2-.4.5-.7.6l2.5,4.6h0ZM332.94,34.64c.2-.2.2-.6.1-1l-.2-1.3c0-.4-.2-.8-.5-.9-.2-.2-.6-.2-1-.1l-1.2.2.7,3.9,1.2-.2c.4,0,.7-.2.8-.5l.1-.1Z"/>
    <path class="cls-4" d="M337.64,40.44l-2.1-11.4,2.3-.4c.8-.1,1.4,0,1.9.3.6.4,1,1,1.2,1.9l.2,1.1v1.1c0,.3-.2.6-.4.9.8.3,1.2,1,1.4,1.9l.2,1.1c.2.9,0,1.6-.4,2.2-.4.5-1,.8-1.7.9l-2.6.5v-.1ZM337.74,33.84l.9-.2c.4,0,.7-.2.8-.5.2-.2.2-.6.1-1l-.2-1.1c0-.4-.2-.7-.5-.9-.2-.2-.5-.2-1-.1l-.9.2.7,3.6h.1ZM338.04,35.24l.7,3.6,1.2-.2c.4,0,.7-.2.8-.4.2-.2.2-.6.1-1.1l-.2-1.1c0-.4-.2-.8-.5-.9-.2-.2-.6-.2-1-.1l-1.2.2h.1Z"/>
    <path class="cls-4" d="M347.84,36.14l-2.4.4v2.5l-1.4.3.3-11.9,1.3-.3,4.5,11-1.4.3-.9-2.3h0ZM347.34,34.74l-1.9-4.7v5.1l1.9-.3v-.1Z"/>
    <path class="cls-4" d="M353.94,37.54c-.7.1-1.4,0-1.9-.3-.6-.4-1-1-1.2-1.9l-.3-1.5,1.4-.3.3,1.5c0,.4.2.8.5.9.2.2.6.2,1,.1s.7-.2.8-.5c.1-.2.2-.6.1-1l-1.7-8.9,1.4-.3,1.7,8.9c.2.9,0,1.6-.4,2.2-.4.5-1,.8-1.7,1v.1Z"/>
    <path class="cls-4" d="M357.94,26.24l.7,3.5,2.2-.4.3,1.4-2.2.4.7,3.8,3.1-.6.3,1.4-4.5.8-2.1-11.4,4.5-.8.3,1.4-3.1.6-.2-.1Z"/>
    <path class="cls-4" d="M371.44,31.74l-2.4.4v2.5l-1.4.3.3-11.9,1.3-.3,4.5,11-1.4.3-.9-2.3h0ZM370.94,30.34l-1.9-4.7v5.1l1.9-.3v-.1Z"/>
    <path class="cls-4" d="M377.94,32.94l-2.6.5-2.1-11.4,2.6-.5c.7-.1,1.4,0,1.9.3.6.4,1,1,1.2,1.9l1.1,6.1c.2.9,0,1.6-.4,2.2-.4.5-.9.8-1.7.9ZM376.44,31.74l1.2-.2c.4,0,.7-.2.8-.4.2-.2.2-.6.1-1.1l-1.1-6.1c0-.4-.2-.8-.5-.9-.2-.2-.6-.2-1-.1l-1.2.2,1.6,8.7.1-.1Z"/>
    <path class="cls-4" d="M385.84,19.64l-.2,11.9-1.4.3-4.5-11,1.4-.3,3.3,8.4v-9l1.4-.3Z"/>
    <path class="cls-4" d="M389.04,20.44l.7,3.5,2.2-.4.3,1.4-2.2.4.7,3.8,3.1-.6.3,1.4-4.5.8-2.1-11.4,4.5-.8.3,1.4-3.1.6-.2-.1Z"/>
    <path class="cls-4" d="M397.24,29.34l-1.4.3-2.1-11.4h.8c0-.1,4.5,6.2,4.5,6.2l-1.3-6.9,1.4-.3,2.1,11.4h-.8c0,.1-4.5-6.2-4.5-6.2l1.3,6.9Z"/>
    <path class="cls-4" d="M406.04,17.24l-1.9.4,1.9,10-1.4.3-1.9-10-1.9.4-.3-1.4,5.2-1,.3,1.4v-.1Z"/>
    <path class="cls-4" d="M412.04,26.74c-.8.1-1.4,0-1.9-.3-.6-.4-1-1-1.2-1.9l-1.7-8.9,1.4-.3,1.7,8.9c0,.4.2.8.5.9.2.2.6.2,1,.1.4,0,.7-.2.8-.5.2-.2.2-.6.1-1l-1.7-8.9,1.4-.3,1.7,8.9c.2.9,0,1.6-.4,2.2-.2.2-.4.5-.7.6-.3.2-.6.3-1,.4v.1Z"/>
    <path class="cls-4" d="M421.64,24.74l-1.5.3-2.4-4.5h-.8c0,.1.9,4.9.9,4.9l-1.4.3-2.1-11.4,2.6-.5c.7-.1,1.4,0,1.9.3.6.4,1,1,1.2,1.9l.2,1.3c.2.9,0,1.6-.4,2.2-.2.2-.4.5-.7.6l2.5,4.6h0ZM418.74,18.54c.2-.2.2-.6.1-1l-.2-1.3c0-.4-.2-.8-.5-.9s-.6-.2-1-.1l-1.2.2.7,3.9,1.2-.2c.4,0,.7-.2.8-.5l.1-.1Z"/>
    <path class="cls-4" d="M422.94,14.04l.7,3.5,2.2-.4.3,1.4-2.2.4.7,3.8,3.1-.6.3,1.4-4.5.8-2.1-11.4,4.5-.8.3,1.4-3.1.6-.2-.1Z"/>
  </g>
</svg>