<?xml version="1.0" encoding="UTF-8"?>
<svg id="Layer_1" data-name="Layer 1" xmlns="http://www.w3.org/2000/svg" viewBox="0 0 131.9 126.51">
  <defs>
    <style>
      .cls-1 {
        fill: #0963c9;
      }
    </style>
  </defs>
  <path class="cls-1" d="M78.6,7.91l1.2,5.6c-1.1.6-1.9,1.5-2.6,2.6l-7.4,1.5-1.4-6.9-28.3,5.8,1.4,6.9-7.4,1.5c-1-.7-2.1-1.2-3.4-1.3l-1.2-5.6c-1.1-5.4,2.3-10.6,7.7-11.7L66.8.21c5.4-1.1,10.6,2.3,11.7,7.7h.1ZM11.3,33.11C3.7,34.71-1.3,42.11.3,49.81l2,9.9c7.7-1.9,13.7-7.1,16.8-13.9l-2.5-11.9c-.1-.6-.2-1.3-.1-1.9l-5.3,1.1h.1ZM101.5,14.61l-5.3,1.1c.3.5.5,1.2.6,1.8l2.5,11.9c5.5,5,13.1,7.4,20.9,6.1l-2-9.9c-1.6-7.6-9-12.6-16.7-11h0ZM83.3,68.61c-6.1,1.2-10,7.2-8.8,13.3,1.3,6.1,7.3,10,13.3,8.8.8-.2,1.6-.4,2.4-.8l-4.4-21.5c-.8,0-1.6,0-2.5.2h0ZM62.4,63.91l-16.1,9.8-3.9-18.7,10.6-6.4c.2-.2.5-.2.8-.3,1-.2,2.1.2,2.7,1.2l6.7,11.1c.7,1.2.3,2.8-.9,3.5h0l.1-.2ZM62.4,63.91l-16.1,9.8-3.9-18.7,10.6-6.4c.2-.2.5-.2.8-.3,1-.2,2.1.2,2.7,1.2l6.7,11.1c.7,1.2.3,2.8-.9,3.5h0l.1-.2ZM20.2,51.01l11.4,55.3c-5.9-3.9-13.2-5.6-20.5-4.3L3.1,63.11c7.3-1.7,13.3-6.2,17.2-12.1h-.1ZM62.4,63.91l-16.1,9.8-3.9-18.7,10.6-6.4c.2-.2.5-.2.8-.3,1-.2,2.1.2,2.7,1.2l6.7,11.1c.7,1.2.3,2.8-.9,3.5h0l.1-.2ZM120.9,38.81l8,38.9c-7.3,1.8-13.3,6.2-17.2,12.1l-11.4-55.3c5.9,3.9,13.2,5.6,20.6,4.3h0ZM71.2,82.61c1.6,7.9,9.4,13.1,17.4,11.4.8-.2,1.6-.4,2.4-.7l3.7,17.8c.1.6.3,1.3.6,1.8l-39.3,8.1c0-.6,0-1.3-.1-1.9l-8.6-41.9,17.1-10.4c2.8-1.7,3.7-5.4,2-8.2l-6.7-11.1c-1.7-2.8-5.4-3.7-8.2-2l-9.5,5.8-4.5-21.6c-.1-.6-.3-1.3-.6-1.8l39.3-8.1c0,.6,0,1.3.1,1.9l8.9,43.2c-.8,0-1.6,0-2.5.3-7.9,1.6-13.1,9.4-11.4,17.4h-.1ZM62.4,63.91l-16.1,9.8-3.9-18.7,10.6-6.4c.2-.2.5-.2.8-.3,1-.2,2.1.2,2.7,1.2l6.7,11.1c.7,1.2.3,2.8-.9,3.5h0l.1-.2ZM62.4,63.91l-16.1,9.8-3.9-18.7,10.6-6.4c.2-.2.5-.2.8-.3,1-.2,2.1.2,2.7,1.2l6.7,11.1c.7,1.2.3,2.8-.9,3.5h0l.1-.2ZM35.7,125.11l-5.3,1.1c-7.6,1.6-15.1-3.3-16.7-10.9l-2-9.9c7.8-1.3,15.4,1.1,20.9,6.1l2.5,11.9c.1.6.3,1.3.6,1.8h0v-.1ZM129.6,81.11l2,9.9c1.6,7.6-3.4,15.1-11,16.6l-5.3,1.1c0-.6,0-1.3-.1-1.9l-2.4-11.9c3.1-6.7,9.1-12,16.8-13.9h0v.1ZM62.4,63.91l-16.1,9.8-3.9-18.7,10.6-6.4c.2-.2.5-.2.8-.3,1-.2,2.1.2,2.7,1.2l6.7,11.1c.7,1.2.3,2.8-.9,3.5h0l.1-.2ZM62.4,63.91l-16.1,9.8-3.9-18.7,10.6-6.4c.2-.2.5-.2.8-.3,1-.2,2.1.2,2.7,1.2l6.7,11.1c.7,1.2.3,2.8-.9,3.5h0l.1-.2ZM28.8,27.01l-5.4,1.1c-2.3.5-3.9,2.8-3.4,5.1l18.4,89.4c.5,2.3,2.8,3.8,5.1,3.4l5.4-1.1c2.3-.5,3.9-2.8,3.4-5.1L33.9,30.41c-.5-2.3-2.8-3.9-5.1-3.4h0ZM88.3,14.81l-5.4,1.1c-2.3.5-3.9,2.8-3.4,5.1l18.4,89.4c.5,2.3,2.8,3.9,5.1,3.4l5.4-1.1c2.3-.5,3.9-2.8,3.4-5.1l-18.4-89.4c-.5-2.3-2.8-3.9-5.1-3.4h0Z"/>
</svg>