<?xml version="1.0" encoding="UTF-8"?>
<svg id="Layer_1" data-name="Layer 1" xmlns="http://www.w3.org/2000/svg" viewBox="0 0 155.18 149.9">
  <defs>
    <style>
      .cls-1 {
        fill: #233695;
      }

      .cls-2 {
        fill: #fff;
      }
    </style>
  </defs>
  <path class="cls-2" d="M39.24,149.9c-12.2,0-22.8-8.6-25.2-20.5L.54,63.9c-2.9-13.9,6.1-27.6,20.1-30.5l4.3-.9c1.3-1.3,2.9-2.3,4.6-3.1-.9-10.7,6.3-20.7,17.1-22.9L76.24.4c1.4-.3,2.9-.4,4.4-.4,9.3,0,17.5,6,20.4,14.7,1.9,0,3.7.4,5.4,1l4.3-.9c1.7-.4,3.5-.5,5.2-.5,12.2,0,22.8,8.7,25.2,20.6l4.5,21.8h0l9,43.7c1.4,6.7,0,13.6-3.7,19.4-3.8,5.7-9.6,9.7-16.3,11.1l-4.3.9c-2.2,2.1-4.9,3.5-7.9,4.1l-5.4,1.1c-1.1.2-2.1.3-3.2.3h0c-2,0-3.8-.4-5.6-1l-37.5,7.7c-2.1,2-4.8,3.5-7.8,4.1l-5.4,1.1c-1.1.2-2.2.3-3.2.3h0c-2,0-3.8-.4-5.6-1l-4.3.9c-1.7.4-3.5.5-5.2.5h0Z"/>
  <path class="cls-1" d="M90.24,19.6l1.2,5.6c-1.1.6-1.9,1.5-2.6,2.6l-7.4,1.5-1.4-6.9-28.3,5.8,1.4,6.9-7.4,1.5c-1-.7-2.1-1.2-3.4-1.3l-1.2-5.6c-1.1-5.4,2.3-10.6,7.7-11.7l29.6-6.1c5.4-1.1,10.6,2.3,11.7,7.7h.1ZM22.94,44.9c-7.6,1.6-12.6,9-11,16.7l2,9.9c7.7-1.9,13.7-7.1,16.8-13.9l-2.5-11.9c-.1-.6-.2-1.3-.1-1.9l-5.3,1.1h.1ZM113.14,26.3l-5.3,1.1c.3.5.5,1.2.6,1.8l2.5,11.9c5.5,5,13.1,7.4,20.9,6.1l-2-9.9c-1.6-7.6-9-12.6-16.7-11h0ZM94.94,80.3c-6.1,1.2-10,7.2-8.8,13.3,1.3,6.1,7.3,10,13.3,8.8.8-.2,1.6-.4,2.4-.8l-4.4-21.5c-.8,0-1.6,0-2.5.2h0ZM74.04,75.6l-16.1,9.8-3.9-18.7,10.6-6.4c.2-.2.5-.2.8-.3,1-.2,2.1.2,2.7,1.2l6.7,11.1c.7,1.2.3,2.8-.9,3.5h0l.1-.2ZM74.04,75.6l-16.1,9.8-3.9-18.7,10.6-6.4c.2-.2.5-.2.8-.3,1-.2,2.1.2,2.7,1.2l6.7,11.1c.7,1.2.3,2.8-.9,3.5h0l.1-.2ZM31.84,62.8l11.4,55.3c-5.9-3.9-13.2-5.6-20.5-4.3l-8-38.9c7.3-1.7,13.3-6.2,17.2-12.1h-.1ZM74.04,75.6l-16.1,9.8-3.9-18.7,10.6-6.4c.2-.2.5-.2.8-.3,1-.2,2.1.2,2.7,1.2l6.7,11.1c.7,1.2.3,2.8-.9,3.5h0l.1-.2ZM132.54,50.6l8,38.9c-7.3,1.8-13.3,6.2-17.2,12.1l-11.4-55.3c5.9,3.9,13.2,5.6,20.6,4.3h0ZM82.84,94.3c1.6,7.9,9.4,13.1,17.4,11.4.8-.2,1.6-.4,2.4-.7l3.7,17.8c.1.6.3,1.3.6,1.8l-39.3,8.1c0-.6,0-1.3-.1-1.9l-8.6-41.9,17.1-10.4c2.8-1.7,3.7-5.4,2-8.2l-6.7-11.1c-1.7-2.8-5.4-3.7-8.2-2l-9.5,5.8-4.5-21.6c-.1-.6-.3-1.3-.6-1.8l39.3-8.1c0,.6,0,1.3.1,1.9l8.9,43.2c-.8,0-1.6,0-2.5.3-7.9,1.6-13.1,9.4-11.4,17.4h-.1ZM74.04,75.6l-16.1,9.8-3.9-18.7,10.6-6.4c.2-.2.5-.2.8-.3,1-.2,2.1.2,2.7,1.2l6.7,11.1c.7,1.2.3,2.8-.9,3.5h0l.1-.2ZM74.04,75.6l-16.1,9.8-3.9-18.7,10.6-6.4c.2-.2.5-.2.8-.3,1-.2,2.1.2,2.7,1.2l6.7,11.1c.7,1.2.3,2.8-.9,3.5h0l.1-.2ZM47.34,136.9l-5.3,1.1c-7.6,1.6-15.1-3.3-16.7-10.9l-2-9.9c7.8-1.3,15.4,1.1,20.9,6.1l2.5,11.9c.1.6.3,1.3.6,1.8h0v-.1ZM141.24,92.8l2,9.9c1.6,7.6-3.4,15.1-11,16.6l-5.3,1.1c0-.6,0-1.3-.1-1.9l-2.4-11.9c3.1-6.7,9.1-12,16.8-13.9h0v.1ZM74.04,75.6l-16.1,9.8-3.9-18.7,10.6-6.4c.2-.2.5-.2.8-.3,1-.2,2.1.2,2.7,1.2l6.7,11.1c.7,1.2.3,2.8-.9,3.5h0l.1-.2ZM74.04,75.6l-16.1,9.8-3.9-18.7,10.6-6.4c.2-.2.5-.2.8-.3,1-.2,2.1.2,2.7,1.2l6.7,11.1c.7,1.2.3,2.8-.9,3.5h0l.1-.2ZM40.44,38.8l-5.4,1.1c-2.3.5-3.9,2.8-3.4,5.1l18.4,89.4c.5,2.3,2.8,3.8,5.1,3.4l5.4-1.1c2.3-.5,3.9-2.8,3.4-5.1l-18.4-89.4c-.5-2.3-2.8-3.9-5.1-3.4h0ZM99.94,26.5l-5.4,1.1c-2.3.5-3.9,2.8-3.4,5.1l18.4,89.4c.5,2.3,2.8,3.9,5.1,3.4l5.4-1.1c2.3-.5,3.9-2.8,3.4-5.1l-18.4-89.4c-.5-2.3-2.8-3.9-5.1-3.4h0Z"/>
</svg>