<?xml version="1.0" encoding="UTF-8"?>
<svg id="Layer_1" data-name="Layer 1" xmlns="http://www.w3.org/2000/svg" viewBox="0 0 155.18 149.9">
  <defs>
    <style>
      .cls-1 {
        fill: #0963c9;
      }

      .cls-2 {
        fill: #fff;
      }
    </style>
  </defs>
  <path class="cls-1" d="M39.24,149.9c-12.2,0-22.8-8.6-25.2-20.5L.54,63.9c-2.9-13.9,6.1-27.6,20.1-30.5l4.3-.9c1.4-1.3,2.9-2.3,4.6-3.1-.9-10.7,6.3-20.7,17.1-22.9L76.24.4c1.4-.3,2.9-.4,4.4-.4,9.3,0,17.5,6,20.4,14.7,1.9,0,3.7.4,5.4,1l4.3-.9c1.7-.4,3.5-.5,5.2-.5,12.2,0,22.8,8.7,25.2,20.6l4.5,21.8h0l9,43.7c1.4,6.7,0,13.6-3.7,19.4-3.8,5.7-9.6,9.7-16.3,11.1l-4.3.9c-2.2,2.1-4.9,3.5-7.9,4.1l-5.4,1.1c-1.1.2-2.2.3-3.2.3h0c-2,0-3.8-.4-5.6-1l-37.5,7.7c-2.1,2-4.8,3.5-7.8,4.1l-5.4,1.1c-1.1.2-2.2.3-3.2.3h0c-2,0-3.8-.4-5.6-1l-4.3.9c-1.7.4-3.5.5-5.2.5h0Z"/>
  <path class="cls-2" d="M39.24,138.8c-2.8,0-5.6-.8-8.1-2.4-3.3-2.2-5.5-5.5-6.3-9.3l-2.2-10.5h.6c7.8-1.4,15.6.9,21.4,6.2h.1c0,.1,2.5,12.2,2.5,12.2.1.6.3,1.2.6,1.6l.4.7-6,1.2c-1,.2-2,.3-3,.3ZM24.04,117.5l1.9,9.3c.7,3.5,2.8,6.6,5.8,8.5,3,2,6.6,2.7,10.2,1.9l4.5-.9c-.1-.4-.3-.8-.4-1.3l-2.4-11.7c-5.4-4.8-12.5-7-19.7-5.9l.1.1ZM54.34,138.4c-2.3,0-4.3-1.6-4.8-3.9L31.14,45.1c-.3-1.3,0-2.6.7-3.7.7-1.1,1.8-1.8,3.1-2.1l5.4-1.1c1.3-.3,2.6,0,3.7.7,1.1.7,1.8,1.8,2.1,3.1l18.4,89.4c.5,2.7-1.2,5.3-3.8,5.8l-5.4,1.1c-.3,0-.7.1-1,.1h0ZM41.34,39.2h-.8l-5.4,1.1c-1,.2-1.8.8-2.4,1.6-.6.8-.7,1.8-.5,2.8l18.4,89.4c.4,2,2.4,3.3,4.4,2.9l5.4-1.1c2-.4,3.3-2.4,2.9-4.4l-18.4-89.4c-.2-1-.8-1.8-1.6-2.4-.6-.4-1.3-.6-2.1-.6l.1.1ZM66.84,133.4v-.8c.1-.5,0-1.1,0-1.7l-8.7-42.3,17.5-10.6c1.2-.7,2.1-1.9,2.4-3.3s.1-2.8-.6-4.1l-6.7-11.1c-.7-1.2-1.9-2.1-3.3-2.4-1.4-.3-2.9-.1-4.1.6l-10.2,6.2-4.6-22.4c-.1-.6-.3-1.2-.6-1.6l-.4-.7,40.9-8.4v.8c-.1.5,0,1.1,0,1.7l9.1,44h-.7c-.7,0-1.5,0-2.3.2-7.6,1.6-12.6,9.1-11,16.7,1.6,7.6,9.1,12.6,16.7,11,.9-.2,1.6-.4,2.3-.7l.7-.3,3.8,18.5c.1.6.3,1.2.6,1.6l.4.7-40.9,8.4h-.3ZM59.44,89.2l8.5,41.5c0,.5.2.9.2,1.3l37.9-7.8c-.1-.4-.3-.8-.4-1.3l-3.5-17.1c-.6.2-1.2.4-1.8.5-8.3,1.7-16.4-3.6-18.1-11.9h0c-1.7-8.3,3.6-16.4,11.9-18.1.7-.1,1.3-.2,1.9-.3l-8.8-42.6c0-.5-.2-.9-.2-1.3l-37.9,7.8c.1.4.3.8.4,1.3l4.3,20.8,8.8-5.4c1.5-.9,3.3-1.2,5-.8s3.1,1.5,4,3l6.7,11.1c.9,1.5,1.2,3.2.8,4.9-.4,1.7-1.5,3.1-3,4l-16.8,10.2.1.2ZM113.84,126.1c-2.3,0-4.3-1.6-4.8-3.9l-18.4-89.4c-.3-1.3,0-2.6.7-3.7.7-1.1,1.8-1.8,3.1-2.1l5.4-1.1c1.3-.3,2.6,0,3.7.7s1.8,1.8,2.1,3.1l18.4,89.4c.3,1.3,0,2.6-.7,3.7-.7,1.1-1.8,1.8-3.1,2.1l-5.4,1.1c-.3,0-.7.1-1,.1h0ZM100.84,26.9h-.8l-5.4,1.1c-1,.2-1.8.8-2.4,1.6s-.7,1.8-.5,2.8l18.4,89.4c.4,2,2.4,3.3,4.4,2.9l5.4-1.1c1-.2,1.8-.8,2.4-1.6s.7-1.8.5-2.8l-18.4-89.4c-.2-1-.8-1.8-1.6-2.4-.6-.4-1.3-.6-2.1-.6l.1.1ZM126.44,121.1v-.8c.1-.5,0-1.1,0-1.7l-2.5-12.1v-.2c3.3-7.2,9.6-12.4,17.3-14.2h.6c0-.1,2.2,10.4,2.2,10.4.8,3.8,0,7.8-2.1,11-2.2,3.3-5.5,5.5-9.3,6.3l-6,1.2-.2.1ZM125.04,106.7l2.4,11.7c0,.5.2.9.2,1.3l4.5-.9c3.5-.7,6.6-2.8,8.6-5.8s2.7-6.6,2-10.1l-1.9-9.3c-7,1.9-12.7,6.7-15.7,13.2l-.1-.1ZM44.04,119.2l-1.2-.8c-5.9-3.9-13.1-5.4-20.1-4.2h-.6l-8.2-39.9h.6c6.9-1.8,12.9-6,16.8-12l.8-1.2,12,58-.1.1ZM27.54,112.7c5.2,0,10.3,1.4,14.8,4.1l-10.8-52.6c-4,5.5-9.6,9.4-16.2,11.1l7.8,37.8c1.5-.2,3-.3,4.4-.3v-.1ZM97.24,103.1c-5.5,0-10.5-3.9-11.6-9.5-.6-3.1,0-6.3,1.7-8.9,1.7-2.6,4.4-4.5,7.5-5.1h0c.9-.2,1.8-.3,2.6-.2h.4l4.6,22.4-.4.2c-.8.4-1.7.6-2.5.8s-1.6.2-2.4.2l.1.1ZM95.04,80.8h0c-2.8.6-5.2,2.2-6.8,4.6-1.6,2.4-2.1,5.2-1.6,8,1.2,5.8,6.9,9.5,12.6,8.3.6-.1,1.2-.3,1.8-.5l-4.2-20.6c-.6,0-1.2,0-1.9.2h.1ZM123.14,103l-12-58,1.2.8c6,4,13.1,5.5,20.1,4.2h.6l8.2,39.9h-.5c-7,1.8-12.9,6-16.8,12l-.8,1.2v-.1ZM112.84,47.4l10.8,52.6c3.9-5.4,9.6-9.3,16.2-11l-7.8-37.8c-6.7,1-13.4-.3-19.3-3.8h.1ZM57.64,86.3l-4.1-20,10.9-6.6c.3-.2.6-.3,1-.4,1.3-.3,2.6.3,3.3,1.4l6.7,11.1c.3.5.4,1.1.4,1.6,0,1.1-.5,2.1-1.5,2.7l-16.8,10.2h.1ZM54.84,66.9l3.6,17.5,15.4-9.3c.6-.4.9-1,.9-1.7,0-.3,0-.7-.3-1l-6.7-11.1c-.4-.7-1.3-1.1-2-.9-.3,0-.5.1-.6.2l-10.2,6.2-.1.1ZM13.54,72.1l-2.2-10.5c-1.6-7.9,3.5-15.7,11.4-17.4l6-1.2v.8c-.1.5,0,1.1,0,1.7l2.5,12.1v.2c-3.3,7.2-9.6,12.3-17.3,14.2h-.6l.2.1ZM23.04,45.4h0c-7.3,1.5-12,8.7-10.5,16l1.9,9.3c7-1.9,12.7-6.7,15.7-13.2l-2.4-11.7c0-.5-.2-.9-.2-1.3l-4.5.9ZM127.64,48.1c-6.3,0-12.3-2.3-17.1-6.6h-.1c0-.1-2.5-12.2-2.5-12.2-.1-.6-.3-1.2-.6-1.6l-.4-.7,6-1.2c3.8-.8,7.8,0,11.1,2.1,3.3,2.2,5.5,5.5,6.3,9.3l2.2,10.5h-.6c-1.4.3-2.9.5-4.3.5v-.1ZM111.44,40.7c5.4,4.8,12.5,7,19.7,5.9l-1.9-9.3c-.7-3.5-2.8-6.6-5.8-8.6s-6.6-2.7-10.2-1.9l-4.5.9c.1.4.3.8.4,1.3l2.4,11.7h-.1ZM45.64,37.2h-.2c-.9-.8-2-1.2-3.1-1.4h-.4l-1.2-6.1c-1.2-5.7,2.5-11.2,8.1-12.4l29.6-6.1c2.7-.6,5.5,0,7.9,1.5,2.3,1.5,3.9,3.9,4.5,6.6l1.2,6-.4.2c-1,.6-1.8,1.4-2.4,2.4v.2c-.1,0-8.3,1.7-8.3,1.7l-1.4-6.9-27.1,5.6,1.4,6.9-8.2,1.7v.1ZM42.94,34.8c1.1.2,2.1.6,3,1.2l6.6-1.4-1.4-6.9,29.4-6.1,1.4,6.9,6.6-1.4c.6-.9,1.4-1.7,2.3-2.3l-1.1-5.2c-.5-2.4-1.9-4.5-4-5.9s-4.6-1.8-7-1.3l-29.6,6.1c-5,1-8.3,6-7.2,11l1.1,5.2-.1.1Z"/>
</svg>