<?xml version="1.0" encoding="UTF-8"?>
<svg id="Layer_1" data-name="Layer 1" xmlns="http://www.w3.org/2000/svg" viewBox="0 0 133.2 127.83">
  <defs>
    <style>
      .cls-1 {
        fill: #fbcd52;
      }
    </style>
  </defs>
  <path class="cls-1" d="M28.09,127.83c-2.8,0-5.6-.8-8.1-2.4-3.3-2.2-5.5-5.5-6.3-9.3l-2.2-10.5h.6c7.8-1.4,15.6.9,21.4,6.1h.1v.3l2.5,11.9c.1.6.3,1.2.6,1.6l.4.7-6,1.2c-1,.2-2,.3-3,.3v.1ZM12.99,106.53l1.9,9.3c.7,3.5,2.8,6.6,5.8,8.5,3,2,6.6,2.7,10.2,1.9l4.5-.9c-.1-.4-.3-.8-.4-1.3l-2.4-11.7c-5.4-4.8-12.6-7-19.7-5.9l.1.1ZM43.29,127.43c-2.3,0-4.3-1.6-4.8-3.9L20.09,34.13c-.3-1.3,0-2.6.7-3.7.7-1.1,1.8-1.8,3.1-2.1l5.4-1.1c1.3-.3,2.6,0,3.7.7s1.8,1.8,2.1,3.1l18.4,89.4c.5,2.7-1.2,5.3-3.8,5.8l-5.4,1.1c-.3,0-.7.1-1,.1h0ZM30.29,28.23h-.8l-5.4,1.1c-1,.2-1.8.8-2.4,1.6s-.7,1.8-.5,2.8l18.4,89.4c.4,2,2.4,3.3,4.4,2.9l5.4-1.1c2-.4,3.3-2.4,2.9-4.4L33.89,31.13c-.2-1-.8-1.8-1.6-2.4-.6-.4-1.3-.6-2.1-.6l.1.1ZM55.79,122.43v-.8c.1-.5,0-1.1,0-1.7l-8.7-42.3,17.5-10.6c1.2-.7,2.1-1.9,2.4-3.3.3-1.4.1-2.8-.6-4.1l-6.7-11.1c-.7-1.2-1.9-2.1-3.3-2.4-1.4-.3-2.9-.1-4.1.6l-10.2,6.2-4.6-22.4c-.1-.6-.3-1.2-.6-1.6l-.4-.7,40.9-8.4v.8c-.1.5,0,1.1,0,1.7l9.1,44h-.7c-.7,0-1.5,0-2.3.2-7.6,1.6-12.6,9.1-11,16.7,1.6,7.6,9.1,12.6,16.7,11,.9-.2,1.6-.4,2.3-.7l.7-.3,3.8,18.5c.1.6.3,1.2.6,1.6l.4.7-40.9,8.4h-.3ZM48.29,78.23l8.5,41.5c0,.5.2.9.2,1.3l37.9-7.8c-.1-.4-.3-.8-.4-1.3l-3.5-17.1c-.6.2-1.2.4-1.8.5-8.3,1.7-16.4-3.6-18.1-11.9h0c-1.7-8.3,3.6-16.4,11.9-18.1.7-.1,1.3-.2,1.9-.3l-8.8-42.6c0-.5-.2-.9-.2-1.3l-37.9,7.8c.1.4.3.8.4,1.3l4.3,20.8,8.8-5.4c1.5-.9,3.2-1.2,5-.8,1.7.4,3.1,1.5,4,3l6.7,11.1c.9,1.5,1.2,3.2.8,4.9-.4,1.7-1.5,3.1-3,4l-16.8,10.2.1.2ZM102.79,115.13c-1,0-1.9-.3-2.7-.8-1.1-.7-1.8-1.8-2.1-3.1l-18.4-89.4c-.3-1.3,0-2.6.7-3.7.7-1.1,1.8-1.8,3.1-2.1l5.4-1.1c1.3-.3,2.6,0,3.7.7s1.8,1.8,2.1,3.1l18.4,89.4c.3,1.3,0,2.6-.7,3.7-.7,1.1-1.8,1.8-3.1,2.1l-5.4,1.1c-.3,0-.7.1-1,.1ZM89.79,15.93h-.8l-5.4,1.1c-1,.2-1.8.8-2.4,1.6s-.7,1.8-.5,2.8l18.4,89.4c.4,2,2.4,3.3,4.4,2.9l5.4-1.1c1-.2,1.8-.8,2.4-1.6s.7-1.8.5-2.8l-18.4-89.4c-.2-1-.8-1.8-1.6-2.4-.6-.4-1.3-.6-2.1-.6l.1.1ZM115.29,110.13v-.8c.1-.5,0-1.1,0-1.7l-2.5-12.1v-.2c3.3-7.2,9.6-12.4,17.3-14.2h.6c0-.1,2.2,10.4,2.2,10.4.8,3.8,0,7.8-2.1,11-2.2,3.3-5.5,5.5-9.3,6.3l-6,1.2-.2.1ZM113.99,95.73l2.4,11.7c0,.5.2.9.2,1.3l4.5-.9c3.5-.7,6.6-2.8,8.6-5.8s2.7-6.6,2-10.1l-1.9-9.3c-7,1.9-12.7,6.7-15.7,13.2l-.1-.1ZM32.99,108.23l-1.2-.8c-5.9-3.9-13.1-5.4-20.1-4.2h-.6L2.89,63.33h.6c6.9-1.8,12.9-6,16.8-12l.8-1.2,12,58-.1.1ZM16.49,101.63c5.2,0,10.3,1.4,14.8,4.1l-10.8-52.6c-4,5.5-9.6,9.4-16.2,11.1l7.8,37.8c1.5-.2,3-.3,4.4-.3v-.1ZM86.19,92.13c-5.5,0-10.5-3.9-11.6-9.5-.6-3.1,0-6.3,1.7-8.9,1.7-2.6,4.4-4.5,7.5-5.1h0c.9-.2,1.8-.3,2.6-.2h.4l4.6,22.4-.4.2c-.8.4-1.7.6-2.5.8s-1.6.2-2.4.2l.1.1ZM83.99,69.83c-2.8.6-5.2,2.2-6.8,4.6-1.6,2.4-2.1,5.2-1.6,8,1.2,5.8,6.9,9.5,12.6,8.3.6-.1,1.2-.3,1.8-.5l-4.2-20.6h0c-.6,0-1.2,0-1.9.2h.1ZM111.99,91.93l-12-58,1.2.8c6,4,13.1,5.5,20.1,4.2h.6l8.2,39.9h-.5c-7,1.8-12.9,6-16.8,12l-.8,1.2v-.1ZM101.79,36.43l10.8,52.6c3.9-5.4,9.6-9.3,16.2-11l-7.8-37.8c-6.7,1.1-13.4-.3-19.2-3.8ZM46.59,75.23l-4.1-20,10.9-6.6c.3-.2.6-.3,1-.4,1.3-.3,2.6.3,3.3,1.4l6.7,11.1c.3.5.4,1.1.4,1.6,0,1.1-.5,2.1-1.5,2.7l-16.8,10.2h.1ZM43.69,55.83l3.6,17.5,15.4-9.3c.6-.4.9-1,.9-1.7s0-.7-.3-1l-6.7-11.1c-.4-.7-1.3-1.1-2-.9-.3,0-.5.1-.6.2l-10.2,6.2-.1.1ZM2.49,61.13L.29,50.63c-1.6-7.9,3.5-15.7,11.4-17.4h0l6-1.2v.8c-.1.5,0,1.1,0,1.7l2.5,12.1v.2c-3.3,7.2-9.6,12.3-17.3,14.2h-.6l.2.1ZM11.99,34.43h0C4.69,35.93,0,43.13,1.49,50.43l1.9,9.3c7-1.9,12.7-6.7,15.7-13.2l-2.4-11.7c0-.5-.2-.9-.2-1.3l-4.5.9ZM116.59,37.03c-6.3,0-12.3-2.3-17.1-6.6h-.1v-.3l-2.5-11.9c-.1-.6-.3-1.2-.6-1.6l-.4-.7,6-1.2c3.9-.8,7.8,0,11.1,2.1,3.3,2.2,5.5,5.5,6.3,9.3l2.2,10.5h-.6c-1.4.3-2.9.5-4.3.5v-.1ZM100.39,29.73c5.4,4.8,12.5,7,19.7,5.9l-1.9-9.3c-.7-3.5-2.8-6.6-5.8-8.6s-6.6-2.7-10.2-1.9h0l-4.5.9c.1.4.3.8.4,1.3l2.4,11.7h-.1ZM34.59,26.23h-.2c-.9-.8-2-1.2-3.1-1.4h-.4l-1.2-6.1c-1.2-5.7,2.5-11.2,8.1-12.4L67.39.23c2.7-.6,5.5,0,7.9,1.5,2.3,1.5,3.9,3.9,4.5,6.6l1.2,6-.4.2c-1,.6-1.8,1.4-2.4,2.4v.2c-.1,0-8.3,1.7-8.3,1.7l-1.4-6.9-27.2,5.6,1.4,6.9-8.2,1.7.1.1ZM31.89,23.73c1.1.2,2.1.6,3,1.2l6.6-1.4-1.4-6.9,29.4-6.1,1.4,6.9,6.6-1.4c.6-.9,1.4-1.7,2.3-2.3l-1.1-5.2c-.5-2.4-1.9-4.5-4-5.9s-4.6-1.8-7-1.3l-29.6,6.1c-5,1-8.3,6-7.2,11l1.1,5.2-.1.1Z"/>
</svg>