<?xml version="1.0" encoding="UTF-8"?>
<svg id="Layer_1" data-name="Layer 1" xmlns="http://www.w3.org/2000/svg" viewBox="0 0 433.61 489.03">
  <defs>
    <style>
      .cls-1 {
        fill: #129269;
      }

      .cls-2 {
        fill: #dfdadc;
      }

      .cls-3 {
        fill: #fefefe;
      }

      .cls-4 {
        fill: #115d40;
      }
    </style>
  </defs>
  <path class="cls-2" d="M7.53,112.57L231.84,6.54c20.79-9.83,45.6-.87,55.39,19.83l142.4,301.24c9.83,20.79.87,45.6-19.83,55.39l-224.3,106.03L7.49,112.48h0l.04.09Z"/>
  <path class="cls-1" d="M.04,110.02L224.35,3.99c20.79-9.83,45.6-.87,55.39,19.83l142.4,301.24c9.83,20.79.87,45.6-19.83,55.39l-224.3,106.03L0,109.93h0l.04.09Z"/>
  <rect class="cls-3" x="181.11" y="346.47" width="193.9" height="12.9" transform="translate(-124.15 152.68) rotate(-25.3)"/>
  <rect class="cls-3" x="220.38" y="362.91" width="130.7" height="12.9" transform="translate(-130.44 157.54) rotate(-25.3)"/>
  <rect class="cls-4" x="88.48" y="87.3" width="12.1" height="416.5" transform="translate(-117.24 68.75) rotate(-25.3)"/>
  <g>
    <path class="cls-3" d="M95.62,182.38l-4.9,2.3-18.9-40.1,9.1-4.3c2.6-1.2,5-1.5,7.4-.8,2.6.8,4.6,2.8,6.1,6l2.1,4.5c1.5,3.1,1.7,5.9.7,8.4-.9,2.2-2.7,4-5.3,5.2l-4.2,2,7.9,16.7v.1ZM85.42,160.78l4.2-2c1.5-.7,2.3-1.5,2.7-2.6.3-1,.1-2.3-.6-3.9l-2.1-4.5c-.7-1.6-1.6-2.6-2.6-3s-2.3-.3-3.7.4l-4.2,2,6.4,13.6h-.1Z"/>
    <path class="cls-3" d="M120.22,160.58l-8.4,4,2.3,9.1-5,2.4-10.5-44.1,4.7-2.2,27.3,36.2-5,2.4-5.5-7.6.1-.2ZM117.02,156.18l-11.4-15.7,4.9,18.8,6.5-3.1h0Z"/>
    <path class="cls-3" d="M143.62,160.38c-1.3.6-2.5,1-3.8,1.1s-2.5,0-3.6-.3c-2.6-.8-4.7-2.8-6.2-5.9l-2.6-5.4,4.9-2.3,2.6,5.4c.7,1.6,1.6,2.6,2.6,3s2.3.3,3.7-.4c1.5-.7,2.3-1.6,2.7-2.6.3-1.1.1-2.4-.6-4l-1.2-2.6c-.5-1.1-1.1-1.9-1.7-2.5s-1.2-1-1.9-1.3c-.7-.3-1.4-.5-2.2-.6-.8,0-1.8-.2-3.1-.3-1.5-.1-2.8-.2-3.9-.4-1-.2-2.1-.5-3-.9-2.7-1.1-4.8-3.2-6.3-6.3l-.5-1.1c-1.5-3.1-1.7-5.9-.7-8.5.4-1.1,1.1-2.1,2-3s2-1.6,3.3-2.2c2.6-1.2,5.1-1.5,7.4-.8,2.6.9,4.7,2.8,6.2,5.9l1.7,3.7-4.9,2.3-1.7-3.7c-.7-1.6-1.6-2.6-2.7-3-1-.4-2.3-.3-3.7.4-1.5.7-2.3,1.6-2.7,2.6-.3,1.1-.1,2.4.6,3.9l.5,1.1c.8,1.8,2,3,3.5,3.6.7.3,1.4.5,2.1.6.7,0,1.8.2,3.1.3,1.4,0,2.7.2,3.8.4,1.1.2,2.2.5,3.2.9,2.8,1.1,4.9,3.2,6.4,6.4l1.2,2.6c1.5,3.1,1.7,6,.7,8.5-.9,2.2-2.7,4-5.3,5.2l.1.2Z"/>
    <path class="cls-3" d="M166.02,149.78c-1.3.6-2.5,1-3.8,1.1s-2.5,0-3.6-.3c-2.6-.8-4.7-2.8-6.2-5.9l-2.6-5.4,4.9-2.3,2.6,5.4c.7,1.6,1.6,2.6,2.6,3s2.3.3,3.7-.4c1.5-.7,2.3-1.6,2.7-2.6.3-1.1.1-2.4-.6-4l-1.2-2.6c-.5-1.1-1.1-1.9-1.7-2.5s-1.2-1-1.9-1.3c-.7-.3-1.4-.5-2.2-.6-.8,0-1.8-.2-3.1-.3-1.5-.1-2.8-.2-3.9-.4-1-.2-2.1-.5-3-.9-2.7-1.1-4.8-3.2-6.3-6.3l-.5-1.1c-1.5-3.1-1.7-5.9-.7-8.5.4-1.1,1.1-2.1,2-3s2-1.6,3.3-2.2c2.6-1.2,5.1-1.5,7.4-.8,2.6.9,4.7,2.8,6.2,5.9l1.7,3.7-4.9,2.3-1.7-3.7c-.7-1.6-1.6-2.6-2.7-3-1-.4-2.3-.3-3.7.4-1.5.7-2.3,1.6-2.7,2.6-.3,1.1-.1,2.4.6,3.9l.5,1.1c.8,1.8,2,3,3.5,3.6.7.3,1.4.5,2.1.6.7,0,1.8.2,3.1.3,1.4,0,2.7.2,3.8.4,1.1.2,2.2.5,3.2.9,2.8,1.1,4.9,3.2,6.4,6.4l1.2,2.6c1.5,3.1,1.7,6,.7,8.5-.9,2.2-2.7,4-5.3,5.2l.1.2Z"/>
    <path class="cls-3" d="M184.82,140.28l-4.9,2.3-18.9-40.1,9.1-4.3c2.6-1.2,5-1.5,7.4-.8,2.6.8,4.6,2.8,6.1,6l2.1,4.5c1.5,3.1,1.7,5.9.7,8.4-.9,2.2-2.7,4-5.3,5.2l-4.2,2,7.9,16.7v.1ZM174.62,118.68l4.2-2c1.5-.7,2.3-1.5,2.7-2.6.3-1,.1-2.3-.6-3.9l-2.1-4.5c-.7-1.6-1.6-2.6-2.6-3s-2.3-.3-3.7.4l-4.2,2,6.4,13.6h-.1Z"/>
    <path class="cls-3" d="M211.82,128.18c-2.6,1.2-5,1.5-7.4.8-2.6-.8-4.6-2.8-6.1-6l-10.5-22.2c-1.5-3.1-1.7-5.9-.7-8.5,1-2.3,2.7-4,5.3-5.2,2.6-1.2,5-1.5,7.4-.8,2.6.9,4.6,2.9,6.1,6l10.5,22.2c1.5,3.1,1.7,6,.7,8.5-1,2.3-2.7,4-5.3,5.2ZM194.72,91.88c-1.5.7-2.3,1.6-2.7,2.6-.3,1.1-.1,2.4.6,3.9l10.5,22.2c.7,1.6,1.6,2.6,2.6,3s2.3.3,3.7-.4c1.5-.7,2.3-1.6,2.7-2.6.3-1.1.1-2.4-.6-3.9l-10.5-22.2c-.7-1.6-1.6-2.6-2.6-3s-2.3-.3-3.7.4Z"/>
    <path class="cls-3" d="M244.22,112.28l-5.1,2.4-13.4-14.2-2.7,1.3,7.9,16.7-4.9,2.3-18.9-40.1,9.1-4.3c2.6-1.2,5-1.5,7.4-.8,2.6.8,4.6,2.8,6.1,6l2.1,4.5c1.5,3.1,1.7,5.9.7,8.4-.5,1.1-1.2,2.1-2.1,3.1l13.8,14.6v.1ZM227.62,92.28c.3-1,.1-2.3-.6-3.9l-2.1-4.5c-.7-1.6-1.6-2.6-2.6-3s-2.3-.3-3.7.4l-4.2,2,6.4,13.6,4.2-2c1.5-.7,2.3-1.5,2.7-2.6h-.1Z"/>
    <path class="cls-3" d="M249.42,66.78l-6.8,3.2,16.6,35.2-4.9,2.3-16.6-35.2-6.7,3.2-2.3-4.9,18.3-8.7,2.3,4.9h.1Z"/>
  </g>
  <g>
    <path class="cls-3" d="M256.92,309.58c-20.4,9.6-44,10-64.7,1.2-17.7-7.6-32-21.4-40.2-38.8s-9.8-37.2-4.4-55.7c6.3-21.7,21.6-39.6,42-49.2s44-10,64.7-1.2c17.7,7.6,32,21.3,40.2,38.8,8.2,17.4,9.8,37.2,4.4,55.7-6.3,21.7-21.6,39.6-42,49.2ZM191.32,170.68c-19.4,9.1-33.9,26.2-39.9,46.8-5.1,17.5-3.6,36.3,4.2,52.9,7.8,16.5,21.4,29.6,38.2,36.8,19.7,8.4,42.1,8,61.5-1.1s33.9-26.2,39.9-46.8c5.1-17.6,3.6-36.3-4.2-52.9-7.8-16.5-21.4-29.6-38.2-36.8-19.7-8.4-42.1-8-61.5,1.1Z"/>
    <path class="cls-3" d="M256.92,309.58c-10.9,5.1-24.6,2.4-38.6-7.8-13.7-9.9-26.1-25.7-35-44.6-8.9-18.8-13.2-38.5-12.2-55.4,1.1-17.3,7.6-29.6,18.5-34.8,10.9-5.1,24.6-2.4,38.6,7.8,13.7,9.9,26.1,25.7,35,44.6,8.9,18.8,13.2,38.5,12.2,55.4-1.1,17.3-7.6,29.6-18.5,34.8ZM191.32,170.68c-9.5,4.5-15.3,15.7-16.3,31.4-1,16.2,3.2,35.2,11.8,53.4,8.6,18.3,20.6,33.6,33.8,43.1,12.8,9.3,25.1,11.9,34.6,7.4s15.3-15.7,16.3-31.4c1-16.2-3.2-35.2-11.8-53.4-8.6-18.3-20.6-33.6-33.8-43.1-12.8-9.3-25.1-11.9-34.6-7.4Z"/>
    <path class="cls-3" d="M256.92,309.58c-20.4,9.6-44,10-64.7,1.2l-1.6-.7.5-1.7c6.3-21.7,21.6-39.6,42-49.2s44-10,64.7-1.2l1.6.7-.5,1.7c-6.3,21.7-21.6,39.6-42,49.2ZM195.42,307.78c19.3,7.7,41,7.1,59.8-1.8s33.1-25.3,39.4-45.1c-19.3-7.7-41-7.1-59.8,1.8s-33.1,25.3-39.4,45.1Z"/>
    <path class="cls-3" d="M213.52,217.58c-20.4,9.6-44,10-64.7,1.2l-1.6-.7.5-1.7c6.3-21.7,21.6-39.6,42-49.2s44-10,64.7-1.2l1.6.7-.5,1.7c-6.3,21.7-21.6,39.6-42,49.2ZM151.92,215.78c19.3,7.7,41,7.1,59.8-1.8s33.1-25.3,39.4-45.1c-19.3-7.7-41-7.1-59.8,1.8s-33.1,25.3-39.4,45.1Z"/>
    <rect class="cls-3" x="146.72" y="235.61" width="153.6" height="3.9" transform="translate(-80.08 118.31) rotate(-25.3)"/>
    <rect class="cls-3" x="221.54" y="160.83" width="3.9" height="153.6" transform="translate(-80.11 118.3) rotate(-25.3)"/>
  </g>
</svg>