<?xml version="1.0" encoding="UTF-8"?>
<svg id="Layer_1" data-name="Layer 1" xmlns="http://www.w3.org/2000/svg" viewBox="0 0 725.4 994.8">
  <defs>
    <style>
      .cls-1 {
        fill: #d1cfd2;
      }

      .cls-2 {
        fill: #c9c7c7;
      }

      .cls-3 {
        fill: #e7e5e8;
      }

      .cls-4 {
        fill: #fefefe;
      }
    </style>
  </defs>
  <path class="cls-3" d="M429.3,28.6h-133.1c-137.1,0-248.2,111.1-248.2,248.2v441.3c0,137.1,111.1,248.2,248.2,248.2h133.1c137.1,0,248.2-111.1,248.2-248.2v-441.3c0-137.1-111.1-248.2-248.2-248.2h0ZM653.5,706.6c0,123.7-100.3,224-224,224h-133.6c-123.7,0-224-100.3-224-224v-418.4c0-123.7,100.3-224,224-224h133.6c123.7,0,224,100.3,224,224v418.4Z"/>
  <path class="cls-2" d="M429.5,64.3h-133.6c-123.7,0-224,100.3-224,224v418.4c0,123.7,100.3,224,224,224h133.6c123.7,0,224-100.3,224-224v-418.4c0-123.7-100.3-224-224-224ZM639.8,691.9c0,123.7-100.3,224-224,224h-106.3c-123.7,0-224-100.3-224-224v-388.9c0-123.7,100.3-224,224-224h106.3c123.7,0,224,100.3,224,224v388.9Z"/>
  <g>
    <path class="cls-3" d="M543.4,19.4H182.1c3-1.2,6-2.3,9.1-3.4h343.1c3.1,1.1,6.1,2.2,9.1,3.4h0Z"/>
    <path class="cls-3" d="M627.3,70.2v37.7H91.7v-31.9c1.1-1,2.2-2.1,3.4-3.1v31.6h22.4c45.1-46.8,108.5-75.9,178.7-75.9h133.1c70.2,0,133.6,29.1,178.7,75.9h16v-37.2c1.1,1,2.3,1.9,3.4,2.9h-.1Z"/>
    <path class="cls-4" d="M627.3,70.2c-1.1-1-2.2-1.9-3.4-2.9v37.2H95v-31.6c-1.1,1-2.3,2-3.4,3.1-1.1,1-2.3,2.1-3.4,3.2v32.1h542.4v-38.1c-1.1-1-2.2-2-3.4-3h.1ZM534.3,16c-3.4-1.2-6.8-2.3-10.2-3.4H201.5c-3.4,1.1-6.8,2.2-10.2,3.4-3.1,1.1-6.1,2.2-9.1,3.4h361.3c-3-1.2-6-2.3-9.1-3.4h-.1Z"/>
  </g>
  <g>
    <path class="cls-4" d="M404.2,104.5v8.3c0,6-4.9,10.8-10.8,10.8h-64.3c-6,0-10.8-4.9-10.8-10.8v-8.3h86-.1Z"/>
    <path class="cls-1" d="M401.7,104.5v5.5c0,6-4.9,10.9-10.9,10.9h-59.3c-6,0-10.8-4.9-10.8-10.9v-5.5s81,0,81,0Z"/>
  </g>
  <path class="cls-4" d="M439.7,0h-154C127.9,0,0,127.9,0,285.7v423.4c0,157.8,127.9,285.7,285.7,285.7h154c157.8,0,285.7-127.9,285.7-285.7v-423.4C725.4,127.9,597.5,0,439.7,0ZM677.5,718.1c0,137.1-111.1,248.2-248.2,248.2h-133.1c-137.1,0-248.2-111.1-248.2-248.2v-441.3c0-137.1,111.1-248.2,248.2-248.2h133.1c137.1,0,248.2,111.1,248.2,248.2v441.3Z"/>
</svg>