<?xml version="1.0" encoding="UTF-8"?>
<svg id="Layer_1" data-name="Layer 1" xmlns="http://www.w3.org/2000/svg" viewBox="0 0 103.6 103.6">
  <defs>
    <style>
      .cls-1 {
        fill: #fff;
      }

      .cls-2 {
        fill: #fbce54;
      }
    </style>
  </defs>
  <circle class="cls-2" cx="51.8" cy="51.8" r="51.8"/>
  <path class="cls-1" d="M55.5,55.4l7.1,25.2,4-4.1c.8-.8,1.2-1.9,1.1-3l-1.3-27.4c13.7-12.3,16.4-18.3,14.2-20.7-2.2-2.4-8.4-.4-22.2,11.7l-27-4.4c-1.1-.2-2.2.1-3.1.8l-4.5,3.5,24.2,10c-5.8,5.8-11,11.6-14.1,15.9l-10.9-2.3-2.7,2.4,9.1,5.6c-.9,1.2-1,2.3-.5,2.9s1.6.6,2.9-.1l4.6,9.6,2.7-2.4-1-11.1c4.6-2.6,11-7.1,17.4-12.2v.1Z"/>
</svg>