<?xml version="1.0" encoding="UTF-8"?>
<svg id="Layer_1" data-name="Layer 1" xmlns="http://www.w3.org/2000/svg" viewBox="0 0 180.48 167.19">
  <defs>
    <style>
      .cls-1 {
        fill: #ed2c7a;
      }
    </style>
  </defs>
  <path class="cls-1" d="M104.2,91.19l21.1,74.6,11.7-12.1c2.3-2.4,3.5-5.6,3.3-8.8l-3.8-80.9C177,27.49,184.9,9.89,178.5,2.69c-6.4-7.2-24.8-1.3-65.7,34.7l-79.9-13.1c-3.2-.5-6.6.3-9.2,2.3l-13.4,10.3,71.7,29.5c-17.2,17.2-32.4,34.3-41.7,47.1l-32.2-6.7-8.1,7.2,26.8,16.6c-2.5,3.6-3,6.7-1.4,8.5,1.6,1.7,4.7,1.7,8.6-.4l13.5,28.5,8.1-7.2-2.9-32.7c13.7-7.7,32.4-20.9,51.5-36v-.1Z"/>
</svg>