<?xml version="1.0" encoding="UTF-8"?>
<svg id="Layer_1" data-name="Layer 1" xmlns="http://www.w3.org/2000/svg" viewBox="0 0 182.72 183.4">
  <defs>
    <style>
      .cls-1 {
        fill: #0963c9;
      }
    </style>
  </defs>
  <g>
    <path class="cls-1" d="M180.84,111.8c-.2.8.1.6.2.7.2-1.4-.2-.7-.2-.7Z"/>
    <polygon class="cls-1" points="182.24 97.9 182.34 98.1 182.14 96.1 182.24 97.9"/>
    <path class="cls-1" d="M182.24,84.9c-.4,1.3.4,4.7.1,7v.4c-.1,0,.3,1.1.3,1.1,0-1.4,0-3-.2-4.5-.1-1.5-.2-2.9-.2-3.9v-.1Z"/>
    <path class="cls-1" d="M182.44,77.9c-.1.5-.4-1.5.2,1.6v-.3c0-.3,0-.7-.2-1.3Z"/>
    <path class="cls-1" d="M182.64,79.2c.2,1.4,0-.9,0,0h0Z"/>
    <path class="cls-1" d="M181.44,72.9l.5,1.8c0-.4-.3-2,0-1.4-.5-1.8-.5-1.4-.5-.3v-.1Z"/>
    <path class="cls-1" d="M180.74,71.3c.1.3.2.6.3.9,0-.2,0-.4-.3-.9Z"/>
    <path class="cls-1" d="M181.54,74.2l-.5-1.9c0,.3-.2.3.2.9-.2-.1,0,.2.3,1Z"/>
    <path class="cls-1" d="M181.74,75.3c.1,1,.2,2.3-.2.6.3,1.7.5,2.4.6,2.3v-.8c0-.5-.1-1.2-.3-2l-.1-.1Z"/>
    <path class="cls-1" d="M181.64,84.3v1.3l.2,1.2v-1.5c0-.6,0-1-.1-1h-.1Z"/>
    <path class="cls-1" d="M178.64,61.9c-.1,0,0,.7-.1.8.2.4.4.8.5,1.2-.1-.7-.5-1.9-.4-2.1v.1Z"/>
    <path class="cls-1" d="M178.54,62.8l-.8-1.8c.6,1.7.8,2,.8,1.8Z"/>
    <path class="cls-1" d="M180.14,71.1c.4,1,.7,2.1,1,3.1-.4-1.3-.7-2.5-1.2-3.7l.2.6h0Z"/>
    <path class="cls-1" d="M175.94,54.7c.2.3.4.6.7,1l-.6-.9-.6-.8.5.8v-.1Z"/>
    <path class="cls-1" d="M173.74,50.1c.6.7-.2-1.2.3-.4-.7-1.2-1.4-2.2-2-3.1.6.9,1.2,2,1.7,3.5Z"/>
    <path class="cls-1" d="M170.84,45.2c.3.5.7.9,1.1,1.4-.3-.5-.7-1-1.1-1.4Z"/>
    <path class="cls-1" d="M176.54,57.7c0-.2,0-.5-.3-1.6v.8c.1.2.2.5.3.7v.1Z"/>
    <path class="cls-1" d="M176.24,57h0c-.3-.8-.5-1.4-.6-1.6,0,.2.3.7.6,1.6Z"/>
    <path class="cls-1" d="M179.04,66c-.5-1.1-1.4-3.4-.9-1,.4.7.2-.6.9,1Z"/>
    <path class="cls-1" d="M176.64,58.9c.2.7.4,1.3.7,2,0,0,0-.5.3,0-.3-.7-.6-1.4-1-2.1v.1Z"/>
    <polygon class="cls-1" points="176.14 58 176.64 58.9 176.34 58.2 176.14 58"/>
    <path class="cls-1" d="M172.44,48.5c-.3-.4-.5-.8-.8-1.2s-.5-.9-.8-1.4c.6,1.1,1.1,2.2,1.7,3.3.2.1.6.5,0-.7h-.1Z"/>
    <path class="cls-1" d="M174.34,52.6s0-.1-.1-.2c0,.1,0,.2.1.2Z"/>
    <path class="cls-1" d="M172.54,49.4c.4.8.7,1.3,1,1.7-.3-.6-.7-1.2-1.1-1.9,0,0-.1,0,0,.2h.1Z"/>
    <path class="cls-1" d="M169.14,42.6c.2.4.5.9.7,1.4-.1-.5-.5-1.3-.7-1.4Z"/>
    <path class="cls-1" d="M174.24,52.1c-.2-.4-.5-.7-.7-1,.3.5.5.9.7,1.3v-.3Z"/>
    <path class="cls-1" d="M161.04,35.1c.2,0,.7.4,1.2,1,.3.3.6.7.9,1.1.3.4.6.9.8,1.3,1.3,1.5,1.3,0,.7-1.8-.1,0-.2,0-1.6-1.5.4.6,2.5,3.9,1.3,2.6-.9-1.1-1.2-1.5-1.4-1.9-.2-.3-.3-.6-.6-1.1.2.6-.4,0-1.1-.7-.7-.7-1.5-1.3-1.5-.9.6.5,1.1,1.1,1.7,1.7,0,0-.7-.5-.3,0l-.1.2Z"/>
    <path class="cls-1" d="M167.04,40l.5.7c-.5-.9-.8-1.5-1.4-2.7-1-1.1-1.2-1.3-1.3-1.3.8,1.2,1.7,2.3,2.4,3.5l-.2-.2Z"/>
    <path class="cls-1" d="M169.64,44c-.6-.4-1.8-2.1-1.4-.9,1.4,2.1,1.1,1.4,2,2.6-2.1-3.5.7.9-.6-1.7.5.7.8,1.3,1.2,1.9-.3-.7-.7-1.3-1-1.9h0q0,.2,0,0h0s-.1,0-.2-.1c-.5-1.1,0-.2.2.1h0c-.7-1.2-1.6-2.3-2.4-3.4.4.8,1.1,1.6,2.1,3.3l.1.1Z"/>
    <path class="cls-1" d="M176.84,63.1v-.1c-.1-.2-.2-.3,0,.1Z"/>
    <path class="cls-1" d="M176.44,61.5c.1.3.3.5.6,1.4.2.8-.1,0-.2.1.3.5.8,1.8.4,0v-.3c-.6-1.6-.9-3.7-.8-3.4,0,.5-.1,1,0,2.1v.1Z"/>
    <path class="cls-1" d="M173.34,52.5c-.5-1-1.1-2-1.7-3l.6,1.6h0c.8,1.6.8,1.2,1,1.3l.1.1Z"/>
    <path class="cls-1" d="M164.54,36.2l.5.2c-.5-.5-1-.9-1.6-1.3l1.1,1.1Z"/>
    <path class="cls-1" d="M161.74,32.7h.3c-.3-.3-.6-.6-.9-.8l.6.8h0Z"/>
    <path class="cls-1" d="M7.74,118l.4.9c-.2-.4-.3-.7-.4-.9Z"/>
    <path class="cls-1" d="M5.94,111.2h-.2c.2.2.2.3.2,0Z"/>
    <path class="cls-1" d="M62.64,4.9c-1.5.2-3.2.4-2.9.7h.5c.9-.3,1.7-.5,2.3-.7h.1Z"/>
    <path class="cls-1" d="M10.24,54.4c0-.1.2-.2.2-.3,0-.4.1-.7.2-1-.1.4-.3.8-.4,1.3Z"/>
    <path class="cls-1" d="M10.94,55.8l-.9,1.6c.2-.4.5-.9.9-1.6Z"/>
    <path class="cls-1" d="M26.94,150.7c.3.2.6.4,1,.6-1.2-1.3-.8-.6-1-.6Z"/>
    <path class="cls-1" d="M125.04,6.6c-1.1-.5-2.1-.9-2.9-1.3,1.4.7,2.4,1.4,2.9,1.3Z"/>
    <path class="cls-1" d="M3.94,116.2c.2.6.4.8.4.8-.2-.6-.4-.9-.4-.8Z"/>
    <path class="cls-1" d="M118.64,4.2c.2,0,.4.2.6.3.9.2,1.8.4,2.9.9-1-.5-2.2-.9-3.5-1.1v-.1Z"/>
    <path class="cls-1" d="M151.54,156.1s.2-.1.3-.2c0,0-.1,0-.3.2Z"/>
    <path class="cls-1" d="M176.74,124c-.1.4-.4,1-.6,1.6.1-.3.3-.8.6-1.6Z"/>
    <path class="cls-1" d="M149.04,20.1c.7.6.1,0,0,0h0Z"/>
    <path class="cls-1" d="M151.74,24c-.2-.1-.3-.2-.4-.1.1,0,.2,0,.4.1Z"/>
    <path class="cls-1" d="M109.14,3.7h0c.3.1.2,0,0,0Z"/>
    <path class="cls-1" d="M150.04,21.2c-.2-.3-.5-.5-.9-.8.1.1.4.4.9.8Z"/>
    <path class="cls-1" d="M149.94,20.9c.2.2.4.4.6.6.1,0,0,0-.6-.6Z"/>
    <path class="cls-1" d="M147.94,19.3c.4.3.8.6,1.2,1-.1-.1-.2-.2-.1-.2-.2-.2-.5-.4-1.1-.8h0Z"/>
    <path class="cls-1" d="M39.84,20.4c.9-1.1,1.6-1.6,2.5-2.1-.5,0-.9,0-1.4-.1l-1.1,2.2h0Z"/>
    <path class="cls-1" d="M14.34,133.4l-.8-2.1c1.7,2.2,2.5,4,1.8,2-.2,0-.6-.4-1.1-1.1-.5-.7-1-1.7-1.5-2.7s-1-2-1.4-2.7c-.4-.8-.7-1.3-1-1.2l-.4-1.5q.2.4.4.8c-.7-2.9-1.4-1.8-2.6-5.4-.4-1.3-.5-2.2-.1-1.4l-1.1-2.8c-.2-.8,0-.7.2.2-.4-1.4-.8-2.9-1.2-4.3h0c-.3-.6-.8-1.9-1-2.6,0-1.2.2.5.3.2-.2-.8-.5-1.6-.7-2.4,0-.5.2-.3.4.3s.4,1.5.6,2.3c.2-1.2,0-1.7-.2-2.5s-.6-2-.6-4.5c.1.8.3,1.5.4,2.3.2-.8,0-1.6,0-2.6s-.1-2.1,0-3.4c-.1.6-.3,5.3-.8,2.7,0-.8,0-1.8-.4-3.2.3,0,.2-1.4,0-3.2h.4c-.1-.8-.2-1.3-.3-1.6,0-.3-.2-.6-.3-1.2,0-2.1.4-2.6.7-3.1.3-3.4-.7,2.3-.5-1.7,0-.7.1-1.4.2-2,0-.6.1-1.3.2-1.9,0-1.3,0-2.6.2-4.4.5-2,.2.4.4-.3v-1.8c0-.4,0-.3.1-.2.1-1.5-.4-.2,0-2.5-.2-.4.2-1.5.7-2.9.6-1.4,1.1-3.1,1.3-4.6.3-.6.2.4.4.2.9-3.9.7-3.4,1.4-6.6.4-.8.8-1.7,1.3-2.5-1.1,1.8-.4-.8.2-3.1-.4.6-.8,1.1-1,1.5.4-1.2.8-2.4,1.3-3.5.3-.4.2,0,.1.7,0-.2.1-.5.2-.7.7-1.1.7-.4.5.6-.3.4-.6.7-.8,1.1-.1,1-.2,1.9.1,1.8,0-.2.2-.7.4-1.2,0,.2,0,.4,0,.3,0,0,.1-.5.3-1.1l.8-.5v-.3l1.1-2.1c.4-.7.9-1.4,1.3-2,.3-.8.6-1.6.9-2.4.3-.8.7-1.6,1-2.5.2-.4.4-.9.6-1.3.2-.5.5-.9.8-1.4.6-1,1.1-2,2-3.2-.5,1.3.3.6.6.9-.6.5-1.2,1.4-1.8,2.4-.3.5-.6,1.1-1,1.7-.3.6-.7,1.2-1.1,1.8.8-1.2.8-.8.7-.5.7-1.5,1.6-2.9,2.5-4.4.1.1.3,0,.6-.4.3-.3.7-.8,1.1-1.3-.6.2,0-.6.7-1.7.2-.3.4-.6.6-.8.2-.3.5-.6.7-.8.5-.6.9-1.1,1.2-1.5.3,0,.1.6-1.5,2.5,2.2-1.8,1.7-3.3,3.9-5-.4.5-.7.7-.7.9.4-.6,1.2-1.5,1.9-2.2.7-.7,1.2-1,1-.7l-.4.4c.7-.7,1.7-1.6,2.6-2.5,1-.9,2.1-1.9,3-2.8,1-.9,1.9-1.7,2.6-2.3.7-.7,1.1-1.1,1.1-1.3,0,0,0,.9-.1,1.1,1.5-2,3.1-3.9,4.8-5.8-.3.8,2.4.4-.2,2.5.4-.2.9-.5,1.5-.9s1.2-.8,2.1-1.4c-.6.3-1.8.2-1-.3,2.4-.8,1.6-.7,4.5-1.7-.9.4-.3-.8,1.1-1.5-.2.2.5.6,0,1l1.5-1.2c.5-.4,1.1-.8,1.6-1.2-.8.5.1.7,1,.5-.2,0,.5-.3,1.5-.8.9-.4,2.1-.8,2.5-1l-1.6.5c2.1-.8,2.9-1.5,3.9-2.1.5-.3.9-.6,1.5-1,.6-.3,1.4-.7,2.4-1-.5.3-.9,1.3,1.2.8.4-.3,1.4-1.1,2.7-2,1.3-.8,3-1.8,4.9-2.2h.8c1-.2,1.9-.5,2.9-.7-.9.4-2.6,1.2-4.3,2-.9.4-1.8.9-2.6,1.3-.8.4-1.6.8-2.3,1.1,1.6-.2.5.1,2.9-.5.9,0-1.2.6-1.9.8,1.8-.4,3.7-.8,5.6-1.1-.2-.2.9-.5,1.9-.8,1.1-.3,2.1-.5,2-.7-2,.4-4,1-6,1.6-.2-.2.6-.7,2-1.2.7-.3,1.5-.6,2.4-.8s1.9-.4,2.9-.5c1,0-.7.9-.6,1.1.3-.1,1.2-.4,2.1-.5.9-.1,1.9-.2,2-.2l-1.7.4c1.1,0,2-.3,3-.5s2-.3,3.4-.2c.9,0,2.8.5,3,.3-1.5-.5-1.9-2.2-.8-2.6.2,0,1.4.2,2.8.3.7,0,1.4.2,2,.3s1.1.2,1.3.3c1.5.5-2.4.9-1.1,1.3,0-.1.9-.2,1.3-.3,1,.2-.4.4,1.7.4.4-.4,4.3.5,1-.3,1.1,0,1.6.1,2.2.2.6,0,1.2.2,2.5.4-.4-.2.2-.4,1.2-.5.9,0,2.3-.1,3.3,0-.1,0,.3.3.5.5,1.1.2,2,.4,2.9.7.9.2,1.6.5,2.4.7.8.2,1.6.5,2.4.7.8.3,1.7.6,2.6.9.3.2,2.1.9,1.3.9.6.1,1.1.2,2.3.6,2.1,1.2-2.6-.9-1.1.2.2-.2,3.1.7,4.8,1.3-.2-.3-1.1-.8-2.2-1.1-1.1-.4-2.4-.7-3.3-.9,0-.3.9-.3,2.2,0,.7.1,1.4.3,2.3.5.9.3,1.8.6,2.8.9,1.6.6,1.9.9,1.8,1,0,0-.4,0,0,.1,1.4.7,2.5,1.2,3.3,1.5.8.4,1.4.6,2,.8s1.1.4,1.8.7,1.5.9,2.5,1.6c1.6,1.4-.3.7,0,1.1-1.2-.7-2.1-1.3-2.8-1.8-.8-.5-1.5-1-2.3-1.5l1.9,1.3c-.8-.3-2.5-1.1-3.3-1.7.3.3,1.1.8,2.1,1.3.5.3,1.1.6,1.7,1,.6.4,1.2.8,1.9,1.2.6.4,1.3.8,2,1.3.6.5,1.3.9,1.9,1.4,1.3.9,2.4,1.8,3.3,2.6.8.4,2,1.2,1.6.7l-1.3-.9c-.9-1.1,2.6,1.5,1.1.1.9.5,1.8,1.2,2.8,1.9.5.4,1,.7,1.5,1.2.5.4,1,.9,1.5,1.5v.7c.2-.1-1.1-1.5-1.8-2,.5.3,1.2,1.2,2,2.1.4.4.8.8,1.2,1.2s.7.6,1.1.8c-.4-.6-.8-1.1-1.3-1.7.8.6,1.8,1.4,2.7,2.2.5.4,1,.8,1.4,1.3s.9,1,1.3,1.5c-.5-1.2-.4-.4-1.3-2.1.7,1.6-4.7-4.8-3.3-2.5-.5-.9-1.1-1.5-1.7-2.1-.6-.7-1.3-1.4-2.1-2.3,0,.2.5.8-1.1-.7-.1,0-.3-.1-.4-.2l-.1-.1h0c.4.4.6.7.7.9-.5-.2-1.4-.9-2.4-1.6-1-.7-1.9-1.3-2.4-1.6-1-.8.5.2,0-.3-.5-.3-1-.6-1.6-.8,0-.3-2.6-2.4,0-.8l-2.3-1.6c-1.3-1-3.2-2.3-4.4-2.9-1.1-.7-3.1-1.3-1.9-1-.7-.3-1.3-.7-2-1l-2-.9h0c-1.9-1.1-4-1.8-6.1-2.7-2.2-.7-4.4-1.6-6.6-2.6-.7-.2-1.4-.4-2.2-.6-.8-.2-1.8-.4-2.9-.8l-.4-.4c-.9-.2-2.3-.5-3.5-.8s-2.3-.6-2.8-.5c-.5-.3-1.3-.5-2.2-.7-.5-.1-1-.2-1.6-.3-.6,0-1.2-.1-1.8-.2-1.2,0-2.5-.2-3.6-.3-1.2,0-2.2,0-3-.2v.3h-5.3c-.6,0-1.3.1-2,.2l.2.3c-1.2.2-2.7.2-4.4.3-.9,0-1.8,0-2.7.1-.9,0-1.9.2-2.8.3.2-.2,1.2-.3,1.9-.3-1.1,0-2.3.1-3.5.3s-2.3.5-3.4.8-2.2.7-3.3,1c-1.1.3-2.1.5-3.2.7-1,.4-1.7.6-2.4.7h.2c-.1,0-.3,0-.4.1-.5,0-.9.2-1.4.3.4,0,.8-.2,1.2-.2-.8.2-1.9.7-3,1.2h-.6c0-.1-.2,0-.3,0-1.1.3-.8.5-.2.5-.5.2-1,.5-1.4.7-.5,0-1.2.3-2,.6-.4.2-.7.3-1.1.5-.4.1-.7.2-1.1.2-.3.3-1.6,1-2.9,1.7-1.2.8-2.5,1.5-2.6,1.9,0,0-.4,0,.2-.2-1.2.5-2.3,1.1-3.3,1.9h-.7l-1.1.9-1,1c-1.6.7-2.3,1-1-.2-.8.7-1.4,1.1-1.8,1.5s-.7.6-1,.9c-.6.5-1.1.9-2.4,2.2v-.3c-1,.8-2.4,2.3-3.1,2.6-.6.4-1.6,1.1-2.8,2.1-.6.5-1.2,1.1-1.9,1.7-.7.6-1.4,1.3-2.1,2-2.8,2.9-5.8,6.4-8.2,9.2.8-.3.2.3-.6,1.1-.7.8-1.5,1.8-1.4,2.1-.4.2-1.1,1-.5,0-.5.8-.9,1.5-1.3,2.1s-.8,1.2-1.1,1.7c-.7,1-1.2,2-1.6,3.3-.4.3.1-.8-.1-.6-.1.3-.4,1.1-.7,1.4-.3.3.1-.6.3-1.1-.5.8-.8,1.5-1,2-.2.5-.3,1-.3,1.3,0,.6.1.9.3,1.2-.5.8-.9,1.4-1.2,2-.2.6-.4,1.2-.5,1.9-.4.5-1,1.5-.2-.7-.1.3-.4.9-.8,1.7-.2.4-.4.8-.5,1.2-.2.4-.3.9-.5,1.3-.7,1.8-1.2,3.4-1,3.5-.2.4-.6,1.7-.6,2.1-.2.7-.4,1.2-.6,1.7-.1.5-.2.9-.3,1.2-.2.8-.4,1.5-.8,2.9l.3-.8c.2,1.2-.4,2.4-.9,4.7h0c-.4,1.2-.5,2-.6,2.6,0,.5-.1.8-.1,1.1s0,.6-.1,1.1c0,.3-.1.6-.2,1,0,.4-.2,1-.3,1.6l.4-.2c.3.3.1,1.4-.2,2.9s-.6,3.3-.5,4.8l.2-1.1c0,.8-.2,2-.5,3.2s-.6,2.4-.6,3.2c0,.4-.1-.6-.2-1.1-.2,4.5.5.6.7,3.9-.2.6-.7-.8-.5,1.5,0,.6.3,2.2.6,4,.2.9.4,1.9.6,2.8s.1.9.2,1.4c0,.4.1.8.1,1.2,0-.7,0-1.4.5.1.5,2.3.7,6.4,1.8,8.3v.4c.3.8.8,2.2,1.3,3.5s1.1,2.4,1.4,2.9c-.1.5.1,1.4.5,2.4s1,2.3,1.6,3.4c.6,1.1,1.2,2.2,1.6,3s.6,1.4.4,1.5c.4.8.9,1.6,1.3,2.4l1.4,2.4h-.2c.8,1.5,1.6,2.4,2.1,3.2.6.7,1,1.2,1.5,1.6.4.7,0,.3,0,.3,1.4,2.1,2.2,3.3,3.1,4.3s1.7,1.9,3.3,3.3v.6c.9.8,4.7,5.9,8.8,8.9,0,0-.2,0-.5-.2,2.3,1.7,4.8,4,7.2,5.8,2.3,1.8,4.5,3.2,5.7,3.2,1.1.6,2.3,1.1,3.4,1.6-4.2-2.4.9-.1-.7-1.3.8.4,1.9,1.1,2.4,1.5.6.4.7.6-.4,0l-.3-.2c-1.1.2,5.3,2.9,5,3.2,4.4,2,8.8,3.6,13.2,5,1.1.3,2.2.6,3.3.9,1.1.3,2.2.5,3.4.8.6.1,1.1.3,1.7.4.6,0,1.1.2,1.7.3,1.1.2,2.2.4,3.3.5-.3-.2-.6-.4-1-.6,1,.2,2.1.2,3.1.4.8.2,1.1.5-1.2.3,1.1.4,3.7.1,3.8,0,4.3.4-1.7.5-.4.6h1.8-.4c.7,0,1.1-.1,1.7-.2h2.6c1.7.1.9.3,1.5.3h1c1.3,0,2.6,0,3.9-.1l-1.6-.3c1.7-.3,3.7-.2,1.9-.5,1.3.3,5,0,8.5-.6.9-.1,1.7-.3,2.5-.5s1.6-.3,2.3-.5c1.4-.3,2.4-.6,2.8-.6.6-.2,1.2-.4,1.7-.6.6-.2,1.2-.4,1.8-.6,1.2-.4,2.5-.7,3.9-1.3-.7.2-1.3-.1,1.1-.9-.3.6.9.3,2.3-.2,1.5-.5,3.3-1.2,4.4-1.4-.9.2.7-.6,2.2-1.4,1.5-.8,2.8-1.6,1.4-1.2,1.9-.9.3.2,1.8-.3,4.3-2.7,9.9-5.5,14.7-9.7,0-.2-.9.4,0-.6,1-.5,2-1.1,2.9-1.7.5-.4.6-.8.8-1.1.2-.4.6-.8,1.6-1.4-.3.2-.8.4-.2-.2,4.7-4.1,8.7-9,12.3-14.3,3.5-5.3,6.6-10.9,9.5-16.5-.9,1.5-.5.4,0-.8-.4.8-.3-.1-.5,0,.8-1.6,1.5-3.2,2.2-4.8,0-.5.3-1.9.8-3.2.4-1.3.7-2.6.6-2.9l-.3,1.6c0-1.1-.4-.5-1,.4s-1.3,1.9-1.5,1.7c0,.6-.2,1.3-.5,2s-.7,1.5-1.1,2.3c-.4.8-.8,1.7-1.2,2.6-.4.9-.7,1.8-.9,2.8-.5.8.1-.8-.2-.4-.1,1.1-.6,2.2-1.7,4.1v-.3c-.3.7-.6,1.4-1,2-.3.6-.7,1.2-1,1.7-.6,1.1-1.3,2.1-1.9,3-.7,1-1.3,2-2.2,3-.8,1.1-1.7,2.3-2.8,3.7l.6-.2c-1,1.2-1.2,1.4-1.7,1.9-.7,1.7,2.6-3.4,2.1-1.8-.4.3-1.1,1-1.8,1.9s-1.6,1.9-2.5,2.8c-.8,1-1.8,1.9-2.5,2.6-.8.7-1.4,1.2-1.8,1.3-1.7,1.6.8-.2-.9,1.4l-.6.3-.2.6c-.6.5-1,.9-1.4,1-.4.2-.6.3-.7.2.3-.2.8-.7,1-1-.8.6-1.9,1.5-2.8,2.4-.9.8-1.7,1.5-2,1.7.6-.4,1.2-.9,1.8-1.3-1.2,1-2.5,2.1-3.9,3.2-1.4,1-2.8,2.1-4.3,3-.7.5-1.5,1-2.2,1.5s-1.5.9-2.2,1.3c-1.4.9-2.9,1.7-4.2,2.5h.5c-.5.2-.9.5-1.3.7-.4.2-.7.4-1,.5-.6.3-1.1.5-1.5.6-.5.2-1,.4-1.6.6-.7.3-1.5.6-2.7,1.1h.2c-.9.5-2.2,1-3.5,1.4,1.2-.6-2.4.5-.9-.3-2.4,1-3,1.1-3.4,1.4-.4.2-.5.4-2.1,1.1h-.8c-.5.2-.8.4-1.3.5-.5.2-1.1.4-2.4.7,2.1-.6-1.7,0,.6-.8-1.4.1-2.5.3-3.6.5-1,.2-1.9.4-2.7.5-1.6.4-2.9.6-4.2.3-1.2.5,0,.5,1.3.4,1.3,0,2.7-.4,2.1-.2.6,0,.1.2-.8.5-.9.2-2.1.4-3,.4s-1.6,0-2.7-.3c-.5,0-1.2-.2-1.9-.2h-2.7.9-3.8c-.5,0-.9,0-1.4-.2-1.1.4-2.6-.2-3,.4h4c-1.1,0-2.3.2-3.6.3-1.3,0-2.8,0-4.6-.4.3,0,1.4-.1,2.2-.1-1.1-.3-2.1,0-3.2-.4.2-.2,1.4-.1,2.9,0,.7,0,1.5.2,2.3.2h2.1c-.6-.2-1.7,0-2.6-.1-.9,0-1.4,0-.8-.3-.9.3-2,.1-3.2,0-1.2-.2-2.5-.5-4.1-.5l.2-.3c-.5,0-1.4,0-2.3-.2h1.6c-2.4-.2-4.4-1.3-6.7-1.7,2.3.6,2.6.8,2.4.9-.1.1-.6.2.4.5-5.9-1-3.1-1.6-9.4-3.4.9.3,3.1,1.2,1.8.9-.6-.2-1.3-.5-1.9-.8s-1.2-.6-1.5-.8c-4.1-1.5.5.5-1.3,0-1.3-.9-2.1-.7-3.9-1.3v-.3c-.4-.3-.9-.5-1.2-.6-.4-.2-.6-.3-.8-.3-.4-.1-.6-.1-.7-.1-.3,0-.6,0-2.5-1l1.9.4c-.7-.3-1.4-.6-2.2-.9.2,0,.4,0,.6-.1-1.2-.5-1.9-.9-2.7-1.3-.7-.4-1.4-.8-2.5-1.5.4.5-.6.3-2.5-.8-1.2-1,.9.2-1.8-1.5.7.2,1.5.5,2.5,1.5.2,0,.7.2.9.2-1.3-1-3.4-2.3-4.3-2.9.4.3.8.6,1,.8-.7-.4-1.3-.7-2-1.1l-1.9-1.2c-.5-.5,0-.3.5,0-.7-.5-1.4-.8-2.4-1.6.4,0,.5-.2,2.1.8-1.2-.8-2.4-1.7-3.5-2.5-.2-.3-1.5-1.7-1-1.4-.8-.9-2-1.8-3.2-2.8s-2.5-2.1-3.4-3.4c-.1,0-.4-.3-.9-.8-.5-.6-.9-1.1-1.4-1.7-.4-.6-.9-1.2-1.3-1.8s-.9-1.2-1.4-1.8-1-1.3-1.6-1.9c-.3-.6-.5-1.3-.8-1.9-1.6-2.3,1,2.6-1.7-1.1-1.9-2.7-.3-1.2-.8-2.3-.5-.6-1.2-1.5-2-2.6-.7-1.1-1.4-2.4-1.9-3.8.5.8.8,1.6,1.3,2.4l.7-.5ZM4.04,100.9c0,.3.2.8.3,1.3s.2.9.1,1.2c-.2-.3-.3-.7-.4-1.1,0-.4,0-.8,0-1.4ZM13.04,50.1c-.1.5-.5,1.2-1,1.9.3-.6.6-1.2,1-1.9ZM140.44,14.4h0c-1.2-.9-.8-.6,0,0ZM143.04,16.2c.3.1.3,0,.2,0-.2,0-.8-.5-1.5-.9.1.2.4.5,1.3,1v-.1ZM92.84,182.6h-.6c1.4-.2,1,0,.6,0Z"/>
    <path class="cls-1" d="M10.84,55.6c-.1.2-.2.2-.3.2q0,.3.3-.2Z"/>
    <path class="cls-1" d="M26.74,150.6h0q0,.1.1.1h-.2l.1-.1Z"/>
    <path class="cls-1" d="M96.74,3.4c-.6,0-1-.2-1.2-.2,0,0,.2.2,1.2.2Z"/>
    <path class="cls-1" d="M156.34,26.6c-.5-.5-1-.9-1.5-1.4.7.7,1,1,1.3,1.4,0,0-.2-.4.3,0h-.1Z"/>
    <path class="cls-1" d="M166.04,41.4c.2.2.3.5.5.7v-.2c-.6-1-1.2-1.7-.5-.6v.1Z"/>
    <path class="cls-1" d="M156.94,28.7c0,.2.2.4.5.8.2.2.4.4.6.6.2.2.5.5.7.7,0,0-.1-.1-.2-.2.3,0,.1-.2-.2-.6-.3-.4-.9-.9-1.5-1.4l.1.1Z"/>
    <path class="cls-1" d="M158.94,31.1c.3.3.6.6.9,1,.2,0-.3-.4-.9-1Z"/>
    <path class="cls-1" d="M146.44,18.4c.5.5.6,0,.8.3.4,0-.6-.5-1.2-.9-.3-.2-.6-.3-.6-.2,0,0,.3.3,1.1.8h-.1Z"/>
    <polygon class="cls-1" points="157.04 30.1 156.94 29.5 156.14 29.2 157.04 30.1"/>
    <path class="cls-1" d="M149.14,22.3l1.7,1.5s.3,0,.5.3c-1.1-.9-2.2-1.9-2.2-1.8Z"/>
    <path class="cls-1" d="M151.34,24.2c.5.5,1,1,1.4,1.2-.3-.3-.9-.8-1.4-1.2Z"/>
    <path class="cls-1" d="M154.84,28l-.4-.5-1.1-1.1c.5.5,1.1,1.1,1.6,1.6h-.1Z"/>
    <path class="cls-1" d="M128.64,9.5l-2.3-.9c-.3,0,.3.3,1.2.7.6.2,1.4.5,1.1.2Z"/>
    <path class="cls-1" d="M134.84,13.7c-.5-.4-.5-.5-.8-.8l-.3.3,1.1.4v.1Z"/>
    <path class="cls-1" d="M128.44,10.6c-.3,0-3.4-1.1-.5.1.3,0,2.5.9.5-.1Z"/>
    <polygon class="cls-1" points="93.04 2.1 93.64 2.1 93.54 1.4 93.04 2.1"/>
    <path class="cls-1" d="M61.74,9.1c2.7-.8.5-.6,3-1.3.6-.4-2,.5-1.4.2-1.6.7-2.5.9-1.6,1.1Z"/>
    <path class="cls-1" d="M63.24,7.9c.3-.1.5-.2.8-.4-.5.2-.7.3-.8.4Z"/>
    <path class="cls-1" d="M179.34,117.5c.3-.6.4-1.2.6-1.8l-.5,1.1c0,.2,0,.4-.1.7Z"/>
    <path class="cls-1" d="M179.74,113.8l.5-.3v-1.2c-.2.4-.4,1.2-.5,1.5Z"/>
    <path class="cls-1" d="M4.54,95.8h-.1c-.1.2,0,.6,0,1.4l.2-1.4h-.1Z"/>
    <polygon class="cls-1" points="8.84 120 8.74 119.6 8.64 120.5 8.84 120"/>
    <path class="cls-1" d="M18.34,138.4c-.5-.7-1-1.5-1.4-2.3,1,1.6,1.2,2.7,1.4,2.3Z"/>
  </g>
  <path class="cls-1" d="M91.84,150.3c-4.5,0-9-.5-13.5-1.6-15.3-3.6-28.2-12.9-36.5-26.2s-10.9-29.1-7.3-44.3c3.6-15.3,12.9-28.2,26.2-36.5,13.3-8.3,29.1-10.9,44.3-7.3,31.5,7.4,51.2,39,43.8,70.6-3.6,15.3-12.9,28.2-26.2,36.5-9.4,5.8-20,8.8-30.8,8.8ZM91.64,34.2c-10.6,0-20.9,2.9-30.1,8.6-13,8.1-22.1,20.7-25.6,35.6-3.5,14.9-1,30.3,7.1,43.3s20.7,22.1,35.6,25.6,30.3,1,43.3-7.1,22.1-20.7,25.6-35.6l.7.2-.7-.2c7.2-30.8-12-61.7-42.7-68.9-4.4-1-8.8-1.5-13.2-1.5h0Z"/>
  <g>
    <path class="cls-1" d="M52.14,39.3l-2.1-1.5h-.1l-3.7,3.1v.1l1.1,2.4v.3l-1.3,1.1h-.2s-.1,0-.1-.1l-6.4-14v-.3l1.6-1.3h.3l12.6,8.8h0v.3l-1.3,1.1h-.4ZM45.34,39.3h0l3-2.5h0l-6.6-4.8h0l3.5,7.3h.1Z"/>
    <path class="cls-1" d="M58.74,34.8l-6.6-13.3v-.3l4-2c1.2-.6,2.4-.7,3.4-.4,1.1.3,1.9,1.1,2.5,2.2l3,6.1c.6,1.1.7,2.2.3,3.3-.4,1.1-1.2,1.9-2.4,2.5l-4,2h-.3l.1-.1ZM59.94,32.4l2.2-1.1c.6-.3,1-.8,1.2-1.4.2-.6,0-1.3-.3-2l-2.8-5.7c-.4-.7-.8-1.2-1.4-1.4s-1.2-.2-1.8.1l-2.2,1.1v.1l5.1,10.3h.1-.1Z"/>
    <path class="cls-1" d="M75.44,28.1l-7.3-13.5h0q0-.2.2-.3l1.7-.4c.1,0,.2,0,.3.1l5.5,10.7h0v-12c0-.1.1-.2.2-.2l1.7-.4h.2v.2l-.4,15.4c0,.1,0,.2-.2.2l-1.8.4c-.1,0-.2,0-.3-.1l.2-.1Z"/>
    <path class="cls-1" d="M95.64,12.7h-6.3v4.8h4.3c.1,0,.2,0,.2.2v1.4c0,.1,0,.2-.2.2h-4.2v4.9h6.4c.1,0,.2,0,.2.2v1.4c0,.1,0,.2-.2.2h-8.3c-.1,0-.2,0-.2-.2v-14.8c-.1-.1,0-.2.1-.2h8.3c.1,0,.2,0,.2.2v1.4c0,.1,0,.2-.2.2l-.1.1Z"/>
    <path class="cls-1" d="M101.94,26.7l3.2-14.5c0-.1.1-.2.3-.2l1.6.3c.1,0,.2,0,.2.2l3,11.2h0l2.2-10c0-.1.1-.2.3-.2l1.6.3c.1,0,.2.1.2.3l-3.2,14.5c0,.1-.1.2-.3.2l-1.6-.4c-.1,0-.2,0-.2-.2l-3-11.2h0l-2.2,10c0,.1-.1.2-.3.2l-1.6-.4c-.1,0-.2-.1-.2-.3v.2Z"/>
    <path class="cls-1" d="M132.04,21.8l-.6,1.2c0,.1-.2.2-.3,0l-3.1-1.6h-.1l-5.9,11.8c0,.1-.2.2-.3,0l-1.5-.7c-.1,0-.2-.2,0-.3l5.9-11.8v-.1l-3-1.5c-.1,0-.2-.2,0-.3l.6-1.2c0-.1.2-.2.3,0l8.2,4.1c.1,0,.2.2,0,.3l-.2.1Z"/>
    <path class="cls-1" d="M132.04,39.6c-.3-.7-.4-1.5-.2-2.3s.5-1.5,1.1-2.3l6.8-8.1c0-.1.2-.1.3,0l1.3,1.1c.1,0,.1.2,0,.3l-6.9,8.2c-.5.6-.8,1.3-.7,2,0,.7.4,1.3.9,1.8.6.5,1.2.7,1.9.6.7,0,1.3-.4,1.8-1.1l6.9-8.2c0-.1.2-.1.3,0l1.3,1.1c.1,0,.1.2,0,.3l-6.8,8.1c-.6.7-1.3,1.2-2,1.5s-1.5.4-2.3.2-1.5-.5-2.3-1.1c-.7-.6-1.2-1.3-1.5-2l.1-.1Z"/>
    <path class="cls-1" d="M146.04,54.9l3.7-6v-.1l-1.4-1.9h-.1l-5.2,3.9h-.3l-1-1.3v-.3l11.9-8.9h.3l2.9,3.9c.7,1,1,2,.8,3.1s-.8,2-1.9,2.8c-.8.6-1.6.9-2.4.9s-1.6-.2-2.3-.6h-.1l-3.7,6.1h0c0,.1-.2.1-.3,0l-1-1.4v-.3l.1.1ZM153.74,42.9l-3.9,2.9v.1l1.6,2.1c.4.5.9.8,1.5.9.6,0,1.2-.1,1.8-.6s1-1,1.1-1.6,0-1.2-.4-1.7l-1.6-2.1h-.1Z"/>
    <path class="cls-1" d="M165.84,64.3l-2.5-5.8h-.1l-4.3,1.9v.1l1.7,3.8c0,.1,0,.2-.1.3l-1.3.5c-.1,0-.2,0-.3-.1l-1.7-3.8h-.1l-4.4,1.9v.1l2.5,5.8c0,.1,0,.2-.1.3l-1.3.5c-.1,0-.2,0-.3-.1l-3.3-7.6c0-.1,0-.2.1-.3l13.6-5.9c.1,0,.2,0,.3.1l3.3,7.6c0,.1,0,.2-.1.3l-1.3.5c-.1,0-.2,0-.3-.1h0Z"/>
  </g>
  <g>
    <path class="cls-1" d="M46.44,140.5l-1.1,1c-.1.1-.2.1-.3,0l-2.5-2.7h-.1l-10.2,9.5c-.1.1-.2.1-.3,0l-1.2-1.3c-.1-.1-.1-.2,0-.3l10.2-9.5v-.1l-2.4-2.6c-.1-.1-.1-.2,0-.3l1.1-1c.1-.1.2-.1.3,0l6.6,7.1c.1.1.1.2,0,.3l-.1-.1Z"/>
    <path class="cls-1" d="M48.34,161.5l1.6-7.3v-.1l-2-1.4h-.1l-3.8,5.7c0,.1-.2.1-.3,0l-1.5-1c-.1,0-.1-.2,0-.3l8.8-13.1c0-.1.2-.1.3,0l4.3,2.9c1.1.7,1.7,1.7,1.9,2.8.2,1.1-.1,2.3-.9,3.4-.6.9-1.3,1.5-2.1,1.8-.8.3-1.6.4-2.5.2h-.1l-1.6,7.4h0c0,.2-.2.2-.3.1l-1.5-1c-.1,0-.1-.2-.1-.3l-.1.2ZM51.74,146.9l-2.9,4.3v.1l2.3,1.6c.6.4,1.2.5,1.8.4.6-.2,1.2-.6,1.6-1.2.5-.7.6-1.3.6-2s-.4-1.2-1-1.6l-2.3-1.6h-.1Z"/>
    <path class="cls-1" d="M66.84,170l.3-2.8v-.1l-4.8-1.7h-.1l-1.6,2.3c0,.1-.2.2-.3.1l-1.7-.6s-.1,0-.1-.1v-.2l9.4-13.3c0-.1.2-.2.3-.1l2,.7c.1,0,.2.1.2.3l-1.3,16.3h0c0,.2-.1.2-.3.2l-1.7-.6c-.1,0-.2-.1-.2-.3l-.1-.1ZM63.14,163.8h0l3.9,1.4h0l.9-8.6h0l-4.9,7.1h0l.1.1Z"/>
    <path class="cls-1" d="M79.24,172.8l-1.9-16.2h0c0-.2.1-.2.3-.2l1.9.3c.2,0,.2.1.2.2l1.3,12.7h0l4.7-11.9c0-.1.1-.2.3-.2l1.8.3h.2v.2l-6.3,15c0,.1-.1.2-.3.2l-1.9-.3c-.1,0-.2,0-.2-.2l-.1.1Z"/>
    <path class="cls-1" d="M102.74,159l-6.7.6v.1l.5,5h.1l4.4-.4q.2,0,.3.2v1.5c.1.2,0,.2,0,.3l-4.4.4v.1l.5,5.1h.1l6.7-.6q.2,0,.3.2v1.5c.1.2,0,.2,0,.3l-8.8.8q-.2,0-.3-.2l-1.4-15.7q0-.2.2-.3l8.8-.8q.2,0,.3.2v1.5c.1.2,0,.2,0,.3l-.6-.1Z"/>
    <path class="cls-1" d="M113.54,170.9l-4.9-15c0-.1,0-.2.1-.3l1.7-.5c.1,0,.2,0,.3.1l4.4,13.3h.1l6.2-2.1c.1,0,.2,0,.3.1l.5,1.4c0,.1,0,.2-.1.3l-8.2,2.7c-.1,0-.2,0-.3-.1l-.1.1Z"/>
  </g>
  <path class="cls-1" d="M119.04,73.7l-31,3c-2.5.2-5.8,2.1-7.2,4.2l-18.2,25.3c-1.5,2-.6,3.5,1.9,3.3l31-3c2.5-.2,5.8-2.1,7.2-4.2l18.2-25.3c1.5-2,.6-3.5-1.9-3.3h0ZM99.44,93.4c-1,4.3-5.3,6.9-9.5,5.9-4.3-1-6.9-5.3-5.9-9.5,1-4.3,5.3-6.9,9.5-5.9,4.3,1,6.9,5.3,5.9,9.5Z"/>
  <g>
    <path class="cls-1" d="M22.84,75.1c-.5,2-2.4,3.2-4.4,2.7s-3.2-2.4-2.7-4.4,2.4-3.2,4.4-2.7,3.2,2.4,2.7,4.4Z"/>
    <path class="cls-1" d="M166.84,108.9c-.5,2-2.4,3.2-4.4,2.7s-3.2-2.4-2.7-4.4,2.4-3.2,4.4-2.7,3.2,2.4,2.7,4.4Z"/>
  </g>
</svg>