<?xml version="1.0" encoding="UTF-8"?>
<svg id="Layer_1" data-name="Layer 1" xmlns="http://www.w3.org/2000/svg" viewBox="0 0 324.8 240.91">
  <defs>
    <style>
      .cls-1 {
        fill: #afdcd9;
      }
    </style>
  </defs>
  <path class="cls-1" d="M11.6,2.01c0-.7.1-1.4.4-2h-6.9c.2.6.4,1.3.4,2,0,3.1-2.4,5.7-5.5,6v6.3c3.1.2,5.5,2.8,5.5,6s-2.4,5.7-5.5,5.9v6.3c3.1.2,5.5,2.8,5.5,6s-2.4,5.7-5.5,5.9v6.3c3.1.2,5.5,2.8,5.5,6s-2.4,5.7-5.5,6v6.3c3.1.2,5.5,2.8,5.5,5.9s-2.4,5.7-5.5,6v6.3c3.1.2,5.5,2.8,5.5,5.9s-2.4,5.7-5.5,6v6.3c3.1.2,5.5,2.8,5.5,6s-2.4,5.7-5.5,5.9v6.3c3.1.2,5.5,2.8,5.5,6s-2.4,5.7-5.5,5.9v6.3c3.1.2,5.5,2.8,5.5,5.9s-2.4,5.7-5.5,6v6.3c3.1.2,5.5,2.8,5.5,5.9s-2.4,5.7-5.5,6v6.3c3.1.2,5.5,2.8,5.5,6s-2.4,5.7-5.5,5.9v6.3c3.1.2,5.5,2.8,5.5,6s-2.4,5.7-5.5,5.9v6.3c3.1.2,5.5,2.8,5.5,6s-2.4,5.7-5.5,6v6.3c3.1.2,5.5,2.8,5.5,5.9s-.1,1.4-.4,2.1h6.9c-.2-.6-.4-1.3-.4-2.1,0-3.3,2.7-6,6-6s6,2.7,6,6-.1,1.4-.4,2.1h6.9c-.2-.6-.4-1.3-.4-2.1,0-3.3,2.7-6,6-6s6,2.7,6,6-.1,1.4-.4,2.1h6.9c-.2-.6-.4-1.3-.4-2.1,0-3.3,2.7-6,6-6s6,2.7,6,6-.1,1.4-.4,2.1h6.9c-.2-.6-.4-1.3-.4-2.1,0-3.3,2.7-6,6-6s6,2.7,6,6-.1,1.4-.4,2.1h6.9c-.2-.6-.4-1.3-.4-2.1,0-3.3,2.7-6,6-6s6,2.7,6,6-.1,1.4-.4,2.1h6.9c-.2-.6-.4-1.3-.4-2.1,0-3.3,2.7-6,6-6s6,2.7,6,6-.1,1.4-.4,2.1h6.9c-.2-.6-.4-1.3-.4-2.1,0-3.3,2.7-6,6-6s6,2.7,6,6-.1,1.4-.4,2.1h6.9c-.2-.6-.4-1.3-.4-2.1,0-3.3,2.7-6,6-6s6,2.7,6,6-.1,1.4-.4,2.1h6.9c-.2-.6-.4-1.3-.4-2.1,0-3.3,2.7-6,6-6s6,2.7,6,6-.1,1.4-.4,2.1h6.9c-.2-.6-.4-1.3-.4-2.1,0-3.3,2.7-6,6-6s6,2.7,6,6-.1,1.4-.4,2.1h6.9c-.2-.6-.4-1.3-.4-2.1,0-3.3,2.7-6,6-6s6,2.7,6,6-.1,1.4-.4,2.1h6.9c-.2-.6-.4-1.3-.4-2.1,0-3.3,2.7-6,6-6s6,2.7,6,6-.1,1.4-.4,2.1h6.9c-.2-.6-.4-1.3-.4-2.1,0-3.3,2.7-6,6-6s6,2.7,6,6-.1,1.4-.4,2.1h6.9c-.2-.6-.4-1.3-.4-2.1,0-3.3,2.7-6,6-6s6,2.7,6,6-.1,1.4-.4,2.1h6.9c-.2-.6-.4-1.3-.4-2.1,0-3.3,2.7-6,6-6s6,2.7,6,6-.1,1.4-.4,2.1h6.9c-.2-.6-.4-1.3-.4-2.1,0-3.3,2.7-6,6-6s6,2.7,6,6-.1,1.4-.4,2.1h6.9c-.2-.6-.4-1.3-.4-2.1,0-3.3,2.7-6,6-6s6,2.7,6,6-.1,1.4-.4,2.1h6.9c-.2-.6-.4-1.3-.4-2.1,0-3.1,2.4-5.7,5.5-5.9v-6.3c-3.1-.2-5.5-2.8-5.5-6s2.4-5.7,5.5-6v-6.3c-3.1-.2-5.5-2.8-5.5-5.9s2.4-5.7,5.5-6v-6.3c-3.1-.2-5.5-2.8-5.5-5.9s2.4-5.7,5.5-6v-6.3c-3.1-.2-5.5-2.8-5.5-6s2.4-5.7,5.5-5.9v-6.3c-3.1-.2-5.5-2.8-5.5-6s2.4-5.7,5.5-5.9v-6.3c-3.1-.2-5.5-2.8-5.5-5.9s2.4-5.7,5.5-6v-6.3c-3.1-.2-5.5-2.8-5.5-5.9s2.4-5.7,5.5-6v-6.3c-3.1-.2-5.5-2.8-5.5-6s2.4-5.7,5.5-5.9v-6.3c-3.1-.2-5.5-2.8-5.5-6s2.4-5.7,5.5-5.9v-6.3c-3.1-.2-5.5-2.8-5.5-6s2.4-5.7,5.5-6v-6.3c-3.1-.2-5.5-2.8-5.5-5.9s2.4-5.7,5.5-6v-6.3c-3.1-.2-5.5-2.8-5.5-5.9s2.4-5.7,5.5-6v-6.3c-3.1-.2-5.5-2.8-5.5-6s.1-1.4.4-2h-6.9c.2.6.4,1.3.4,2,0,3.3-2.7,6-6,6s-6-2.7-6-6,.1-1.4.4-2h-6.9c.2.6.4,1.3.4,2,0,3.3-2.7,6-6,6s-6-2.7-6-6,.1-1.4.4-2h-6.9c.2.6.4,1.3.4,2,0,3.3-2.7,6-6,6s-6-2.7-6-6,.1-1.4.4-2h-6.9c.2.6.4,1.3.4,2,0,3.3-2.7,6-6,6s-6-2.7-6-6,.1-1.4.4-2h-6.9c.2.6.4,1.3.4,2,0,3.3-2.7,6-6,6s-6-2.7-6-6,.1-1.4.4-2h-6.9c.2.6.4,1.3.4,2,0,3.3-2.7,6-6,6s-6-2.7-6-6,.1-1.4.4-2h-6.9c.2.6.4,1.3.4,2,0,3.3-2.7,6-6,6s-6-2.7-6-6,.1-1.4.4-2h-6.9c.2.6.4,1.3.4,2,0,3.3-2.7,6-6,6s-6-2.7-6-6,.1-1.4.4-2h-6.9c.2.6.4,1.3.4,2,0,3.3-2.7,6-6,6s-6-2.7-6-6,.1-1.4.4-2h-6.9c.2.6.4,1.3.4,2,0,3.3-2.7,6-6,6s-6-2.7-6-6,.1-1.4.4-2h-6.9c.2.6.4,1.3.4,2,0,3.3-2.7,6-6,6s-6-2.7-6-6,.1-1.4.4-2h-6.9c.2.6.4,1.3.4,2,0,3.3-2.7,6-6,6s-6-2.7-6-6,.1-1.4.4-2h-6.9c.2.6.4,1.3.4,2,0,3.3-2.7,6-6,6s-6-2.7-6-6,.1-1.4.4-2h-6.9c.2.6.4,1.3.4,2,0,3.3-2.7,6-6,6s-6-2.7-6-6,.1-1.4.4-2h-6.9c.2.6.4,1.3.4,2,0,3.3-2.7,6-6,6s-6-2.7-6-6,.1-1.4.4-2h-6.9c.2.6.4,1.3.4,2,0,3.3-2.7,6-6,6s-6-2.7-6-6,.1-1.4.4-2h-6.9c.2.6.4,1.3.4,2,0,3.3-2.7,6-6,6s-6-2.7-6-6h0ZM314,12.41v215H11V12.41h303Z"/>
</svg>