<?xml version="1.0" encoding="UTF-8"?>
<svg id="Layer_1" data-name="Layer 1" xmlns="http://www.w3.org/2000/svg" viewBox="0 0 286.95 254.83">
  <defs>
    <style>
      .cls-1 {
        stroke-dasharray: .2 3;
      }

      .cls-1, .cls-2 {
        fill: none;
        stroke: #dfdfdf;
        stroke-linecap: round;
        stroke-linejoin: round;
      }

      .cls-3 {
        fill: #fcce38;
      }

      .cls-4 {
        fill: #fefefe;
      }

      .cls-5 {
        fill: #e4e2e5;
      }
    </style>
  </defs>
  <rect class="cls-5" x="47.89" y="6.5" width="189.3" height="246.6" rx="18.9" ry="18.9" transform="translate(-27.23 221.13) rotate(-70.6)"/>
  <rect class="cls-4" x="49.18" y="2.64" width="189.3" height="246.6" rx="18.9" ry="18.9" transform="translate(-22.74 219.77) rotate(-70.6)"/>
  <path class="cls-3" d="M285.63,94.16l-7.1,20L45.93,32.16l7.1-20C56.03,3.66,63.23-1.64,69.03.46l211.5,74.6c5.8,2,8.1,10.6,5.1,19.2v-.1Z"/>
  <g>
    <path class="cls-3" d="M63.33,154.56l-10.7-3.8,4-28.8-4.8-1.7-9.5,26.9-10.5-3.7,23.6-67,15.9,5.6c4.5,1.6,7.8,4.2,9.7,7.9,2.2,4.1,2.3,8.8.4,14.1l-2.5,7.2c-1.9,5.4-5,9-9.2,10.9-.6.3-1.3.5-2,.7l-4.4,31.7ZM70.83,100.46c.8-2.2.9-4,.3-5.3-.6-1.1-1.7-1.9-3.5-2.5l-5.4-1.9-6.7,19.1,5.4,1.9c1.8.6,3.2.7,4.3.2,1.3-.6,2.3-2,3.1-4.3l2.5-7.2h0Z"/>
    <path class="cls-3" d="M85.73,162.46l-15.9-5.6,23.6-67,15.9,5.6c4.5,1.6,7.8,4.2,9.7,7.9,2.2,4.1,2.3,8.8.4,14.1l-12.2,34.5c-.9,2.6-2.1,4.8-3.6,6.6-1.7,1.9-3.5,3.2-5.6,4-3.6,1.5-7.7,1.5-12.3-.1h0ZM84.03,150.06l5.4,1.9c1.9.7,3.4.8,4.4.4,1.2-.5,2.1-1.8,2.9-4l12.2-34.5c.8-2.2.9-4,.3-5.3-.6-1.1-1.7-1.9-3.5-2.5l-5.4-1.9-16.2,46-.1-.1Z"/>
  </g>
  <g>
    <path class="cls-3" d="M181.83,158.06c2.9,5.6,3.3,11.3,1.2,17.2l-1.5,4.3c-1.9,5.3-4.9,8.9-9.2,10.9-3.7,1.6-7.9,1.6-12.5,0s-7.8-4.2-9.7-7.8c-2.1-4.2-2.2-8.9-.4-14.2l1.6-4.5,10.5,3.7-1.6,4.5c-.8,2.3-.9,4.1-.3,5.3.6,1.1,1.7,1.9,3.5,2.5,1.9.7,3.3.7,4.3.2,1.2-.5,2.3-1.9,3.1-4.3l1.5-4.3c1-2.9.8-5.9-.8-8.9-.5-1-1.1-1.8-1.7-2.5-.6-.7-1-1.1-1.2-1.2l-3-2.6,2.5-7.2h3.9c1.8-.3,3.4-.7,4.9-1.3,3-1.3,4.9-3.3,6-6.3l.5-1.3c.8-2.4.9-4.1.3-5.3-.5-1-1.7-1.9-3.5-2.5s-3.2-.7-4.3-.2c-1.3.6-2.3,2-3.1,4.3l-.6,1.7-10.5-3.7.6-1.7c1.9-5.3,4.9-8.9,9.2-10.9,3.7-1.6,7.9-1.6,12.5,0s7.8,4.2,9.7,7.8c2.1,4.2,2.2,8.9.4,14.2l-.5,1.3c-2.1,5.9-6,10.1-11.8,12.7v.1Z"/>
    <path class="cls-3" d="M219.03,158.46l1.8-5.2c.8-2.4.9-4.1.3-5.3-.5-1-1.7-1.9-3.5-2.5s-3.2-.7-4.3-.2c-1.3.6-2.3,2-3.1,4.3l-4.2,11.9c1.7,0,3.6.5,5.6,1.2,4.6,1.6,7.8,4.2,9.7,7.8,2.2,4.1,2.3,8.8.4,14.2l-2.8,7.9c-1.9,5.3-4.9,8.9-9.2,10.9-3.7,1.6-7.9,1.6-12.5,0s-7.8-4.2-9.7-7.8c-2.1-4.2-2.2-8.9-.4-14.2l2.8-7.9,9.8-27.7c1.9-5.3,4.9-8.9,9.2-10.9,3.7-1.6,7.9-1.6,12.5,0s7.8,4.2,9.7,7.8c2.1,4.2,2.2,8.9.4,14.2l-1.8,5.2-10.5-3.7h-.2ZM200.33,177.16l-2.8,7.9c-.8,2.3-.9,4.1-.3,5.3.6,1.1,1.7,1.9,3.5,2.5,1.9.7,3.3.7,4.3.2,1.2-.5,2.3-1.9,3.1-4.3l2.8-7.9c.8-2.4.9-4.1.3-5.3-.5-1-1.7-1.9-3.5-2.5s-3.2-.7-4.3-.2c-1.3.6-2.3,2-3.1,4.3Z"/>
  </g>
  <g>
    <line class="cls-2" x1="173.13" y1="37.16" x2="173.13" y2="37.26"/>
    <line class="cls-1" x1="172.13" y1="40.06" x2="110.73" y2="214.16"/>
    <line class="cls-2" x1="110.23" y1="215.66" x2="110.23" y2="215.66"/>
  </g>
  <path class="cls-4" d="M75.33,24.86l-2.1,8.9,1.9-.6c.4-.1.7-.4.9-.7l4.3-8.6c6.3-1.4,8.1-2.8,7.9-3.9-.2-1.1-2.5-1.6-8.8-.2l-7.5-6c-.3-.2-.7-.3-1.1-.3l-2,.3,5.7,7.2c-2.8.8-5.3,1.7-7,2.4l-2.9-2.6-1.3.3,1.8,3.3c-.5.2-.7.5-.6.8,0,.3.4.4.9.5l-.3,3.7,1.3-.3,1.6-3.6c1.9,0,4.6-.3,7.4-.7l-.1.1Z"/>
</svg>