<?xml version="1.0" encoding="UTF-8"?>
<svg id="Layer_1" data-name="Layer 1" xmlns="http://www.w3.org/2000/svg" viewBox="0 0 282.7 163.1">
  <defs>
    <style>
      .cls-1 {
        fill: #0963c9;
      }
    </style>
  </defs>
  <g>
    <path class="cls-1" d="M53.1,92.9h-6.6l-1.3,6.3h-1.3l5.2-23.8h1.3l5.4,23.8h-1.3l-1.4-6.2v-.1ZM52.7,91.7l-3-13.6-2.9,13.7h5.9v-.1Z"/>
    <path class="cls-1" d="M72.9,99.1h-1.3l-3.4-10.5h-3.8v10.6h-1.2v-23.8c-.1,0,4.8,0,4.8,0,1.4,0,2.6.4,3.4,1.2,1,.9,1.4,2.2,1.4,3.9v3c0,1.7-.4,3-1.4,3.9-.5.5-1.2.8-2,1,0,0,3.5,10.7,3.5,10.7ZM70.5,86.4c.7-.6,1-1.6,1-3v-3c0-1.4-.4-2.4-1.1-3-.6-.6-1.5-.8-2.6-.8h-3.6v10.7h3.6c1.1,0,1.9-.3,2.5-.9h.2Z"/>
    <path class="cls-1" d="M85.5,99h-4.9l-.1-23.8h4.3c1.5,0,2.6.3,3.4,1.1,1,.9,1.5,2.1,1.5,3.8v2.5c0,1.7-.5,3-1.4,3.9-.1.2-.3.3-.5.4.4.2.8.5,1.1.7,1,.9,1.5,2.2,1.5,3.9v2.4c0,1.7-.5,3-1.4,3.9-.8.7-2,1.1-3.4,1.1l-.1.1ZM81.8,86.5h3.1c1.1,0,2-.3,2.5-.9.7-.6,1-1.6,1-3v-2.5c0-1.4-.4-2.3-1-2.9-.6-.5-1.5-.8-2.6-.8h-3.1v10l.1.1ZM81.9,97.8h3.6c2.4,0,3.6-1.3,3.6-3.7v-2.4c0-1.3-.4-2.3-1.1-3-.6-.6-1.5-.8-2.6-.8h-3.6v10l.1-.1Z"/>
    <path class="cls-1" d="M106.4,92.6h-6.6l-1.3,6.3h-1.3l5.2-23.8h1.3l5.4,23.8h-1.3l-1.4-6.2v-.1ZM106.1,91.4l-3-13.6-2.9,13.7h5.9v-.1Z"/>
    <path class="cls-1" d="M120.9,99.1c-1.4,0-2.6-.4-3.4-1.2-1-.9-1.4-2.2-1.4-3.9v-3.3h1.2v3.3c0,1.4.4,2.4,1.1,3,.6.6,1.4.8,2.6.8s2-.3,2.6-.9c.7-.7,1-1.7,1-3v-19h1.2v19c.1,1.7-.4,3-1.3,3.9-.9.8-2,1.2-3.4,1.2l-.2.1Z"/>
    <path class="cls-1" d="M134.9,76.2v9.7h5.2v1.3h-5.1v10.3h7.3v1.3h-8.5v-23.8c-.1,0,8.4,0,8.4,0v1.3h-7.3v-.1Z"/>
    <path class="cls-1" d="M170,76h-4.5l.1,22.6h-1.3l-.1-22.5h-4.5v-1.2h10.3v1.2-.1Z"/>
    <path class="cls-1" d="M181.6,98.8c-1.4,0-2.6-.4-3.4-1.2-1-.9-1.5-2.2-1.5-3.9v-14.2c0-1.7.4-3,1.4-3.9.8-.8,2-1.2,3.4-1.2,1.5,0,2.6.4,3.4,1.2,1,.9,1.5,2.2,1.5,3.9v14.2c0,1.7-.4,3-1.4,3.9-.8.8-2,1.2-3.4,1.2ZM181.5,75.7c-1.1,0-1.9.3-2.5.9-.7.6-1,1.6-1,3v14.2c0,1.4.4,2.4,1.1,3,.6.6,1.4.8,2.6.8,1.1,0,2-.3,2.6-.9.7-.7,1-1.7,1-3v-14.2c0-1.3-.4-2.3-1.1-3-.6-.6-1.5-.8-2.6-.8h-.1Z"/>
    <path class="cls-1" d="M199.1,98.7c-1.4,0-2.6-.4-3.4-1.2-1-.9-1.4-2.2-1.4-3.9v-19h1.2v19c.1,1.3.4,2.3,1.1,3,.6.6,1.5.8,2.6.8s1.9-.3,2.6-.9c.7-.7,1-1.7,1-3v-19h1.2v19c.1,1.7-.4,3-1.3,3.9-.9.8-2,1.2-3.4,1.2l-.2.1Z"/>
    <path class="cls-1" d="M221.6,98.3h-1.3l-3.4-10.5h-3.8v10.6h-1.2v-23.8c-.1,0,4.8,0,4.8,0,1.4,0,2.6.4,3.4,1.2,1,.9,1.4,2.2,1.4,3.9v3c0,1.7-.4,3-1.4,3.9-.5.5-1.2.8-2,1l3.5,10.7ZM219.2,85.6c.7-.6,1-1.6,1-3v-3c0-1.4-.4-2.4-1.1-3-.6-.6-1.5-.8-2.6-.8h-3.6v10.7h3.6c1.1,0,1.9-.3,2.5-.9h.2Z"/>
    <path class="cls-1" d="M234,98.6c-1.5,0-2.6-.4-3.4-1.2-1-.9-1.5-2.2-1.5-3.9v-3.5h1.2v3.5c0,1.3.4,2.3,1.1,3,.6.6,1.5.8,2.6.8s1.9-.3,2.5-.9c.7-.6,1-1.6,1-3v-1.7c0-1.6-.5-2.9-1.3-3.7-.9-.8-1.7-1.4-2.6-1.7-1-.4-2.1-1-3.1-2-1-.9-1.6-2.4-1.6-4.4v-.7c0-1.7.5-3,1.4-3.9.8-.8,2-1.2,3.4-1.2s2.6.4,3.4,1.2c1,.9,1.4,2.2,1.4,3.9v2.3h-1.2v-2.3c0-1.4-.4-2.4-1.1-3-.6-.6-1.4-.8-2.6-.8-1.1,0-2,.3-2.6.9-.7.7-1,1.7-1,3v.7c0,1.2.3,2.1.8,2.9.5.7,1,1.3,1.6,1.6.5.3,1.1.6,1.6.8,3.1,1.3,4.6,3.5,4.6,6.5v1.7c0,1.7-.5,3-1.4,3.9-.9.8-2,1.2-3.4,1.2h.2Z"/>
  </g>
  <g>
    <path class="cls-1" d="M33.5,153.1c-.5,0-.9-.4-1-.8,0-.4-.2-.7-.3-1-.2-.6.1-1.2.7-1.4.6-.2,1.2.1,1.4.7.1.4.2.8.3,1.1.2.6-.2,1.2-.8,1.4h-.4.1ZM37,153.1c-.6,0-1-.5-1-1.1s.5-1.1,1.1-1.1h1.1c.6,0,1.1.5,1.1,1.1s-.5,1.1-1.1,1.1h-1.2ZM42.7,153c-.6,0-1-.5-1-1.1s.5-1.1,1.1-1.1h1.1c.6,0,1.1.5,1.1,1.1s-.5,1.1-1.1,1.1h-1.2ZM48.3,153c-.6,0-1-.5-1-1.1s.5-1.1,1.1-1.1h1.1c.6,0,1.1.5,1.1,1.1s-.5,1.1-1.1,1.1h-1.2ZM54,153c-.6,0-1-.5-1-1.1s.5-1.1,1.1-1.1h1.1c.6,0,1.1.5,1.1,1.1s-.5,1.1-1.1,1.1h-1.2ZM59.7,152.9c-.6,0-1-.5-1-1.1s.5-1.1,1.1-1.1h1.1c.6,0,1.1.5,1.1,1.1s-.5,1.1-1.1,1.1h-1.2ZM65.3,152.9c-.6,0-1-.5-1-1.1s.5-1.1,1.1-1.1h1.1c.6,0,1.1.5,1.1,1.1s-.5,1.1-1.1,1.1h-1.2ZM71,152.9c-.6,0-1-.5-1-1.1s.5-1.1,1.1-1.1h1.1c.6,0,1.1.5,1.1,1.1s-.5,1.1-1.1,1.1h-1.2ZM76.7,152.8c-.6,0-1-.5-1-1.1s.5-1.1,1.1-1.1h1.1c.6,0,1.1.5,1.1,1.1s-.5,1.1-1.1,1.1h-1.2ZM82.3,152.8c-.6,0-1-.5-1-1.1s.5-1.1,1.1-1.1h1.1c.6,0,1.1.5,1.1,1.1s-.5,1.1-1.1,1.1h-1.2ZM88,152.8c-.6,0-1-.5-1-1.1s.5-1.1,1.1-1.1h1.1c.6,0,1.1.5,1.1,1.1s-.5,1.1-1.1,1.1h-1.2ZM31.5,147.8c-.4,0-.7-.3-.9-.6s-.3-.6-.5-1c-.3-.6,0-1.2.5-1.5.6-.3,1.2,0,1.5.5.2.3.4.7.5,1,.3.6,0,1.2-.5,1.5-.2,0-.4.1-.6.1ZM93.7,152.7c-.6,0-1-.5-1-1.1s.5-1.1,1.1-1.1h1.1c.6,0,1.1.5,1.1,1.1s-.5,1.1-1.1,1.1h-1.2ZM99.3,152.7c-.6,0-1-.5-1-1.1s.5-1.1,1.1-1.1h1.1c.6,0,1.1.5,1.1,1.1s-.5,1.1-1.1,1.1h-1.2ZM105,152.7c-.6,0-1-.5-1-1.1s.5-1.1,1.1-1.1h1.1c.6,0,1.1.5,1.1,1.1s-.5,1.1-1.1,1.1h-1.2ZM110.7,152.6c-.6,0-1-.5-1-1.1s.5-1.1,1.1-1.1h1.1c.6,0,1.1.5,1.1,1.1s-.5,1.1-1.1,1.1h-1.2ZM116.4,152.6c-.6,0-1-.5-1-1.1s.5-1.1,1.1-1.1h1.1c.6,0,1.1.5,1.1,1.1s-.5,1.1-1.1,1.1h-1.2ZM122,152.6c-.6,0-1-.5-1-1.1s.5-1.1,1.1-1.1h1.1c.6,0,1.1.5,1.1,1.1s-.5,1.1-1.1,1.1h-1.2ZM127.7,152.5c-.6,0-1-.5-1-1.1s.5-1.1,1.1-1.1h1.1c.6,0,1.1.5,1.1,1.1s-.5,1.1-1.1,1.1h-1.2ZM133.4,152.5c-.6,0-1-.5-1-1.1s.5-1.1,1.1-1.1h1.1c.6,0,1.1.5,1.1,1.1s-.5,1.1-1.1,1.1h-1.2ZM139,152.5c-.6,0-1-.5-1-1.1s.5-1.1,1.1-1.1h1.1c.6,0,1.1.5,1.1,1.1s-.5,1.1-1.1,1.1h-1.2ZM144.7,152.4c-.6,0-1-.5-1-1.1s.5-1.1,1.1-1.1h1.1c.6,0,1.1.5,1.1,1.1s-.5,1.1-1.1,1.1h-1.2ZM28.5,143c-.3,0-.6-.2-.8-.4-.2-.3-.4-.6-.7-.9-.4-.5-.3-1.2.2-1.6.5-.4,1.2-.3,1.6.2.2.3.5.6.7.9.4.5.3,1.2-.2,1.6-.2.2-.5.2-.8.2ZM150.4,152.4c-.6,0-1-.5-1-1.1s.5-1.1,1.1-1.1h1.1c.6,0,1.1.5,1.1,1.1s-.5,1.1-1.1,1.1h-1.2ZM156,152.4c-.6,0-1-.5-1-1.1s.5-1.1,1.1-1.1h1.1c.6,0,1.1.5,1.1,1.1s-.5,1.1-1.1,1.1h-1.2ZM161.7,152.3c-.6,0-1-.5-1-1.1s.5-1.1,1.1-1.1h1.1c.6,0,1.1.5,1.1,1.1s-.5,1.1-1.1,1.1h-1.2ZM167.4,152.3c-.6,0-1-.5-1-1.1s.5-1.1,1.1-1.1h1.1c.6,0,1.1.5,1.1,1.1s-.5,1.1-1.1,1.1h-1.2ZM173,152.3c-.6,0-1-.5-1-1.1s.5-1.1,1.1-1.1h1.1c.6,0,1.1.5,1.1,1.1s-.5,1.1-1.1,1.1h-1.2ZM178.7,152.2c-.6,0-1-.5-1-1.1s.5-1.1,1.1-1.1h1.1c.6,0,1.1.5,1.1,1.1s-.5,1.1-1.1,1.1h-1.2ZM184.4,152.2c-.6,0-1-.5-1-1.1s.5-1.1,1.1-1.1h1.1c.6,0,1.1.5,1.1,1.1s-.5,1.1-1.1,1.1h-1.2ZM190,152.2c-.6,0-1-.5-1-1.1s.5-1.1,1.1-1.1h1.1c.6,0,1.1.5,1.1,1.1s-.5,1.1-1.1,1.1h-1.2ZM24.7,138.8c-.2,0-.5-.1-.7-.3-.3-.2-.5-.5-.8-.7-.5-.4-.5-1.1-.1-1.6s1.1-.5,1.6-.1c.3.3.6.5.9.8.5.4.5,1.1,0,1.6-.2.3-.6.4-.9.4v-.1ZM195.7,152.1c-.6,0-1-.5-1-1.1s.5-1.1,1.1-1.1h1.1c.6,0,1.1.5,1.1,1.1s-.5,1.1-1.1,1.1h-1.2ZM201.4,152.1c-.6,0-1-.5-1-1.1s.5-1.1,1.1-1.1h1.1c.6,0,1.1.5,1.1,1.1s-.5,1.1-1.1,1.1h-1.2ZM207.1,152.1c-.6,0-1-.5-1-1.1s.5-1.1,1.1-1.1h1.1c.6,0,1.1.5,1.1,1.1s-.5,1.1-1.1,1.1h-1.2ZM212.7,152c-.6,0-1-.5-1-1.1s.5-1.1,1.1-1.1h1.1c.6,0,1.1.5,1.1,1.1s-.5,1.1-1.1,1.1h-1.2ZM218.4,152c-.6,0-1-.5-1-1.1s.5-1.1,1.1-1.1h1.1c.6,0,1.1.5,1.1,1.1s-.5,1.1-1.1,1.1h-1.2ZM224.1,152c-.6,0-1-.5-1-1.1s.5-1.1,1.1-1.1h1.1c.6,0,1.1.5,1.1,1.1s-.5,1.1-1.1,1.1h-1.2ZM20.2,135.4c-.2,0-.3,0-.5-.2-.3-.2-.6-.4-.9-.6-.5-.3-.7-1-.4-1.5.3-.5,1-.7,1.5-.4.3.2.7.4,1,.6.5.3.7,1,.4,1.6-.2.4-.6.6-1.1.5h0ZM229.7,151.9c-.6,0-1-.5-1-1.1s.5-1.1,1.1-1.1h1.1c.6,0,1.1.5,1.1,1.1s-.5,1.1-1.1,1.1h-1.2ZM235.4,151.9c-.6,0-1-.5-1-1.1s.5-1.1,1.1-1.1h1.1c.6,0,1.1.5,1.1,1.1s-.5,1.1-1.1,1.1h-1.2ZM241.1,151.8c-.6,0-1-.5-1-1.1s.5-1.1,1.1-1.1h1.1c.6,0,1.1.5,1.1,1.1s-.5,1.1-1.1,1.1h-1.2ZM246.7,151.8c-.6,0-1-.5-1-1.1s.5-1.1,1.1-1.1h1.1c.6,0,1.1.5,1.1,1.1s-.5,1.1-1.1,1.1h-1.2ZM15.2,132.9h-.3c-.3-.1-.7-.3-1-.4-.6-.2-.9-.8-.7-1.4.2-.6.8-.9,1.4-.7.4.1.7.3,1.1.4.6.2.9.9.6,1.5-.2.5-.7.8-1.1.7v-.1ZM251.4,150.4h-.3c-.6-.2-.9-.8-.7-1.4.1-.4.2-.7.4-1.1.2-.6.9-.9,1.5-.7.6.2.9.9.7,1.5-.1.3-.2.7-.4,1-.2.5-.7.8-1.2.8v-.1ZM12,129.4c-.6,0-1-.5-1-1.1v-1.1c0-.6.5-1.1,1.1-1.1s1.1.5,1.1,1.1v1.1c0,.6-.5,1.1-1.1,1.1h-.1ZM253.6,145.2c-.2,0-.3,0-.4-.1-.6-.3-.8-1-.5-1.5.2-.3.4-.7.6-1,.3-.5,1-.7,1.6-.4.5.3.7,1,.4,1.6-.2.3-.4.6-.5.9-.2.4-.7.6-1.1.6l-.1-.1ZM12,123.8c-.6,0-1-.5-1-1.1v-1.1c0-.6.5-1.1,1.1-1.1s1.1.5,1.1,1.1v1.1c0,.6-.5,1.1-1.1,1.1h-.1ZM256.7,140.5c-.2,0-.4,0-.6-.2-.5-.4-.6-1.1-.2-1.6.2-.3.5-.6.8-.9.4-.5,1.1-.5,1.6-.1s.5,1.1.1,1.6c-.2.3-.5.6-.7.8-.2.3-.6.4-1,.4h0ZM12,118.1c-.6,0-1-.5-1-1.1v-1.1c0-.6.5-1.1,1.1-1.1s1.1.5,1.1,1.1v1.1c0,.6-.5,1.1-1.1,1.1h-.1ZM260.7,136.4c-.3,0-.6-.2-.8-.4-.4-.5-.3-1.2.1-1.6.3-.3.6-.5.9-.7.5-.4,1.2-.3,1.6.2s.3,1.2-.2,1.6c-.3.2-.6.5-.8.7-.2.2-.5.3-.8.3v-.1ZM265.3,133.2c-.4,0-.7-.2-.9-.6-.3-.5-.1-1.2.4-1.5.3-.2.7-.4,1-.6.6-.3,1.2,0,1.5.5.3.6,0,1.2-.5,1.5-.3.2-.6.3-1,.5-.2.1-.4.2-.7.1l.2.1ZM11.9,112.4c-.6,0-1-.5-1-1.1v-1.1c0-.6.5-1.1,1.1-1.1s1.1.5,1.1,1.1v1.1c0,.6-.5,1.1-1.1,1.1h-.1ZM270.5,130.8c-.4,0-.8-.3-1-.8-.2-.6.1-1.2.7-1.4.4-.1.7-.2,1.1-.4.6-.2,1.2.2,1.4.8.2.6-.2,1.2-.8,1.4-.3.1-.7.2-1,.3h-.5l.1.1ZM11.9,106.8c-.6,0-1-.5-1-1.1v-1.1c0-.6.5-1.1,1.1-1.1s1.1.5,1.1,1.1v1.1c0,.6-.5,1.1-1.1,1.1h-.1ZM272.2,126.4c-.6,0-1-.5-1-1.1v-1.1c0-.6.5-1.1,1.1-1.1s1.1.5,1.1,1.1v1.1c0,.6-.5,1.1-1.1,1.1h-.1ZM11.9,101.1c-.6,0-1-.5-1-1.1v-1.1c0-.6.5-1.1,1.1-1.1s1.1.5,1.1,1.1v1.1c0,.6-.5,1.1-1.1,1.1h-.1ZM272.1,120.8c-.6,0-1-.5-1-1.1v-1.1c0-.6.5-1.1,1.1-1.1s1.1.5,1.1,1.1v1.1c0,.6-.5,1.1-1.1,1.1h-.1ZM11.8,95.4c-.6,0-1-.5-1-1.1v-1.1c0-.6.5-1.1,1.1-1.1s1.1.5,1.1,1.1v1.1c0,.6-.5,1.1-1.1,1.1h-.1ZM272.1,115.1c-.6,0-1-.5-1-1.1v-1.1c0-.6.5-1.1,1.1-1.1s1.1.5,1.1,1.1v1.1c0,.6-.5,1.1-1.1,1.1h-.1ZM11.8,89.8c-.6,0-1-.5-1-1.1v-1.1c0-.6.5-1.1,1.1-1.1s1.1.5,1.1,1.1v1.1c0,.6-.5,1.1-1.1,1.1h-.1ZM272.1,109.4c-.6,0-1-.5-1-1.1v-1.1c0-.6.5-1.1,1.1-1.1s1.1.5,1.1,1.1v1.1c0,.6-.5,1.1-1.1,1.1h-.1ZM11.8,84.1c-.6,0-1-.5-1-1.1v-1.1c0-.6.5-1.1,1.1-1.1s1.1.5,1.1,1.1v1.1c0,.6-.5,1.1-1.1,1.1h-.1ZM272,103.8c-.6,0-1-.5-1-1.1v-1.1c0-.6.5-1.1,1.1-1.1s1.1.5,1.1,1.1v1.1c0,.6-.5,1.1-1.1,1.1h-.1ZM11.7,78.4c-.6,0-1-.5-1-1.1v-1.1c0-.6.5-1.1,1.1-1.1s1.1.5,1.1,1.1v1.1c0,.6-.5,1.1-1.1,1.1h-.1ZM272,98.1c-.6,0-1-.5-1-1.1v-1.1c0-.6.5-1.1,1.1-1.1s1.1.5,1.1,1.1v1.1c0,.6-.5,1.1-1.1,1.1h-.1ZM11.7,72.8c-.6,0-1-.5-1-1.1v-1.1c0-.6.5-1.1,1.1-1.1s1.1.5,1.1,1.1v1.1c0,.6-.5,1.1-1.1,1.1h-.1ZM272,92.4c-.6,0-1-.5-1-1.1v-1.1c0-.6.5-1.1,1.1-1.1s1.1.5,1.1,1.1v1.1c0,.6-.5,1.1-1.1,1.1h-.1ZM11.7,67.1c-.6,0-1-.5-1-1.1v-1.1c0-.6.5-1.1,1.1-1.1s1.1.5,1.1,1.1v1.1c0,.6-.5,1.1-1.1,1.1h-.1ZM271.9,86.8c-.6,0-1-.5-1-1.1v-1.1c0-.6.5-1.1,1.1-1.1s1.1.5,1.1,1.1v1.1c0,.6-.5,1.1-1.1,1.1h-.1ZM11.6,61.4c-.6,0-1-.5-1-1.1v-1.1c0-.6.5-1.1,1.1-1.1s1.1.5,1.1,1.1v1.1c0,.6-.5,1.1-1.1,1.1h-.1ZM271.9,81.1c-.6,0-1-.5-1-1.1v-1.1c0-.6.5-1.1,1.1-1.1s1.1.5,1.1,1.1v1.1c0,.6-.5,1.1-1.1,1.1h-.1ZM11.6,55.7c-.6,0-1-.5-1-1.1v-1.1c0-.6.5-1.1,1.1-1.1s1.1.5,1.1,1.1v1.1c0,.6-.5,1.1-1.1,1.1h-.1ZM271.9,75.4c-.6,0-1-.5-1-1.1v-1.1c0-.6.5-1.1,1.1-1.1s1.1.5,1.1,1.1v1.1c0,.6-.5,1.1-1.1,1.1h-.1ZM11.6,50.1c-.6,0-1-.5-1-1.1v-1.1c0-.6.5-1.1,1.1-1.1s1.1.5,1.1,1.1v1.1c0,.6-.5,1.1-1.1,1.1h-.1ZM271.8,69.8c-.6,0-1-.5-1-1.1v-1.1c0-.6.5-1.1,1.1-1.1s1.1.5,1.1,1.1v1.1c0,.6-.5,1.1-1.1,1.1h-.1ZM11.5,44.4c-.6,0-1-.5-1-1.1v-1.1c0-.6.5-1.1,1.1-1.1s1.1.5,1.1,1.1v1.1c0,.6-.5,1.1-1.1,1.1h-.1ZM271.8,64.1c-.6,0-1-.5-1-1.1v-1.1c0-.6.5-1.1,1.1-1.1s1.1.5,1.1,1.1v1.1c0,.6-.5,1.1-1.1,1.1h-.1ZM11.5,38.7c-.6,0-1-.5-1-1.1v-1.1c0-.6.5-1.1,1.1-1.1s1.1.5,1.1,1.1v1.1c0,.6-.5,1.1-1.1,1.1h-.1ZM271.8,58.4c-.6,0-1-.5-1-1.1v-1.1c0-.6.5-1.1,1.1-1.1s1.1.5,1.1,1.1v1.1c0,.6-.5,1.1-1.1,1.1h-.1ZM14.3,35.1c-.4,0-.8-.3-1-.7-.2-.6,0-1.2.6-1.5.3-.1.7-.3,1-.4.6-.2,1.2,0,1.5.6.2.6,0,1.2-.6,1.5-.4.2-.7.3-1.1.4h-.5l.1.1ZM19.4,32.6c-.3,0-.7-.2-.9-.5-.3-.5-.2-1.2.4-1.6.3-.2.6-.4.9-.6.5-.4,1.2-.2,1.6.3s.2,1.2-.3,1.6c-.3.2-.7.4-1,.6-.2.1-.5.2-.7.2ZM271.7,52.7c-.6,0-1-.5-1-1.1v-1.1c0-.6.5-1.1,1.1-1.1s1.1.5,1.1,1.1v1.1c0,.6-.5,1.1-1.1,1.1h-.1ZM23.9,29.1c-.3,0-.5-.1-.7-.4-.4-.5-.4-1.2,0-1.6.3-.2.5-.5.8-.8.4-.4,1.2-.4,1.6,0s.4,1.2,0,1.6c-.3.3-.6.5-.9.8-.2.2-.6.3-.9.3l.1.1ZM271.7,47.1c-.6,0-1-.5-1-1.1v-1.1c0-.6.5-1.1,1.1-1.1s1.1.5,1.1,1.1v1.1c0,.6-.5,1.1-1.1,1.1h-.1ZM27.7,24.9c-.2,0-.4,0-.6-.2-.5-.4-.6-1.1-.2-1.6.2-.3.4-.6.6-.9.4-.5,1.1-.6,1.6-.3.5.4.6,1.1.3,1.6-.2.3-.5.6-.7,1-.2.3-.6.5-1,.5v-.1ZM271.7,41.4c-.6,0-1-.5-1-1.1v-1.1c0-.6.5-1.1,1.1-1.1s1.1.5,1.1,1.1v1.1c0,.6-.5,1.1-1.1,1.1h-.1ZM30.6,20.1c-.1,0-.3,0-.4-.1-.6-.3-.8-1-.5-1.5.2-.3.3-.7.5-1,.3-.6.9-.8,1.5-.6.6.3.8.9.6,1.5-.2.4-.3.7-.5,1.1s-.7.7-1.1.6h-.1ZM271.6,35.7c-.6,0-1-.5-1-1.1v-1.1c0-.6.5-1.1,1.1-1.1s1.1.5,1.1,1.1v1.1c0,.6-.5,1.1-1.1,1.1h-.1ZM32.6,14.8h-.2c-.6-.2-1-.8-.8-1.4v-.3c.2-.5.7-.8,1.2-.8h.8c.6,0,1.1.5,1.1,1.1s-.5,1.1-1.1,1.1h-.2c-.2.2-.5.3-.8.3ZM267.5,33.1h-.4c-.4-.2-.7-.3-1.1-.5-.6-.3-.8-.9-.5-1.5s.9-.8,1.5-.5c.3.2.7.3,1,.5.6.2.8.9.6,1.5-.2.5-.7.7-1.1.7v-.2ZM38.1,14.5c-.6,0-1-.5-1-1.1s.5-1.1,1.1-1.1h1.1c.6,0,1.1.5,1.1,1.1s-.5,1.1-1.1,1.1h-1.2ZM43.8,14.5c-.6,0-1-.5-1-1.1s.5-1.1,1.1-1.1h1.1c.6,0,1.1.5,1.1,1.1s-.5,1.1-1.1,1.1h-1.2ZM49.4,14.5c-.6,0-1-.5-1-1.1s.5-1.1,1.1-1.1h1.1c.6,0,1.1.5,1.1,1.1s-.5,1.1-1.1,1.1h-1.2ZM55.1,14.4c-.6,0-1-.5-1-1.1s.5-1.1,1.1-1.1h1.1c.6,0,1.1.5,1.1,1.1s-.5,1.1-1.1,1.1h-1.2ZM60.8,14.4c-.6,0-1-.5-1-1.1s.5-1.1,1.1-1.1h1.1c.6,0,1.1.5,1.1,1.1s-.5,1.1-1.1,1.1h-1.2ZM262.5,30.3c-.2,0-.4,0-.5-.2-.3-.2-.6-.4-1-.7-.5-.4-.6-1.1-.2-1.6s1.1-.6,1.6-.2c.3.2.6.4.9.6.5.3.7,1.1.3,1.6-.2.4-.6.5-1,.5h-.1ZM66.4,14.3c-.6,0-1-.5-1-1.1s.5-1.1,1.1-1.1h1.1c.6,0,1.1.5,1.1,1.1s-.5,1.1-1.1,1.1h-1.2ZM72.1,14.3c-.6,0-1-.5-1-1.1s.5-1.1,1.1-1.1h1.1c.6,0,1.1.5,1.1,1.1s-.5,1.1-1.1,1.1h-1.2ZM77.8,14.3c-.6,0-1-.5-1-1.1s.5-1.1,1.1-1.1h1.1c.6,0,1.1.5,1.1,1.1s-.5,1.1-1.1,1.1h-1.2ZM83.4,14.2c-.6,0-1-.5-1-1.1s.5-1.1,1.1-1.1h1.1c.6,0,1.1.5,1.1,1.1s-.5,1.1-1.1,1.1h-1.2ZM89.1,14.2c-.6,0-1-.5-1-1.1s.5-1.1,1.1-1.1h1.1c.6,0,1.1.5,1.1,1.1s-.5,1.1-1.1,1.1h-1.2ZM94.8,14.2c-.6,0-1-.5-1-1.1s.5-1.1,1.1-1.1h1.1c.6,0,1.1.5,1.1,1.1s-.5,1.1-1.1,1.1h-1.2ZM100.5,14.1c-.6,0-1-.5-1-1.1s.5-1.1,1.1-1.1h1.1c.6,0,1.1.5,1.1,1.1s-.5,1.1-1.1,1.1h-1.2ZM258.1,26.8c-.3,0-.5-.1-.7-.3-.3-.3-.6-.6-.8-.8-.4-.5-.4-1.2,0-1.6.5-.4,1.2-.4,1.6,0,.3.3.5.5.8.8.4.4.5,1.2,0,1.6-.2.2-.6.4-.9.3ZM106.1,14.1c-.6,0-1-.5-1-1.1s.5-1.1,1.1-1.1h1.1c.6,0,1.1.5,1.1,1.1s-.5,1.1-1.1,1.1h-1.2ZM111.8,14.1c-.6,0-1-.5-1-1.1s.5-1.1,1.1-1.1h1.1c.6,0,1.1.5,1.1,1.1s-.5,1.1-1.1,1.1h-1.2ZM117.5,14c-.6,0-1-.5-1-1.1s.5-1.1,1.1-1.1h1.1c.6,0,1.1.5,1.1,1.1s-.5,1.1-1.1,1.1h-1.2ZM123.1,14c-.6,0-1-.5-1-1.1s.5-1.1,1.1-1.1h1.1c.6,0,1.1.5,1.1,1.1s-.5,1.1-1.1,1.1h-1.2ZM128.8,14c-.6,0-1-.5-1-1.1s.5-1.1,1.1-1.1h1.1c.6,0,1.1.5,1.1,1.1s-.5,1.1-1.1,1.1h-1.2ZM134.5,13.9c-.6,0-1-.5-1-1.1s.5-1.1,1.1-1.1h1.1c.6,0,1.1.5,1.1,1.1s-.5,1.1-1.1,1.1h-1.2ZM140.1,13.9c-.6,0-1-.5-1-1.1s.5-1.1,1.1-1.1h1.1c.6,0,1.1.5,1.1,1.1s-.5,1.1-1.1,1.1h-1.2ZM145.8,13.9c-.6,0-1-.5-1-1.1s.5-1.1,1.1-1.1h1.1c.6,0,1.1.5,1.1,1.1s-.5,1.1-1.1,1.1h-1.2ZM254.5,22.4c-.3,0-.6-.2-.8-.5-.2-.3-.4-.6-.7-1-.3-.5-.2-1.2.3-1.6.5-.3,1.2-.2,1.6.3.2.3.4.6.6.9.4.5.2,1.2-.3,1.6-.2.2-.5.2-.7.2v.1ZM151.5,13.8c-.6,0-1-.5-1-1.1s.5-1.1,1.1-1.1h1.1c.6,0,1.1.5,1.1,1.1s-.5,1.1-1.1,1.1h-1.2ZM157.1,13.8c-.6,0-1-.5-1-1.1s.5-1.1,1.1-1.1h1.1c.6,0,1.1.5,1.1,1.1s-.5,1.1-1.1,1.1h-1.2ZM162.8,13.8c-.6,0-1-.5-1-1.1s.5-1.1,1.1-1.1h1.1c.6,0,1.1.5,1.1,1.1s-.5,1.1-1.1,1.1h-1.2ZM168.5,13.7c-.6,0-1-.5-1-1.1s.5-1.1,1.1-1.1h1.1c.6,0,1.1.5,1.1,1.1s-.5,1.1-1.1,1.1h-1.2ZM174.1,13.7c-.6,0-1-.5-1-1.1s.5-1.1,1.1-1.1h1.1c.6,0,1.1.5,1.1,1.1s-.5,1.1-1.1,1.1h-1.2ZM179.8,13.7c-.6,0-1-.5-1-1.1s.5-1.1,1.1-1.1h1.1c.6,0,1.1.5,1.1,1.1s-.5,1.1-1.1,1.1h-1.2ZM185.5,13.6c-.6,0-1-.5-1-1.1s.5-1.1,1.1-1.1h1.1c.6,0,1.1.5,1.1,1.1s-.5,1.1-1.1,1.1h-1.2ZM191.2,13.6c-.6,0-1-.5-1-1.1s.5-1.1,1.1-1.1h1.1c.6,0,1.1.5,1.1,1.1s-.5,1.1-1.1,1.1h-1.2ZM196.8,13.6c-.6,0-1-.5-1-1.1s.5-1.1,1.1-1.1h1.1c.6,0,1.1.5,1.1,1.1s-.5,1.1-1.1,1.1h-1.2ZM202.5,13.5c-.6,0-1-.5-1-1.1s.5-1.1,1.1-1.1h1.1c.6,0,1.1.5,1.1,1.1s-.5,1.1-1.1,1.1h-1.2ZM251.7,17.5c-.4,0-.8-.3-.9-.7-.2-.4-.3-.7-.5-1.1-.2-.6,0-1.2.6-1.5.6-.2,1.2,0,1.5.6.1.3.3.7.4,1,.3.6,0,1.2-.6,1.5-.2,0-.4.1-.6,0l.1.2ZM208.2,13.5c-.6,0-1-.5-1-1.1s.5-1.1,1.1-1.1h1.1c.6,0,1.1.5,1.1,1.1s-.5,1.1-1.1,1.1h-1.2ZM213.8,13.5c-.6,0-1-.5-1-1.1s.5-1.1,1.1-1.1h1.1c.6,0,1.1.5,1.1,1.1s-.5,1.1-1.1,1.1h-1.2ZM219.5,13.4c-.6,0-1-.5-1-1.1s.5-1.1,1.1-1.1h1.1c.6,0,1.1.5,1.1,1.1s-.5,1.1-1.1,1.1h-1.2ZM225.2,13.4c-.6,0-1-.5-1-1.1s.5-1.1,1.1-1.1h1.1c.6,0,1.1.5,1.1,1.1s-.5,1.1-1.1,1.1h-1.2ZM230.8,13.4c-.6,0-1-.5-1-1.1s.5-1.1,1.1-1.1h1.1c.6,0,1.1.5,1.1,1.1s-.5,1.1-1.1,1.1h-1.2ZM236.5,13.3c-.6,0-1-.5-1-1.1s.5-1.1,1.1-1.1h1.1c.6,0,1.1.5,1.1,1.1s-.5,1.1-1.1,1.1h-1.2ZM242.2,13.3c-.6,0-1-.5-1-1.1s.5-1.1,1.1-1.1h1.1c.6,0,1.1.5,1.1,1.1s-.5,1.1-1.1,1.1h-1.2ZM247.8,13.3c-.6,0-1-.5-1-1.1s.5-1.1,1.1-1.1h1.1c.6,0,1.1.5,1.1,1.1s-.5,1.1-1.1,1.1h-1.2Z"/>
    <g>
      <path class="cls-1" d="M278.8,23.6c1.1,0,.7-.4.8-.5-1.7,0-.8.6-.8.5Z"/>
      <path class="cls-1" d="M262.9,16.3h.4c-.3-.2-.7-.5-1-.8l-.9-1c.5.6,1,1.3,1.6,1.9l-.1-.1Z"/>
      <path class="cls-1" d="M252.6,2.4c.4.2,1.3.3,2.3.3h3.5c.1,0,0,0,0,.2v1.6c.2.6.3,1.3.3,1.9,0,.3,0,.6.2,1,0,.2,0,.5.1.7,0,.4.2.8.2,1.2v.5c.3.4.6.8,1,1.1-.4-.8-.6-1.8-.9-2.8l-.2-.8c0-.4-.2-.7-.2-1.2-.1-.8-.2-1.5-.3-2.3,0-.4,0-.7-.1-1.1v-.4h-6.1l.2.1Z"/>
      <path class="cls-1" d="M242.6.7c.6.3-2.2.3,2.3,0h-2.3Z"/>
      <path class="cls-1" d="M244.5.7c2,0-1.3-.3,0,0h0Z"/>
      <path class="cls-1" d="M235.4,1l2.6-.3c-.5-.2-2.9-.2-2-.4-2.7.2-2.1.4-.6.6v.1Z"/>
      <path class="cls-1" d="M232.9,1.6h1.3c-.2-.2-.6-.2-1.3,0Z"/>
      <path class="cls-1" d="M237.1,1.2l-2.9.3c.4.1.4.4,1.3,0-.2.2.3,0,1.5-.2l.1-.1Z"/>
      <path class="cls-1" d="M238.7,1.3c1.5.2,3.3.3.7.6,5-.1,4.2-.7-.7-.6Z"/>
      <path class="cls-1" d="M251.6,3.3l2,.2,2.1-.3h-4.1v.1Z"/>
      <path class="cls-1" d="M219.1.6c-.2.2.9.5,1.1.7l1.9-.2c-1-.1-2.9-.2-3-.5Z"/>
      <path class="cls-1" d="M220.2,1.3l-2.9.3c2.6,0,3-.1,2.9-.3Z"/>
      <polygon class="cls-1" points="232.4 2.5 237.2 1.8 231.5 2.5 232.4 2.5"/>
      <polygon class="cls-1" points="208.2 .7 209.8 .3 206.9 .9 208.2 .7"/>
      <path class="cls-1" d="M200.9.8c1.2-.3-1.7-.5-.4-.8-2,0-3.7.4-5.2.6,1.6-.2,3.3-.1,5.6.1v.1Z"/>
      <path class="cls-1" d="M192.8,1c.8,0,1.6-.2,2.6-.4-.9,0-1.7.2-2.6.4Z"/>
      <path class="cls-1" d="M212.4,1.6c-.2-.1-.7-.4-2.3-.5l1.1.5h1.2Z"/>
      <path class="cls-1" d="M224.9,2.1c-1.7.3-5.2.6-1.8,1,1.2-.3-.7-.6,1.8-1Z"/>
      <path class="cls-1" d="M214.1,2.2h3.1s-.6-.2.2-.4l-3.3.4Z"/>
      <polygon class="cls-1" points="212.6 2.3 214.1 2.2 213 2.1 212.6 2.3"/>
      <path class="cls-1" d="M198,1.5c-1.3.2-2.8.2-4.4.3,1.7,0,3.6.1,5.3.1.2-.2,1-.4-.9-.4h0Z"/>
      <path class="cls-1" d="M199.2,2c1.3,0,2.1,0,2.8-.2-1,0-2,0-3.1.1-.1,0-.1.1.3,0v.1Z"/>
      <path class="cls-1" d="M188.3,1.3c.7,0,1.5.2,2.3.3-.7-.1-2-.4-2.3-.3Z"/>
      <path class="cls-1" d="M203.8,1.5h.2c-.4-.1-.4,0-.2,0Z"/>
      <path class="cls-1" d="M203.8,1.5c-.7,0-1.2.2-1.7.3.8,0,1.5-.1,2.2-.2-.2,0-.3,0-.4-.1h-.1Z"/>
      <path class="cls-1" d="M172.7,5c.2-.5,3.7-.9,6.7-.4,2.9-.4,1-1.8-1.6-2.6,0,.2,0,.4-3.1.7,1.1.2,6.7.5,4.2,1-4,.3-3.3-.1-5.2-.4,1.7.5-5.1.8-4.2,1.7l3.5-.3c0,.1-1.2.3-.2.5l-.1-.2Z"/>
      <path class="cls-1" d="M183.6,1.9h1.2c-1.4-.1-2.4-.3-4.3-.6-2.1.2-2.5.4-2.6.6h6.1-.4Z"/>
      <path class="cls-1" d="M190.4,1.9c-1,.5-3.9.7-2.1,1.2,3.6,0,2.6-.4,4.7-.6-5.9.2,1.7-.3-2.6-.5,1.2,0,2.2-.1,3.2-.1-1.1,0-2.1-.1-3-.2h.1q.3,0,0,0h-.1s-.1.1-.3.2c-1.7,0-.3-.1.3-.2h0l-5.9.3h5.6l.1-.1Z"/>
      <path class="cls-1" d="M220,4.1q-.2,0-.2-.1c-.4,0-.5.1.2.1Z"/>
      <path class="cls-1" d="M217.5,3.8c.4,0,.8-.3,2.2-.2,1.2.1,0,.2,0,.4.8-.1,2.9-.4.3-.6h-.4c-2.4,0-5.4-.7-5-.7.7.4,1.3.7,2.9,1.2v-.1Z"/>
      <path class="cls-1" d="M203.8,3l-4.9.3,2.5.4v-.3c2.7,0,2.1-.2,2.4-.4Z"/>
      <polygon class="cls-1" points="177 1.6 177.6 1.1 174.8 1.8 177 1.6"/>
      <polygon class="cls-1" points="170.6 1.7 170.9 1.3 169.2 1.5 170.6 1.7"/>
      <path class="cls-1" d="M51.1,157.1l-.3.2c.5-.1.7-.2.3-.2Z"/>
      <path class="cls-1" d="M20.4,15.3l-1,1c-.3.3-.7.6-1,.8-.5.5-.9.8-.6.8.2,0,.5,0,.7-.1.3-.5.7-1,1-1.4s.5-.8.8-1.1h.1Z"/>
      <path class="cls-1" d="M4.1,111.8c0-.2,0-.4.1-.6-.2-.5-.3-1-.5-1.4.1.6.2,1.3.3,2h.1Z"/>
      <path class="cls-1" d="M6.2,113.2l-.3,2.8c.1-.6.2-1.5.3-2.8Z"/>
      <path class="cls-1" d="M118.5,156.2l1.7-.5c-2.6,0-1.5.3-1.7.5Z"/>
      <path class="cls-1" d="M105.3,2.3c-1.8-.2-3.3-.3-4.5-.3,2.2.3,3.9.7,4.5.3Z"/>
      <path class="cls-1" d="M57.4,162.4c.9,0,1.3-.2,1.2-.3-.9,0-1.4.2-1.2.3Z"/>
      <path class="cls-1" d="M95.6,2c.3,0,.6,0,1,.1,1.3,0,2.7-.2,4.3-.1-1.6-.2-3.5-.3-5.2,0h-.1Z"/>
      <path class="cls-1" d="M151.6,3.6c-.3,0-.5.1-.5.2.1-.1.3-.2.5-.2Z"/>
      <path class="cls-1" d="M147,1.9c-.5,0-1.1-.1-1.7-.1.3,0,.8,0,1.7.1Z"/>
      <path class="cls-1" d="M146.7,1.6h1.2c.2,0,0-.1-1.2,0Z"/>
      <path class="cls-1" d="M214.5,157.4h.3c1.4-.2.8-.2-.3,0Z"/>
      <path class="cls-1" d="M6.3,44.6c-.6-2.1-.6-3.2-.4-4.8l-1.4,1.6s1.8,3.2,1.8,3.2Z"/>
      <path class="cls-1" d="M86.5,156.8l-3.4-.4c4.1-.8,7.1-.5,3.9-1.1-.5,1.5-13.3.2-13.7,1.8l-2.3-.3h1.4c-4.4-.7-3.2,1.1-8.9.9-2-.1-3.3-.3-2-.5l-4.4.4c-1.3,0-1-.3.3-.3l-6.7.2h0c-1,.2-3.1.6-4.2.8-1.7-.2.8-.2.4-.4l-3.7.4c-1.5-.4,1.6-.8,4.1-.8-3.5-1.5-3.1.4-10.5-.4l3.5-.2c-2.3-.9-5-.5-8.9-1,.9.3,7.9,1.3,3.9,1.7-1.1-.1-2.7-.2-4.7.2,0-.3-.2-.4-.5-.4h-.9v-.3c.2-.2.4-.4.7-.6-.1-.2-.3-.3-.4-.4,0,0-.2,0-.3-.4-.1-.3-.3-.6-.5-1-.2-.9-.3-1.6-.4-2.1-.1-.6-.2-1-.2-1.4v-1.7c-.6-1.3-.9-1.8-1-1.7,0,0,0,.5.1,1,0,.5.1.9,0,.8,0,0-.2-.2-.4-.5-.1-.2-.2-.4-.4-.6-.2-.3-.4-.6-.6-.9-1.1-2.1-2.5-3.7-4-5.1-1.6-1.4-3.5-2.6-6.1-3.8-2.8-1.6.7-.2-.3-.8l-1.5-.4-1.5-.2c-.7-.3-.4-.3-.3-.4-1.2-.3-1.3,0-1.6,0-.1,0-.3.1-.7,0-.4,0-1-.1-1.8-.2-.2.2-.6.1-1.1,0-.2,0-.5,0-.8-.2-.1,0-.3,0-.4-.1v-.6c0-.4.1-.7.2-1.1v-.5c0-.2.1-.3.1-.6,0-1.2,0-2.4-.3-3.5.2-1.1.4.5.7.2-.6-5.9-.5-5.1-1.3-9.9l.5-4.1c-.5,3-1.2-.8-1.7-4.2-.3,1.1-.5,2-.6,2.6l-.4-5.4c.1-.7.4-.1.7.8,0-.4-.1-.7-.2-1,.3-1.9.7-.9,1.1.4-.1.7-.3,1.3-.4,2,.4,1.3.9,2.6,1.4,2.3,0-.4-.2-1-.2-1.8.1.3.2.6.3.4,0-.2,0-.8-.3-1.6l.8-1.2-.3-.3.5-7.1c-.8-5.1-2.1-9.5-2.5-17.6.6,2,1,.4,1.7.5-.7,2.2.4,6.3.2,10.4,0-2.2.4-1.7.5-1.2l-.7-7.5c.6.2.4-1.6.6-3.5-1.1,1.5-.8-5.6-1.2-8.6.4-.2.8.5.7,4.2.8-4.1-1.4-5.3-.7-9.3,0,.9,0,1.4.2,1.7-.4-2.1-.1-7.3.2-6.1v.9c.1-6,0-18.3-1.1-19.2.1,0,1.2.8,1.4,1.1l-3.3-10.7c.8.9,2.8-2.7,3.3,2.3.1-1.4.2-3.2,0-6.2-.1,1-1.2,2.4-1.3,1.1.5-1.8.6-2.6.7-2.9,0-.2,0-.5.2-.8,0-.1,0-.3.2-.5,0,0,0-.2.1-.3h.4c-.4,0-.8-.4-.8-.7,0-.2.2-.3.4-.5.3-.1.7-.2,1.2-.3-.2.2.5,1.2.1,1.4.2-.1.4-.3.8-.4.5-.2,1-.4,1.4-.6l1.4-.7,1.3-.8c-1.3.7.1,1.1,1.6.9-.4,0,.9-.5,2.4-1.3s3-2,3.6-2.6c-.7.5-1.5.9-2.3,1.4.7-.5,1.3-1,1.9-1.4.5-.5.9-.9,1.2-1.4.7-.9,1-1.7,1.4-2.4.6-1.7,1.3-3.1,2.6-6.1,0,.4.1,1,.5,1.2.3.1,1-.2,1.7-1.9,0-.4,0-1.1-.2-2,0-.4-.1-.9-.2-1.4,0-.5-.2-1.1-.3-1.6,0-.3-.1-.6-.2-.9,0-.3-.2-.7-.2-1.1s-.1-.8-.2-1.2v-.7s.2,0,.4-.1c.7-.2,1.4-.3,2.3-.4.4,0,.9-.1,1.3-.2.4,0,.8,0,1.2-.1l1.1.4,4.4-.5c-1.3.5-4,1.3-6.7,2-.6.2-1.1.4-1.6.6-.2,0-.4.2-.6.3-.1,0,0,.2,0,.4v.5c.2.6.4,1.1.4,1.5,0,.2,0,.4.1.6v.9c0-.3.2-.6.2-.8,0-.1,0-.2.1-.2,0-.1.1-.1.2-.2,0-.1.1-.3.1-1h.2v.1s0,.3.1.4c0,.3.1.6,0,.8,0-.2,0-.4.1-.6v-.3h2.2c-.4-.7,6.5-.8,6.1-1.4l-4.6.4-2.3.2h-.5l-.2.1h-.4c-.1,0-.1-.3.1-.6.1-.1.3-.2.6-.4.4-.1.9-.2,1.4-.3,2.1-.4,5-.8,8-.7,1.5.3-1.1,1.4-1,1.6.8-.3,5.7-.5,6.2-.4l-2.5.4c3.3.3,5.4-1,9.5-.3,1.4,0,4.1,1,4.4.5-2.3-.9-2.7-3.5-1.2-4.2.5,0,7.3.8,8.9,1.2,2.3.7-3.4,1.6-1.5,2.2,0-.2,1.3-.5,1.9-.6,1.5.2-.6.6,2.6.5.5-.8,6.4,0,1.5-.7,3.1-.2,3.3.1,6.9,0-1.2-.5,3.3-1.7,6.3-2-.2.2.5.4.9.6,6.3,0,9.7.4,15.7.3.5.2,3.4.4,2.2.7.8-.1,1.6-.4,3.5-.4,3.5.6-4.1.1-1.4.9.2-.5,4.7-.6,7.3-.9-.8-.7-6,0-8.6.2,0-1,4.5-2,10.7-2.5,4.9-.3,2.1.6,3,.5,9.2.1,7.9-1.7,15.5-1.1,3,.6.1,1.2.8,1.6-4,.3-6.1-.4-8.9-.3l3.3.3c-1.3.2-3.9.4-5.4.2,2.6.5,15.6,0,22.7.5,1.3-.2,3.4-.4,2.4-.7h-2.3c-2.1-.4,4.2-.6,1.4-.8,3-.4,6.4-.9,10.7-.7l.8.7c0-.2-2.8-.4-4-.2,1.8-.3,6.5.9,8.5,0l-3-.5c3-.4,6.8-1.1,10.5-.9-1.7-.7-.9,0-3.6-.7,2.3,1-9.6,0-5.9,1-2.8-.9-4.8-.4-8.4-1.1.1.2,1.3.4-1.9.3-.1,0-.5.2-.7.2h-.2.2q-.1,0,0,0c.8,0,1.4.2,1.6.3-1.6.5-6.6.5-8.3.8-1.9,0,.8-.3-.2-.5l-2.5.4c-.3-.5-5-.8-.6-1.1h-4c-2.3-.3-5.6-.4-7.6-.1-1.9,0-4.7.6-3.1.2l-6.2.4h0c-6.2-.2-12.7.8-19.7,0-2.1.1-4.2.3-7.7.2l-.7-.4c-2.7.2-8-.4-9.1,0-2.9-1.2-12.9-.2-17.6-.4l-.2.6c-3.2,0-6.3.2-10.3.4l.2.5c-3.4.4-8.9-.3-14.3-.2.4-.2,1.8-.2,2.7,0-1.6-.3-3.3-.4-5-.3h-2.5c-.9,0-1.8.1-2.7.2-1.3,0-2.6.1-3.9.2-.6,0-1.3,0-1.8.1v1.9c0,.6,0,1.2-.1,1.8,0,.6,0,1.2-.2,1.8v.6c-.1.2-.2.3-.2.5-.1.3-.2.6-.4.9,0,.7-.2,1.2-.4,1.7-.2.5-.4.9-.6,1.3,0-.1,0-.2.1-.3,0,.1-.1.3-.2.5-.3.5-.6,1-1.1,1.5.4-.4.7-.8.9-1.2-.2.5-.5,1-.8,1.6-.2.3-.3.6-.5,1-.2.3-.4.6-.6,1l-.8.2c0,.1-.1.2-.2.3-1.1.9-.6,1,.2.7-.4.6-.8,1.2-1.2,1.7-.4,0-.7.3-1.1.5-.4.3-.8.6-1.2.9-.4.4-.8.7-1.3.9-.5.2-.9.4-1.4.4-.2.2-.7.6-1.4.9s-1.6.8-2.5,1c-1.3.7-4.9,1.1-4.9,1.6-.2-.1-.9-.1.3-.2H1.3v1.6c0,1.2,0,2.5.2,3.6-.2.3-.5.5-.7.8l1,4.1c-.4,2.5-.6,3.5-1.2,1.1.9,6,.3,4.9,1.2,9.9l-.5-.2c0,1.8.6,4.7.3,5.8-.8,4.1,0,20.2-.7,30.6,1.3-2-.6,4.9.5,5.3-.3.6-.5,2.1-.8.4.3,5.3-.4,8,.4,11.7-.3.6-.5-1.1-.6-.6,0,.4.3,1.7,0,2.3-.2.5-.3-.8-.4-1.6,0,5.5,1.1,6,2,6.4-.4,2.8-.3,4.1.3,6.1-.3,1-.6,2.6-.7-.8,0,1.9-.4,11.6.4,11.8-.2.6,0,2.7,0,3.2v10-1.6c.3.4.5.9.5,1.4v.4c0,.1,0,.4.2.3h.9c.6,0,1.3.1,2.2.3.4,0,.9.1,1.3.2.4,0,.7,0,1.1.2h-.1c3.5,1.2,4.1,1.7,4.9,2,.4.1.7.3,1.3.7.3.2.7.4,1.2.8.4.4,1,.8,1.6,1.5v-.7c.7-.2,1.9,1,3,2.7,1.1,1.8,2.1,4,3.1,5.9,0-.5-.2-1-.3-1.5.4.5.6,1.1.7,1.9,0,.4.1.8.2,1.2v3.9c0,1.3-.1,2.6,0,3.6,0,.9-.3-1.2-.4-2.4,0,1.4,0,2.4.1,3.3v1h.7c.8,0,1-.2,1.1-.3.2-.3.2-.7,3.8-.8.6.2.2.4.1.6,0,.1,0,.2.6.3h1.8c1.6.3,9.3-1.3,13.6-.6-1-.3-1.9-.6.3-.8,3.4-.1,9.2,1.1,12.2.1.4,0,.6.2.6.2,2.6-.3,8.4-.4,10-1,2.4,1.9,16.1-1,16,.7h8c0-.1-.2,0-.2,0,5.1,0,6.9-.3,8.7-.8,1.2.1.3.3.2.4,7.4.3,8.2.2,14.4-.7l.7.6c1.7-.3,10.8.8,18,.1,0,0-.2.2-.8.3,8.2-.7,19.6,1.4,22.6-.6l5.4-.5c-7-.1,1-.9-1.8-1.2,2.8-.1,7.1.6,3.7.7h-.5c-1.2,1,8.7.2,8.5,1,13.8-.1,27.2.4,40.1.3l-1.5-.8h4.5c1.2.2,1.6.7-1.6.6,1.7.5,5.4-.4,5.5-.6,6.3.3-2.5,1-.5,1h2.6l-.6-.2c2.1-.4,2.3-.7,6.2-.7,2.4.2,1.3.5,2.2.5h7.2l-2.3-.6c2.5-.3,5.3,0,2.7-.7,1.9.6,7.2.6,12.3.6h11.3v-1.2c0-.3,0-.6.1-.8v-3.5c.1-.8.3-1.6.5-2.5.5-1.6,1.2-3.4,2.3-5-.3.4-.7.6-.8.4,0-.2,0-1,1.2-2.4.1.5.4.4.9,0,.5-.3,1.1-1,1.9-1.7,1.5-1.4,3.8-2.8,5.2-2.9-.6.1-.4-.1.2-.5.3-.2.7-.4,1.2-.6.5-.2,1-.4,1.5-.6,1.1-.3,2.1-.7,2.6-.8.3,0,.6-.2.5-.3h-.9,1.6c.3,0,.3.1.3.2,0,.2-.1.4,1.7.4.7,0,1.3-.2,2-.3h.5v-5.9c0-2,0-4.1.1-6.2.1-4.3.3-8.8.2-13.3-.2-.1-.5,1.4-.8-.6l1-4.8c-.1-1.8-1.2-1.7-.5-4.9-.2.5-.4,1.2-.5,0,.9-17.9-1-36.5.7-54.6-.4,2.5-.4.8-.4-1.1,0,1.2-.5,0-.8.2l.7-7.6c-.8-1.4,0-8.1-.8-8.9v2.4c-.7-3.2-1.7,4.5-2.8,4,1,3.6-1.4,9.5,0,15.3-.2,1.3-.4-1.1-.6-.4.5,1.5.6,3.3.4,6.6v-.4c0,9.4-.4,13.4-.6,23.9l.5-.8c0,2.3-.2,2.7-.4,3.8.8,2.6,0-6.3.9-4-1.1,3,0,15.9-1.2,18,0,3.5.6-1,.6,2.5l-.3.9.4.9c0,2.3-.5,3.4-.8,3.5,0-.6,0-1.6-.1-2.2-.4,3,.2,8.3,0,9.4l.2-3.3c.2,4.7.2,10,.2,15.2v8.5c0,.1,0,0,0,0h-.2c-.3,0-.6.1-.8.2-.3,0-.5.1-1.2.3.2,0,.6,0,.7.1-.8.2-1.7.4-2.3.6-.3,0-.6.2-.9.3s-.5.2-.8.3c-.5.2-.9.3-1.3.5s-.8.3-1.1.5c-.4.2-.7.3-1.2.5-.4.2-.8.5-1.3.7-.5.3-1,.6-1.7,1.1-.3.2-.6.5-1,.8-.3.3-.7.6-1,1l.2-.2c-1.1,1.3-2.4,3-3.7,4.9.8-2-2.5,3.1-1.4.6-.9,1.9-1.3,3.1-1.5,4-.2.8-.3,1.3-.3,1.6v3.5c-.2.2-.4.4-.5.6,0,.4.1.6.2.9v.4c0,.1.1.4,0,.3-.4.1-1.2.2-2.7.3,1.2-.2.6-.3.2-.5s-.6-.4.3-.6h-4.8c-1.6,0-2.9.1-4.1.2-2.4.2-4.3.3-6.2-.3-3.7,1.2,7,.6,4.9.9,1.7.4-3,.9-5.6.8-2.6,0-4.4-1.5-10.9-1.4h1.3c-2.4-.3-4.7.4-7.7,0-1.7.7-3.9,0-4.3.9l5.9-.2c-3.4.3-6.5,1.3-12.1.8.4-.2,2.1-.4,3.2-.6-1.6-.3-3.1.2-4.8,0,.5-.9,7.2-.2,10.8-.9-1.7-.4-6.8.7-5-.3-2.6,1.3-6.4-.1-10.8.9l.3-.5c-.7,0-2.1.4-3.4.3l2.3-.7c-3.5.6-6.8-.5-10.2-.1,7.1,0,1.6.6,4.6,1-8.8.8-5.1-1.4-14.9-1.1,1.3,0,5,.3,2.9.6-1.9,0-4.4-.3-5.5-.6-6.5.2,1,.5-1.8.9-2.2-.6-3.2.3-6.1.5v-.5c-7.5-.3-2,1.2-8.7.8l2.8-.8-3.5.2.7-.6c-3.8.5-5,.4-8.7.2.9.4-.5,1-3.8,1-2.2-.3,1.3-.5-3.4-.4,1.1-.3,2.2-.8,4.2-.3.2-.2,1-.3,1.3-.5-2.4-.4-6.1,0-7.8,0,.7,0,1.4,0,1.8.1l-6.8.8c-1.1-.2-.2-.4.6-.5-1.4,0-2.3.3-4.3.4.5-.4.4-.9,3.2-1.1l-6.4.5c-.4-.2-3.3-.5-2.5-.7-3.6-.2-8.8.9-13.5.6-.2,0-.7.2-1.7.2-4.5,0-8.4-.6-13.7,0l-3-.8c-4.1.2,4.1,1-2.8,1.3-4.9.3-1.8-.7-3.5-.9-2.4.4-6.6,1.3-11.1.6,1.5-.2,2.6,0,4-.1l1.3-.7ZM35.5,157.5c1-.1,3-.5,3.7-.2-1.1.6-2,.3-3.7.2ZM5.1,104.3c.2.7.1,1.9,0,3.2v-3.2ZM130.1,2.2h-.1c-2.2-.2-1.4-.1.1,0ZM134.7,2.4c.5,0,.4-.2.2-.2-.3.1-1.3.2-2.5.1.3.1.9.2,2.3.1ZM228.9,161h-.9c2-.3,1.4-.2.9,0Z"/>
      <path class="cls-1" d="M5.9,113c0,.3-.2.4-.3.4,0,.4.2.4.3-.4Z"/>
      <path class="cls-1" d="M63.9,7.5c-.9,0-1.5-.2-1.8-.3,0,.1.4.2,1.8.3Z"/>
      <path class="cls-1" d="M159,1.3l-2.9.2c1.4,0,1.9,0,2.6.2,0-.1-.6-.3.3-.3v-.1Z"/>
      <path class="cls-1" d="M184.4,4.6h1.3v-.3c-1.9,0-3.2.2-1.3.3Z"/>
      <path class="cls-1" d="M161.7,3.1c.2.5,2.1.3,4.1.2h-.4c.6-.6-1.6-.4-3.8-.2h.1Z"/>
      <path class="cls-1" d="M166.3,3.3h1.9c.2-.3-.8,0-1.9,0Z"/>
      <path class="cls-1" d="M140.5,2.1c1,.1.6-.6,1.2-.4,1.1-.6-6.5.7-1.2.4Z"/>
      <polygon class="cls-1" points="163.4 4.6 162.6 4.1 161.5 4.5 163.4 4.6"/>
      <path class="cls-1" d="M147.1,4.3h4.2c-2,0-4.2-.1-4.2,0Z"/>
      <path class="cls-1" d="M151.3,4.2c1.1,0,2.1,0,2.6-.1-.6,0-1.8,0-2.6.1Z"/>
      <polygon class="cls-1" points="158.9 4.8 157.9 4.7 155.6 4.7 158.9 4.8"/>
      <path class="cls-1" d="M111.9,4.4l-3.6.2c-.4.2.6.3,1.9.2.9-.1,2.2-.2,1.6-.4h.1Z"/>
      <path class="cls-1" d="M122.7,5.9c-1-.1-1-.2-1.6-.4v.7c-.1,0,1.6-.3,1.6-.3Z"/>
      <path class="cls-1" d="M112.3,6.1c-.4.2-5.2.6-.7.5.4-.2,3.9-.4.7-.5Z"/>
      <polygon class="cls-1" points="58.3 5.6 59.3 5.5 59.1 4.4 58.3 5.6"/>
      <path class="cls-1" d="M23.5,21.3c1.6-1.8,1.5-2.2,1.5-2.5,0-.1,0-.3.1-.6s.5-.8,1-1.7c.1-.6-.3.2-.8.9s-1,1.4-.8.9c-.6,1.3-1.3,2.1-1.5,2.7-.3.5-.2.6.5.3Z"/>
      <path class="cls-1" d="M24.5,18.3c.2-.4.4-.8.6-1.3-.3.7-.5,1.1-.6,1.3Z"/>
      <polygon class="cls-1" points="282.5 33.9 282.7 31.1 282.4 32.9 282.5 33.9"/>
      <path class="cls-1" d="M281.6,28.6l.7-.6-.7-1.6c0,.6.1,1.8,0,2.3v-.1Z"/>
      <path class="cls-1" d="M30.4,156v.2c-.2.2,0,.2.1.2-.1-.1-.2-.3-.1-.4Z"/>
      <polygon class="cls-1" points="64.9 156.4 64.3 156.4 65.5 157 64.9 156.4"/>
      <path class="cls-1" d="M96,155.3c-1.3,0-2.8.1-4,.1,2.8-.1,4.4.7,4-.1Z"/>
    </g>
    <g>
      <path class="cls-1" d="M97.8,25v2.3c0,.2-.1.4-.3.4h-5.7s-.1,0-.1.2v21.2c.1.2,0,.4-.2.4h-2.7c-.2,0-.4,0-.4-.3v-21.2c-.1,0-.2-.1-.3-.1h-5.4c-.2,0-.4,0-.4-.3v-2.3c0-.2.1-.4.3-.4h14.8c.2,0,.4,0,.4.3v-.2Z"/>
      <path class="cls-1" d="M115.9,48.9l-4.2-10.6s0-.1-.1-.1h-3.7s-.1,0-.1.2v10.5c0,.2,0,.4-.3.4h-2.7c-.2,0-.4,0-.4-.3v-24c-.1-.2,0-.4.2-.4h7.9c2,0,3.6.6,4.8,1.9,1.2,1.3,1.8,3,1.8,5.1,0,1.6-.3,2.9-1.1,4-.7,1.1-1.7,1.9-3,2.4v.2l4.4,10.7h0c0,.3-.1.4-.3.4h-2.8c-.2,0-.3,0-.4-.3v-.1ZM107.6,27.6v7.9s0,.1.2.1h4.3c1.1,0,2-.4,2.6-1.2.7-.7,1-1.7,1-3,0-1.2-.3-2.2-1-3-.7-.7-1.5-1.1-2.7-1.1h-4.3s-.1,0-.1.2v.1Z"/>
      <path class="cls-1" d="M138.8,48.8l-1-4.1s0-.1-.2-.1h-7.8s-.2,0-.2.2l-1,4.1c0,.2-.2.3-.4.3h-3.1v-.3l6.4-24c0-.2.2-.3.4-.3h3.3c.2,0,.3,0,.4.3l6.7,23.9h0c0,.3-.1.4-.4.4h-2.8c-.2,0-.3,0-.4-.3l.1-.1ZM130.3,41.9h6.5l-3.3-12.7h0l-3.2,12.7h0Z"/>
      <path class="cls-1" d="M150.6,48.7l-6.5-23.9h0c0-.3.1-.4.4-.4h2.9c.2,0,.4,0,.4.3l4.7,18.9v.1-.1l4.5-18.9c0-.2.2-.3.4-.3h3.1v.3l-6.2,24c0,.2-.2.3-.4.3h-2.9c-.2,0-.3,0-.4-.3Z"/>
      <path class="cls-1" d="M180.4,27.1h-10.2s-.1.1-.1.2v7.6s0,.1.2.1h6.7c.2,0,.4,0,.4.3v2.2c0,.2-.1.4-.3.4h-6.7s-.1,0-.1.2v7.7s0,.1.2.1h10.2c.2,0,.4,0,.4.3v2.2c0,.2-.1.4-.3.4h-13.4c-.2,0-.4,0-.4-.3v-24c-.1-.2,0-.4.2-.4h13.4c.2,0,.4,0,.4.3v2.2c0,.2-.1.4-.3.4l-.3.1Z"/>
      <path class="cls-1" d="M187.5,48.4v-24c-.1-.2,0-.4.2-.4h2.7c.2,0,.4,0,.4.3v21.3c.1,0,.2.1.3.1h10c.2,0,.4,0,.4.3v2.2c0,.2-.1.4-.3.4h-13.2c-.2,0-.4,0-.4-.3l-.1.1Z"/>
    </g>
    <g>
      <path class="cls-1" d="M32.6,111.9s-.2,0-.3-.1c0,0-.1-.2-.1-.3l-.3-46.5c0-.2.2-.4.4-.4l96-.6c.2,0,.4.2.4.4s-.2.4-.4.4l-95.6.6.3,45.6,95.6-.6c.2,0,.4.2.4.4s-.2.4-.4.4l-96,.6h0v.1Z"/>
      <path class="cls-1" d="M155.5,111.2c-.2,0-.4-.2-.4-.4s.2-.4.4-.4l95.6-.6-.3-45.6-95.6.6c-.2,0-.4-.2-.4-.4s.2-.4.4-.4l96-.6c.1,0,.2,0,.3.1,0,0,.1.2.1.3l.3,46.5c0,.2-.2.4-.4.4l-96,.6h0v-.1Z"/>
    </g>
    <g>
      <path class="cls-1" d="M219.2,45.4l5.3-7.5h4.9c1.1,0,2.4-.6,3.1-1.1.3-.2.3-.6,0-.8-.7-.5-2-1.2-3.1-1.1h-5v.1l-5.4-7.5c-.1-.2-.4-.2-.6,0l-.3.3c-.1.1-.1.3,0,.4l2.1,6.9h-4.7l-1.9-2.7c-.1-.2-.4-.2-.5,0l-.3.2c-.1,0-.2.2-.2.4,0,0,1.1,3.2,1.1,3.5,0,.5-1.1,3.5-1.1,3.5,0,.1,0,.3.2.4l.3.2c.2.1.4,0,.5,0l1.9-2.7h4.7l-2,7v.4l.3.3c.2.2.4.1.6,0l.1-.2Z"/>
      <path class="cls-1" d="M64.1,28.4l-5.3,7.5h-4.9c-1.1,0-2.4.6-3.1,1.1-.3.2-.3.6,0,.8.7.5,2,1.2,3.1,1.1h5v-.1l5.4,7.5c.1.2.4.2.6,0l.3-.3c.1-.1.1-.3,0-.4l-2.1-6.9h4.7l1.9,2.7c.1.2.4.2.5,0l.3-.2c.1,0,.2-.2.2-.4,0,0-1.1-3.2-1.1-3.5,0-.5,1.1-3.5,1.1-3.5,0-.1,0-.3-.2-.4l-.3-.2c-.2-.1-.4,0-.5,0l-1.9,2.7h-4.7l2-7v-.4l-.3-.3c-.2-.2-.4-.1-.6,0l-.1.2Z"/>
    </g>
  </g>
</svg>