<?xml version="1.0" encoding="UTF-8"?><svg id="Layer_1" xmlns="http://www.w3.org/2000/svg" viewBox="0 0 982.04 228.22"><g><g><g><path d="M84.34,12.61c-.27-1.66-.98-3.82-2.07-5.05-5.07-6.29-15.33-3.05-22.01,.57-7.5,4.03-14.37,8.97-20.32,15.09-4.96,5.06-9.44,10.91-12.69,17.01-2.95,5.47-4.22,11.52-.13,16.06,1.58,1.74,3.76,2.94,6.1,3.51,1.23,.31,2.48,.45,3.74,.48,.66,.04,1.32,.02,1.92-.05,.36,0,.67-.07,.97-.08,.24,0,.61-.07,.78-.02,.12,0,.24,.05,.29,.16,.14,.23,.14,.49,.06,.75,1.09-.11,2.18-.17,3.27-.24,1.42-.08,2.83,0,4.25,.1,.92-.89,1.83-1.77,2.74-2.66,4.36-4.41,9.07-8.72,13.19-13.24,.47-.53,.69-1.05,.74-1.57,.19-.81-.03-1.66-.7-2.22-.62-.5-1.27-.6-1.94-.41-.18,0-.37,.07-.56,.19-.56,.24-1.13,.6-1.6,1.07-7.01,5.91-15.38,15.53-25.29,12.98-11.09-2.81-2.55-14.96,1.83-21.03,6.92-9.52,16.15-16.76,26.62-22.36,4.66-2.47,13.67-5.17,15.75,.97,.57,1.71-.38,3.51-1.81,4.75-1.88,1.6-5.52,2.66-7.22,.87-1.04-1.06-3.25-1.24-4.4,.23-1.71,2.28,.07,4.59,2.22,5.28,3.5,1.11,8.81,.12,11.97-2.37,2.77-2.14,4.7-5.57,4.27-8.77Z"/><path d="M97.29,48.63c-4.93,6.72-7.74,7.37-10.62,7.33-1.74-.01-2.89-.5-2.95-.5-.76-.21-1.3-.2-2.01,.34-.51,.36-.92,.88-1.38,1.3-.91,.77-1.82,1.54-2.78,2.19-1.86,1.31-4.05,2.28-6.27,2.28-.78,.02-1.61-.13-2.37-.34-3.38-1.12-4.96-4.17-4.15-7.92,.94-4.44,3-8.62,6.04-12.43,2.84-3.51,7.86-7.31,12.06-7.31,.78-.02,1.55,.13,2.25,.34,1.28,.48,1.46,1.74,1.2,2.66-.26,.92-1.07,1.86-2.15,1.83-.24,0-.48-.05-.77-.1-.41-.16-.88-.26-1.3-.25-4.38,0-9.37,6.72-10.99,10.15l-.08,.17c-.81,1.68-2.67,5.69-1.76,7.56,.25,.51,.7,.84,1.36,.94,.3,.05,.6,.04,.9,.03,1.5,.02,2.93-.59,4.21-1.48,1.02-.71,2.81-1.85,2.28-3.33-.18-.63-.55-1.19-.74-1.82-.25-1.26-.19-2.58,.29-3.85,1.27-3.42,4.29-7.05,8.13-7.03,.9-.02,1.78,.18,2.64,.62,.92,.44,1.51,1.17,1.67,2.08,.33,1.71-.57,3.63-1.43,5.2-.42,.7-.85,1.46-1.39,2.16-.41,.53-.51,1.62,.26,1.83,1.42,.25,3.19-.14,7-5.74,.49-.76,1.24-1.12,2.02-1.14,.78-.02,1.46,.48,1.81,1.21,.36,.62-.51,2.31-.99,3.01Zm-12.55-3.86c-.16-.22-.33-.34-.57-.33-.54,.01-1.36,.44-1.93,1.43-.42,.7-.68,1.57-.57,2.31,.03,.29,.07,.57,.36,.62h.24c.86-.26,1.97-2.58,2.33-3.22,.22-.41,.18-.69,.13-.81Z"/><path d="M122.58,47.58c-2.69,3.85-6.42,7.96-10.67,10.54-3.63,2.27-7.52,2.83-9.56,2.88-8.3,.21-10.14-4.67-10.25-7.42-.33-5.67,4.84-13.14,10-17.06,3.15-2.37,5.66-3.59,7.77-3.64,.96-.02,1.84,.24,2.64,.68,3.19,1.92,3.43,5.19,3.03,7.61-.98,6.91-6.97,8.09-10.46,8.18-1.62,.04-3.23-.09-4.76-.45-.89-.15-1.76-.47-2.55,.29-.6,.65-1.01,1.86-1.01,2.61-.03,.98,.14,1.83,.75,2.96,.62,1.07,2.63,2.11,5.76,2.03,2.53-.06,5.22-1.28,5.78-1.52,2.65-1.5,6.03-4.34,10.19-9.9,.61-.82,1.17-1,1.65-1.02,.78-.02,1.58,.42,1.94,1.1,.3,.68,.23,1.43-.25,2.13Zm-21.52-3.52c-.17,1.84,3.15,1.64,4.42,1.61,1.62-.04,2.93-.59,3.92-1.59,1.19-1.24,2.32-3.16,1.83-4.98-.31-1.25-1.03-1.87-2.05-1.84-1.86,.05-3.76,1.76-5.01,3-.85,.77-1.58,1.59-2.38,2.41-.34,.41-.68,.93-.73,1.39Z"/><path d="M142.56,32.96c.88,.89,.78,1.99,.35,2.74-.37,.76-1.07,1.23-1.79,1.25-.42,.01-.83-.15-1.21-.54-.94-.89-2.04-1.38-3.18-1.35-.96,.02-1.84,.39-2.5,1.1-1.66,1.76-1.04,4.9-.03,7,1.57,3.23,4.56,11.29-2.42,15.54-1.59,.96-3.43,1.46-5.47,1.46-6.17-.13-8.97-3.73-9.57-7.04-.7-4.17,1.66-8.47,5.83-10.76,.32-.24,.69-.3,.99-.31,1.14-.03,1.95,.98,2.1,2.01,.21,1.03-.29,1.9-1.24,2.38-2.26,1.15-3.59,3.25-3.44,5.54,.14,2.4,1.9,4.19,4.39,4.59,.35,.05,.66,.04,.96,.03,2.65-.07,4.79-1.9,5.53-4.73,.54-1.96-.55-4.52-1.38-6.62-.25-.57-.5-1.13-.64-1.59-.95-2.73-2.46-9.28,4.09-12.09,.44-.24,1.48-.5,2.87-.53,1.38-.04,4,.18,5.77,1.92Z"/><path d="M258.03,2.01c-.94,10.46-5.26,19.75-11.89,28.69-6.41,8.59-13.66,17.09-22.51,23.46-5.91,4.28-16.02,7.35-19.37-.08-.45-.96-.66-1.99-.93-3.01-.12-.63-.21-1.72-.78-2.04-.8-.44-1.61,.5-2.08,1.09l-2.28,2.7c-2.46,2.7-5.16,5.29-8.17,7.43-4.93,3.39-12.83,5.2-15.66-.69-2.62-5.55,.52-12.4,3.23-17.92,4.18-8.48,9.54-15.96,15.21-23.61,2.18-2.87,6.62-7.57,6.52-11.12-.09-2.98-4.37-2.07-6.53-1.5-7.14,1.96-13.96,6.38-19.06,11.73-3.31,3.41-5.87,7.26-6.28,11.74-.46,4.43,.69,8.3,1.58,12.46,.6,2.62-3.82,3.83-4.37,1.2-1.66-7.53-3.41-15.39,1.71-22.98,4.64-6.83,12.12-12.64,19.75-16.05,4.13-1.88,11.09-4.59,14.94-1.99,6.06,4.03,.38,11.8-3.11,16.54-6.16,8.42-12.28,16.37-16.65,25.6-1.56,3.31-3.46,7.08-3.48,10.64-.05,3.84,3.22,6.23,7.25,4.11,7.67-3.92,13.47-12.33,18.51-18.94,5.52-7.31,10.19-15.17,15.6-22.65,.21-.98,1.01-1.86,2.33-1.89h.3c1.62-.05,2.67,1.7,1.64,3.1-3.69,4.97-6.97,10.16-10.38,15.29-.08,.17-.16,.41-.3,.64-2.84,4.89-8.47,14.09-3.8,18.91,5.21,5.48,15.43-4.12,19.51-8.07,12.23-11.9,23.63-26.47,25.09-42.67,.25-2.76,4.7-2.87,4.45-.11Z"/><path d="M254.84,48.77c.73-2.08,2.54-4.82,4.08-7.27,2.02-3.15,3.28-5.13,3-5.98-.35-.79-1.37-.77-3.08,.19-6.38,3.6-18.99,18.32-19.91,19.84-.56,.87-1.24,1.06-1.72,1.08-.78,.02-1.52-.42-1.88-1.1-.36-.62-.35-1.42,.14-2.18l.21-.29v-.11c.1-.35,2.14-3.61,3.16-4.95,8.4-13.35,15.05-23.15,22.29-32.91,.54-.7,1.3-1.12,2.14-1.14,.78-.02,1.53,.36,1.83,.99,.2,.4,.33,.97-.29,1.84l-8,11.5c-1.23,1.69-2.41,3.45-3.64,5.14-.34,.47-1.49,1.87-.37,2.07,.65,.16,1.19-.6,1.71-.96,.63-.36,1.28-.84,1.91-1.25,1.92-1.31,4.14-2.69,6.43-2.8,.54-.01,.96,.03,1.3,.2,1.46,.48,2.3,1.09,2.57,2.06,.57,1.65-.39,4.37-3.14,8.91-.15,.29-.49,.82-.91,1.46-3.54,5.37-4.47,7.63-4.03,8.13,.05,.06,.23,.17,.53,.16,3.19-.08,6.27-4.29,11.11-10.09,1.82-2.17,4.96,.27,3.06,2.67-5.71,7.49-10.3,11.73-15.42,11.98-.49,.07-1.86,0-2.33-.17-2.04-.64-2.12-3.16-.75-6.98Z"/><path d="M298.25,43.07c-2.69,3.85-6.42,7.96-10.67,10.54-3.62,2.27-7.52,2.83-9.56,2.88-8.3,.21-10.14-4.67-10.25-7.42-.33-5.67,4.84-13.14,10-17.06,3.15-2.37,5.66-3.59,7.77-3.64,.96-.02,1.84,.24,2.64,.68,3.19,1.92,3.43,5.19,3.04,7.61-.98,6.91-6.97,8.09-10.46,8.18-1.62,.04-3.23-.09-4.76-.45-.89-.15-1.76-.47-2.55,.29-.6,.65-1.01,1.86-1.01,2.61-.03,.98,.14,1.83,.75,2.96,.62,1.07,2.63,2.11,5.76,2.03,2.53-.06,5.22-1.28,5.78-1.52,2.65-1.5,6.03-4.34,10.19-9.9,.61-.82,1.17-1,1.65-1.02,.78-.02,1.58,.42,1.94,1.1,.3,.68,.23,1.43-.25,2.13Zm-21.52-3.52c-.17,1.84,3.15,1.64,4.42,1.61,1.62-.04,2.93-.59,3.92-1.59,1.19-1.23,2.32-3.16,1.83-4.98-.31-1.25-1.03-1.87-2.05-1.84-1.86,.05-3.76,1.76-5.01,3-.85,.77-1.58,1.59-2.38,2.41-.34,.41-.68,.93-.73,1.39Z"/><path d="M319.94,40.16c.41-.53,.92-.88,1.58-.9,1.26-.03,2.13,1.03,2.02,2.18-.05,.57-.34,1.16-.75,1.62-3.52,4.45-9.36,12-15.5,12.15-3.49,.09-5.24-2.5-4.96-5.61,.48-5.29,8.79-13.01,8.98-15.08,.03-.34-.13-.51-.49-.5-.3,0-4.03,1.42-5.01,1.62-.43,.13-.86,.19-1.29,.32-1.54,.44-2.98,2.48-3.87,3.71-1.16,1.58-2.2,3.15-3.48,4.62-.61,.76-1.32,1.3-2.28,1.32-1.2,.03-2.05-.58-1.94-1.73,.05-.57,.22-1.1,.56-1.56,1.5-2.05,5.74-7.14,5.95-9.44,.05-.52-.07-.51-.22-.91-.34-.91-.58-2.22-.49-3.2,.11-1.21,1.15-2.72,2.53-2.76,.6-.02,1.06,.2,1.39,.6,1.26,1.34,1.43,2.77,1.51,4.55,.01,.52,.49,.56,.91,.55,2.59-.07,5.28-2.66,8.17-2.73,2.29-.06,3.73,1.85,3.55,3.92-.13,1.44-.87,2.95-1.76,4.17-1.58,2.22-3.21,4.33-4.79,6.55-1.17,1.64-3.04,3.8-3.22,5.76-.07,.8,.2,1.77,1.22,1.75,3.19-.08,9.9-8.68,11.67-10.96Z"/><path d="M348.41,41.78c-2.69,3.85-6.42,7.96-10.67,10.54-3.63,2.27-7.52,2.83-9.56,2.88-8.3,.21-10.14-4.67-10.25-7.42-.33-5.67,4.84-13.14,10-17.06,3.15-2.37,5.66-3.59,7.77-3.64,.96-.02,1.84,.24,2.64,.68,3.19,1.92,3.43,5.19,3.04,7.61-.98,6.91-6.97,8.09-10.46,8.18-1.62,.04-3.23-.09-4.76-.45-.89-.15-1.76-.47-2.55,.29-.6,.65-1.01,1.86-1.02,2.61-.03,.98,.14,1.83,.75,2.96,.62,1.07,2.63,2.11,5.76,2.03,2.53-.06,5.22-1.28,5.78-1.52,2.66-1.5,6.03-4.34,10.19-9.9,.61-.82,1.17-1,1.65-1.02,.78-.02,1.58,.42,1.94,1.1,.3,.68,.23,1.43-.25,2.13Zm-21.52-3.52c-.17,1.84,3.15,1.64,4.42,1.61,1.62-.04,2.93-.59,3.92-1.59,1.19-1.24,2.32-3.16,1.83-4.98-.31-1.25-1.03-1.87-2.05-1.84-1.86,.05-3.76,1.76-5.01,3-.85,.77-1.58,1.59-2.38,2.41-.34,.41-.68,.93-.73,1.39Z"/><path d="M47.86,53.77l-.1,.12,.43-.54c-2.54,3.15-5.39,5.99-8.49,8.46-.5,.4-.83,1.28-.87,1.93-.05,.69,.18,1.52,.61,2.03s1.06,.93,1.74,.94,1.27-.24,1.85-.7c3.33-2.65,6.3-5.73,9.02-9.12,.41-.51,.51-1.52,.4-2.14-.12-.66-.53-1.39-1.06-1.75-.57-.38-1.27-.6-1.94-.41s-1.13,.6-1.6,1.19h0Z"/><path d="M49.52,42.47c4.45,.74,8.4,1.68,12.85,2.77,1.11,.27,2.42-.16,2.79-1.5,.31-1.14-.14-2.76-1.33-3.05-4.64-1.13-9.3-2.24-14-3.02-1.13-.19-2.3,1.04-2.33,2.26-.03,1.4,.81,2.34,2.02,2.54h0Z"/></g><g><g><path d="M853.52,181.93c-2.33,4.64-9.43,7.58-13.47,4.21-1.79-1.5,1.17-4.23,3.01-2.74,2.25,1.87,6.45-1.03,7.19-3.4,.74-2.37,.21-5.07-1.57-6.72-4.83-4.42-14.93-2.46-17.4,4.52-2.27,6.37,1.06,11.56,4.46,16.35,3.16,4.4,6.8,8.98,7.31,14.61,.51,5.58-3.16,11.23-8.51,14.38-10.58,6.15-29.95,7.69-35.55-3.24-2.68-5.27-2.23-11.75,2.07-16.98,4.7-5.7,12.24-6.14,18.42-4.42,2.38,.62,1.08,4.26-1.3,3.59-3.75-1.05-8.16-1.67-11.87,.91-3.47,2.36-5.28,6.37-5.08,10.04,.44,7.62,7.41,11.23,15.15,11.08,6.93-.16,16.27-1.78,20.62-7.96,7.89-11.17-8.39-20.51-10.15-30.3-1-5.46,.4-11.73,5.9-15.54,4.88-3.38,12.2-4.55,16.83-1.36,4.23,2.81,6.49,7.9,3.92,12.95Z"/><path d="M815.9,228.22c-2.69,0-5.34-.32-7.8-1.04-4.44-1.3-7.58-3.71-9.35-7.15-2.85-5.6-2.04-12.22,2.1-17.27,4.08-4.94,11.07-6.63,18.69-4.51,.72,.19,1.21,.65,1.39,1.31,.2,.75-.07,1.66-.67,2.26-.58,.57-1.36,.76-2.16,.54-3.45-.97-7.89-1.74-11.64,.87-3.22,2.19-5.17,6.04-4.96,9.8,.3,5.12,4.37,11.04,14.88,10.83,5.65-.13,15.81-1.32,20.41-7.84,4.87-6.91,.24-13.18-4.24-19.25-2.72-3.69-5.3-7.18-5.96-10.84-1.19-6.46,1.06-12.37,6.01-15.8,4.62-3.2,12.19-4.76,17.13-1.36,4,2.66,6.8,7.8,4.01,13.29h0c-1.37,2.74-4.35,4.94-7.58,5.61-2.44,.51-4.67,.04-6.29-1.31-.81-.68-.86-1.72-.13-2.6,.82-.99,2.34-1.47,3.48-.54,.85,.71,1.93,.59,2.69,.37,1.76-.52,3.63-2.19,4.08-3.64,.73-2.35,.13-4.94-1.5-6.44-2.27-2.08-5.91-2.81-9.51-1.91-3.59,.9-6.38,3.26-7.47,6.32-2.17,6.08,.86,11.08,4.43,16.1l.79,1.09c3,4.14,6.1,8.41,6.57,13.65,.5,5.41-2.97,11.29-8.64,14.63-4.74,2.75-11.89,4.84-18.78,4.84Zm-2.65-30.33c-4.91,0-9.17,1.8-11.98,5.21-4.01,4.88-4.79,11.28-2.04,16.69,1.7,3.31,4.73,5.62,9.02,6.88,8.6,2.52,19.67,.02,26.16-3.75,5.49-3.24,8.86-8.92,8.38-14.13-.46-5.1-3.52-9.31-6.47-13.39l-.79-1.09c-3.66-5.14-6.75-10.27-4.5-16.59,1.14-3.23,4.07-5.72,7.84-6.66,3.77-.94,7.6-.16,10,2.03,1.8,1.67,2.45,4.41,1.64,6.99-.51,1.62-2.5,3.41-4.44,3.99-1.26,.37-2.36,.21-3.17-.46-.88-.72-2.09-.32-2.74,.47-.43,.52-.63,1.28,.06,1.86,1.49,1.25,3.57,1.67,5.84,1.2,3.03-.63,5.93-2.77,7.22-5.33h0c2.64-5.19-.02-10.08-3.83-12.61-4.75-3.26-12.06-1.74-16.54,1.36-4.78,3.31-6.94,9.02-5.79,15.27,.64,3.54,3.17,6.98,5.86,10.62,4.59,6.22,9.34,12.66,4.24,19.87-4.73,6.72-15.09,7.94-20.83,8.07-10.91,.19-15.11-5.97-15.42-11.33-.22-3.95,1.82-7.98,5.19-10.27,3.98-2.76,8.8-1.86,12.09-.94,.83,.23,1.38-.15,1.64-.41,.47-.46,.69-1.16,.53-1.74-.13-.47-.48-.79-1.01-.93-2.12-.59-4.2-.88-6.16-.88Z"/></g><path d="M868.75,193.52c-.77,.04-1.42,.07-2.15,.53-.54,.38-.96,.94-1.31,1.43-1.64,2.64-3.2,5.09-4.92,7.91-.79,1.29-1.5,2.51-2.22,3.79-3.24,5.74-4.68,9.32-4.32,10.72,.2,.88,1.44,2.66,4.33,1.5,2.24-.89,4.42-2.01,11.82-11.64,.35-.49,1.07-.77,1.65-.8,.77-.04,1.58,.45,1.97,1.26,.4,.81-.13,2.02-.75,2.83-5.93,7.72-9.75,11.42-14.12,12.47-6,1.49-8.68-.8-9.75-3.24-1.73-4.18,2.85-11.89,4.79-15.2l.07-.12c.51-.92,1.07-1.78,1.64-2.69,1.28-2.08,3.6-5.29,4.38-7.46,.32-1.08-.84-.97-1.61-.93-1.73,.03-1.35,0-3.15,.1-1.55,.08-2.18-1.01-2.12-2.09,.07-1.07,.84-2.24,2.39-2.32,2-.1,1.8-.03,3.79-.14,1.41-.01,3.89,.33,5.06-.91,.48-.56,2.76-4.18,3.18-4.79,.64-.98,1.34-1.97,2.04-2.89,.49-.68,1.16-1.07,1.99-1.11,.9-.05,1.84,.38,2.18,1.07,.35,.63,.24,1.35-.25,2.03-.56,.74-3.17,4.55-3.61,5.47-.46,1.15,2.2,.78,2.91,.74l2.06-.11c1.42-.07,.77-.04,2.25-.06,1.61-.08,2.24,1.07,2.18,2.14-.13,1.07-.84,2.12-2.32,2.2h-.13c-1.99,.05-1.93,.05-3.86,.15-1.16,.06-2.9,.15-4.12,.15Z"/><path d="M884.5,218.94c-.54-.57-1.46-.22-2.07,.34-.88,.82-1.64,1.63-2.71,2.33-1.8,1.1-3.83,1.74-5.76,1.84-4.38,.22-7.1-2.48-6.95-6.94,.19-6.24,5.4-14.69,11.7-18.93,2.35-1.6,4.64-2.43,6.83-2.55,1.67-.09,3.32,.3,4.62,1.07,.62,.38,1.24,.77,1.72,1.28,.42,.45,.91,.78,1.63,.57,.59-.21,1.87-2.23,2.41-2.67l.34-.31c.48-.44,1.01-.7,1.59-.73,.9-.05,1.7,.45,2.11,1.14,.41,.63,.3,1.35-.13,2.02-2.46,3.51-5.06,7.08-8,11.03l-.28,.43c-.43,.67-.85,1.35-1.28,1.96-.85,1.35-1.48,3.16-.91,4.26,.23,.46,.72,.73,1.36,.76l.32-.02c3.09-.16,6.16-4.11,8.94-7.58,.7-.93,1.46-1.86,2.09-2.66,.48-.5,1.08-.83,1.66-.86,.77-.04,1.58,.45,1.98,1.2,.4,.75,.28,1.65-.34,2.45l-.7,.93c-3.62,4.64-9.07,11.74-14.8,12.03-1.16,.06-2.23-.18-3.3-.6-.87-.43-1.34-1.24-2.07-1.79Zm.82-9.06l1.26-1.73,.49-.62c1-1.65,3.25-3.85,2.34-5.64-.68-1.45-2.66-2.59-4.4-2.5-1.03,.05-2.08,.4-3.08,1.11-2.08,1.41-3.99,3.35-5.96,6.06-2.1,2.84-5.37,7.99-4.45,10.67,.27,.88,1,1.43,2.01,1.68,.32,.04,.57,.09,.89,.07,2.64-.14,6.3-3.23,10.89-9.1Z"/><path d="M928.65,204.45c.42-.56,.96-.94,1.66-.98,1.35-.07,2.31,1.01,2.24,2.2-.04,.6-.33,1.2-.75,1.7-3.63,4.7-9.64,12.66-16.2,12.99-3.73,.19-5.69-2.44-5.49-5.65,.34-5.48,9-13.69,9.13-15.83,.02-.36-.16-.53-.55-.51-.32,.02-4.27,1.58-5.31,1.82-.46,.14-.91,.22-1.37,.37-1.63,.5-3.12,2.65-4.03,3.94-1.19,1.66-2.26,3.32-3.57,4.87-.63,.8-1.37,1.38-2.4,1.43-1.29,.07-2.21-.54-2.14-1.73,.04-.6,.2-1.14,.55-1.63,1.54-2.16,5.92-7.54,6.07-9.92,.03-.54-.09-.53-.26-.94-.39-.93-.69-2.28-.63-3.29,.08-1.25,1.14-2.85,2.62-2.92,.64-.03,1.14,.18,1.5,.58,1.39,1.35,1.62,2.82,1.77,4.66,.03,.53,.54,.57,.99,.54,2.77-.14,5.57-2.9,8.66-3.06,2.45-.13,4.06,1.81,3.93,3.95-.09,1.49-.83,3.07-1.75,4.36-1.62,2.34-3.3,4.56-4.92,6.9-1.2,1.72-3.14,4.02-3.26,6.04-.05,.83,.27,1.83,1.37,1.77,3.41-.18,10.33-9.25,12.14-11.66Z"/><path d="M945.74,189.57c-.77,.04-1.42,.07-2.15,.53-.54,.38-.96,.94-1.31,1.43-1.64,2.64-3.2,5.09-4.92,7.91-.79,1.29-1.5,2.51-2.22,3.79-3.24,5.74-4.68,9.32-4.32,10.72,.2,.88,1.44,2.66,4.33,1.5,2.24-.89,4.42-2.01,11.82-11.64,.35-.49,1.07-.77,1.65-.8,.77-.04,1.58,.45,1.97,1.26,.4,.81-.13,2.02-.75,2.83-5.93,7.72-9.75,11.42-14.12,12.47-5.99,1.49-8.68-.8-9.75-3.24-1.73-4.18,2.85-11.89,4.79-15.2l.07-.12c.51-.92,1.07-1.78,1.64-2.69,1.28-2.08,3.6-5.29,4.38-7.46,.32-1.08-.84-.97-1.61-.93-1.73,.03-1.35,0-3.15,.1-1.55,.08-2.18-1.01-2.12-2.09,.07-1.07,.84-2.24,2.39-2.32,2-.1,1.8-.03,3.79-.14,1.41-.01,3.89,.33,5.06-.91,.48-.56,2.76-4.18,3.18-4.79,.64-.98,1.34-1.97,2.04-2.89,.49-.68,1.16-1.07,1.99-1.11,.9-.05,1.84,.38,2.18,1.07,.35,.63,.24,1.35-.25,2.03-.56,.74-3.17,4.55-3.61,5.47-.46,1.15,2.2,.78,2.91,.74l2.06-.11c1.42-.07,.77-.04,2.25-.06,1.61-.08,2.24,1.07,2.18,2.14-.13,1.07-.84,2.12-2.32,2.2h-.13c-1.99,.05-1.93,.05-3.86,.15-1.16,.06-2.9,.15-4.12,.15Z"/></g></g><g><path d="M19.34,170.84c-.61,.01-1.18-.07-1.73-.24l-.82-.04-.82,.02c-.26,0-.52,0-.78-.04-.84,.02-2.28,.08-4.33,.19h-.13c-.61,.01-1.14-.2-1.59-.63-.28-.33-.63-.59-1.03-.81-1.09-.68-1.62-1.71-1.6-3.11,0-.33,.04-.68,.1-1.05l.05-.22c.06-.4,.19-.81,.37-1.22,.48-1.44,.9-2.88,1.24-4.32,.22-1,.78-3.08,1.7-6.26,.48-1.51,.88-3.01,1.2-4.48l.19-.89c.16-.92,.29-1.82,.39-2.71l.28-1.55c.3-.96,.56-1.94,.78-2.93l.94-4.98,.09-.39,.1-.72c.04-.88,.14-1.77,.3-2.65l.19-.99c.51-2.95,.86-5.01,1.05-6.19l.24-1.16c.53-2.58,1.04-4.72,1.53-6.42,.28-1.07,.52-2.16,.74-3.26l.47-2.21,1.3-5.7,.19-1.11c.41-2.25,.66-4.44,.75-6.57,.03-.4,.07-.76,.1-1.08,.03-.31,.05-.55,.05-.72,0-.17,.02-.32,.05-.47,.03-.29,.05-.57,.06-.83,.02-1.06-.26-1.7-.84-1.91-.32-.14-.65-.21-.99-.2-.75,.01-1.84,.53-3.27,1.55-1.02,.83-2.1,1.45-3.23,1.88-1.51,.54-2.99,1.31-4.45,2.29l-1.49,.91c-1.29,.94-2.61,1.43-3.96,1.45-1.16,.02-1.91-.33-2.28-1.06l-.08-.22c-.25-.47-.37-.98-.37-1.53v-.33s.29-1.55,.29-1.55l.37-1.55c.3-1.03,.57-2.08,.79-3.15l.14-.77c.25-1.33,.43-2.65,.54-3.98l.14-.72c.34-1.59,1.07-2.85,2.18-3.79,1.52-1.42,3.14-2.39,4.85-2.9,1.13-.24,2.24-.37,3.34-.39h.52c2.25-.05,4.52-.3,6.81-.75,.35-.08,.68-.12,1-.13,.43,0,.85,.04,1.25,.14,.4,.1,.82,.15,1.25,.14,1.87,.04,3.72,.2,5.53,.5l.78,.04c.61-.01,1.01-.05,1.21-.11,.2-.06,.41-.09,.61-.09,.63-.01,1.24,.07,1.81,.24l.22,.05h.74c.49-.02,.96-.01,1.41,.01,.45,.03,.89,.04,1.32,.03,.84-.02,1.69-.09,2.56-.21,.61-.09,1.23-.13,1.86-.15l5.11-.04c.43,0,.9-.05,1.39-.14,1.5-.25,3.01-.39,4.51-.42l1.56-.03c.98-.02,1.96-.15,2.95-.39,.29-.08,.56-.12,.82-.13,1.1-.02,1.92,.59,2.48,1.82l.29,.71,.04,.49c.1,.81,.15,1.63,.13,2.48-.01,.92-.1,1.86-.26,2.81l-.14,.5c-.09,.52-.2,1.01-.33,1.49-.33,.92-.59,1.87-.78,2.82-1.33,5.61-2.83,8.43-4.51,8.46-1.44,.03-2.59-.58-3.43-1.83-.85-1.25-1.87-2.19-3.07-2.83-.57-.32-1.11-.68-1.63-1.07-1-.86-2.14-1.28-3.44-1.26-.55,.01-1.08,.11-1.61,.31l-.17,.06c-.87,.31-1.5,1.06-1.9,2.24-.39,1.18-.72,2.4-.97,3.65l-.19,.94c-.25,1.44-.62,3.68-1.1,6.74l-.45,3.75c-.11,1.36-.24,2.72-.41,4.08-.12,.59-.22,1.14-.29,1.66-.07,.52-.44,3.04-1.11,7.57l-.38,2.27-.43,2.27-.93,4.04-.28,1.49-.48,2.98c0,.15-.04,.46-.1,.94l-.18,.55-.1,.66c-.22,1.14-.37,2.28-.44,3.42l-.29,1.88c-.13,.81-.23,1.62-.3,2.43,0,.18-.05,.57-.15,1.16l-.19,.99-.23,1.11-.14,.72c-.13,.66-.21,1.25-.24,1.77-.04,.52-.1,1.01-.2,1.49l-.09,.5c-.16,1.18-.43,3.42-.8,6.73-.07,.77-.17,1.55-.3,2.32l-.14,.77c-.28,1.07-.71,2.07-1.3,3-.71,1.26-1.58,2.12-2.59,2.58-1.02,.46-1.83,.73-2.44,.82-.17,0-.32,.03-.43,.06-.87,.35-1.71,.53-2.52,.54Z"/><path d="M107.68,168.43l-1.21-.03-.52-.05c-.17,0-.35,.03-.54,.07-.19,.04-.37,.06-.54,.07-.35,0-.68-.06-.99-.2l-.43-.05-2.64,.22-3.63-.1-.87-.04c-1.13,.02-1.84-.66-2.13-2.05-.19-.8-.28-1.63-.26-2.47,0-.62,.08-1.27,.2-1.93,.32-1.73,.93-3.96,1.84-6.7,.36-1.18,.83-3.38,1.4-6.58,.38-2.03,.73-4.07,1.05-6.13l.1-.66c.13-.66,.28-1.33,.46-1.99l.09-.5c.16-.81,.24-1.6,.25-2.37s-.05-1.52-.18-2.25c-.05-.29-.14-.55-.25-.77-.62-1.2-1.53-1.86-2.74-1.98-.55-.03-1.08-.11-1.6-.25-.89-.17-1.86-.24-2.9-.22l-1.69,.14-1.82,.04c-1.65,.03-3.31,.38-4.99,1.03-.64,.23-1.6,1.08-2.9,2.53-1.12,1.31-1.79,2.53-2.01,3.67-.23,1.91-.39,3.09-.49,3.53-.13,.81-.33,1.6-.6,2.38-.12,.44-.23,.89-.32,1.33-.09,.52-.15,1.05-.16,1.6l-.09,5.45c-.06,3.86-.02,6.52,.13,7.98,.03,.15,.04,.31,.04,.5,0,.22-.04,.46-.1,.72-.06,.33-.17,.68-.32,1.05-.58,1.85-1.58,3.04-3,3.58-.06,.04-.13,.07-.22,.09-.09,.02-.17,.07-.26,.14-1.8,.88-2.99,1.37-3.55,1.47-.56,.1-1.51,.17-2.84,.19-.32,.04-.64,.09-.96,.16-.32,.06-.67,.1-1.04,.1-.52,.08-1.03,.13-1.52,.14-.64,.01-1.25-.03-1.84-.13-.59-.1-1.2-.14-1.84-.13l-1.34,.08c-.89,.02-1.66-.3-2.28-.95-1.26-.64-1.93-2.17-2.01-4.59-.02-.29-.03-.64-.03-1.05,.02-1.36,.25-3.24,.69-5.63,.41-2.28,.97-4.57,1.67-6.86,.09-.41,.22-1.09,.38-2.05l.19-.77c.16-.81,.4-1.64,.73-2.49,.27-.63,.5-1.48,.69-2.55l.41-1.55c.3-.89,.53-1.77,.69-2.66,.13-.66,.21-1.34,.25-2.04l.05-.61c.09-.37,.21-.76,.36-1.16,.3-.96,.55-1.94,.74-2.93,.09-.48,.17-.98,.22-1.49,.05-.51,.12-1.01,.22-1.49,.13-.77,.31-1.55,.56-2.32,.3-1,.55-2.01,.74-3.04,.16-.85,.27-1.69,.34-2.54,0-.37,.04-.72,.1-1.05,.09-.44,.22-.89,.37-1.33,.27-.85,.49-1.72,.65-2.6l.14-.88,1.61-8.57,.76-4.2c.31-1.58,.51-3.75,.58-6.51,.08-1.14,.12-2.28,.14-3.42,.17-1.66,.27-3.31,.29-4.96v-.83c.05-2.5,.12-3.95,.21-4.35,.1-.63,.35-1.16,.76-1.61,1.14-1.16,2.37-2.08,3.68-2.77,.17-.08,.35-.12,.52-.12l1.9,.29c2.01,.33,3.3,.49,3.85,.48h.48c.35-.02,.68,.03,.99,.14,.32,.1,.63,.15,.95,.15l.48-.06c.55-.12,1.11-.2,1.69-.25l1.74-.31c.55-.23,1.09-.35,1.61-.36l1.26-.02c.95-.02,1.77,.35,2.45,1.11,.51,.54,.76,1.25,.75,2.13,0,.29-.04,.61-.1,.94-.07,.44-.2,.92-.41,1.44l-.05,.11c-1.12,3.29-2.01,6.63-2.67,10.02-.13,.66-.32,1.33-.59,1.99-.72,1.85-1.27,3.71-1.65,5.59-.37,1.59-.98,3.84-1.84,6.75l-.28,1.16-.1,.61-.35,5.51v.83c-.04,1.4,.14,2.37,.5,2.91,.7,1.24,1.7,1.91,3,2.04,.84,.06,1.61,.24,2.33,.56,.54,.39,1.35,.58,2.42,.56,.69-.01,1.42-.16,2.17-.43,.46-.19,.94-.29,1.43-.3,1.15-.02,2.66-.49,4.52-1.41,1.05-.53,2.07-1.62,3.08-3.25,.83-1.45,1.63-3.43,2.39-5.94,.24-.81,.51-1.94,.79-3.37,.92-5.19,1.42-9.37,1.5-12.53l.16-2.1c.03-.37,.05-.72,.06-1.05,.01-.81-.05-1.58-.18-2.31-.21-1.43-.42-2.87-.62-4.34-.02-.37-.05-.71-.07-1.04-.03-.15-.04-.29-.04-.44,0-.15,.02-.29,.05-.44,.22-1.22,.84-2.13,1.86-2.73,1.34-.8,2.98-1.23,4.91-1.31,1.73-.11,2.66-.22,2.78-.33l1.04-.08,1.13,.03c.37,0,.75-.07,1.13-.19,.26-.04,.51-.06,.76-.07,.25,0,.51-.03,.8-.07l3.64-.12h.52c.81-.03,1.62-.17,2.43-.44,.29-.08,.55-.12,.78-.13,.46,0,.88,.13,1.25,.42,.6,.5,1.02,1.21,1.27,2.12,.03,.15,.04,.31,.04,.49,0,.18-.02,.39-.05,.61l-.89,4.48h-.09s-.28,1.44-.28,1.44c-.51,2.8-1.18,5.57-2.04,8.3-.43,1.59-.79,3.17-1.07,4.76l-.57,3.26c-.13,.74-.28,1.46-.47,2.16-.38,1.88-.94,4.85-1.7,8.9-.82,4.64-1.29,7.64-1.4,9-.12,1.84-.35,3.68-.69,5.52l-.33,1.82-.14,.94c-.05,1.4-.2,2.83-.46,4.31l-.47,2.27c-.22,1.4-.38,2.81-.48,4.22-.09,1.42-.17,2.82-.22,4.22l-.09,2.76-.11,1.21-.02,1.27c-.03,1.69-.14,3.22-.33,4.58-.03,.26-.05,.53-.06,.83,0,.29,0,.59,.03,.88,.05,.37,.07,.77,.07,1.21-.01,.7-.1,1.47-.25,2.32-.51,2.73-1.3,4.34-2.37,4.84-2.74,1.45-5.45,2.2-8.13,2.25Z"/><path d="M151.51,167.32c-.29,0-.56-.04-.82-.15-.57-.21-1.16-.31-1.77-.3-.4,0-.85,.07-1.35,.19-.49,.12-1,.18-1.52,.19-.52,.01-1.02-.04-1.51-.14l-.65-.04c-1.56,.14-3.09,.22-4.59,.25l-1.13,.02-3.34,.12c-1.16,.02-2.29-.01-3.42-.1l-.99-.04-.17-.05-.95-.04c-.52,.01-1.04,.08-1.56,.2l-.43,.06c-.75,.01-1.29-.58-1.62-1.79-.22-.58-.47-1.13-.75-1.64-.17-.29-.25-.62-.24-.99,0-.11,.02-.24,.05-.39l.18-.5c.42-1.22,.8-2.42,1.14-3.6,.49-1.66,1-3.3,1.55-4.93,1.69-4.92,2.83-8.3,3.41-10.14,.88-2.92,1.78-6.55,2.68-10.9l.67-3.81,.98-4.76c.1-.59,.15-1.16,.18-1.71,.02-.55,.1-1.1,.22-1.66l.14-.61c.01-.62,.06-1.23,.16-1.82l.79-3.59c.22-1.33,.34-2.65,.37-3.97l.02-1.05c.04-2.5,.25-5.05,.64-7.67-.02-.29-.03-.59-.03-.88,.01-.7,.08-1.41,.21-2.15,.13-.81,.2-1.58,.21-2.32,0-.44,0-.88-.02-1.32,.1-.77,.15-1.51,.16-2.21,.01-.73-.02-1.43-.1-2.09-.11-.62-.15-1.43-.13-2.42,.01-.84,.07-1.84,.18-2.98l.14-.72c.07-.81,.14-1.6,.21-2.37l.1-.88c.44-2.1,1.38-3.44,2.83-4.02,1.1-.39,2.17-.59,3.21-.61h.3c1.07,.08,2.16,.12,3.29,.1,.61-.01,1.21-.08,1.82-.2,.29-.08,.58-.12,.87-.13l1.43,.08c.43,0,.87-.07,1.3-.19l.39-.06,1.17,.09c1.5,.23,3.03,.33,4.58,.3,1.56-.03,3.15-.19,4.77-.48,.72-.12,1.5-.19,2.34-.21,1.85-.15,3.7-.25,5.55-.33,.4,0,.81-.03,1.21-.08,.4-.04,.81-.07,1.21-.08l1.56,.02,1.65-.25c.11,0,.27-.02,.46-.06,.19-.04,.38-.06,.59-.07l.56,.04c.4,.07,.81,.09,1.21,.09,.4,0,.82-.05,1.26-.13,.58-.12,1.14-.19,1.69-.2,.55-.01,1.07,.03,1.56,.14,.49,.1,.96,.15,1.43,.14l1.04-.08c1.53-.03,2.56,.41,3.1,1.32,1.38,2.25,2.09,4.99,2.12,8.22,.05,.51,.07,1.05,.06,1.6,.07,1.03,.27,2.23,.59,3.62,.13,.59,.2,1.19,.19,1.81,0,.4-.04,.83-.11,1.27l-.05,.22c-.16,.81-.44,1.62-.86,2.44l-.45,1.11c-.8,1.37-1.78,2.07-2.93,2.09h-.17c-1.67-.22-2.95-1.33-3.84-3.34-.39-.76-.93-1.36-1.62-1.79-.03-.04-.07-.05-.13-.05-.17-.07-.32-.18-.43-.32-.97-1.01-2.07-1.76-3.3-2.25-.2-.07-.4-.16-.6-.26-1.75-.85-2.81-1.36-3.18-1.54-.37-.18-.76-.26-1.17-.25-.26,0-.51,.04-.74,.1-.23,.06-.42,.09-.56,.09-.17,0-.33-.01-.48-.05-.14-.03-.27-.06-.37-.08-.1-.02-.24-.05-.41-.1-.17-.05-.33-.08-.48-.07h-.17c-.35,.08-.69,.13-1.04,.13-.46,0-.91-.06-1.34-.19l-.61-.04c-.4,0-.8,.09-1.17,.24-.38,.15-.73,.23-1.04,.24l-.61-.04c-.32-.07-.65-.1-.99-.09-.9,.02-1.71,.21-2.43,.57-.73,.36-1.47,.74-2.23,1.12-1.34,.72-2.31,1.88-2.91,3.47-.51,1.26-.89,2.55-1.14,3.88-.09,.37-.25,1.42-.48,3.15l-.1,.66h-.04c-.13,.74-.25,1.31-.37,1.72-.12,.41-.22,.81-.28,1.22l-.14,.66c-.25,1.44-.39,2.85-.41,4.25,0,.59,0,1.18,.02,1.76,0,1.4,.38,2.3,1.13,2.7,.74,.41,1.52,.66,2.33,.75l1.21,.25h.17c.23,0,.7-.19,1.42-.55,.71-.36,1.42-.61,2.11-.73,.2-.08,.41-.21,.61-.4,.7-.53,1.44-.93,2.23-1.2l1.09-.52c.44-.15,.86-.37,1.27-.63,1.31-.69,2.37-1.04,3.18-1.05,1.01-.02,1.97,.68,2.87,2.09,.37,.58,.54,1.27,.53,2.08,0,.33-.04,.68-.1,1.05l-.05,.17-.29,1.99-.37,1.77c-.18,.7-.34,1.38-.47,2.05l-.19,.77c-.13,.77-.23,1.55-.3,2.32-.13,.77-.26,1.53-.38,2.27-.28,1.33-.68,2.77-1.19,4.32-.4,1.33-1.13,2.31-2.19,2.93-1.06,.63-1.9,.94-2.5,.96-.58,.01-1.12-.16-1.64-.52l-1.55-.8c-.63-.39-1.3-.71-2.02-.95-.63-.13-1.21-.43-1.74-.9-.53-.47-1.18-.69-1.96-.68l-.91,.02c-.2-.03-.42-.05-.65-.04-.87,.02-1.72,.31-2.57,.88-.29,.19-.56,.45-.79,.79-1.21,1.53-2.19,3.24-2.94,5.12-1.12,3.11-1.8,5.23-2.05,6.37l-.05,.22c-.19,1.07-.3,2.34-.32,3.81-.02,1.03,0,2.17,.08,3.41,0,.63,.1,1.17,.32,1.65h.04c.22,.55,.59,.85,1.11,.91,.66,.02,1.3,.18,1.9,.46,.31,.14,.65,.21,.99,.2,.26,0,.51-.05,.74-.12,.95-.16,1.92-.31,2.91-.44,1.13-.13,1.91-.26,2.34-.38,3.16-1.12,5.62-2.11,7.36-2.95,1.74-.84,3.38-1.94,4.9-3.29l.18-.11c2.6-2.11,5.08-4.47,7.43-7.08,.79-.86,1.63-1.7,2.51-2.53l.53-.51c.56-.49,1.14-.74,1.74-.75,.4,0,.75,.11,1.03,.37,.97,.79,1.44,2.05,1.41,3.77,0,.62-.08,1.31-.21,2.04l-.09,.33c-.19,.99-.48,1.97-.87,2.94-.03,.15-.11,.33-.23,.55-.3,.74-.63,1.46-.99,2.17-.53,.89-.97,1.84-1.3,2.83-.21,.63-.47,1.24-.76,1.83-.6,1.15-1.12,2.33-1.57,3.55-.27,.67-.63,1.28-1.07,1.84l-.88,1.06c-.77,.9-1.54,1.82-2.32,2.77-.78,.95-1.62,1.55-2.52,1.78-.67,.27-1.31,.5-1.92,.7l-.09,.06c-.44,.16-.87,.26-1.3,.3h-.39c-.69,.02-1.78,.19-3.25,.51-.49,.12-1,.18-1.52,.19l-.73-.04c-.06-.07-.23-.11-.52-.1l-.35,.06c-.78,.16-1.56,.25-2.34,.26l-1.56-.03c-.58,.01-1.16,.08-1.73,.2h-.35c-.58,.02-1.04-.02-1.38-.1-.34-.08-.69-.12-1.04-.12-.49,0-.98,.09-1.48,.25-.32,.12-.64,.18-.96,.18Z"/><path d="M261.14,165.71l-1.9-.02c-1.47,.03-2.91-.16-4.32-.58l-.87,.02c-1.38-.08-2.57-.57-3.57-1.47-.6-.61-1.29-.97-2.08-1.06-.79-.09-1.59-.47-2.38-1.14-.8-.66-1.6-1.26-2.4-1.8-1.11-.71-2.34-1.7-3.68-2.96-2.11-1.65-3.89-3.96-5.35-6.95l-1.13-2.51c-1.34-3.09-2.16-6.86-2.46-11.3-.14-2.02-.24-4.03-.29-6.05l.02-1.21c.03-1.98,.24-4.08,.62-6.29l.09-.39c.06-.29,.1-.57,.1-.83,.01-.7,.1-1.49,.25-2.37l.62-3.65c.47-2.65,1.13-5.18,1.98-7.58,2.23-6.32,4.97-11.53,8.21-15.63,.09-.11,.2-.23,.33-.36,.13-.13,.26-.31,.38-.53,1.12-1.78,2.36-3.35,3.71-4.7l1.19-1.34c1.91-2.06,4.25-3.9,7.01-5.53,.87-.53,1.71-1.07,2.51-1.62,.8-.55,1.58-.92,2.33-1.12,.38-.15,.77-.34,1.18-.57l.22-.11c.64-.38,1.02-.63,1.14-.74,1.37-.87,2.73-1.34,4.09-1.4,1.36-.14,2.5-.32,3.43-.56l.69-.07,1.38,.03c1.04-.02,1.92-.09,2.64-.22v.11c1.56-.03,2.75-.04,3.57-.04,.82,0,1.61,.14,2.35,.42,.29,.1,.72,.15,1.3,.14,1.27,.09,2.46,.38,3.58,.87,.95,.42,1.91,.87,2.88,1.35,.97,.48,1.98,.93,3.01,1.35,1.12,.46,2.04,1.28,2.77,2.48,.42,.58,.72,.94,.89,1.08l.13,.22c1.27,1.55,2.1,2.92,2.49,4.08,.27,.91,.48,2.29,.63,4.12v.28c0,.15-.02,.29-.05,.44-.09,.52-.46,1.55-1.09,3.11-.45,1.18-1.02,2.3-1.7,3.34-.65,.67-1.34,1.83-2.09,3.45-1.24,2.04-2.67,3.82-4.28,5.31-.64,.56-1.2,.85-1.66,.86-.49,0-.89-.24-1.2-.75l-.3-.32c-.54-.54-.82-1.32-.83-2.35l-.04-.11v-.22c0-.18-.02-.35-.08-.49-.22-.51-.39-1.08-.49-1.7-.08-.48-.19-.93-.32-1.37-.47-1.28-.84-2.61-1.11-4-.24-1.54-.59-2.76-1.07-3.67-1.43-2.4-2.29-3.7-2.58-3.92-.71-.61-1.42-1.18-2.12-1.72-.7-.54-1.57-.8-2.61-.78-.46,0-.89-.03-1.3-.11-.4-.08-.81-.12-1.21-.11-.87,.02-1.75,.2-2.65,.55-1.48,.4-2.92,1.14-4.32,2.23-.35,.26-.72,.49-1.09,.68-1.13,.57-2.2,1.51-3.2,2.82l-1.68,2.4c-.8,1.08-1.58,2.18-2.35,3.29-.68,.89-1.17,1.91-1.48,3.06-.34,1.33-.86,2.57-1.57,3.72-.56,.89-1.01,1.84-1.34,2.83-.18,.59-.41,1.18-.68,1.78-.42,.96-.72,1.94-.91,2.94-.06,.44-.11,.87-.15,1.27-.07,.92-.27,2.63-.6,5.13-.03,.22-.07,.63-.11,1.21l-.06,1.16c-.16,2.57-.25,4.63-.27,6.17-.02,1.51,.02,2.5,.13,2.97,.24,1.28,.44,2.56,.59,3.84l.04,.16c.26,2.09,.72,4.04,1.38,5.87,.24,1.17,.89,3.14,1.94,5.91,.38,1.28,.96,2.35,1.72,3.22,1.13,1.48,2.47,2.65,4.01,3.5,.83,.46,1.75,.68,2.76,.66h.17c.75-.09,1.88-.15,3.38-.18,.23,0,1-.22,2.3-.65l1.17-.41c2.32-.96,4.27-2.82,5.84-5.56,1.54-2.6,2.85-5.32,3.94-8.17,.63-1.63,1.1-3.25,1.42-4.87,.19-1.07,.31-2.15,.35-3.26l.02-1.32c.03-.4,.06-.81,.06-1.21,.02-1.25-.03-2.44-.16-3.58-.02-.29-.03-.59-.03-.88,0-.29,.02-.59,.06-.88-.03-.04-.04-.09-.04-.16,.16-1.03,.25-2.06,.26-3.09,.03-.26,.07-.53,.1-.83,.16-.85,.49-1.66,.99-2.44,.24-.45,.56-.78,.97-1.01,1.46-.87,2.86-1.32,4.22-1.35,.38,0,.72,0,1.04,.04,.32,.03,.65,.04,.99,.04l1-.07c1.47-.21,2.47-.32,2.97-.33,.5,0,1.03-.09,1.58-.25,.93-.24,1.84-.37,2.73-.38,1.04-.02,1.77,.04,2.21,.18,.78,.09,1.45,.49,2.02,1.17,.82,.9,1.22,2.05,1.2,3.45,0,.4-.06,.83-.15,1.27-.28,1.51-.7,3.17-1.25,4.98-.28,1-.51,1.99-.7,2.99l-.19,1.1c-.35,1.88-.84,3.72-1.47,5.54-.33,.81-.57,1.64-.73,2.49l-.24,1.71-.28,1.16-.23,.83c-.03,.26-.05,.48-.05,.66,0,.11,0,.28,0,.5,0,.22-.04,.48-.1,.77-.06,.44-.17,.9-.3,1.38-.14,.48-.25,.98-.35,1.49-.09,.55-.15,1.09-.15,1.6-.07,.99-.2,2.01-.39,3.04l-.09,.33-.23,1.05c-.16,.99-.25,1.99-.26,2.98v.5c-.01,.18-.03,.39-.06,.61l-.09,.28c-.07,.48-.1,.88-.11,1.21-.13,.92-.22,1.82-.26,2.7,0,.4-.04,.79-.11,1.16-.22,1.18-.61,2.16-1.17,2.94l-1.2,1.73c-.35,.52-.85,.86-1.49,1.02-.41,.19-.8,.31-1.17,.35l-4.03,.08c-.32-.03-.62-.13-.9-.31-.06,0-.1-.02-.13-.05-1.09-.49-2.96-.71-5.62-.66-1.5,.03-3.02,.19-4.55,.47-.55,.12-1.1,.22-1.65,.31-.84,.09-1.66,.23-2.47,.43-.15,.04-.3,.06-.48,.06l-.82,.02c-.78,.02-1.58,.14-2.39,.38-.15,.04-.29,.06-.43,.06-1.94,.48-3.86,.74-5.77,.77Z"/><path d="M336.4,164.49c-.84,.02-1.52,.01-2.03-.02-.78-.09-1.59-.17-2.42-.23-1.99,.04-3.74-.53-5.25-1.72l-1.2-.86c-1.49-.93-2.87-2.02-4.15-3.28-.31-.32-.67-.57-1.07-.75-1.57-.89-2.95-2.09-4.14-3.61-.82-.87-1.51-1.92-2.07-3.15l-.72-1.2c-.51-.69-.93-1.47-1.26-2.34-.28-.73-.58-1.4-.92-2.02-.76-1.34-1.25-2.89-1.49-4.65-.13-.91-.33-1.77-.61-2.58-.3-.99-.53-2.03-.69-3.13-.37-2.34-.53-4.76-.49-7.26,.03-1.65,.14-3.33,.34-5.02v-.11c.04-.37,.23-1.53,.58-3.48l1.45-7.08c.44-2.51,1.22-4.94,2.32-7.31,1.24-3.4,2.86-6.57,4.87-9.51l1.11-1.84c.98-1.6,2.45-3.59,4.42-5.98,1.97-2.39,4.64-4.81,7.99-7.26,3.36-2.45,6.7-4.37,10.03-5.75,3.33-1.39,6.77-2.2,10.32-2.46h.22c.72-.09,1.43-.14,2.12-.15,3.72,.11,6.89,.81,9.51,2.1,2.62,1.29,5.25,3.14,7.9,5.55,2.65,2.41,4.88,6.11,6.71,11.11,1.83,5,2.71,9.11,2.66,12.34,.04,1.14,.12,2.26,.25,3.35,.08,.59,.11,1.23,.1,1.93,0,.18,0,.56-.02,1.13,0,.57-.19,1.95-.54,4.14-.35,2.19-.58,3.62-.67,4.28-.19,.81-.61,2.46-1.27,4.95-.66,2.49-1.39,4.59-2.2,6.29-.45,.89-.82,1.82-1.13,2.78-.09,.22-.36,.65-.8,1.28-1.77,2.68-2.93,4.46-3.46,5.35v.06c-.09,.19-.18,.33-.27,.45-.82,1.04-1.82,2.59-2.97,4.63-1.16,1.89-2.48,3.61-3.98,5.14l-.22,.22c-.23,.19-.41,.39-.53,.62-.53,.93-1.18,1.69-1.94,2.3-.64,.53-1.29,1.18-1.94,1.96-2.2,2.39-4.53,4.38-6.98,5.97-1.14,.83-2.04,1.39-2.71,1.68-.67,.29-1.65,.59-2.96,.91l-3.09,1.11c-.58,.16-.92,.27-1.02,.32-.1,.06-.2,.09-.28,.09h-.69c-.78,.03-1.57,.14-2.36,.33-.8,.2-1.59,.32-2.37,.38Zm2.54-15.58h.3c.2,0,.43-.03,.69-.07,.26-.04,.59-.07,1-.07,2.37-.05,4.95-1.84,7.75-5.38,1.15-1.45,2.29-3.26,3.42-5.41,.62-1.04,1.09-2.15,1.39-3.33,1.01-1.85,1.72-3.78,2.13-5.77l.09-.39c.03-.26,.12-.52,.27-.78,.63-1.7,1.14-3.42,1.51-5.15,.15-.63,.28-1.25,.38-1.88,.57-3.06,.87-6,.92-8.83,.06-2.24,.21-4.5,.45-6.78l.09-.44-.04-.16-.1-1.7c-.1-2.79-.57-5.83-1.42-9.12-.11-.62-.3-1.21-.58-1.75-.28-.54-.47-1.18-.58-1.92-.11-.36-.26-.64-.46-.82-.51-.39-.97-.84-1.36-1.35-.34-.4-.68-.74-1.02-1.03l-.21-.16c-.51-.61-1.3-.95-2.36-1h-.17c-.64,.02-1.3,.17-2,.48l-.13,.06c-2.3,1.11-4.31,2.75-6.05,4.91-3.26,3.7-5.79,7.55-7.58,11.55-1.47,3.44-2.63,6.64-3.48,9.59l-.23,.78c-.09,.52-.16,1.05-.2,1.6-.13,1.07-.29,2.12-.48,3.15-.13,.7-.27,1.4-.42,2.1l-.14,.39-.14,.88c-.28,1.51-.44,2.96-.46,4.36,0,.22-.04,.53-.1,.94-.1,.85-.16,1.69-.17,2.54-.03,1.76,.13,3.45,.48,5.06,.11,.44,.19,.88,.24,1.32,.17,2.02,.43,3.74,.78,5.16,.1,.7,.3,1.31,.6,1.83,.29,.53,.55,1.05,.78,1.55l.04,.05c1.59,3.24,3.79,4.9,6.59,5Z"/><path d="M413.22,163.01c-.84,.02-1.52,.01-2.03-.02-.78-.1-1.58-.17-2.42-.23-1.99,.04-3.74-.53-5.25-1.72l-1.2-.86c-1.49-.93-2.87-2.02-4.15-3.28-.31-.32-.67-.57-1.07-.75-1.57-.89-2.95-2.09-4.14-3.61-.82-.87-1.51-1.92-2.07-3.15l-.72-1.2c-.51-.69-.93-1.47-1.26-2.34-.28-.73-.58-1.4-.92-2.02-.76-1.34-1.25-2.89-1.49-4.65-.13-.92-.33-1.77-.61-2.58-.3-.99-.53-2.03-.69-3.13-.37-2.34-.53-4.76-.49-7.26,.03-1.65,.14-3.32,.34-5.02v-.11c.04-.37,.23-1.53,.58-3.48l1.45-7.08c.44-2.5,1.22-4.94,2.32-7.31,1.24-3.4,2.86-6.57,4.87-9.51l1.11-1.84c.98-1.6,2.45-3.59,4.42-5.98,1.97-2.39,4.64-4.81,7.99-7.26,3.36-2.45,6.7-4.37,10.03-5.75,3.33-1.39,6.77-2.2,10.32-2.46h.22c.72-.09,1.43-.14,2.12-.15,3.72,.11,6.89,.81,9.51,2.1,2.62,1.29,5.25,3.14,7.9,5.55,2.65,2.41,4.88,6.11,6.71,11.11,1.83,5,2.71,9.11,2.66,12.34,.04,1.14,.12,2.26,.25,3.35,.08,.59,.11,1.23,.1,1.93,0,.18,0,.56-.02,1.13,0,.57-.19,1.95-.54,4.14-.35,2.19-.58,3.62-.67,4.28-.19,.81-.61,2.46-1.27,4.95-.66,2.49-1.39,4.59-2.2,6.29-.45,.89-.82,1.82-1.13,2.78-.09,.22-.36,.65-.8,1.28-1.77,2.68-2.93,4.46-3.46,5.35v.06c-.09,.19-.18,.33-.27,.45-.83,1.04-1.82,2.59-2.97,4.63-1.15,1.89-2.48,3.61-3.98,5.14l-.22,.22c-.23,.19-.41,.39-.53,.62-.53,.93-1.18,1.69-1.94,2.3-.64,.53-1.29,1.18-1.94,1.96-2.2,2.39-4.53,4.38-6.98,5.97-1.14,.83-2.04,1.39-2.71,1.68-.67,.29-1.65,.59-2.96,.91l-3.09,1.11c-.58,.16-.92,.27-1.02,.32-.1,.06-.2,.09-.28,.09h-.69c-.78,.03-1.57,.14-2.36,.33-.8,.2-1.58,.32-2.36,.38Zm2.54-15.58h.3c.2,0,.43-.03,.69-.07,.26-.04,.59-.07,1-.07,2.37-.05,4.95-1.84,7.75-5.38,1.15-1.45,2.29-3.26,3.42-5.41,.62-1.04,1.09-2.15,1.39-3.33,1.01-1.85,1.72-3.78,2.13-5.77l.09-.39c.03-.26,.12-.52,.27-.78,.63-1.7,1.14-3.42,1.51-5.15,.15-.63,.28-1.25,.38-1.88,.57-3.06,.87-6,.92-8.83,.06-2.24,.21-4.5,.45-6.78l.09-.44-.04-.16-.1-1.71c-.1-2.79-.57-5.83-1.42-9.11-.11-.62-.3-1.21-.58-1.75-.28-.55-.47-1.18-.58-1.92-.11-.36-.26-.64-.46-.82-.51-.39-.97-.84-1.36-1.35-.34-.4-.68-.74-1.02-1.03l-.21-.16c-.51-.61-1.3-.95-2.36-1h-.17c-.64,.02-1.3,.17-2,.48l-.13,.06c-2.3,1.11-4.31,2.75-6.05,4.91-3.26,3.7-5.79,7.55-7.58,11.55-1.47,3.44-2.63,6.64-3.48,9.6l-.23,.78c-.09,.52-.16,1.05-.2,1.6-.13,1.07-.29,2.12-.48,3.15-.13,.7-.27,1.4-.42,2.1l-.14,.39-.14,.88c-.28,1.51-.44,2.96-.46,4.36,0,.22-.04,.53-.1,.94-.1,.85-.16,1.69-.17,2.54-.03,1.76,.13,3.45,.48,5.06,.11,.44,.19,.88,.24,1.32,.17,2.02,.43,3.74,.78,5.16,.1,.7,.3,1.31,.6,1.83,.3,.53,.55,1.05,.78,1.55l.04,.05c1.59,3.24,3.79,4.9,6.59,5Z"/><path d="M480.09,160.63c-.66-.02-1.31-.09-1.95-.18-1.38-.12-2.42-.19-3.11-.22-.93,.02-1.88,.13-2.86,.33-.67,.12-1.66,.2-2.99,.22-2.19,.04-4.28-.14-6.27-.54-1.64-.3-3.17-.45-4.58-.46-.95,.02-1.7-.24-2.24-.78-.23-.18-.34-.51-.33-.99,0-.15,.02-.29,.05-.44,.02-1.21,.09-2.17,.22-2.87,.16-.96,.4-1.84,.73-2.66,.42-1.04,.77-2.24,1.05-3.6,.12-.59,.3-1.18,.53-1.77,.23-.59,.4-1.2,.53-1.83l.19-1.05c1.22-4.17,2.11-7.79,2.68-10.85l1.64-8.13c.25-1.4,.51-2.95,.77-4.64,.16-.77,.3-1.38,.42-1.83,.27-.85,.6-2.28,.98-4.29,.38-2.01,.7-3.47,.98-4.4,.03-.15,.05-.28,.05-.39,0-.15-.01-.26-.04-.33,.1-1.14,.27-2.28,.49-3.42l.52-2.54c.14-1.32,.25-2.21,.34-2.65,.13-.81,.42-2.08,.88-3.82,.68-4.79,1.08-8.06,1.19-9.83,.03-.4,.12-.92,.24-1.55,.25-1.33,.39-2.63,.41-3.92,.02-1.43-.1-2.84-.37-4.23-.13-.91-.19-1.65-.18-2.2,0-.22,.02-.42,.05-.61,.22-1.07,.67-1.8,1.36-2.2,.68-.4,1.41-.84,2.16-1.34,.29-.26,.57-.4,.83-.4,1.59-.47,3.26-.72,4.99-.76h2.6c.43,0,.85-.08,1.26-.24,.2-.11,.36-.17,.48-.17l.95,.09c.81-.02,1.65-.14,2.52-.38,.23,0,.4,.03,.52,.1,.63,.21,1.28,.32,1.94,.35,.37,0,.74-.04,1.11-.1,.36-.06,.69-.1,.98-.1,.32,0,.6,.03,.84,.09,.24,.07,.47,.1,.67,.1,.23,0,.45-.03,.65-.07,.46-.12,.93-.18,1.39-.19,.32,0,.53,.03,.65,.1,.63-.01,1.3,0,1.99,.04,.69,.04,1.64,.05,2.86,.03,.98-.02,1.66-.09,2.04-.2,.38-.12,.8-.18,1.26-.19,.4,.03,1.12,.22,2.15,.56,.89,.35,1.82,.57,2.8,.66,.23,.07,.63,.28,1.2,.64,1.26,.78,2.38,1.31,3.37,1.59,.99,.28,2.25,1.43,3.78,3.45,.23,.33,.47,.6,.72,.81,1.11,.86,2,2,2.67,3.42l2.78,5.01c.39,.73,.77,2.72,1.12,5.98,0,.59,.07,1.12,.24,1.59,.33,1.13,.48,2.34,.46,3.63-.01,.74-.08,1.47-.21,2.21-.13,1.21-.21,2.41-.23,3.58v.72c-.02,.26-.08,1.02-.2,2.29-.12,1.27-.21,2.53-.25,3.78,0,.62-.08,1.23-.2,1.82-.47,2.4-.83,4.15-1.08,5.25-.53,2.73-1.52,6.01-2.97,9.86-.54,1.37-1.04,2.72-1.49,4.05-.73,2.14-1.7,4.15-2.91,6-.86,1.23-1.58,2.55-2.18,3.95-.42,.85-.95,1.62-1.59,2.29-.94,1.05-1.85,2.15-2.74,3.3-1.33,1.75-2.75,3.32-4.27,4.71-.5,.49-.98,1.01-1.45,1.57-.35,.41-.72,.78-1.1,1.12-.93,.42-1.8,1.01-2.62,1.76-.35,.3-.93,.68-1.75,1.14-3.73,2.27-7.36,3.7-10.89,4.28-.81,.13-1.62,.29-2.43,.49-.29,.08-.84,.13-1.65,.14-.52,0-.88,.04-1.08,.08-.69,.09-1.37,.14-2.04,.15Zm2.49-15.14c.17,0,.38-.04,.61-.12,2.14-.56,4.25-1.59,6.33-3.1,.26-.23,.54-.43,.83-.62,1.02-.68,2-1.56,2.94-2.64,1.44-1.39,2.67-2.95,3.71-4.7,1.89-2.72,3.26-5.24,4.1-7.57,.39-1.07,.84-2.11,1.35-3.11,.98-1.78,1.69-3.74,2.13-5.88,.22-1.14,.42-2.03,.61-2.66,.25-.92,.46-1.92,.65-2.99,.41-2.25,.64-4.64,.68-7.17,.1-.88,.16-1.78,.17-2.7,.02-1.51-.08-3.1-.31-4.79-.05-2.57-.74-5-2.09-7.28-.48-.72-.9-1.51-1.26-2.34-.73-1.2-1.57-2.25-2.5-3.15-.09-.03-.16-.09-.21-.16-1.45-1.26-3.42-1.9-5.9-1.92l-1.17,.08c-2.02,.04-3.43,1.24-4.21,3.61-.45,1.15-1.24,3.71-2.37,7.7-.97,3.07-1.63,5.46-1.98,7.2-.22,1.18-.39,1.9-.51,2.16-.21,.66-.41,1.48-.6,2.43l-.48,2.87c-.25,1.33-.55,2.63-.88,3.9-.34,1.27-.62,2.52-.84,3.73-.44,2.36-.78,4-1.03,4.92-.19,1.11-.34,2.21-.44,3.31l-.1,.88-.47,2.1c-.13,.66-.2,1.33-.23,1.99-.02,.66-.1,1.34-.23,2.04-.1,.59-.15,1.18-.16,1.77,0,.37,0,.72,.03,1.05,0,.44-.09,1.09-.25,1.93-.03,.18-.05,.53-.06,1.05-.01,.92,0,2.31,.06,4.18-.02,1.36,.4,2.27,1.26,2.73,.45,.43,.96,.72,1.5,.85,.52,.25,.96,.39,1.34,.42Z"/><path d="M588.25,158.99c-.23,0-.46-.03-.69-.1-.86-.24-1.74-.35-2.63-.34l-1.17,.08c-.43,0-.84-.07-1.23-.22-.39-.16-.81-.29-1.27-.39-2.39-.54-4.61-1.51-6.67-2.9-.94-.53-1.49-.81-1.63-.85-.32-.14-.59-.3-.81-.48-.71-.65-1.51-1.15-2.4-1.5-.14,0-.33-.08-.56-.26-1.99-1.72-3.33-3-4.01-3.83-.59-.8-1.13-1.65-1.61-2.56l-.63-1.09-.17-.49c-.58-1.86-.85-3.84-.81-5.93,.01-.77,.07-1.54,.17-2.32,.13-.85,.71-2.36,1.76-4.55,1.34-2.74,3.02-4.98,5.04-6.71,.53-.56,1.01-.88,1.44-.96l.43-.06c.43-.08,.85-.13,1.26-.13,.66-.01,1.1,.38,1.32,1.19,.11,.48,.26,.95,.45,1.42,.19,.47,.36,.98,.49,1.53,.21,1.24,.66,2.3,1.34,3.17,.51,.69,.91,1.49,1.22,2.4,.58,1.68,1.35,3.19,2.31,4.53,.37,.47,.71,.96,1.02,1.47,1.12,2,2.44,3.32,3.96,3.97,1.52,.65,2.76,.97,3.71,.95,.32,.14,.63,.21,.95,.2,.32,0,.91-.16,1.78-.47l.17-.11c1.01-.35,1.98-.96,2.89-1.82,1.87-1.72,3.03-3.77,3.47-6.12,.1-.59,.15-1.14,.16-1.66,.03-1.69-.44-3.09-1.41-4.21-.71-.87-1.33-1.52-1.87-1.95-.28-.22-.54-.47-.77-.76-1.08-1.19-2.29-2.12-3.64-2.79l-1.67-1.07c-.17-.11-.37-.18-.6-.21-.23-.03-.43-.1-.6-.21-1.78-.92-3.59-1.73-5.46-2.43-1.63-.67-3.7-2.57-6.19-5.72-1.05-1.27-1.97-2.74-2.77-4.44-.8-1.69-1.28-2.81-1.44-3.36-.77-2.52-1.13-5.23-1.08-8.13,.02-1.25,.11-2.52,.28-3.81v-.39s.2-1.27,.2-1.27c.35-1.81,1.04-3.64,2.08-5.49,1.37-2.82,2.43-4.65,3.16-5.51,.29-.3,.54-.63,.75-1.01,.89-1.49,1.92-2.79,3.09-3.91,1.2-1.27,2.07-2.06,2.59-2.36,.18-.15,.56-.51,1.14-1.1,.59-.58,1.21-1.06,1.88-1.44,.55-.3,1.09-.66,1.62-1.08,1.67-1.46,3.31-2.25,4.93-2.35,.2,0,.42-.04,.65-.12l.83-.24c.58-.19,1.16-.35,1.74-.47l2.52-.49s.04-.02,.04-.06c.98-.24,1.9-.37,2.73-.38,2.22-.04,4.22,.18,6.01,.66,.23,.03,.46,.1,.69,.21,.11,.07,.24,.11,.39,.1,1.09,.16,2.11,.57,3.05,1.21l.26,.22c.91,.53,1.79,1.1,2.61,1.71l.69,.43c1.23,.78,2.46,2.08,3.71,3.89,1.16,1.63,1.87,2.85,2.15,3.65,.88,2.48,1.33,4.16,1.35,5.04-.03,1.65,.05,3.25,.23,4.79,.02,.22,.04,.46,.03,.72,0,.22-.02,.46-.05,.72-.16,.77-.59,1.92-1.31,3.44-1.02,2.22-2.25,4.32-3.69,6.29-.44,.67-.99,1.14-1.62,1.41-.47,.23-.91,.47-1.33,.71-.42,.25-.81,.37-1.15,.38-.61,.01-1.12-.36-1.54-1.13-.73-1.09-1.34-2.32-1.8-3.71-.52-1.49-1.16-3.13-1.91-4.92-2.38-3.11-4.05-4.93-5.02-5.47-1.26-.75-2.43-1.61-3.51-2.58-.48-.43-1-.81-1.54-1.13l-.09-.05c-1.03-.68-2.19-1-3.49-.98-.66,.01-1.34,.17-2.04,.48-.93,.5-1.62,1.41-2.08,2.74-.06,.22-.12,.46-.18,.72-.06,.3-.1,.59-.1,.88,0,.44,.04,.86,.15,1.26,.34,1.94,.91,3.73,1.69,5.37,.84,1.53,1.85,2.79,3.01,3.8,.17,.11,.33,.23,.47,.38,.42,.54,.92,.97,1.49,1.29,.17,.07,.63,.43,1.37,1.08,.48,.47,1.06,.77,1.72,.9,.55,.1,.86,.35,.94,.75l.34,.43c.82,1.23,1.9,1.89,3.26,1.98,1.12,.13,2.07,.6,2.83,1.43,.68,.76,1.28,1.13,1.8,1.12h.35c.43-.01,.78,.16,1.03,.52,.62,.91,1.39,1.59,2.31,2.05,.71,.43,1.33,1,1.83,1.73l2.21,2.49h.04c.17,.22,.34,.45,.51,.71,.78,1.53,1.34,3.52,1.68,5.97,.32,1.32,.53,2.71,.63,4.17,.04,.77,.12,1.56,.22,2.36,.05,.26,.08,.53,.07,.83,0,.29-.04,.59-.1,.88l-.28,1.49-.34,2.04c-.28,1.58-.71,3.15-1.29,4.71l-.36,1.16c-.42,1.33-1.08,2.46-1.96,3.4-.82,.79-1.54,1.72-2.17,2.8-.39,.63-.84,1.14-1.37,1.51-.79,.6-1.49,1.37-2.11,2.3-.41,.6-.8,.99-1.15,1.18-.88,.68-1.7,1.48-2.46,2.42-.21,.3-.5,.49-.87,.57-1.16,.54-2.26,1.27-3.28,2.21-.94,.83-1.93,1.38-2.97,1.65-.43,.12-.88,.29-1.35,.52-1.25,.61-2.47,.97-3.65,1.06-2.05,.26-3.44,.49-4.17,.69-.17,.04-.36,.06-.56,.07Z"/><path d="M648.47,158.78c-.61,.01-1.18-.07-1.73-.24l-.82-.04-.82,.02c-.26,0-.52,0-.78-.04-.84,.02-2.28,.08-4.33,.19h-.13c-.61,.01-1.14-.2-1.59-.63-.28-.32-.63-.59-1.03-.81-1.09-.68-1.62-1.71-1.6-3.11,0-.33,.04-.68,.1-1.05l.05-.22c.06-.4,.19-.81,.36-1.22,.48-1.44,.9-2.88,1.24-4.32,.22-1,.78-3.08,1.7-6.26,.49-1.51,.89-3.01,1.2-4.48l.19-.88c.16-.92,.29-1.82,.39-2.71l.28-1.55c.3-.96,.56-1.94,.78-2.93l.94-4.98,.09-.39,.1-.72c.04-.88,.14-1.76,.3-2.65l.19-.99c.51-2.95,.86-5.01,1.05-6.19l.23-1.16c.53-2.58,1.04-4.72,1.53-6.42,.28-1.07,.52-2.16,.74-3.26l.47-2.21,1.3-5.7,.19-1.11c.41-2.25,.66-4.44,.75-6.57,.04-.4,.07-.76,.1-1.08,.03-.31,.05-.55,.06-.72,0-.17,.02-.32,.05-.47,.03-.29,.05-.57,.06-.83,.02-1.06-.26-1.7-.84-1.91-.32-.14-.65-.21-.99-.2-.75,.01-1.84,.53-3.27,1.55-1.02,.83-2.1,1.45-3.23,1.88-1.51,.54-2.99,1.31-4.45,2.29l-1.49,.91c-1.29,.94-2.61,1.43-3.96,1.45-1.15,.02-1.91-.33-2.28-1.06l-.08-.22c-.25-.47-.37-.98-.37-1.53v-.33s.29-1.55,.29-1.55l.37-1.55c.3-1.03,.57-2.08,.79-3.15l.14-.77c.25-1.33,.43-2.65,.54-3.98l.14-.72c.34-1.59,1.07-2.85,2.18-3.79,1.52-1.42,3.14-2.39,4.85-2.9,1.13-.24,2.24-.37,3.34-.39h.52c2.25-.05,4.52-.3,6.81-.75,.35-.08,.68-.12,1-.13,.43,0,.85,.04,1.25,.14,.4,.1,.82,.15,1.25,.14,1.87,.04,3.72,.2,5.53,.5l.78,.04c.61-.01,1.01-.05,1.21-.11s.41-.09,.61-.09c.63-.01,1.24,.07,1.81,.24l.22,.05h.74c.49-.02,.96-.01,1.41,.01,.45,.03,.89,.04,1.32,.03,.84-.02,1.69-.09,2.56-.21,.61-.08,1.23-.13,1.86-.15l5.11-.04c.43,0,.9-.05,1.39-.14,1.5-.25,3.01-.39,4.51-.42l1.56-.03c.98-.02,1.96-.15,2.95-.39,.29-.08,.56-.12,.82-.13,1.1-.02,1.92,.59,2.48,1.82l.29,.71,.04,.49c.1,.81,.15,1.63,.13,2.48-.01,.92-.1,1.86-.26,2.81l-.14,.5c-.09,.52-.2,1.01-.33,1.49-.33,.92-.59,1.87-.78,2.82-1.33,5.61-2.83,8.43-4.5,8.46-1.44,.03-2.59-.58-3.44-1.83-.85-1.25-1.87-2.19-3.07-2.83-.57-.32-1.12-.68-1.63-1.07-1-.86-2.14-1.28-3.44-1.26-.55,.01-1.08,.11-1.61,.31l-.17,.06c-.87,.31-1.5,1.06-1.9,2.24-.39,1.18-.72,2.4-.97,3.65l-.19,.94c-.25,1.44-.62,3.68-1.1,6.74l-.45,3.75c-.11,1.36-.25,2.72-.41,4.08-.13,.59-.22,1.14-.29,1.66-.07,.52-.44,3.04-1.11,7.57l-.38,2.27-.43,2.27-.93,4.04-.28,1.49-.48,2.98c0,.15-.04,.46-.1,.94l-.18,.55-.1,.66c-.22,1.14-.37,2.28-.44,3.42l-.29,1.88c-.13,.81-.23,1.62-.3,2.43,0,.18-.05,.57-.15,1.16l-.19,1-.23,1.11-.14,.72c-.13,.66-.21,1.25-.24,1.77-.04,.52-.1,1.01-.2,1.49l-.09,.5c-.16,1.18-.43,3.42-.8,6.73-.07,.77-.17,1.55-.3,2.32l-.14,.77c-.28,1.07-.71,2.07-1.3,3-.71,1.26-1.58,2.12-2.59,2.58-1.02,.46-1.83,.73-2.44,.82-.17,0-.32,.03-.43,.06-.87,.35-1.71,.53-2.52,.54Z"/><path d="M712.65,157.27c-.84,.02-1.52,.01-2.03-.02-.78-.09-1.58-.17-2.42-.23-1.99,.04-3.74-.53-5.25-1.72l-1.2-.86c-1.49-.93-2.87-2.02-4.15-3.28-.31-.32-.67-.57-1.07-.75-1.57-.89-2.95-2.09-4.14-3.61-.82-.87-1.51-1.92-2.07-3.15l-.72-1.2c-.51-.69-.93-1.47-1.26-2.34-.28-.73-.58-1.4-.92-2.02-.76-1.34-1.25-2.89-1.49-4.65-.13-.92-.33-1.77-.61-2.58-.3-.99-.53-2.03-.69-3.13-.37-2.34-.53-4.76-.49-7.26,.03-1.65,.14-3.32,.34-5.02v-.11c.04-.37,.23-1.53,.58-3.48l1.45-7.08c.44-2.5,1.22-4.94,2.32-7.31,1.24-3.4,2.86-6.57,4.87-9.51l1.11-1.84c.98-1.6,2.45-3.59,4.42-5.98,1.97-2.39,4.63-4.81,7.99-7.26,3.36-2.45,6.7-4.37,10.03-5.75,3.33-1.39,6.77-2.2,10.32-2.46h.22c.72-.09,1.43-.14,2.12-.15,3.72,.11,6.89,.81,9.51,2.1,2.62,1.29,5.25,3.14,7.9,5.55,2.65,2.41,4.88,6.11,6.71,11.11,1.83,5,2.71,9.11,2.66,12.34,.04,1.14,.12,2.26,.25,3.35,.08,.59,.11,1.23,.1,1.93,0,.18,0,.56-.02,1.13,0,.57-.19,1.95-.54,4.14-.35,2.19-.58,3.62-.67,4.28-.19,.81-.61,2.46-1.27,4.95-.66,2.49-1.39,4.59-2.2,6.29-.45,.89-.82,1.82-1.13,2.78-.09,.22-.36,.65-.8,1.28-1.77,2.68-2.93,4.46-3.46,5.35v.06c-.09,.19-.18,.33-.27,.45-.82,1.04-1.82,2.59-2.97,4.63-1.15,1.89-2.48,3.61-3.98,5.14l-.22,.22c-.23,.19-.41,.39-.53,.62-.53,.93-1.18,1.69-1.94,2.3-.64,.53-1.29,1.18-1.94,1.96-2.2,2.39-4.53,4.38-6.98,5.97-1.14,.83-2.04,1.39-2.71,1.68-.67,.29-1.65,.59-2.96,.91l-3.09,1.11c-.58,.16-.92,.27-1.02,.32-.1,.06-.2,.09-.28,.09h-.69c-.78,.03-1.57,.14-2.36,.33-.8,.2-1.58,.32-2.36,.38Zm2.54-15.58h.3c.2,0,.43-.03,.69-.07,.26-.04,.59-.07,1-.07,2.37-.05,4.95-1.84,7.75-5.38,1.15-1.45,2.29-3.26,3.42-5.41,.62-1.04,1.09-2.15,1.39-3.33,1.01-1.85,1.72-3.78,2.13-5.77l.09-.39c.03-.26,.12-.52,.27-.78,.63-1.7,1.14-3.42,1.51-5.15,.15-.63,.28-1.25,.38-1.88,.57-3.06,.87-6,.92-8.83,.06-2.24,.21-4.5,.45-6.78l.09-.44-.04-.16-.1-1.7c-.1-2.79-.57-5.83-1.42-9.12-.11-.62-.3-1.21-.58-1.75-.28-.55-.47-1.18-.58-1.92-.11-.36-.26-.64-.46-.82-.51-.39-.97-.84-1.36-1.35-.34-.4-.68-.74-1.02-1.03l-.21-.16c-.51-.61-1.3-.95-2.37-1h-.17c-.64,.02-1.3,.17-2,.48l-.13,.06c-2.3,1.11-4.31,2.75-6.05,4.91-3.26,3.7-5.79,7.55-7.58,11.55-1.47,3.44-2.63,6.64-3.48,9.6l-.23,.78c-.09,.52-.16,1.05-.2,1.6-.13,1.07-.29,2.12-.48,3.15-.13,.7-.27,1.4-.42,2.1l-.14,.39-.14,.88c-.28,1.51-.43,2.96-.46,4.36,0,.22-.04,.53-.1,.94-.1,.85-.16,1.69-.17,2.54-.03,1.76,.13,3.45,.48,5.06,.11,.44,.19,.88,.24,1.32,.17,2.02,.43,3.74,.78,5.16,.1,.7,.3,1.31,.6,1.83,.29,.53,.55,1.05,.78,1.55l.04,.05c1.59,3.24,3.79,4.9,6.59,5Z"/><path d="M811.44,154.55c-1.59,.03-2.77-.04-3.55-.21-.87,.02-1.86,.09-2.99,.22l-1.08,.08c-4.99,.1-7.95-1.13-8.86-3.69-.83-2.3-1.54-4.69-2.14-7.17-1.24-5.56-2.15-9.03-2.74-10.41-.44-1.06-.8-2.19-1.07-3.39-.49-1.79-1.06-3.5-1.69-5.14l-.13-.22c-1.22-3.06-2.48-4.58-3.78-4.55-.92,.02-1.52,.36-1.79,1.03-.33,.63-.63,1.66-.91,3.1l-.29,2.04c-.13,.7-.19,1.38-.21,2.04l-.02,1.1c0,.26-.02,.51-.06,.77l-.05,.28c-.25,1.22-.38,2.41-.4,3.59,0,.37,0,.72,.03,1.05l-.04,.06c.06,.07,.07,.71,.06,1.93-.01,.85-.04,1.93-.09,3.25,0,.07,.01,.13,.04,.16-.01,.81-.1,1.64-.25,2.48l-.19,.94c-.16,.99-.31,1.97-.44,2.93-.04,.74-.12,1.49-.25,2.26-.13,.63-.35,1.22-.68,1.78-.59,1.04-1.34,1.68-2.24,1.92-1.13,.35-1.96,.53-2.48,.54h-.56s-.61,.08-.61,.08c-1.19,.35-2.37,.6-3.56,.73-.66,.09-1.3,.21-1.91,.37-.38,.12-2.72,.25-7.02,.41-1.96,.04-3.41-1.31-4.35-4.05-.17-.44-.25-.89-.24-1.37,0-.29,.04-.57,.1-.83,.06-.4,.19-.81,.36-1.22,.3-.81,.56-1.64,.78-2.49,.09-.48,.51-1.83,1.23-4.04,.66-1.89,1.08-3.27,1.23-4.15,.09-.55,.16-1.09,.2-1.6l.19-.88c.73-2.55,1.34-5.11,1.81-7.69l.38-2.1c.13-.77,.33-1.55,.6-2.32,.15-.41,1-4.15,2.56-11.23l.19-.88c.19-1.18,.35-2.36,.49-3.53,.27-2.43,.56-4.51,.88-6.24,.39-2.65,.68-5.3,.86-7.95,0-.66,.08-1.34,.21-2.04,.45-3.02,.7-5.96,.74-8.83l.03-2.09c0-.33,.02-.74,.04-1.24,.02-.5,.04-1.11,.05-1.85l-.03-1.1c0-1.36-.19-3.39-.55-6.1,0-.33,.02-.62,.06-.88,.19-.92,.69-1.61,1.5-2.07,2.44-1.22,4.65-1.85,6.61-1.89h2.68c1.36-.02,2.71-.08,4.07-.18l1.21-.08c.78-.01,1.56,.03,2.34,.12,.55,.06,1.11,.09,1.69,.08l2.38-.16c.52,0,1,.05,1.43,.17,.43,.12,.85,.18,1.25,.17,.35,0,.68-.05,1-.13,.32-.08,.61-.12,.87-.13,.4,0,.81,.06,1.23,.2,.42,.14,.87,.2,1.36,.19l1.82-.2c.46,0,.89,.04,1.3,.14s.81,.15,1.21,.14l.61-.07c.55-.12,1.09-.19,1.61-.2,.61-.01,1.2,.05,1.77,.19l.61,.04,.65-.07c1.76,0,3.55,.1,5.36,.28,1.56,.08,2.99,.51,4.31,1.29,.11,.07,.57,.28,1.38,.63,1.63,.89,3.08,2.07,4.36,3.55,.34,.32,.6,.79,.78,1.39,.18,.6,.44,1.18,.77,1.72,1.13,1.7,1.69,3.79,1.68,6.25-.01,.81,.03,1.65,.13,2.53,.05,.48,.07,.97,.06,1.49-.01,.92-.12,1.86-.3,2.81l-.28,1.49c0,.55-.06,1.1-.16,1.65-.19,.92-.48,1.85-.87,2.77-.09,.19-.15,.37-.18,.55-.93,3.87-3.23,8.1-6.91,12.69-.85,.97-1.95,1.98-3.3,3.04-.5,.41-1,.88-1.49,1.41l-.48,.45c-.44,.41-.84,.92-1.19,1.51-.3,.45-.71,.84-1.23,1.18-.52,.23-1.01,.74-1.45,1.51-.62,1.08-1,1.97-1.12,2.66l-.28,.94v.39c-.01,.48,.03,1.19,.13,2.15l.08,.49c.1,.92,.5,1.95,1.21,3.12l1.18,1.91c.65,.91,1.2,1.89,1.64,2.94,.91,2.48,1.97,4.81,3.18,6.99l.29,.66c0,.18,.4,1.09,1.21,2.73,.39,.73,1.33,1.94,2.8,3.64,.37,.29,.62,.71,.74,1.28,.12,.57,.32,1.09,.6,1.56,.45,.73,.67,1.42,.66,2.08,0,.18-.02,.35-.05,.5-.03,.26-.11,.52-.23,.78-.78,2.03-1.99,3.51-3.62,4.42-.79,.42-2.28,.65-4.47,.69Zm-19.15-51.18l.69-.07,.13-.06c1.04-.28,2.06-.72,3.05-1.33,.52-.34,1.06-.63,1.61-.86,.99-.5,1.91-1.19,2.76-2.09,.24-.34,.51-.62,.84-.84,1.08-.9,1.79-2.07,2.13-3.51,.15-.55,.28-1.09,.37-1.6,.13-.74,.2-1.45,.21-2.15,.03-1.91-.39-3.74-1.26-5.48-.31-.51-.56-1.07-.75-1.69-.08-.29-.31-.56-.68-.81-1.13-1.19-3.17-2.07-6.1-2.64-.52-.1-1.04-.15-1.56-.14-1.73,.03-3.47,.58-5.22,1.64-.99,.53-1.64,1.46-1.95,2.79l-.33,1.66c-.09,.22-.15,.46-.18,.72h.04c-.09,.52-.22,1.01-.37,1.49l-.14,.66c-.09,.55-.15,1.1-.16,1.66v.39c-.03,1.47-.22,3.2-.56,5.19-.13,.7-.19,1.38-.21,2.04,0,.59,.02,1.16,.1,1.7,.02,.7,.26,1.18,.73,1.45,.47,.27,1.2,.61,2.19,1.03s1.86,.63,2.61,.61h.61c.49-.02,.95,.06,1.38,.24Z"/><path d="M839.88,154.66c-1.24,.02-2.48-.03-3.72-.15-.69-.13-1.41-.19-2.16-.18l-.91,.07c-.84,.02-1.69-.06-2.55-.23-.29-.07-.58-.1-.86-.09h-.48c-.78,.02-1.59-.44-2.44-1.38-.14-.18-.24-.4-.29-.66-.22-.69-.32-1.43-.31-2.2,0-.4,.04-.83,.11-1.27l.1-.55c.25-.92,.46-1.94,.65-3.04l.33-1.77c.21-.78,.43-1.64,.65-2.6l.1-.66c.16-.85,.37-1.71,.65-2.6l.32-1.22,.2-1.38c.09-.48,.22-.97,.39-1.47,.17-.5,.44-1.74,.82-3.73,.09-.48,.22-.92,.37-1.33,.27-.74,.47-1.46,.6-2.16l.14-.88c.06-.33,.14-.64,.23-.94,.52-1.74,.93-3.45,1.25-5.15l1.65-8.9c.16-.88,.26-1.6,.29-2.15,.1-1.1,.25-2.21,.44-3.31l.52-2.71c.28-1.55,.48-2.87,.58-3.98,.1-1.18,.27-2.34,.49-3.48l.1-.66c.25-1.29,.57-2.56,.97-3.82l.28-1.33c0-.07,.04-.53,.11-1.38,.07-.7,.17-1.4,.29-2.1l.19-.89c.22-1.18,.4-2.4,.53-3.67,.13-1.27,.32-2.6,.54-4,.13-.7,.22-1.4,.27-2.1,.05-.7,.13-1.4,.23-2.1,.13-.63,.19-1.23,.2-1.82,0-.4-.02-.79-.07-1.15-.02-.29-.03-.6-.03-.94,.01-.77,.1-1.56,.25-2.37l.05-.39c.19-1,.63-1.72,1.33-2.17,1.84-1.06,3-1.6,3.49-1.61,2.39,.03,4.36,.19,5.88,.49l.6,.04c.38,0,.78-.09,1.22-.24,.26-.12,.51-.17,.74-.18l.34,.05c.92,.17,1.87,.24,2.85,.22l2.21-.04c.84-.02,1.61,.17,2.33,.56l.73,.37c.83,.31,1.24,1,1.22,2.07,0,.26-.04,.55-.1,.88l-.04,.11c-.03,.22-.16,.7-.37,1.44-.09,.22-.2,.46-.31,.72-.09,.41-.2,.79-.32,1.16-.79,2.22-1.41,4.45-1.88,6.7-.37,1.37-.61,2.18-.73,2.44-.25,.89-.41,1.55-.51,1.99l-.1,.55c-.31,1.47-.71,2.95-1.19,4.43-.24,.59-.41,1.2-.5,1.83l-.57,3.1c-.34,1.25-.65,2.51-.93,3.76-.22,1.25-.41,2.52-.58,3.81-1.28,7.74-1.98,12.01-2.11,12.82l-.47,2.49c-.1,1.1-.23,2.22-.38,3.34-.15,1.12-.27,2.22-.38,3.28-.21,2.46-.5,4.93-.85,7.4l-.09,.5c-.4,3.64-.62,6.2-.64,7.67v.77c-.12,1.62-.23,2.7-.32,3.26l-.05,.33c-.19,.92-.29,1.82-.3,2.7,0,.51,.01,1.01,.06,1.49l.03,.66c-.01,.66-.09,1.32-.25,1.99l-.05,.33c-.28,1.62-.87,2.81-1.74,3.56-1.05,.94-2.14,1.8-3.25,2.6-1.02,.68-2.11,1.03-3.26,1.05-.61,.05-1.21,.08-1.82,.09Z"/><path d="M883.31,153.28c-.29,0-.56-.04-.82-.15-.57-.21-1.16-.31-1.77-.3-.4,0-.85,.07-1.34,.19-.49,.12-1,.18-1.52,.19-.52,0-1.02-.04-1.51-.14l-.65-.04c-1.56,.14-3.09,.22-4.59,.25l-1.13,.02-3.34,.12c-1.15,.02-2.29-.01-3.42-.1l-1-.04-.17-.05-.95-.04c-.52,0-1.04,.08-1.56,.2l-.43,.06c-.75,.01-1.29-.58-1.62-1.79-.22-.58-.47-1.13-.75-1.64-.17-.29-.25-.62-.24-.99,0-.11,.02-.24,.05-.39l.18-.5c.42-1.22,.8-2.42,1.14-3.6,.49-1.66,1-3.31,1.55-4.93,1.69-4.92,2.83-8.3,3.41-10.14,.88-2.92,1.78-6.55,2.68-10.9l.67-3.81,.98-4.76c.1-.59,.15-1.16,.18-1.71,.02-.55,.1-1.1,.22-1.66l.14-.61c0-.62,.06-1.23,.16-1.82l.79-3.6c.22-1.33,.34-2.65,.37-3.97l.02-1.05c.04-2.5,.25-5.05,.64-7.67-.02-.29-.03-.59-.03-.88,.01-.7,.08-1.41,.21-2.15,.13-.81,.2-1.58,.21-2.32,0-.44,0-.88-.02-1.32,.1-.77,.15-1.51,.16-2.21,.01-.73-.02-1.43-.1-2.09-.11-.62-.15-1.43-.14-2.42,.01-.84,.07-1.84,.18-2.98l.14-.72c.07-.81,.14-1.6,.21-2.37l.1-.88c.44-2.1,1.38-3.44,2.83-4.02,1.1-.39,2.17-.59,3.21-.61h.3c1.07,.08,2.16,.12,3.29,.1,.61-.01,1.21-.08,1.82-.2,.29-.08,.58-.12,.87-.13l1.43,.08c.43,0,.87-.07,1.3-.19l.39-.06,1.17,.09c1.5,.23,3.02,.33,4.58,.3,1.56-.03,3.15-.19,4.77-.48,.72-.12,1.5-.19,2.34-.21,1.85-.15,3.7-.25,5.55-.33,.4,0,.81-.03,1.21-.08,.4-.04,.81-.07,1.21-.08l1.56,.03,1.65-.25c.11,0,.27-.02,.46-.06,.19-.04,.38-.06,.59-.07l.56,.04c.4,.07,.81,.09,1.21,.09,.4,0,.82-.05,1.26-.13,.58-.12,1.14-.19,1.69-.2,.55-.01,1.07,.03,1.56,.14s.96,.15,1.43,.14l1.04-.08c1.53-.03,2.56,.41,3.1,1.32,1.38,2.25,2.09,4.99,2.12,8.22,.05,.51,.07,1.04,.06,1.6,.07,1.03,.27,2.23,.59,3.62,.14,.59,.2,1.19,.19,1.81,0,.4-.04,.83-.11,1.27l-.05,.22c-.16,.81-.44,1.62-.86,2.44l-.45,1.11c-.8,1.37-1.78,2.07-2.93,2.09h-.17c-1.67-.22-2.95-1.33-3.84-3.34-.39-.76-.93-1.36-1.62-1.79-.03-.04-.07-.05-.13-.05-.17-.07-.31-.18-.43-.32-.97-1.01-2.07-1.76-3.3-2.25-.2-.07-.4-.16-.6-.26-1.75-.85-2.81-1.36-3.18-1.54-.37-.18-.76-.26-1.16-.25-.26,0-.51,.04-.74,.1-.23,.06-.42,.09-.56,.09-.17,0-.33-.01-.47-.05-.14-.03-.27-.06-.37-.08-.1-.02-.24-.05-.41-.1-.17-.05-.33-.08-.47-.07h-.17c-.35,.08-.7,.13-1.04,.13-.46,0-.91-.06-1.34-.19l-.61-.04c-.4,0-.8,.09-1.17,.24-.38,.15-.72,.23-1.04,.24l-.61-.04c-.32-.07-.65-.1-.99-.09-.9,.02-1.71,.21-2.43,.57-.73,.36-1.47,.74-2.23,1.12-1.34,.72-2.31,1.88-2.91,3.47-.51,1.26-.89,2.55-1.14,3.88-.09,.37-.25,1.42-.48,3.15l-.1,.66h-.04c-.13,.74-.25,1.31-.37,1.72-.12,.41-.21,.81-.28,1.22l-.14,.66c-.25,1.44-.39,2.85-.41,4.25,0,.59,0,1.18,.02,1.76,0,1.4,.38,2.3,1.13,2.7,.74,.41,1.52,.66,2.33,.75l1.21,.25h.17c.23,0,.7-.19,1.42-.55,.71-.36,1.42-.61,2.11-.73,.2-.08,.41-.21,.61-.4,.7-.53,1.44-.93,2.23-1.2l1.09-.52c.43-.15,.86-.36,1.26-.63,1.31-.69,2.37-1.04,3.18-1.05,1.01-.02,1.97,.68,2.87,2.09,.37,.58,.54,1.27,.53,2.08,0,.33-.04,.68-.1,1.05l-.05,.17-.29,1.99-.37,1.77c-.18,.7-.34,1.38-.46,2.05l-.19,.77c-.13,.77-.23,1.55-.3,2.32-.13,.77-.25,1.53-.38,2.27-.28,1.33-.68,2.77-1.19,4.32-.4,1.33-1.13,2.31-2.19,2.93-1.06,.63-1.9,.94-2.5,.96-.58,.01-1.12-.16-1.64-.52l-1.55-.8c-.63-.39-1.3-.71-2.02-.95-.63-.13-1.21-.44-1.74-.9-.53-.47-1.18-.69-1.96-.68l-.91,.02c-.2-.03-.42-.05-.65-.04-.87,.02-1.72,.31-2.57,.88-.29,.19-.56,.45-.79,.79-1.21,1.53-2.19,3.24-2.94,5.12-1.12,3.11-1.8,5.23-2.05,6.37l-.05,.22c-.19,1.07-.3,2.34-.32,3.81-.02,1.03,0,2.17,.08,3.41,0,.63,.1,1.17,.32,1.65h.04c.22,.55,.59,.85,1.11,.91,.66,.02,1.3,.18,1.9,.46,.32,.14,.65,.21,.99,.2,.26,0,.51-.05,.74-.12,.96-.16,1.92-.31,2.91-.44,1.13-.13,1.91-.26,2.34-.38,3.16-1.12,5.62-2.11,7.36-2.95,1.74-.84,3.38-1.94,4.9-3.29l.17-.11c2.6-2.11,5.08-4.47,7.43-7.08,.79-.86,1.63-1.7,2.51-2.53l.53-.51c.56-.49,1.14-.74,1.74-.75,.4,0,.75,.11,1.03,.37,.97,.79,1.44,2.05,1.41,3.77,0,.62-.08,1.31-.21,2.04l-.09,.33c-.19,.99-.48,1.97-.87,2.94-.03,.15-.11,.33-.23,.55-.3,.74-.63,1.46-.99,2.17-.53,.89-.97,1.84-1.3,2.83-.21,.63-.47,1.24-.76,1.83-.6,1.15-1.12,2.33-1.57,3.55-.27,.67-.63,1.28-1.07,1.84l-.88,1.06c-.76,.9-1.54,1.82-2.32,2.77-.78,.95-1.62,1.55-2.52,1.78-.67,.27-1.31,.5-1.92,.7l-.09,.06c-.44,.16-.87,.26-1.3,.3h-.39c-.69,.02-1.78,.19-3.25,.51-.49,.12-1,.18-1.52,.19l-.74-.04c-.06-.07-.23-.11-.52-.1l-.35,.06c-.78,.16-1.56,.25-2.34,.26l-1.56-.02c-.58,.01-1.16,.08-1.73,.2h-.35c-.58,.02-1.04-.02-1.38-.1-.34-.08-.69-.12-1.04-.12-.49,0-.98,.09-1.48,.25-.32,.12-.64,.18-.96,.18Z"/><path d="M949.09,152.07c-.23,0-.46-.03-.69-.1-.86-.24-1.74-.35-2.63-.33l-1.17,.08c-.43,0-.84-.07-1.23-.22-.39-.16-.81-.29-1.27-.39-2.39-.54-4.61-1.51-6.67-2.9-.94-.53-1.49-.81-1.63-.85-.32-.14-.59-.3-.81-.48-.71-.65-1.51-1.15-2.4-1.5-.14,0-.33-.09-.56-.26-1.99-1.72-3.33-3-4.01-3.83-.59-.8-1.13-1.65-1.61-2.56l-.63-1.09-.17-.49c-.58-1.86-.85-3.84-.81-5.93,.01-.77,.07-1.54,.17-2.32,.13-.85,.71-2.36,1.76-4.55,1.34-2.74,3.02-4.98,5.04-6.71,.53-.56,1.01-.88,1.44-.96l.43-.06c.43-.08,.85-.13,1.26-.13,.66-.01,1.1,.38,1.32,1.19,.11,.48,.26,.95,.45,1.42,.19,.47,.36,.98,.49,1.53,.21,1.24,.66,2.3,1.34,3.17,.51,.69,.91,1.49,1.22,2.4,.58,1.68,1.35,3.19,2.31,4.53,.37,.47,.71,.96,1.02,1.47,1.12,2,2.44,3.32,3.96,3.97,1.52,.65,2.76,.97,3.71,.95,.32,.14,.63,.21,.95,.2,.32,0,.91-.16,1.78-.47l.17-.11c1.01-.35,1.98-.96,2.89-1.82,1.87-1.72,3.03-3.77,3.47-6.12,.1-.59,.15-1.14,.16-1.66,.03-1.69-.44-3.09-1.41-4.21-.71-.87-1.33-1.52-1.87-1.95-.28-.21-.54-.47-.77-.76-1.08-1.19-2.29-2.12-3.64-2.79l-1.67-1.07c-.17-.11-.37-.18-.6-.21-.23-.03-.43-.1-.6-.21-1.78-.92-3.6-1.73-5.46-2.43-1.63-.67-3.7-2.57-6.19-5.72-1.05-1.27-1.97-2.74-2.77-4.44-.8-1.69-1.28-2.81-1.44-3.36-.77-2.52-1.13-5.23-1.08-8.13,.02-1.25,.11-2.52,.28-3.81v-.39s.2-1.27,.2-1.27c.35-1.81,1.04-3.64,2.08-5.49,1.37-2.82,2.43-4.65,3.16-5.51,.29-.3,.54-.63,.75-1.01,.89-1.49,1.92-2.79,3.09-3.91,1.2-1.27,2.07-2.06,2.59-2.36,.18-.15,.56-.51,1.14-1.1,.59-.58,1.21-1.06,1.88-1.44,.55-.3,1.09-.66,1.62-1.08,1.67-1.46,3.31-2.25,4.93-2.35,.2,0,.42-.04,.65-.12l.83-.24c.58-.19,1.16-.35,1.74-.47l2.52-.49s.04-.02,.04-.06c.98-.24,1.9-.37,2.73-.38,2.22-.04,4.22,.18,6.01,.66,.23,.03,.46,.1,.69,.21,.11,.07,.24,.11,.39,.1,1.09,.16,2.11,.57,3.05,1.21l.26,.22c.91,.53,1.79,1.1,2.61,1.71l.69,.43c1.23,.78,2.46,2.08,3.71,3.89,1.16,1.63,1.87,2.85,2.15,3.65,.88,2.48,1.33,4.16,1.35,5.04-.03,1.65,.05,3.25,.23,4.79,.02,.22,.04,.46,.03,.72,0,.22-.02,.46-.05,.72-.16,.77-.59,1.92-1.31,3.44-1.02,2.22-2.25,4.32-3.69,6.29-.44,.67-.98,1.14-1.62,1.41-.47,.23-.91,.47-1.33,.71-.42,.25-.81,.37-1.15,.38-.61,.01-1.12-.36-1.54-1.13-.73-1.09-1.34-2.32-1.8-3.71-.52-1.49-1.16-3.13-1.91-4.92-2.38-3.11-4.05-4.93-5.02-5.47-1.26-.75-2.43-1.61-3.51-2.58-.48-.43-1-.81-1.54-1.13l-.09-.05c-1.03-.68-2.19-1-3.49-.98-.66,.01-1.34,.17-2.04,.48-.93,.5-1.62,1.41-2.08,2.74-.06,.22-.12,.46-.18,.72-.06,.3-.1,.59-.1,.88,0,.44,.04,.86,.15,1.26,.34,1.94,.91,3.73,1.69,5.37,.84,1.53,1.85,2.79,3.01,3.8,.17,.11,.33,.23,.47,.38,.42,.54,.92,.97,1.49,1.29,.17,.07,.63,.43,1.37,1.08,.48,.47,1.06,.77,1.72,.9,.55,.1,.86,.35,.94,.75l.34,.43c.82,1.23,1.9,1.89,3.26,1.98,1.12,.13,2.07,.6,2.83,1.43,.68,.76,1.28,1.13,1.8,1.12h.35c.43-.02,.78,.16,1.03,.52,.62,.91,1.39,1.59,2.31,2.05,.71,.43,1.33,1,1.83,1.73l2.21,2.49h.04c.17,.22,.34,.45,.51,.71,.78,1.53,1.34,3.52,1.68,5.97,.32,1.32,.53,2.71,.63,4.17,.04,.77,.12,1.56,.22,2.36,.05,.26,.08,.53,.07,.83,0,.29-.04,.59-.1,.88l-.28,1.49-.34,2.04c-.28,1.58-.71,3.15-1.29,4.71l-.36,1.16c-.42,1.33-1.08,2.46-1.96,3.4-.82,.79-1.54,1.72-2.17,2.8-.39,.63-.84,1.14-1.37,1.51-.79,.6-1.49,1.37-2.11,2.3-.41,.6-.8,.99-1.15,1.18-.88,.68-1.7,1.48-2.46,2.42-.21,.3-.5,.49-.87,.57-1.16,.54-2.26,1.27-3.28,2.21-.94,.83-1.93,1.38-2.97,1.65-.43,.12-.88,.29-1.35,.52-1.25,.61-2.47,.96-3.65,1.06-2.05,.26-3.44,.49-4.17,.69-.17,.04-.36,.06-.56,.07Z"/></g></g><path d="M959.53,220.52c-.23,1.42-1.64,2.59-3.43,2.59-1.6,0-2.74-1.17-2.51-2.59,.23-1.42,1.75-2.67,3.35-2.67,1.79,0,2.82,1.25,2.59,2.67Zm-1.06-8.18c-.37-.67-.27-1.25,.08-1.67,1.05-1.25,.9-2.67,1.76-3.92,.83-1.09,.84-2.34,1.47-3.34,.95-1.25,1.08-2.67,2.11-3.76,.41-1.42,1.03-2.92,1.82-4.34,.16-1.59,1.37-2.67,1.9-4.26,.5-1.34,.98-2.59,1.84-3.84,.95-1.25,.79-2.59,1.74-3.84,.95-1.25,.88-2.59,1.74-3.84,.87-1.34,1.3-2.84,2.17-4.17l.85-1.17c.89-.83,1.87-1.09,2.84-.67,.8,.33,1.47,1.42,1.07,2.17l-1.15,2.5c-.43,.92-.36,1.67-1.17,2.59-.86,1.25-.51,2.59-1.84,3.84-.23,1.42-1.56,2.67-1.81,4.26-.31,1.34-1.53,2.5-1.74,3.84-.2,1.25-1.27,2.09-1.57,3.34-.29,1.25-1.48,2.17-1.58,3.42-1.32,1.75-1.53,3.67-2.68,5.59-.39,.67-.49,1.34-.9,2.09-.72,1.59-1.42,3-2.33,4.59-.4,.75-1.06,1.34-1.87,1.67-1.83,.25-2.26,0-2.75-1.09Z"/></svg>