<?xml version="1.0" encoding="UTF-8"?>
<svg id="Isolation_Mode" xmlns="http://www.w3.org/2000/svg" xmlns:xlink="http://www.w3.org/1999/xlink" version="1.1" viewBox="0 0 875.4 1204.9">
  <!-- Generator: Adobe Illustrator 30.5.1, SVG Export Plug-In . SVG Version: 2.1.4 Build 3)  -->
  <defs>
    <style>
      .st0 {
        fill: url(#linear-gradient2);
      }

      .st1 {
        fill: url(#linear-gradient1);
      }

      .st2 {
        fill: url(#linear-gradient3);
      }

      .st3 {
        fill: url(#linear-gradient6);
      }

      .st4 {
        fill: url(#linear-gradient5);
      }

      .st5 {
        fill: url(#linear-gradient4);
      }

      .st6 {
        fill: #414042;
      }

      .st7 {
        fill: url(#linear-gradient);
      }

      .st8, .st9, .st10 {
        isolation: isolate;
      }

      .st11 {
        fill: #2d2c2c;
      }

      .st12 {
        fill: #fbb040;
      }

      .st13 {
        fill: #afdfe5;
      }

      .st9 {
        fill: url(#linear-gradient7);
      }

      .st9, .st10 {
        opacity: .5;
      }

      .st10 {
        fill: url(#linear-gradient8);
      }

      .st14 {
        fill: #2e388f;
      }
    </style>
    <linearGradient id="linear-gradient" x1="15" y1="901.9" x2="830.7" y2="901.9" gradientTransform="translate(0 1225.6) scale(1 -1)" gradientUnits="userSpaceOnUse">
      <stop offset="0" stop-color="#29aae1"/>
      <stop offset="1" stop-color="#2b3c90"/>
    </linearGradient>
    <linearGradient id="linear-gradient1" x1="1240.2" y1="17230.4" x2="1254.6" y2="17230.4" gradientTransform="translate(8709.3426 -14598.6261) rotate(34.2125)" gradientUnits="userSpaceOnUse">
      <stop offset="0" stop-color="#9e68ac" stop-opacity=".3"/>
      <stop offset="0" stop-color="#a16aad" stop-opacity=".4"/>
      <stop offset="0" stop-color="#a871b0" stop-opacity=".6"/>
      <stop offset=".2" stop-color="#ad76b3" stop-opacity=".7"/>
      <stop offset=".2" stop-color="#b27ab5" stop-opacity=".8"/>
      <stop offset=".3" stop-color="#b57db6" stop-opacity=".9"/>
      <stop offset=".4" stop-color="#b77fb7"/>
      <stop offset=".5" stop-color="#b880b8"/>
      <stop offset="1" stop-color="#58294c" stop-opacity="0"/>
    </linearGradient>
    <linearGradient id="linear-gradient2" x1="15.1" y1="746.5" x2="874.5" y2="746.5" gradientTransform="translate(0 1225.6) scale(1 -1)" gradientUnits="userSpaceOnUse">
      <stop offset="0" stop-color="#2075bc"/>
      <stop offset="1" stop-color="#42c4d9"/>
    </linearGradient>
    <linearGradient id="linear-gradient3" x1="68.6" y1="473.8" x2="705.7" y2="473.8" gradientTransform="translate(0 1225.6) scale(1 -1)" gradientUnits="userSpaceOnUse">
      <stop offset="0" stop-color="#3abfe7"/>
      <stop offset=".5" stop-color="#54a2d9"/>
      <stop offset="1" stop-color="#224e73"/>
    </linearGradient>
    <linearGradient id="linear-gradient4" x1="1510.2" y1="16789.5" x2="1512.3" y2="16789.5" gradientTransform="translate(8709.3426 -14598.6261) rotate(34.2125)" gradientUnits="userSpaceOnUse">
      <stop offset="0" stop-color="#fff"/>
      <stop offset="0" stop-color="#fff"/>
      <stop offset=".3" stop-color="#fff" stop-opacity=".6"/>
      <stop offset=".6" stop-color="#fff" stop-opacity=".4"/>
      <stop offset=".8" stop-color="#fff" stop-opacity=".2"/>
      <stop offset=".9" stop-color="#fff" stop-opacity="0"/>
      <stop offset="1" stop-color="#fff" stop-opacity="0"/>
    </linearGradient>
    <linearGradient id="linear-gradient5" x1="1586.2" y1="16744.3" x2="1588.8" y2="16744.3" gradientTransform="translate(8709.3426 -14598.6261) rotate(34.2125)" gradientUnits="userSpaceOnUse">
      <stop offset="0" stop-color="#fff"/>
      <stop offset="0" stop-color="#fff"/>
      <stop offset=".3" stop-color="#fff" stop-opacity=".6"/>
      <stop offset=".6" stop-color="#fff" stop-opacity=".4"/>
      <stop offset=".8" stop-color="#fff" stop-opacity=".2"/>
      <stop offset=".9" stop-color="#fff" stop-opacity="0"/>
      <stop offset="1" stop-color="#fff" stop-opacity="0"/>
    </linearGradient>
    <linearGradient id="linear-gradient6" x1="533.7" y1="18" x2="1139.1" y2="18" gradientTransform="translate(-176.3 -307.2) rotate(33.6) scale(1 -1)" gradientUnits="userSpaceOnUse">
      <stop offset="0" stop-color="#fff200"/>
      <stop offset="1" stop-color="#fbb040"/>
    </linearGradient>
    <linearGradient id="linear-gradient7" x1="505.3" y1="19423.1" x2="1318.6" y2="19423.1" gradientTransform="translate(10638.5897 -16107.7145) rotate(34.3887)" gradientUnits="userSpaceOnUse">
      <stop offset="0" stop-color="#29aae1" stop-opacity="0"/>
      <stop offset="0" stop-color="#4ab7e5" stop-opacity=".2"/>
      <stop offset=".2" stop-color="#79caec" stop-opacity=".4"/>
      <stop offset=".4" stop-color="#a2daf2" stop-opacity=".6"/>
      <stop offset=".5" stop-color="#c3e7f6" stop-opacity=".7"/>
      <stop offset=".6" stop-color="#ddf1fa" stop-opacity=".8"/>
      <stop offset=".8" stop-color="#f0f9fc" stop-opacity=".9"/>
      <stop offset=".9" stop-color="#fbfdfe"/>
      <stop offset="1" stop-color="#fff"/>
    </linearGradient>
    <linearGradient id="linear-gradient8" x1="718.7" y1="-589.1" x2="1165.5" y2="-589.1" gradientTransform="translate(-174.7 -248.9) rotate(32.7) scale(1 -1)" gradientUnits="userSpaceOnUse">
      <stop offset="0" stop-color="#29aae1" stop-opacity="0"/>
      <stop offset="0" stop-color="#4ab7e5" stop-opacity=".2"/>
      <stop offset=".2" stop-color="#79caec" stop-opacity=".4"/>
      <stop offset=".4" stop-color="#a2daf2" stop-opacity=".6"/>
      <stop offset=".5" stop-color="#c3e7f6" stop-opacity=".7"/>
      <stop offset=".6" stop-color="#ddf1fa" stop-opacity=".8"/>
      <stop offset=".8" stop-color="#f0f9fc" stop-opacity=".9"/>
      <stop offset=".9" stop-color="#fbfdfe"/>
      <stop offset="1" stop-color="#fff"/>
    </linearGradient>
  </defs>
  <g>
    <g class="st8">
      <g class="st8">
        <path class="st6" d="M23.1,1152.7H1.9c0-.3-.1-.7-.2-1.1,0-.4,0-.9,0-1.3s0-.8,0-1.2c0-.5,0-.9.2-1.2h50c0,.3.1.7.2,1.1,0,.4,0,.8,0,1.2s0,.8,0,1.3c0,.5,0,.9-.2,1.2h-21.2v51.3c-.5,0-1.1,0-1.8.1-.7,0-1.3,0-2,0s-1.4,0-2.1,0c-.7,0-1.3,0-1.7-.1v-51.3Z"/>
        <path class="st6" d="M100.5,1204.9c-5.5,0-10.3-.7-14.4-2.1-4.1-1.4-7.5-3.4-10.2-6-2.7-2.6-4.7-5.6-6-9.2-1.4-3.6-2-7.5-2-11.7s.7-8.1,2-11.6c1.4-3.5,3.4-6.6,6-9.2,2.7-2.6,6.1-4.6,10.2-6,4.1-1.4,8.9-2.1,14.4-2.1s10.3.7,14.4,2.1c4.1,1.4,7.5,3.4,10.2,6,2.7,2.6,4.7,5.6,6,9.2,1.4,3.5,2,7.4,2,11.6s-.7,8.1-2,11.7c-1.4,3.6-3.4,6.6-6,9.2-2.7,2.6-6.1,4.6-10.2,6-4.1,1.4-8.9,2.1-14.4,2.1ZM100.5,1200c4.2,0,7.9-.6,11-1.8,3.1-1.2,5.6-2.8,7.7-5,2-2.1,3.6-4.7,4.6-7.7s1.5-6.2,1.5-9.8-.5-6.8-1.5-9.8-2.5-5.5-4.6-7.6c-2.1-2.1-4.6-3.7-7.7-4.9-3.1-1.2-6.7-1.8-11-1.8s-7.9.6-11,1.8c-3.1,1.2-5.7,2.8-7.7,4.9-2,2.1-3.5,4.6-4.5,7.6-1,3-1.5,6.2-1.5,9.8s.5,6.8,1.5,9.8c1,3,2.5,5.5,4.5,7.7,2,2.1,4.6,3.8,7.7,5,3.1,1.2,6.8,1.8,11,1.8Z"/>
        <path class="st6" d="M161.4,1147.8c.5,0,1.1,0,1.9-.1.7,0,1.4,0,2,0s1.3,0,2,0c.7,0,1.2,0,1.8.1v33.9c0,3.3.4,6.1,1.2,8.3.8,2.3,1.9,4.1,3.5,5.6,1.6,1.5,3.6,2.5,6,3.2,2.4.7,5.3,1,8.7,1,6.7,0,11.6-1.4,14.7-4.1,3.1-2.8,4.7-7.4,4.7-13.9v-33.9c.5,0,1.1,0,1.8-.1.7,0,1.3,0,2,0s1.2,0,2,0c.7,0,1.4,0,1.9.1v34.6c0,7.5-2.2,13.1-6.5,16.9-4.3,3.7-11.1,5.6-20.4,5.6s-16.1-1.9-20.4-5.6c-4.3-3.7-6.5-9.4-6.5-16.9v-34.6Z"/>
        <path class="st6" d="M247.5,1147.6c1.6-.1,3-.2,4.2-.3s2.4-.2,3.5-.2c1.1,0,2.3-.1,3.6-.2,1.2,0,2.7,0,4.4,0,3.5,0,7,.3,10.4.8,3.4.5,6.5,1.4,9.2,2.7,2.7,1.3,4.9,3,6.5,5.2,1.6,2.2,2.5,4.9,2.5,8.2s-.5,3.9-1.5,5.5c-1,1.7-2.4,3.2-4,4.5-1.6,1.3-3.6,2.5-5.7,3.4-2.2,1-4.4,1.8-6.6,2.4l-.9.2,25.2,24.2c-.7.1-1.5.2-2.2.2h-4.3c-.7,0-1.4,0-2.1-.2l-27.7-26v-.3l2.4-.5c2.5-.5,4.9-1.1,7.2-1.8,2.3-.8,4.4-1.7,6.2-2.7,1.8-1.1,3.2-2.3,4.3-3.8,1.1-1.5,1.6-3.2,1.6-5.2,0-4.1-1.8-7.1-5.3-9.1-3.5-2-8.3-3-14.3-3s-3,0-4.3,0c-1.3,0-2.9.2-4.7.3v52.1c-.5,0-1.1,0-1.9.1-.7,0-1.4,0-2,0s-1.3,0-2,0c-.7,0-1.2,0-1.8-.1v-56.4Z"/>
        <path class="st6" d="M320,1197.7c1,.2,2.1.4,3.2.7,1.1.3,2.3.5,3.7.7,1.4.2,2.9.4,4.6.5,1.7.2,3.6.2,5.8.2,3.5,0,6.5-.3,9.1-.9,2.5-.6,4.6-1.4,6.3-2.4,1.6-1,2.9-2.2,3.7-3.6.8-1.4,1.2-2.9,1.2-4.5s-.3-2.9-.8-4c-.5-1.1-1.5-2.1-2.9-3.1-1.4-.9-3.2-1.8-5.6-2.7-2.4-.9-5.4-1.8-9-2.8-2.6-.7-5-1.4-7.3-2.2-2.3-.8-4.3-1.7-6.1-2.9-1.8-1.1-3.1-2.5-4.2-4-1-1.6-1.5-3.5-1.5-5.9,0-4.2,2.1-7.6,6.4-10.2,4.3-2.6,10.5-3.9,18.7-3.9s3.2,0,4.9.2c1.6.1,3.2.2,4.6.4,1.4.2,2.7.3,4,.5,1.2.2,2.2.4,2.9.5-.1.8-.3,1.6-.6,2.4-.3.8-.6,1.6-.9,2.3-1.8-.4-4-.8-6.8-1.1-2.7-.3-5.5-.5-8.2-.5-6.1,0-10.4.9-13.1,2.7-2.6,1.8-4,4-4,6.7s.4,2.6,1.2,3.7c.8,1,1.9,2,3.4,2.7,1.4.8,3.1,1.5,5.1,2.1,2,.7,4.1,1.3,6.4,1.9,3.1.9,5.9,1.8,8.6,2.7,2.7.9,5,2,6.9,3.3,1.9,1.2,3.4,2.7,4.5,4.4,1.1,1.7,1.6,3.7,1.6,6.1s-.7,5.1-2,7.2c-1.4,2.1-3.3,3.9-5.8,5.3-2.5,1.4-5.5,2.5-9.1,3.3-3.6.8-7.6,1.1-12.1,1.1s-7.9-.2-10.8-.7-5.5-.9-8-1.5c.1-.8.4-1.6.8-2.5.4-.9.8-1.7,1.2-2.5Z"/>
        <path class="st6" d="M481.4,1168.4v-7.1l6.8-4.7h.4v11.8h13.7c0,.4.1.7.2,1.1,0,.4,0,.8,0,1.2s0,.8,0,1.2c0,.4,0,.8-.2,1.2h-13.7v13c0,3.2-.8,5.9-2.3,8.3s-3.7,4.3-6.4,5.9c-2.7,1.6-6,2.7-9.8,3.5-3.8.8-8,1.2-12.6,1.2s-7.8-.3-11.4-1c-3.6-.7-6.7-1.7-9.3-3-2.7-1.4-4.8-3.1-6.3-5.2-1.5-2.1-2.3-4.7-2.3-7.7s.3-3.2,1-4.9c.7-1.7,1.6-3.3,2.9-4.8,1.2-1.5,2.8-2.8,4.6-4,1.8-1.2,3.8-2.1,6.1-2.7-3.4-.9-6.3-2.3-8.6-4.1-2.3-1.9-3.4-4.4-3.4-7.6s.6-4.2,1.8-5.8,2.9-3,4.9-4c2.1-1,4.5-1.8,7.3-2.3,2.8-.5,5.7-.8,8.8-.8s3.7,0,5.8.2c2.1.2,4.3.5,6.6,1-.1.9-.3,1.7-.6,2.3-.3.6-.6,1.2-1.2,1.9-1.5-.3-3.1-.5-4.7-.7-1.6-.2-3.4-.3-5.4-.3s-5.2.3-7.1.8c-2,.5-3.6,1.2-4.8,2-1.2.8-2.2,1.7-2.8,2.8-.6,1-.9,2.1-.9,3.1,0,2.8,1.3,4.9,3.8,6.3,2.5,1.4,6.5,2.1,12,2.1h27.2ZM481.4,1173.1h-25c-3.1,0-6,.4-8.4,1.2-2.5.8-4.5,1.9-6.3,3.2-1.7,1.4-3,2.9-4,4.6-.9,1.7-1.4,3.5-1.4,5.4,0,3.9,1.8,6.8,5.5,9,3.7,2.1,8.9,3.2,15.8,3.2s8.9-.4,11.9-1.2c3-.8,5.4-2,7.1-3.4,1.7-1.4,2.9-3,3.5-4.9.7-1.8,1.1-3.8,1.2-5.8v-11.3Z"/>
        <path class="st6" d="M566.9,1147.8c.4,0,1.1,0,2.1-.1,1,0,1.8,0,2.6,0s1.7,0,2.6,0c1,0,1.7,0,2.2.1l22.1,37.4,21.9-37.4c.4,0,1.2,0,2.1-.1,1,0,1.8,0,2.6,0s1.6,0,2.5,0c1,0,1.7,0,2.2.1l3.8,56.2c-.5,0-1.1,0-1.8.1-.7,0-1.3,0-2,0s-1.4,0-2.1,0c-.7,0-1.3,0-1.7-.1l-3-47.8-21.7,36.2c-.5.1-1,.2-1.5.2h-3c-.5,0-1,0-1.5-.2l-21.5-36.2-3.2,47.9c-.5,0-1.1,0-1.8.1-.7,0-1.3,0-2,0s-1.4,0-2.1,0c-.7,0-1.3,0-1.7-.1l3.8-56.2Z"/>
        <path class="st6" d="M665.3,1147.8c.5,0,1.1,0,1.9-.1.7,0,1.4,0,2,0s1.3,0,2,0c.7,0,1.2,0,1.8.1v56.2c-.5,0-1.1,0-1.8.1-.7,0-1.3,0-2,0s-1.4,0-2.1,0c-.7,0-1.3,0-1.7-.1v-56.2Z"/>
        <path class="st6" d="M755.2,1197.6c.6.8,1.1,1.5,1.5,2.3.4.7.8,1.5,1,2.3-2.5.9-5.5,1.6-8.9,2.1-3.4.5-7.1.7-10.9.7s-10.2-.6-14.7-1.9c-4.4-1.2-8.2-3.1-11.4-5.5-3.1-2.4-5.6-5.4-7.4-8.9-1.8-3.5-2.6-7.6-2.6-12.2s.9-8.9,2.6-12.5c1.7-3.7,4.1-6.8,7.2-9.3,3.1-2.5,6.9-4.5,11.3-5.8,4.4-1.3,9.4-2,14.9-2s8.5.2,11.5.7c3.1.5,5.3.9,6.7,1.2-.1.9-.3,1.7-.6,2.3-.3.6-.6,1.4-1.2,2.3-1-.2-1.9-.4-2.9-.6-1-.2-2.1-.4-3.4-.5-1.2-.2-2.7-.3-4.3-.4-1.6-.1-3.6-.2-5.8-.2-4.3,0-8.2.6-11.6,1.7-3.4,1.1-6.4,2.7-8.8,4.9-2.4,2.1-4.3,4.7-5.6,7.8-1.3,3.1-2,6.6-2,10.5s.7,7.5,2.2,10.5,3.5,5.4,6.1,7.4c2.6,2,5.6,3.4,9.1,4.3,3.5.9,7.2,1.4,11.3,1.4s6.6-.2,9.4-.7c2.8-.5,5.2-1.1,7.1-1.8Z"/>
        <path class="st6" d="M784.9,1147.8h42.3c0,.3.1.7.2,1.1,0,.4,0,.9,0,1.3s0,.8,0,1.3c0,.5,0,.9-.2,1.2h-34.7v19h27.9c0,.3.1.7.2,1.1,0,.4,0,.9,0,1.3s0,.8,0,1.3c0,.5,0,.9-.2,1.2h-27.9v22.4h35.7c0,.3.1.7.2,1.1,0,.4,0,.9,0,1.3s0,.8,0,1.3c0,.5,0,.9-.2,1.2h-43.3v-56.2Z"/>
      </g>
    </g>
    <g class="st8">
      <g class="st8">
        <path class="st6" d="M23.1,1152.7H1.9c0-.3-.1-.7-.2-1.1,0-.4,0-.9,0-1.3s0-.8,0-1.2c0-.5,0-.9.2-1.2h50c0,.3.1.7.2,1.1,0,.4,0,.8,0,1.2s0,.8,0,1.3c0,.5,0,.9-.2,1.2h-21.2v51.3c-.5,0-1.1,0-1.8.1-.7,0-1.3,0-2,0s-1.4,0-2.1,0c-.7,0-1.3,0-1.7-.1v-51.3Z"/>
        <path class="st6" d="M100.5,1204.9c-5.5,0-10.3-.7-14.4-2.1-4.1-1.4-7.5-3.4-10.2-6-2.7-2.6-4.7-5.6-6-9.2-1.4-3.6-2-7.5-2-11.7s.7-8.1,2-11.6c1.4-3.5,3.4-6.6,6-9.2,2.7-2.6,6.1-4.6,10.2-6,4.1-1.4,8.9-2.1,14.4-2.1s10.3.7,14.4,2.1c4.1,1.4,7.5,3.4,10.2,6,2.7,2.6,4.7,5.6,6,9.2,1.4,3.5,2,7.4,2,11.6s-.7,8.1-2,11.7c-1.4,3.6-3.4,6.6-6,9.2-2.7,2.6-6.1,4.6-10.2,6-4.1,1.4-8.9,2.1-14.4,2.1ZM100.5,1200c4.2,0,7.9-.6,11-1.8,3.1-1.2,5.6-2.8,7.7-5,2-2.1,3.6-4.7,4.6-7.7s1.5-6.2,1.5-9.8-.5-6.8-1.5-9.8-2.5-5.5-4.6-7.6c-2.1-2.1-4.6-3.7-7.7-4.9-3.1-1.2-6.7-1.8-11-1.8s-7.9.6-11,1.8c-3.1,1.2-5.7,2.8-7.7,4.9-2,2.1-3.5,4.6-4.5,7.6-1,3-1.5,6.2-1.5,9.8s.5,6.8,1.5,9.8c1,3,2.5,5.5,4.5,7.7,2,2.1,4.6,3.8,7.7,5,3.1,1.2,6.8,1.8,11,1.8Z"/>
        <path class="st6" d="M161.4,1147.8c.5,0,1.1,0,1.9-.1.7,0,1.4,0,2,0s1.3,0,2,0c.7,0,1.2,0,1.8.1v33.9c0,3.3.4,6.1,1.2,8.3.8,2.3,1.9,4.1,3.5,5.6,1.6,1.5,3.6,2.5,6,3.2,2.4.7,5.3,1,8.7,1,6.7,0,11.6-1.4,14.7-4.1,3.1-2.8,4.7-7.4,4.7-13.9v-33.9c.5,0,1.1,0,1.8-.1.7,0,1.3,0,2,0s1.2,0,2,0c.7,0,1.4,0,1.9.1v34.6c0,7.5-2.2,13.1-6.5,16.9-4.3,3.7-11.1,5.6-20.4,5.6s-16.1-1.9-20.4-5.6c-4.3-3.7-6.5-9.4-6.5-16.9v-34.6Z"/>
        <path class="st6" d="M247.5,1147.6c1.6-.1,3-.2,4.2-.3s2.4-.2,3.5-.2c1.1,0,2.3-.1,3.6-.2,1.2,0,2.7,0,4.4,0,3.5,0,7,.3,10.4.8,3.4.5,6.5,1.4,9.2,2.7,2.7,1.3,4.9,3,6.5,5.2,1.6,2.2,2.5,4.9,2.5,8.2s-.5,3.9-1.5,5.5c-1,1.7-2.4,3.2-4,4.5-1.6,1.3-3.6,2.5-5.7,3.4-2.2,1-4.4,1.8-6.6,2.4l-.9.2,25.2,24.2c-.7.1-1.5.2-2.2.2h-4.3c-.7,0-1.4,0-2.1-.2l-27.7-26v-.3l2.4-.5c2.5-.5,4.9-1.1,7.2-1.8,2.3-.8,4.4-1.7,6.2-2.7,1.8-1.1,3.2-2.3,4.3-3.8,1.1-1.5,1.6-3.2,1.6-5.2,0-4.1-1.8-7.1-5.3-9.1-3.5-2-8.3-3-14.3-3s-3,0-4.3,0c-1.3,0-2.9.2-4.7.3v52.1c-.5,0-1.1,0-1.9.1-.7,0-1.4,0-2,0s-1.3,0-2,0c-.7,0-1.2,0-1.8-.1v-56.4Z"/>
        <path class="st6" d="M320,1197.7c1,.2,2.1.4,3.2.7,1.1.3,2.3.5,3.7.7,1.4.2,2.9.4,4.6.5,1.7.2,3.6.2,5.8.2,3.5,0,6.5-.3,9.1-.9,2.5-.6,4.6-1.4,6.3-2.4,1.6-1,2.9-2.2,3.7-3.6.8-1.4,1.2-2.9,1.2-4.5s-.3-2.9-.8-4c-.5-1.1-1.5-2.1-2.9-3.1-1.4-.9-3.2-1.8-5.6-2.7-2.4-.9-5.4-1.8-9-2.8-2.6-.7-5-1.4-7.3-2.2-2.3-.8-4.3-1.7-6.1-2.9-1.8-1.1-3.1-2.5-4.2-4-1-1.6-1.5-3.5-1.5-5.9,0-4.2,2.1-7.6,6.4-10.2,4.3-2.6,10.5-3.9,18.7-3.9s3.2,0,4.9.2c1.6.1,3.2.2,4.6.4,1.4.2,2.7.3,4,.5,1.2.2,2.2.4,2.9.5-.1.8-.3,1.6-.6,2.4-.3.8-.6,1.6-.9,2.3-1.8-.4-4-.8-6.8-1.1-2.7-.3-5.5-.5-8.2-.5-6.1,0-10.4.9-13.1,2.7-2.6,1.8-4,4-4,6.7s.4,2.6,1.2,3.7c.8,1,1.9,2,3.4,2.7,1.4.8,3.1,1.5,5.1,2.1,2,.7,4.1,1.3,6.4,1.9,3.1.9,5.9,1.8,8.6,2.7,2.7.9,5,2,6.9,3.3,1.9,1.2,3.4,2.7,4.5,4.4,1.1,1.7,1.6,3.7,1.6,6.1s-.7,5.1-2,7.2c-1.4,2.1-3.3,3.9-5.8,5.3-2.5,1.4-5.5,2.5-9.1,3.3-3.6.8-7.6,1.1-12.1,1.1s-7.9-.2-10.8-.7-5.5-.9-8-1.5c.1-.8.4-1.6.8-2.5.4-.9.8-1.7,1.2-2.5Z"/>
        <path class="st6" d="M481.4,1168.4v-7.1l6.8-4.7h.4v11.8h13.7c0,.4.1.7.2,1.1,0,.4,0,.8,0,1.2s0,.8,0,1.2c0,.4,0,.8-.2,1.2h-13.7v13c0,3.2-.8,5.9-2.3,8.3s-3.7,4.3-6.4,5.9c-2.7,1.6-6,2.7-9.8,3.5-3.8.8-8,1.2-12.6,1.2s-7.8-.3-11.4-1c-3.6-.7-6.7-1.7-9.3-3-2.7-1.4-4.8-3.1-6.3-5.2-1.5-2.1-2.3-4.7-2.3-7.7s.3-3.2,1-4.9c.7-1.7,1.6-3.3,2.9-4.8,1.2-1.5,2.8-2.8,4.6-4,1.8-1.2,3.8-2.1,6.1-2.7-3.4-.9-6.3-2.3-8.6-4.1-2.3-1.9-3.4-4.4-3.4-7.6s.6-4.2,1.8-5.8,2.9-3,4.9-4c2.1-1,4.5-1.8,7.3-2.3,2.8-.5,5.7-.8,8.8-.8s3.7,0,5.8.2c2.1.2,4.3.5,6.6,1-.1.9-.3,1.7-.6,2.3-.3.6-.6,1.2-1.2,1.9-1.5-.3-3.1-.5-4.7-.7-1.6-.2-3.4-.3-5.4-.3s-5.2.3-7.1.8c-2,.5-3.6,1.2-4.8,2-1.2.8-2.2,1.7-2.8,2.8-.6,1-.9,2.1-.9,3.1,0,2.8,1.3,4.9,3.8,6.3,2.5,1.4,6.5,2.1,12,2.1h27.2ZM481.4,1173.1h-25c-3.1,0-6,.4-8.4,1.2-2.5.8-4.5,1.9-6.3,3.2-1.7,1.4-3,2.9-4,4.6-.9,1.7-1.4,3.5-1.4,5.4,0,3.9,1.8,6.8,5.5,9,3.7,2.1,8.9,3.2,15.8,3.2s8.9-.4,11.9-1.2c3-.8,5.4-2,7.1-3.4,1.7-1.4,2.9-3,3.5-4.9.7-1.8,1.1-3.8,1.2-5.8v-11.3Z"/>
        <path class="st6" d="M566.9,1147.8c.4,0,1.1,0,2.1-.1,1,0,1.8,0,2.6,0s1.7,0,2.6,0c1,0,1.7,0,2.2.1l22.1,37.4,21.9-37.4c.4,0,1.2,0,2.1-.1,1,0,1.8,0,2.6,0s1.6,0,2.5,0c1,0,1.7,0,2.2.1l3.8,56.2c-.5,0-1.1,0-1.8.1-.7,0-1.3,0-2,0s-1.4,0-2.1,0c-.7,0-1.3,0-1.7-.1l-3-47.8-21.7,36.2c-.5.1-1,.2-1.5.2h-3c-.5,0-1,0-1.5-.2l-21.5-36.2-3.2,47.9c-.5,0-1.1,0-1.8.1-.7,0-1.3,0-2,0s-1.4,0-2.1,0c-.7,0-1.3,0-1.7-.1l3.8-56.2Z"/>
        <path class="st6" d="M665.3,1147.8c.5,0,1.1,0,1.9-.1.7,0,1.4,0,2,0s1.3,0,2,0c.7,0,1.2,0,1.8.1v56.2c-.5,0-1.1,0-1.8.1-.7,0-1.3,0-2,0s-1.4,0-2.1,0c-.7,0-1.3,0-1.7-.1v-56.2Z"/>
        <path class="st6" d="M755.2,1197.6c.6.8,1.1,1.5,1.5,2.3.4.7.8,1.5,1,2.3-2.5.9-5.5,1.6-8.9,2.1-3.4.5-7.1.7-10.9.7s-10.2-.6-14.7-1.9c-4.4-1.2-8.2-3.1-11.4-5.5-3.1-2.4-5.6-5.4-7.4-8.9-1.8-3.5-2.6-7.6-2.6-12.2s.9-8.9,2.6-12.5c1.7-3.7,4.1-6.8,7.2-9.3,3.1-2.5,6.9-4.5,11.3-5.8,4.4-1.3,9.4-2,14.9-2s8.5.2,11.5.7c3.1.5,5.3.9,6.7,1.2-.1.9-.3,1.7-.6,2.3-.3.6-.6,1.4-1.2,2.3-1-.2-1.9-.4-2.9-.6-1-.2-2.1-.4-3.4-.5-1.2-.2-2.7-.3-4.3-.4-1.6-.1-3.6-.2-5.8-.2-4.3,0-8.2.6-11.6,1.7-3.4,1.1-6.4,2.7-8.8,4.9-2.4,2.1-4.3,4.7-5.6,7.8-1.3,3.1-2,6.6-2,10.5s.7,7.5,2.2,10.5,3.5,5.4,6.1,7.4c2.6,2,5.6,3.4,9.1,4.3,3.5.9,7.2,1.4,11.3,1.4s6.6-.2,9.4-.7c2.8-.5,5.2-1.1,7.1-1.8Z"/>
        <path class="st6" d="M784.9,1147.8h42.3c0,.3.1.7.2,1.1,0,.4,0,.9,0,1.3s0,.8,0,1.3c0,.5,0,.9-.2,1.2h-34.7v19h27.9c0,.3.1.7.2,1.1,0,.4,0,.9,0,1.3s0,.8,0,1.3c0,.5,0,.9-.2,1.2h-27.9v22.4h35.7c0,.3.1.7.2,1.1,0,.4,0,.9,0,1.3s0,.8,0,1.3c0,.5,0,.9-.2,1.2h-43.3v-56.2Z"/>
      </g>
    </g>
    <g>
      <path class="st14" d="M53.4,1084.5l-8.6,21.5H0l65.6-148.6h32.9l64.9,148.6h-45.3l-7.9-21.5h-56.8ZM64.9,1054.4h34.2l-16.8-50.8h-.7l-16.8,50.8h.1Z"/>
      <path class="st14" d="M180.2,957.3h51.7c28.7,0,39.7,3.2,50.3,10.6,13.5,9.6,20.1,25.3,20.1,40.6s-9.7,42.2-40.6,46.8l44.4,50.6h-47.7l-37.8-48h-.4v48h-40v-148.6h0ZM220.1,1032.1h14.8c24.5,0,27.4-14.1,27.4-21.3,0-13.5-10.8-20.1-26.9-20.1h-15.2v41.4h-.1Z"/>
      <path class="st14" d="M324.4,957.3h50.3c27.6,0,40.4,2.4,52.3,14.5,7.3,6.8,9.7,15.9,9.7,24.5s-5.7,23.1-19,29.9c26.3,8.4,26.9,28.3,26.9,34.6,0,11.9-5.1,24.9-15,32.3-15,11.5-25.8,12.9-53.4,12.9h-51.9v-148.6h.1ZM364.3,1013.8h14.8c5.7,0,17.7,0,17.7-11.8s-11.3-11.3-17.7-11.3h-14.8v23.1ZM364.3,1072.6h19.6c5.3,0,20.8,0,20.8-14.3s-14.1-12.9-20.8-12.9h-19.6v27.1h0Z"/>
      <path class="st14" d="M505.7,1084.5l-8.6,21.5h-44.8l65.6-148.6h32.9l64.9,148.6h-45.3l-7.9-21.5h-56.8ZM517.2,1054.4h34.2l-16.8-50.8h-.7l-16.8,50.8h0Z"/>
      <path class="st14" d="M730.2,957.3v89.8c0,25.3-3.1,34.1-10.2,42.2-11,13.1-29.6,19.5-46.1,19.5s-54.8,0-55-50.6h44.4c.4,6.8,1.5,17.3,12.6,17.3s12.6-12,12.6-18.9v-99.2h41.7Z"/>
      <path class="st14" d="M760,957.3h90.7v33.3h-50.8v23.1h49.2v33.3h-49.2v25.5h50.8v33.3h-90.7v-148.6h0Z"/>
    </g>
  </g>
  <g>
    <g>
      <path class="st13" d="M129.7,637.6c.6-1,1.3-2,1.9-3.1,1.4-2.4,3-4.8,4.6-7.2h0c1.6-2.3,3.3-4.6,5.1-6.8.4-.5.8-.9,1.2-1.4,1.5-1.8,3-3.6,4.6-5.4,2.1-2.3,4.3-4.6,6.7-6.8,34.7-33.1,91.7-58.3,154-68.9,3.3-.6,6.6-1.1,9.9-1.6,1.1-.2,2.1-.3,3.2-.4,2.3-.3,4.5-.6,6.8-.9,1.2,0,2.5-.3,3.7-.4,2.2-.2,4.4-.5,6.6-.7,1.2,0,2.4-.2,3.7-.3,2.4-.2,4.9-.4,7.3-.5.9,0,1.9,0,2.8-.2,3.3-.2,6.6-.3,9.9-.4h14.1c6.5,0,13,.3,19.5.7l9.5.7c6.1.6,12.2,1.3,18,2.2l-7-1.1-13.7-2c-2.5-.3-32.2-4.1-34.5-4.4h-.2c-14.4-1.6-26.8-2.6-54.8-4.9-23.1-1.2-35.4-1.7-48.3-1.8-4.6,0-9.2,0-13.8-.2h-.1c-16.3,0-32,.5-45.8,1.9-1.6.2-3,.3-4.5.5-4.6.4-9.1.8-13,1.2-7.9,1-18.1,2.6-25.7,3.9h.1-1.3c-.2.2-.4.2-.6.3-1.6.3-2.8.6-3.4.9-31,6.5-59,19.4-76.5,36.1-5.5,5.3-10,10.9-13.2,16.8-2.3,4.2-3.8,8.4-4.7,12.5-1.5,13.7-.6,18.1,2.8,31.3,6,17.2,13.3,27.7,23.6,42.2,14.8,18.2,18.6,21.9,40,42.2,5.1,4.7,12.8,11,19.1,16.2-27.9-24-35.9-56.2-17.3-90.2h-.3ZM385.4,532.3h.8-.8ZM381.8,532c.9,0,1.7,0,2.6.2h.7c-2.2-.2-4.5-.4-6.9-.6,1.2,0,2.4.2,3.6.3h0ZM317.1,535.9c-.9.3-1.8.6-2.7.8l-2.1.5c1.6-.4,3.3-.8,4.8-1.2h0ZM312.2,537.2l-.9.2-1.3.3c.7,0,1.4-.3,2.2-.5h0ZM158.2,601c.3-.4.6-.7.9-1,0,.2-.2.4-.3.6-.8,1.4-2.1,2.9-3.4,4.4,1.1-1.3,2-2.7,2.7-3.9h.1Z"/>
      <g>
        <path class="st7" d="M829.4,234s-45.6-97.2-137.4-33.4c-60.7,42.2-96.4,68.6-113.5,81.7-3-11.2-7.8-21.8-14.4-31.2-21.2-29.9-46.1-37.7-70.2-45.3-58.3-12.6-118.5-21.1-177-24.1-27.9-1.4-53.9-1.5-78.1-.4l-1.7-.6.6.6c-47.4,2.2-87.2,9-118,19.7-16.7,5.8-30.8,12.7-41.9,20.6-1.9,1.4-3.7,3-5.4,4.7h0q0,.1,0,0c-6.5,5.3-11.7,10.9-15.7,16.9,1.5-1.3,2.5-1,2.9-.7-1.2-.3-2.1,0-3,.8h0c0-.1,0-.1-.2,0,0,.1-.3.3-.5.4-.7.8-1.6,1.9-2.6,3.7l-.5,1-1.7,3.4-.5,1.1v-.2l-4.3,10.4c-15,42-15.9,44.5-21.8,71.4-8.7,50.1-8.8,51.1-9.5,99.3l.2,6.5,2.1,28.1c-.3-9.2,1.7-17.8,5.9-25.9,5-9.6,13.2-18.3,24.2-26.1,10.9-7.6,24.6-14.3,40.8-20,45.4-15.6,110.8-22.9,191.7-18.7,56.8,2.9,115.4,11.1,172.1,23.4h.4c56.8,11.2,401.6,69.7,377-167.2h0ZM25.4,334.8c-.6,2.9-1.1,5.6-1.5,8.1.5-2.7,1-5.4,1.5-8.1ZM34,420.3l-1.6-.5c.8.3,1.6.4,2.3.5h-.7ZM25.8,333.2c.9-4.3,1.9-8.7,3-13.1-1.1,4.7-2.1,9.1-3,13.1ZM29.4,317.4c.7-2.8,1.5-5.6,2.3-8.5-.8,2.9-1.6,5.7-2.3,8.5ZM36.7,405.6c6.7-22.6,12.3-46.3,16.6-68.5-4.2,21.9-9.8,45.6-16.6,68.5ZM131.1,198.8h.6c.3,0,.6.1.9.1h-1.5Z"/>
        <path class="st14" d="M17.4,468.4c0,1.5.2,2.9.3,4.4l-.3-4.4Z"/>
      </g>
      <path class="st11" d="M176,759.6c-3.2-2.5-5.9-4.9-8.7-7.3,1.2,1,2.2,1.9,3.5,3.1l5.2,4.3h0Z"/>
      <path class="st11" d="M329.7,86.4c-6.1,1.2-12.9,2.5-22.4,4.5,7.8-1.8,15.2-3.3,22.4-4.5Z"/>
      <path class="st1" d="M52,347.6c0,3.6,0,7.5-.2,11.7l.2,6.5c-.2-5.8.4-15.7,1.8-28.4-.6,3.6-1.2,7-1.8,10.1h0Z"/>
      <path class="st0" d="M873,438.9c-.9,4.2-2.4,8.3-4.4,12.2-1.6,3.2-3.5,6.3-5.8,9.3-.2.3-.4.5-.6.8,0,.2-.2.3-.4.4-1.5,1.9-3.1,3.8-4.9,5.6h0c-1.7,1.9-3.6,3.7-5.6,5.4h0c-2,1.8-4,3.4-6.2,5-.2.1-.3.2-.5.4-2.1,1.6-4.4,3.1-6.8,4.5-.5.3-.9.6-1.4.8-1.8,1.1-3.7,2.2-5.7,3.3-.8.4-1.6.9-2.4,1.3-2.4,1.3-4.9,2.5-7.4,3.7,0,0-.3.1-.4.2-2.9,1.3-5.9,2.6-9,3.9h0c-.3.1-.6.2-.9.3-2.9,1.2-6,2.3-9.1,3.4-.4.1-.8.3-1.1.4-3.1,1.1-6.4,2.1-9.7,3.1-.3,0-.6.2-1,.3-.2,0-.4.1-.5.2-3.4,1-6.9,2-10.5,2.9s-.9.2-1.3.3c-3.5.9-7.2,1.7-10.9,2.5-.3,0-.6.1-.9.2-3.8.8-7.7,1.6-11.7,2.3-.7.1-1.5.3-2.2.4-3.7.7-7.6,1.3-11.4,1.9-.7,0-1.3.2-2,.3-3.9.6-7.9,1.1-12,1.6-.4,0-.9,0-1.3.2-.4,0-.9,0-1.3.2-4.1.5-8.3.9-12.6,1.3-.9,0-1.8.2-2.7.2-4.6.4-9.2.8-13.9,1.1l-13.6.7c-3.9.2-7.8.3-11.7.4-20.4.5-42,.2-64.9-.9-214.2-11-452.3-95.4-531.6-188.4-25-29.3-31.2-56-21.4-78.5l-.5,1.1v.2l-4.2,10c-.3.8-.6,1.5-.9,2.3,0,.1,0,.2,0,.3v.2c-.5,1.2-.9,2.3-1.3,3.4,0,.1,0,.2,0,.4h0c-.2.7-.5,1.3-.7,1.9,0,.3-.2.6-.3.9s-.3.7-.4,1c0,.1,0,.2,0,.3,0,.2-.2.4-.2.6h0c-.5,1.4-1,2.7-1.5,4v.2c-1,2.7-1.9,5.2-2.7,7.8v.2c-.2.5-.3,1-.5,1.4h0c-.3,1.2-.7,2.3-1,3.4h0c-.2.5-.3,1.1-.5,1.6v.2c0,.5-.3.9-.4,1.4,0,.1,0,.3,0,.4-.2.5-.3,1.1-.5,1.6v.2c-.2.6-.3,1.1-.5,1.7v.3c-.2.6-.3,1.1-.5,1.7,0,.1,0,.2,0,.4-.2.6-.3,1.2-.5,1.8,0,.1,0,.3,0,.4-.2.7-.4,1.3-.5,2v.2c-.2.7-.4,1.4-.6,2.1v.3c-.2.6-.3,1.3-.5,2,0,.2-.1.4-.2.7-.2.6-.3,1.3-.5,2,0,.3-.1.5-.2.8-.7,2.8-1.5,5.8-2.3,9h0c-.9,3.8-2,7.8-3.1,12.2-8.5,48.2-8.6,49.2-9.5,99.3l.2,6.5c-.3-8.4,1.2-25.6,4.2-47.2.2-1.1,1.4-9.9,3.5-22.7.3-1.7.6-3.5.9-5.4,0-.2,0-.4.1-.7.3-1.6.6-3.3.8-5,0-.4.1-.7.2-1.1.7-3.8,1.4-7.9,2.2-12.1,0-.5.2-1,.3-1.6.3-1.7.6-3.4,1-5.2,0-.5.2-.9.3-1.4.4-2.1.8-4.3,1.3-6.5,0-.4.2-.8.2-1.2.4-1.8.7-3.6,1.1-5.5,0-.6.3-1.2.4-1.8.4-2,.8-4,1.2-6,0-.3,0-.6.2-.8.5-2.2,1-4.4,1.5-6.7,0-.6.3-1.2.4-1.8.4-1.7.8-3.4,1.2-5.1,0-.6.3-1.2.4-1.9.5-2.2,1-4.4,1.6-6.6,0-.3.2-.7.3-1,.5-1.9.9-3.7,1.4-5.5.2-.6.3-1.3.5-1.9.4-1.6.9-3.2,1.3-4.8h0c.4-1.4.8-2.8,1.2-4.2s.4-1.5.6-2.2c.3-1.1.7-2.3,1-3.4s.7-2.2,1-3.2c.3-.8.5-1.6.8-2.4h0c.6-1.9,1.2-3.8,1.9-5.6-.6,1.8-1.2,3.6-1.8,5.6,0,.3-.2.6-.3.8-.3.9-.6,1.8-.9,2.8,0,.4-.3.8-.4,1.2,0,.5-.3,1-.4,1.4-.3,1.1-.7,2.3-1,3.5h0v.3c-.2.6-.3,1.2-.5,1.8-.3,1.2-.7,2.5-1,3.7h0c-.2.7-.4,1.3-.6,2-.4,1.5-.8,3.1-1.2,4.7,0,.5-.2.9-.3,1.3-.5,2.1-1.1,4.2-1.6,6.4,0,.4-.2.7-.3,1.1-.4,1.8-.9,3.6-1.3,5.4-.2.7-.3,1.3-.5,2-.4,1.6-.7,3.2-1.1,4.8-.2.7-.3,1.5-.5,2.2-.4,1.6-.7,3.2-1.1,4.9,0,.7-.3,1.4-.4,2-.4,1.8-.8,3.7-1.2,5.6,0,.5-.2.9-.3,1.4-1,4.8-2,9.7-2.9,14.7,0,.3-.1.5-.2.8-.4,2.1-.8,4.3-1.2,6.4,0,.5-.2,1.1-.3,1.6-.4,1.9-.7,3.8-1,5.8,0,.6-.2,1.1-.3,1.7-.3,2-.7,3.9-1,5.9,0,.5-.2.9-.2,1.4-.4,2.4-.8,4.7-1.2,7h0c-4.5,27.9-7.5,53.7-7.7,69.8l2.4,32.4c1.7,15.3,9.8,31.8,24.8,49.4,77.1,90.4,308.5,172.5,516.7,183.1,22.2,1.2,43.3,1.4,63.1.9,101.7-2.6,170.2-26.4,192-63l11.4-20.5c12.3-23.9,12.9-25.6,28.3-68,3.7-12,7.6-28.4,10.7-40.5,5.6-26.9,5.8-29.5,9.3-74l.2-7.5-1.2,6.3-1.2.3Z"/>
      <path class="st2" d="M512.7,810.1c-2.8,0-5.6-.4-8.4-.5-6.5-.4-13.1-.9-19.7-1.4h0c-6.4-.5-12.9-1.2-19.3-1.9-1.3,0-2.7-.3-4-.5-5.2-.6-10.4-1.2-15.7-1.9-6.8-.9-13.6-1.8-20.4-2.9-100.6-15.6-199.5-47.7-269-86.7-3.7-2.1-7.2-4.1-10.7-6.2-1.1-.7-2.2-1.3-3.3-2-2.4-1.4-4.7-2.9-7-4.3-1.2-.8-2.4-1.6-3.6-2.4-2.1-1.4-4.2-2.8-6.3-4.2-1.1-.8-2.3-1.6-3.4-2.4-2.2-1.6-4.4-3.2-6.5-4.8-.8-.6-1.7-1.2-2.4-1.8-2.8-2.2-5.5-4.3-8.2-6.5-.8-.7-1.6-1.3-2.3-2-1.8-1.5-3.6-3.1-5.3-4.7-1-.9-1.9-1.7-2.8-2.6-4.6-4.3-8.8-8.7-12.6-13.1l-5.2-6.4c-3.2-4.2-5.8-8.4-8-12.4l2.7,4.9,5.5,9.6c1,1.7,14,22.3,15.1,23.9h0c6.7,10,13.4,18.5,28.7,37.6,13.9,15.6,21.8,23.9,30.9,32.4,3.1,3.1,6.3,6.1,9.6,9.2h0c11.7,10.8,24.3,21.1,37.6,30,1.5,1,3,1.9,4.5,2.9,4.2,3,8.4,5.8,12.1,8.4,8.1,5,19.1,11.4,27.5,16.2h-.2l.3.2s.1,0,.2,0c0,0,.1,0,.2,0l.7.4c.2,0,.5.2.7.3,2,1,3.4,1.7,4.5,2.1,37.4,19.1,87.1,34.8,137.9,42.7,16,2.5,32.2,4.2,48,5,11.3.6,22,.7,31.9.3,32.4-2.1,41.8-3.7,69.4-8.9,34.9-7.8,53.5-15.1,79.1-25.2,30.8-13.9,36.3-17.3,67.2-36.1,7.1-4.5,15.7-11,23-16.3-34.5,23.9-102.2,36.5-193.2,31.8h.2ZM86.8,664.2c0-.2-.3-.4-.4-.5,0,.2.3.4.4.5h0ZM88.6,666.6c-.5-.6-.9-1.2-1.4-1.8,0-.2-.2-.3-.4-.5,1.2,1.5,2.4,3.1,3.7,4.7-.7-.9-1.3-1.7-1.9-2.5h0ZM144.6,708.6c1.3.5,2.6,1.1,3.7,1.6l2.7,1.3c-2-1-4.1-2-6.3-2.9h0ZM151,711.6l1.1.5,1.5.8c-.8-.4-1.7-.9-2.6-1.3ZM408.5,799.4c-1,0-2.1-.3-3.1-.4h1.6c3.7.2,8.2.7,12.5,1.2-3.8-.4-7.5-.7-11-.9h0Z"/>
      <path class="st5" d="M517.6,135.4c1-.1,1.9-.2,2.8-.2h-1.7c-.3,0-.7.2-1,.2h0Z"/>
      <path class="st4" d="M605.7,141.1c1.2-.3,2.3-.6,3.6-.7l-3,.4c-.2,0-.4.3-.6.4h0Z"/>
      <path class="st12" d="M839.7,234.7h0c-11-26.1-31.9-52.5-40.2-62.5h0c-1.2-1.5-2.1-2.6-2.7-3.3,0,0,0-.1-.2-.2-.2-.3-.4-.5-.5-.6-37.6-42.7-81.3-65-89.8-57v.4l-.3,1-.6,1.6-.9,2.1-1.4,2.6-2.1,2.8-2.9,3-3.8,3.2-4.9,3.1-5.9,3-7,2.8-8.1,2.6-9.1,2.2c-3.2.6-6.5,1.2-10,1.8-3.5.5-7,1-10.7,1.3-3.6.4-7.4.6-11.3.9-1.3.2-2.6.5-3.8.8.2,0,.4-.3.6-.4l3.2-.4-3.9.2-3.9.2h-7.9c0,.1-4,.1-4,.1h-7.8c0-.1-3.9-.2-3.9-.2l-3.9-.2h-1.4l-2.5-.2-3.7-.2-3.6-.3-3.5-.3-3.4-.3-3.3-.3-3.1-.3-3-.3-2.8-.3-2.7-.3-2.5-.3-2.3-.3-2.2-.3-2-.3-1.8-.3-1.6-.2-1.5-.2-1.2-.2-1-.2h-.8c0-.1-.6-.2-.6-.2h-.5c-50.1-8.1-99.1-23.9-135-43-12.6-6.9-23.2-14.2-31.4-20.5-4.9-4.1-9.3-8.2-12.9-12.3-1.2-1.4-2.2-2.8-3.2-4.1-.3-.3-.5-.7-.7-1-.9-1.3-1.7-2.5-2.4-3.7,0,0-.1-.2-.2-.3-.8-1.4-1.4-2.7-2-4-.1-.2-.2-.5-.3-.7-.5-1.2-1-2.5-1.3-3.7v-.2c-.4-1.3-.6-2.7-.8-4v-.3c-.1-1.3-.2-2.6-.1-3.8h0c.1-2.6.7-5.1,1.7-7.5,6.9-16.7,34.3-28.1,76.5-30.7,3.9-.2,7.9-.4,12-.5h-.8c-2.9,0-5.4,0-7.7.2h-2.6c-2.6,0-4.9.2-7.2.3h-2.3c-.5,0-1,0-1.6.1h-.3c-2.4.2-4.9.4-7.9.6h-.1c-.6,0-1.3.1-1.9.2h-.8c-.6,0-1.2.1-1.8.2h-1c-.7,0-1.5.1-2.2.2h-.1c-1.9.2-4,.4-6.3.6-11.1,1.2-19.1,2.4-29.5,4.4h.5c-7.6,1.3-15.5,2.9-23.9,4.8-12.1,3.1-28.1,7.7-40,11.3-37.1,13.5-44.6,17.3-76.3,33.4-1.6.9-3.3,1.9-5.1,3-.2,0-.3.2-.5.3-11.5,6.9-25,15.5-35.4,22.2-32.3,22.3-36.5,54.2-5,91,15.3,17.9,37.7,35.5,65.3,52,70.3,42,174.3,77.2,281,94.4h.2l.7.2,1.1.2,1.5.3,2,.3,2.4.3,2.7.4,3.2.5,3.5.5,3.9.5,4.2.6,4.5.6,4.9.6,5.2.6,5.5.6,5.8.6,6.1.6,6.3.6,6.5.5,6.8.6,7,.5,7.2.4,4.7.3,2.7.2,7.5.3,7.6.2,7.6.2h23l7.6-.2,7.5-.3,7.5-.4c7.5-.4,14.8-1,21.8-1.7,7.2-.7,14.1-1.6,20.7-2.6,6.7-1,13.1-2.2,19.3-3.4,6.1-1.3,11.9-2.7,17.5-4.2,5.4-1.5,10.7-3.1,15.6-4.9,4.8-1.7,9.3-3.5,13.5-5.4,4.1-1.8,7.9-3.8,11.4-5.8,3.4-1.9,6.5-4,9.4-6l7.4-6.1,5.6-5.9,4.1-5.5,2.8-4.9,1.8-4.1,1-3.2.6-2,.2-.7c0-8.9-2.9-18.7-7.1-28.7v.3ZM531,140h1.8c-1,0-1.9.1-2.9.3.4,0,.7-.2,1.1-.3h0Z"/>
    </g>
    <path class="st3" d="M300.2,146.6c70,40.8,173.2,74.5,278.8,90.3h.2l.7.2,1.1.2,1.5.2,1.9.3,2.4.3,2.7.4,3.1.5,3.5.4,3.9.5,4.2.5,4.5.6,4.9.5,5.2.6,5.4.6,5.7.6,6,.5,6.3.5,6.5.5,6.7.5,6.9.4,7.1.4,4.7.2h2.7c0,.1,7.4.4,7.4.4l7.5.2h22.7l7.6-.2,7.5-.2,7.5-.4,7.4-.4c7.4-.5,14.6-1.1,21.5-1.9,7.1-.8,13.9-1.7,20.5-2.7,6.6-1.1,12.9-2.3,19-3.6,6-1.3,11.8-2.8,17.3-4.3,4.2-1.2,8.2-2.5,12.1-3.9-13.8-31.6-42.3-63.7-43.9-65.4-37.6-41.8-81-63.4-89.4-55.4v.4l-.3,1-.5,1.6-.9,2.1-1.4,2.5-2.1,2.8-2.8,3-3.8,3.2-4.8,3.1-5.8,3-6.9,2.9-8,2.6-8.9,2.2c-3.2.7-6.5,1.3-9.8,1.8-3.4.5-6.9,1-10.6,1.4-3.6.4-7.3.7-11.2,1-1.3.2-2.5.5-3.8.8.2,0,.4-.3.6-.4l3.2-.4-3.9.2-3.9.2h-3.9c0,.1-3.9.2-3.9.2h-15.6c0-.1-3.8-.1-3.8-.1,0-.1-1.4-.2-1.4-.2h-2.4c0-.1-3.7-.3-3.7-.3l-3.6-.2-3.5-.2-3.3-.2-3.3-.3-3.1-.3-3-.3-2.8-.3-2.7-.3-2.5-.3-2.3-.3-2.2-.3-2-.3-1.8-.2-1.6-.2-1.4-.2h-1.2c0-.1-1-.3-1-.3h-.8c0-.1-.5-.2-.5-.2h-.5c-49.6-7.5-98.3-22.6-133.9-41.1-12.5-6.6-23.1-13.8-31.3-19.9-4.9-4-9.3-8-12.8-12.1-29.1-33.4,0-59.3,65.6-64,1.2,0,2.4-.1,3.7-.2h-.1c-12.1.5-17.1,1-35.7,2.9-11,1.3-18.9,2.6-29.1,4.7h.5c-7.5,1.4-15.3,3-23.5,5-11.9,3.2-27.7,7.9-39.4,11.6-36.5,13.7-43.9,17.6-75,33.8-3.2,1.9-6.8,4.1-10.4,6.3,3.4,9.6,9.5,19.8,18.7,30.3,15.3,17.6,37.6,34.7,65.1,50.7h-.3ZM528.5,138.6h1.8c-.9,0-1.9.1-2.9.3.4,0,.7-.2,1.1-.3h0Z"/>
    <path class="st9" d="M563.4,636.1c22.2,1.2,43.3,1.6,63,1.1,101.6-2.3,170.1-25.8,191.9-62.3l11.5-20.5c12.3-23.9,12.9-25.5,28.4-67.8,2.5-8,5.1-17.9,7.5-27.2-18.4,36.5-80.4,61.1-174.2,66.7l-13.5.7c-3.9.2-7.8.3-11.7.4-20.3.5-42,0-64.8-1.1-213.9-11.6-451.4-96.6-530.3-189.8-24.9-29.4-31-56-21.2-78.5l-.5,1.1v.2l-4.2,10c-10,25-10.5,26.9-21.8,70.2-1.4,12-2.2,22.5-2.4,30.6l.5,6.3c4.8-28.8,14-78.3,25.4-110.2-9.1,26-18.8,70.2-25.3,110.3l1.9,26c1.7,15.2,9.7,31.8,24.6,49.4,76.7,90.6,307.6,173.2,515.5,184.5h-.3Z"/>
    <path class="st10" d="M508,817.7c8.1-2,15.3-4,21.9-6-26.9-.9-54.1-3.1-81.4-6.6-103.6-13.2-206-43.4-278.4-81.4-27.2-14.2-50.1-29.6-67.3-45.5-.4-.2-.8-.3-1.2-.5.4,0,.8.3,1.1.4-.8-.7-1.6-1.5-2.3-2.2-1-.6-2-1.1-3-1.7,1.3,1.6,2.6,3.2,4,4.9-1.4-1.7-2.7-3.2-4-4.9-2.5-1.4-4.9-2.9-7.3-4.3.7,3.3,4,7.5,9.4,12.3,8.7,12.6,15.2,20.4,34,42.8,14.7,15.6,23,23.9,32.6,32.4,3.3,3.1,6.7,6.1,10.1,9.1.2,0,.3.2.5.3,8.5,4.9,19.9,11.2,28.6,15.9h-.2l.3.2s.2,0,.2,0q.1,0,.2,0l.8.4c.2,0,.5.2.8.3,2,1,3.6,1.6,4.6,2,38.9,18.6,90.3,33.3,142.7,39.9,16.5,2.1,33.1,3.4,49.4,3.8,11.6.3,22.6,0,32.8-.6,33.2-3,42.8-4.9,70.9-11.1h.2ZM158.1,718.2c1.4.5,2.7,1,3.8,1.5l2.8,1.3c-2-1-4.3-1.9-6.6-2.8ZM164.8,721.1l1.1.5,1.6.8c-.9-.4-1.8-.9-2.7-1.3h0ZM431.4,804c-1.1,0-2.1-.2-3.2-.3h1.6c3.8,0,8.5.5,12.8.9-3.9-.3-7.7-.5-11.3-.6h.1Z"/>
  </g>
</svg>