<?xml version="1.0" encoding="UTF-8"?>
<svg id="Layer_1" xmlns="http://www.w3.org/2000/svg" xmlns:xlink="http://www.w3.org/1999/xlink" version="1.1" viewBox="0 0 298.6 107.8">
  <!-- Generator: Adobe Illustrator 30.5.1, SVG Export Plug-In . SVG Version: 2.1.4 Build 3)  -->
  <defs>
    <style>
      .st0 {
        fill: #2e388f;
      }

      .st1 {
        fill: url(#linear-gradient1);
      }

      .st2 {
        fill: url(#Sfumatura_senza_nome_62);
      }

      .st2, .st3 {
        opacity: .5;
      }

      .st4 {
        fill: #414042;
      }

      .st5 {
        fill: url(#linear-gradient);
      }

      .st6 {
        fill: #fbb040;
      }

      .st7 {
        fill: url(#Sfumatura_senza_nome_18);
      }

      .st8 {
        fill: url(#Sfumatura_senza_nome_87);
      }

      .st9 {
        fill: url(#Sfumatura_senza_nome_1339);
      }

      .st10 {
        fill: none;
        stroke: #27aae1;
        stroke-miterlimit: 10;
      }

      .st3 {
        fill: url(#Sfumatura_senza_nome_621);
      }

      .st11 {
        fill: #2d2c2c;
      }

      .st12 {
        fill: #afdfe5;
      }

      .st13 {
        fill: url(#Sfumatura_senza_nome_13391);
      }

      .st14 {
        fill: url(#Sfumatura_senza_nome_280);
      }
    </style>
    <linearGradient id="Sfumatura_senza_nome_18" data-name="Sfumatura senza nome 18" x1="0" y1="40.4" x2="101.6" y2="40.4" gradientUnits="userSpaceOnUse">
      <stop offset="0" stop-color="#29aae1"/>
      <stop offset="1" stop-color="#2b3c90"/>
    </linearGradient>
    <linearGradient id="linear-gradient" x1="567.2" y1="-14261.9" x2="569" y2="-14261.9" gradientTransform="translate(7553.818 -12069.5912) rotate(34.2125) scale(1 -1)" gradientUnits="userSpaceOnUse">
      <stop offset="0" stop-color="#9e68ac" stop-opacity=".3"/>
      <stop offset="0" stop-color="#a16aad" stop-opacity=".4"/>
      <stop offset="0" stop-color="#a871b0" stop-opacity=".6"/>
      <stop offset=".2" stop-color="#ad76b3" stop-opacity=".7"/>
      <stop offset=".2" stop-color="#b27ab5" stop-opacity=".8"/>
      <stop offset=".3" stop-color="#b57db6" stop-opacity=".9"/>
      <stop offset=".4" stop-color="#b77fb7" stop-opacity="1"/>
      <stop offset=".5" stop-color="#b880b8"/>
      <stop offset="1" stop-color="#58294c" stop-opacity="0"/>
    </linearGradient>
    <linearGradient id="Sfumatura_senza_nome_87" data-name="Sfumatura senza nome 87" x1="0" y1="59.7" x2="107.1" y2="59.7" gradientUnits="userSpaceOnUse">
      <stop offset="0" stop-color="#2075bc"/>
      <stop offset="1" stop-color="#42c4d9"/>
    </linearGradient>
    <linearGradient id="Sfumatura_senza_nome_280" data-name="Sfumatura senza nome 280" x1="6.7" y1="93.7" x2="86.1" y2="93.7" gradientUnits="userSpaceOnUse">
      <stop offset="0" stop-color="#3abfe7"/>
      <stop offset=".5" stop-color="#54a2d9"/>
      <stop offset="1" stop-color="#224e73"/>
    </linearGradient>
    <linearGradient id="Sfumatura_senza_nome_1339" data-name="Sfumatura senza nome 1339" x1="600.9" y1="-14206.9" x2="601.2" y2="-14206.9" gradientTransform="translate(7553.818 -12069.5912) rotate(34.2125) scale(1 -1)" gradientUnits="userSpaceOnUse">
      <stop offset="0" stop-color="#fff"/>
      <stop offset="0" stop-color="#fff" stop-opacity="1"/>
      <stop offset=".3" stop-color="#fff" stop-opacity=".6"/>
      <stop offset=".6" stop-color="#fff" stop-opacity=".4"/>
      <stop offset=".8" stop-color="#fff" stop-opacity=".2"/>
      <stop offset=".9" stop-color="#fff" stop-opacity="0"/>
      <stop offset="1" stop-color="#fff" stop-opacity="0"/>
    </linearGradient>
    <linearGradient id="Sfumatura_senza_nome_13391" data-name="Sfumatura senza nome 1339" x1="610.4" y1="-14201.3" x2="610.7" y2="-14201.3" xlink:href="#Sfumatura_senza_nome_1339"/>
    <linearGradient id="linear-gradient1" x1="-110.9" y1="434.1" x2="-35.4" y2="434.1" gradientTransform="translate(365.4 -303.6) rotate(33.6)" gradientUnits="userSpaceOnUse">
      <stop offset="0" stop-color="#fff200"/>
      <stop offset="1" stop-color="#fbb040"/>
    </linearGradient>
    <linearGradient id="Sfumatura_senza_nome_62" data-name="Sfumatura senza nome 62" x1="-130" y1="-16572.4" x2="-28.6" y2="-16572.4" gradientTransform="translate(9476.1641 -13576.8129) rotate(34.3887) scale(1 -1)" gradientUnits="userSpaceOnUse">
      <stop offset="0" stop-color="#29aae1" stop-opacity="0"/>
      <stop offset="0" stop-color="#4ab7e5" stop-opacity=".2"/>
      <stop offset=".2" stop-color="#79caec" stop-opacity=".4"/>
      <stop offset=".4" stop-color="#a2daf2" stop-opacity=".6"/>
      <stop offset=".5" stop-color="#c3e7f6" stop-opacity=".7"/>
      <stop offset=".6" stop-color="#ddf1fa" stop-opacity=".8"/>
      <stop offset=".8" stop-color="#f0f9fc" stop-opacity=".9"/>
      <stop offset=".9" stop-color="#fbfdfe" stop-opacity="1"/>
      <stop offset="1" stop-color="#fff"/>
    </linearGradient>
    <linearGradient id="Sfumatura_senza_nome_621" data-name="Sfumatura senza nome 62" x1="-99.2" y1="493.7" x2="-43.5" y2="493.7" gradientTransform="translate(362 -283) rotate(32.7)" xlink:href="#Sfumatura_senza_nome_62"/>
  </defs>
  <g>
    <g>
      <g>
        <path class="st4" d="M128.8,74.5h-4.3c0,0,0-.1,0-.2,0,0,0-.2,0-.3s0-.2,0-.3c0,0,0-.2,0-.2h10.2c0,0,0,.1,0,.2,0,0,0,.2,0,.3s0,.2,0,.3c0,.1,0,.2,0,.2h-4.3v10.5c-.1,0-.2,0-.4,0-.1,0-.3,0-.4,0s-.3,0-.4,0c-.1,0-.3,0-.3,0v-10.5Z"/>
        <path class="st4" d="M145.1,85.2c-1.1,0-2.1-.1-2.9-.4-.8-.3-1.5-.7-2.1-1.2-.5-.5-1-1.2-1.2-1.9-.3-.7-.4-1.5-.4-2.4s.1-1.7.4-2.4c.3-.7.7-1.4,1.2-1.9.5-.5,1.2-.9,2.1-1.2.8-.3,1.8-.4,2.9-.4s2.1.1,2.9.4c.8.3,1.5.7,2.1,1.2s1,1.2,1.2,1.9.4,1.5.4,2.4-.1,1.7-.4,2.4-.7,1.4-1.2,1.9-1.2.9-2.1,1.2c-.8.3-1.8.4-2.9.4ZM145.1,84.2c.9,0,1.6-.1,2.2-.4.6-.2,1.2-.6,1.6-1,.4-.4.7-1,.9-1.6.2-.6.3-1.3.3-2s-.1-1.4-.3-2c-.2-.6-.5-1.1-.9-1.6-.4-.4-.9-.8-1.6-1-.6-.2-1.4-.4-2.2-.4s-1.6.1-2.3.4c-.6.2-1.2.6-1.6,1-.4.4-.7,1-.9,1.6-.2.6-.3,1.3-.3,2s.1,1.4.3,2c.2.6.5,1.1.9,1.6.4.4.9.8,1.6,1,.6.2,1.4.4,2.3.4Z"/>
        <path class="st4" d="M158,73.5c.1,0,.2,0,.4,0,.1,0,.3,0,.4,0s.3,0,.4,0c.1,0,.3,0,.4,0v6.9c0,.7,0,1.2.2,1.7.2.5.4.8.7,1.1.3.3.7.5,1.2.6.5.1,1.1.2,1.8.2,1.4,0,2.4-.3,3-.8.6-.6,1-1.5,1-2.8v-6.9c.1,0,.2,0,.4,0,.1,0,.3,0,.4,0s.3,0,.4,0c.2,0,.3,0,.4,0v7.1c0,1.5-.4,2.7-1.3,3.5s-2.3,1.2-4.2,1.2-3.3-.4-4.2-1.2-1.3-1.9-1.3-3.5v-7.1Z"/>
        <path class="st4" d="M176.1,73.5c.3,0,.6,0,.9,0s.5,0,.7,0,.5,0,.7,0c.3,0,.6,0,.9,0,.7,0,1.4,0,2.1.2.7.1,1.3.3,1.9.6.6.3,1,.6,1.3,1.1.3.4.5,1,.5,1.7s-.1.8-.3,1.1c-.2.3-.5.6-.8.9-.3.3-.7.5-1.2.7s-.9.4-1.4.5h-.2s5.1,5,5.1,5c-.1,0-.3,0-.4,0h-.9c-.1,0-.3,0-.4,0l-5.7-5.3h0c0,0,.5-.2.5-.2.5,0,1-.2,1.5-.4.5-.2.9-.3,1.3-.6.4-.2.7-.5.9-.8.2-.3.3-.7.3-1.1,0-.8-.4-1.5-1.1-1.9-.7-.4-1.7-.6-2.9-.6s-.6,0-.9,0c-.3,0-.6,0-1,0v10.7c-.1,0-.2,0-.4,0-.2,0-.3,0-.4,0s-.3,0-.4,0c-.1,0-.3,0-.4,0v-11.5Z"/>
        <path class="st4" d="M191.3,83.7c.2,0,.4,0,.7.1.2,0,.5.1.8.1.3,0,.6,0,.9.1.3,0,.7,0,1.2,0,.7,0,1.3,0,1.9-.2.5-.1.9-.3,1.3-.5.3-.2.6-.5.8-.7s.2-.6.2-.9,0-.6-.2-.8c-.1-.2-.3-.4-.6-.6-.3-.2-.7-.4-1.1-.6s-1.1-.4-1.8-.6c-.5-.1-1-.3-1.5-.4-.5-.2-.9-.4-1.2-.6-.4-.2-.6-.5-.9-.8-.2-.3-.3-.7-.3-1.2,0-.9.4-1.6,1.3-2.1s2.2-.8,3.8-.8.7,0,1,0c.3,0,.7,0,.9,0,.3,0,.6,0,.8.1.2,0,.4,0,.6.1,0,.2,0,.3-.1.5,0,.2-.1.3-.2.5-.4,0-.8-.2-1.4-.2-.6,0-1.1-.1-1.7-.1-1.2,0-2.1.2-2.7.5-.5.4-.8.8-.8,1.4s0,.5.2.8c.2.2.4.4.7.6.3.2.6.3,1,.4.4.1.8.3,1.3.4.6.2,1.2.4,1.8.6.5.2,1,.4,1.4.7.4.3.7.6.9.9.2.3.3.8.3,1.3s-.1,1-.4,1.5-.7.8-1.2,1.1-1.1.5-1.9.7-1.6.2-2.5.2-1.6,0-2.2-.1c-.6,0-1.1-.2-1.6-.3,0-.2,0-.3.2-.5s.2-.4.2-.5Z"/>
        <path class="st4" d="M225.3,77.7v-1.5l1.4-1h0v2.4h2.8c0,0,0,.2,0,.2,0,0,0,.2,0,.2s0,.2,0,.2c0,0,0,.2,0,.2h-2.8v2.7c0,.7-.2,1.2-.5,1.7-.3.5-.8.9-1.3,1.2-.6.3-1.2.6-2,.7s-1.6.2-2.6.2-1.6,0-2.3-.2c-.7-.1-1.4-.3-1.9-.6s-1-.6-1.3-1.1c-.3-.4-.5-1-.5-1.6s0-.7.2-1,.3-.7.6-1c.3-.3.6-.6.9-.8s.8-.4,1.2-.6c-.7-.2-1.3-.5-1.8-.8-.5-.4-.7-.9-.7-1.6s.1-.9.4-1.2.6-.6,1-.8c.4-.2.9-.4,1.5-.5.6-.1,1.2-.2,1.8-.2s.8,0,1.2,0c.4,0,.9.1,1.4.2,0,.2,0,.3-.1.5s-.1.2-.2.4c-.3,0-.6-.1-1-.1-.3,0-.7,0-1.1,0s-1.1,0-1.5.2c-.4.1-.7.2-1,.4s-.4.4-.6.6c-.1.2-.2.4-.2.6,0,.6.3,1,.8,1.3.5.3,1.3.4,2.5.4h5.6ZM225.3,78.7h-5.1c-.6,0-1.2,0-1.7.2s-.9.4-1.3.7c-.4.3-.6.6-.8.9-.2.4-.3.7-.3,1.1,0,.8.4,1.4,1.1,1.8.7.4,1.8.7,3.2.7s1.8,0,2.4-.3c.6-.2,1.1-.4,1.5-.7.3-.3.6-.6.7-1,.1-.4.2-.8.2-1.2v-2.3Z"/>
        <path class="st4" d="M243.7,73.5c0,0,.2,0,.4,0,.2,0,.4,0,.5,0s.3,0,.5,0c.2,0,.3,0,.4,0l4.5,7.7,4.5-7.7c0,0,.2,0,.4,0,.2,0,.4,0,.5,0s.3,0,.5,0c.2,0,.3,0,.5,0l.8,11.5c-.1,0-.2,0-.4,0-.1,0-.3,0-.4,0s-.3,0-.4,0c-.1,0-.3,0-.3,0l-.6-9.8-4.5,7.4c-.1,0-.2,0-.3,0h-.6c0,0-.2,0-.3,0l-4.4-7.4-.7,9.8c-.1,0-.2,0-.4,0-.1,0-.3,0-.4,0s-.3,0-.4,0c-.1,0-.3,0-.3,0l.8-11.5Z"/>
        <path class="st4" d="M264.3,73.5c.1,0,.2,0,.4,0,.2,0,.3,0,.4,0s.3,0,.4,0c.1,0,.3,0,.4,0v11.5c-.1,0-.2,0-.4,0-.1,0-.3,0-.4,0s-.3,0-.4,0c-.1,0-.3,0-.3,0v-11.5Z"/>
        <path class="st4" d="M283.1,83.7c.1.2.2.3.3.5,0,.1.2.3.2.5-.5.2-1.1.3-1.8.4-.7.1-1.4.2-2.2.2s-2.1-.1-3-.4-1.7-.6-2.3-1.1-1.1-1.1-1.5-1.8c-.4-.7-.5-1.6-.5-2.5s.2-1.8.5-2.6c.4-.8.8-1.4,1.5-1.9.6-.5,1.4-.9,2.3-1.2.9-.3,1.9-.4,3-.4s1.7,0,2.4.1c.6,0,1.1.2,1.4.2,0,.2,0,.4-.1.5s-.1.3-.2.5c-.2,0-.4,0-.6-.1-.2,0-.4,0-.7-.1-.3,0-.6,0-.9,0-.3,0-.7,0-1.2,0-.9,0-1.7.1-2.4.3-.7.2-1.3.6-1.8,1-.5.4-.9,1-1.1,1.6-.3.6-.4,1.3-.4,2.1s.1,1.5.4,2.1.7,1.1,1.2,1.5c.5.4,1.2.7,1.9.9.7.2,1.5.3,2.3.3s1.3,0,1.9-.1c.6,0,1.1-.2,1.5-.4Z"/>
        <path class="st4" d="M289.7,73.5h8.7c0,0,0,.1,0,.2,0,0,0,.2,0,.3s0,.2,0,.3c0,.1,0,.2,0,.2h-7.1v3.9h5.7c0,0,0,.1,0,.2,0,0,0,.2,0,.3s0,.2,0,.3c0,.1,0,.2,0,.2h-5.7v4.6h7.3c0,0,0,.1,0,.2,0,0,0,.2,0,.3s0,.2,0,.3c0,.1,0,.2,0,.2h-8.9v-11.5Z"/>
      </g>
      <g>
        <path class="st4" d="M128.8,74.5h-4.3c0,0,0-.1,0-.2,0,0,0-.2,0-.3s0-.2,0-.3c0,0,0-.2,0-.2h10.2c0,0,0,.1,0,.2,0,0,0,.2,0,.3s0,.2,0,.3c0,.1,0,.2,0,.2h-4.3v10.5c-.1,0-.2,0-.4,0-.1,0-.3,0-.4,0s-.3,0-.4,0-.3,0-.3,0v-10.5Z"/>
        <path class="st4" d="M145.1,85.2c-1.1,0-2.1-.1-2.9-.4-.8-.3-1.5-.7-2.1-1.2-.5-.5-1-1.2-1.2-1.9-.3-.7-.4-1.5-.4-2.4s.1-1.7.4-2.4.7-1.4,1.2-1.9c.5-.5,1.2-.9,2.1-1.2.8-.3,1.8-.4,2.9-.4s2.1.1,2.9.4c.8.3,1.5.7,2.1,1.2.5.5,1,1.2,1.2,1.9.3.7.4,1.5.4,2.4s-.1,1.7-.4,2.4c-.3.7-.7,1.4-1.2,1.9-.5.5-1.2.9-2.1,1.2-.8.3-1.8.4-2.9.4ZM145.1,84.2c.9,0,1.6-.1,2.2-.4s1.2-.6,1.6-1,.7-1,.9-1.6.3-1.3.3-2-.1-1.4-.3-2c-.2-.6-.5-1.1-.9-1.6s-.9-.8-1.6-1-1.4-.4-2.2-.4-1.6.1-2.3.4c-.6.2-1.2.6-1.6,1s-.7,1-.9,1.6c-.2.6-.3,1.3-.3,2s.1,1.4.3,2,.5,1.1.9,1.6.9.8,1.6,1c.6.2,1.4.4,2.3.4Z"/>
        <path class="st4" d="M158,73.5c.1,0,.2,0,.4,0s.3,0,.4,0,.3,0,.4,0,.3,0,.4,0v6.9c0,.7,0,1.2.2,1.7.2.5.4.8.7,1.1.3.3.7.5,1.2.6s1.1.2,1.8.2c1.4,0,2.4-.3,3-.8.6-.6,1-1.5,1-2.8v-6.9c.1,0,.2,0,.4,0,.1,0,.3,0,.4,0s.3,0,.4,0c.1,0,.3,0,.4,0v7.1c0,1.5-.4,2.7-1.3,3.5-.9.8-2.3,1.2-4.2,1.2s-3.3-.4-4.2-1.2c-.9-.8-1.3-1.9-1.3-3.5v-7.1Z"/>
        <path class="st4" d="M176.1,73.5c.3,0,.6,0,.9,0,.2,0,.5,0,.7,0s.5,0,.7,0c.3,0,.6,0,.9,0,.7,0,1.4,0,2.1.2.7.1,1.3.3,1.9.6.6.3,1,.6,1.3,1.1s.5,1,.5,1.7-.1.8-.3,1.1c-.2.3-.5.6-.8.9-.3.3-.7.5-1.2.7s-.9.4-1.4.5h-.2s5.1,5,5.1,5c-.1,0-.3,0-.4,0h-.9c-.1,0-.3,0-.4,0l-5.7-5.3h0c0,0,.5-.2.5-.2.5,0,1-.2,1.5-.4.5-.2.9-.3,1.3-.6.4-.2.7-.5.9-.8s.3-.7.3-1.1c0-.8-.4-1.5-1.1-1.9-.7-.4-1.7-.6-2.9-.6s-.6,0-.9,0c-.3,0-.6,0-1,0v10.7c-.1,0-.2,0-.4,0s-.3,0-.4,0-.3,0-.4,0-.3,0-.4,0v-11.5Z"/>
        <path class="st4" d="M191.3,83.7c.2,0,.4,0,.7.1.2,0,.5.1.8.1s.6,0,.9.1c.3,0,.7,0,1.2,0,.7,0,1.3,0,1.9-.2.5-.1.9-.3,1.3-.5.3-.2.6-.5.8-.7.2-.3.2-.6.2-.9s0-.6-.2-.8c-.1-.2-.3-.4-.6-.6s-.7-.4-1.1-.6c-.5-.2-1.1-.4-1.8-.6-.5-.1-1-.3-1.5-.4-.5-.2-.9-.4-1.2-.6-.4-.2-.6-.5-.9-.8-.2-.3-.3-.7-.3-1.2,0-.9.4-1.6,1.3-2.1.9-.5,2.2-.8,3.8-.8s.7,0,1,0c.3,0,.7,0,.9,0,.3,0,.6,0,.8.1.2,0,.4,0,.6.1,0,.2,0,.3-.1.5,0,.2-.1.3-.2.5-.4,0-.8-.2-1.4-.2-.6,0-1.1-.1-1.7-.1-1.2,0-2.1.2-2.7.5-.5.4-.8.8-.8,1.4s0,.5.2.8c.2.2.4.4.7.6.3.2.6.3,1,.4s.8.3,1.3.4c.6.2,1.2.4,1.8.6s1,.4,1.4.7c.4.3.7.6.9.9.2.3.3.8.3,1.3s-.1,1-.4,1.5c-.3.4-.7.8-1.2,1.1s-1.1.5-1.9.7-1.6.2-2.5.2-1.6,0-2.2-.1c-.6,0-1.1-.2-1.6-.3,0-.2,0-.3.2-.5,0-.2.2-.4.2-.5Z"/>
        <path class="st4" d="M225.3,77.7v-1.5l1.4-1h0v2.4h2.8c0,0,0,.2,0,.2,0,0,0,.2,0,.2s0,.2,0,.2c0,0,0,.2,0,.2h-2.8v2.7c0,.7-.2,1.2-.5,1.7-.3.5-.8.9-1.3,1.2-.6.3-1.2.6-2,.7-.8.2-1.6.2-2.6.2s-1.6,0-2.3-.2c-.7-.1-1.4-.3-1.9-.6-.5-.3-1-.6-1.3-1.1s-.5-1-.5-1.6,0-.7.2-1,.3-.7.6-1c.3-.3.6-.6.9-.8.4-.2.8-.4,1.2-.6-.7-.2-1.3-.5-1.8-.8-.5-.4-.7-.9-.7-1.6s.1-.9.4-1.2c.2-.3.6-.6,1-.8.4-.2.9-.4,1.5-.5.6-.1,1.2-.2,1.8-.2s.8,0,1.2,0c.4,0,.9.1,1.4.2,0,.2,0,.3-.1.5,0,.1-.1.2-.2.4-.3,0-.6-.1-1-.1-.3,0-.7,0-1.1,0s-1.1,0-1.5.2c-.4.1-.7.2-1,.4-.3.2-.4.4-.6.6-.1.2-.2.4-.2.6,0,.6.3,1,.8,1.3s1.3.4,2.5.4h5.6ZM225.3,78.7h-5.1c-.6,0-1.2,0-1.7.2-.5.2-.9.4-1.3.7-.4.3-.6.6-.8.9-.2.4-.3.7-.3,1.1,0,.8.4,1.4,1.1,1.8.7.4,1.8.7,3.2.7s1.8,0,2.4-.3c.6-.2,1.1-.4,1.5-.7.3-.3.6-.6.7-1,.1-.4.2-.8.2-1.2v-2.3Z"/>
        <path class="st4" d="M243.7,73.5c0,0,.2,0,.4,0,.2,0,.4,0,.5,0s.3,0,.5,0c.2,0,.3,0,.4,0l4.5,7.7,4.5-7.7c0,0,.2,0,.4,0s.4,0,.5,0,.3,0,.5,0c.2,0,.3,0,.4,0l.8,11.5c-.1,0-.2,0-.4,0s-.3,0-.4,0-.3,0-.4,0c-.1,0-.3,0-.3,0l-.6-9.8-4.5,7.4c-.1,0-.2,0-.3,0h-.6c0,0-.2,0-.3,0l-4.4-7.4-.7,9.8c-.1,0-.2,0-.4,0s-.3,0-.4,0-.3,0-.4,0c-.1,0-.3,0-.3,0l.8-11.5Z"/>
        <path class="st4" d="M264.3,73.5c.1,0,.2,0,.4,0s.3,0,.4,0,.3,0,.4,0,.3,0,.4,0v11.5c-.1,0-.2,0-.4,0s-.3,0-.4,0-.3,0-.4,0c-.1,0-.3,0-.3,0v-11.5Z"/>
        <path class="st4" d="M283.1,83.7c.1.2.2.3.3.5s.2.3.2.5c-.5.2-1.1.3-1.8.4s-1.4.2-2.2.2-2.1-.1-3-.4c-.9-.3-1.7-.6-2.3-1.1-.6-.5-1.1-1.1-1.5-1.8s-.5-1.6-.5-2.5.2-1.8.5-2.6c.4-.8.8-1.4,1.5-1.9.6-.5,1.4-.9,2.3-1.2.9-.3,1.9-.4,3-.4s1.7,0,2.4.1,1.1.2,1.4.2c0,.2,0,.4-.1.5,0,.1-.1.3-.2.5-.2,0-.4,0-.6-.1-.2,0-.4,0-.7-.1-.3,0-.6,0-.9,0-.3,0-.7,0-1.2,0-.9,0-1.7.1-2.4.3-.7.2-1.3.6-1.8,1s-.9,1-1.1,1.6c-.3.6-.4,1.3-.4,2.1s.1,1.5.4,2.1c.3.6.7,1.1,1.2,1.5s1.2.7,1.9.9c.7.2,1.5.3,2.3.3s1.3,0,1.9-.1c.6,0,1.1-.2,1.5-.4Z"/>
        <path class="st4" d="M289.7,73.5h8.7c0,0,0,.1,0,.2,0,0,0,.2,0,.3s0,.2,0,.3c0,.1,0,.2,0,.2h-7.1v3.9h5.7c0,0,0,.1,0,.2,0,0,0,.2,0,.3s0,.2,0,.3c0,.1,0,.2,0,.2h-5.7v4.6h7.3c0,0,0,.1,0,.2,0,0,0,.2,0,.3s0,.2,0,.3c0,.1,0,.2,0,.2h-8.9v-11.5Z"/>
      </g>
      <g>
        <path class="st0" d="M135,60.5l-1.8,4.4h-9.2l13.4-30.4h6.7l13.3,30.4h-9.3l-1.6-4.4h-11.6ZM137.3,54.4h7l-3.4-10.4h-.1l-3.4,10.4Z"/>
        <path class="st0" d="M160.9,34.5h10.6c5.9,0,8.1.7,10.3,2.2,2.8,2,4.1,5.2,4.1,8.3s-2,8.6-8.3,9.6l9.1,10.4h-9.8l-7.7-9.8h0v9.8h-8.2v-30.4ZM169.1,49.8h3c5,0,5.6-2.9,5.6-4.4,0-2.8-2.2-4.1-5.5-4.1h-3.1v8.5Z"/>
        <path class="st0" d="M190.5,34.5h10.3c5.7,0,8.3.5,10.7,3,1.5,1.4,2,3.3,2,5s-1.2,4.7-3.9,6.1c5.4,1.7,5.5,5.8,5.5,7.1,0,2.4-1,5.1-3.1,6.6-3.1,2.3-5.3,2.6-10.9,2.6h-10.6v-30.4ZM198.6,46h3c1.2,0,3.6,0,3.6-2.4s-2.3-2.3-3.6-2.3h-3v4.7ZM198.6,58.1h4c1.1,0,4.3,0,4.3-2.9s-2.9-2.6-4.3-2.6h-4v5.6Z"/>
        <path class="st0" d="M227.6,60.5l-1.8,4.4h-9.2l13.4-30.4h6.7l13.3,30.4h-9.3l-1.6-4.4h-11.6ZM229.9,54.4h7l-3.4-10.4h-.1l-3.4,10.4Z"/>
        <path class="st0" d="M273.6,34.5v18.4c0,5.2-.6,7-2.1,8.6-2.3,2.7-6.1,4-9.5,4s-11.2,0-11.3-10.4h9.1c0,1.4.3,3.5,2.6,3.5s2.6-2.5,2.6-3.9v-20.3h8.5Z"/>
        <path class="st0" d="M279.7,34.5h18.6v6.8h-10.4v4.7h10.1v6.8h-10.1v5.2h10.4v6.8h-18.6v-30.4Z"/>
      </g>
    </g>
    <g>
      <g>
        <path class="st12" d="M14.3,79.5c0-.1.2-.3.2-.4.2-.3.4-.6.6-.9h0c.2-.3.4-.6.6-.9,0,0,0-.1.1-.2.2-.2.4-.5.6-.7.3-.3.5-.6.8-.8,4.3-4.1,11.4-7.3,19.2-8.6.4,0,.8-.1,1.2-.2.1,0,.3,0,.4,0,.3,0,.6,0,.9-.1.2,0,.3,0,.5,0,.3,0,.5,0,.8,0,.2,0,.3,0,.5,0,.3,0,.6,0,.9,0,.1,0,.2,0,.3,0,.4,0,.8,0,1.2,0,.1,0,.3,0,.4,0,.3,0,.6,0,.9,0,.2,0,.3,0,.5,0,.8,0,1.6,0,2.4,0h1.2c.8.2,1.5.3,2.2.4h-.9c0-.1-1.7-.4-1.7-.4-.3,0-4-.5-4.3-.5,0,0,0,0,0,0-1.8-.2-3.3-.3-6.8-.6-2.9-.2-4.4-.2-6-.2-.6,0-1.1,0-1.7,0,0,0,0,0,0,0-2,0-4,0-5.7.2-.2,0-.4,0-.6,0-.6,0-1.1,0-1.6.1-1,.1-2.3.3-3.2.5,0,0,0,0,0,0h0s0,0,0,0c0,0,0,0,0,0h0s0,0,0,0c-.2,0-.3,0-.4.1-3.9.8-7.4,2.4-9.5,4.5-.7.7-1.2,1.4-1.6,2.1-.3.5-.5,1-.6,1.6-.2,1.7,0,2.3.4,3.9.7,2.1,1.7,3.5,2.9,5.3,1.8,2.3,2.3,2.7,5,5.3.6.6,1.6,1.4,2.4,2-3.5-3-4.5-7-2.2-11.2ZM46.1,66.4s0,0,0,0c0,0,0,0,0,0h0ZM45.7,66.3c.1,0,.2,0,.3,0,0,0,0,0,0,0-.3,0-.6,0-.9,0,.2,0,.3,0,.4,0ZM37.6,66.8c-.1,0-.2,0-.3,0h-.3c.2,0,.4,0,.6,0ZM37,67h-.1s-.2,0-.2,0c0,0,.2,0,.3,0ZM17.8,74.9s0,0,.1-.1c0,0,0,0,0,0,0,.2-.3.4-.4.5.1-.2.2-.3.3-.5Z"/>
        <g>
          <path class="st7" d="M101.5,29.2s-5.7-12.1-17.1-4.2c-7.6,5.3-21.7,1.6-24.7.7-7.3-1.6-14.8-2.6-22.1-3-3.5-.2-6.7-.2-9.7,0h-.2c0,0,0,0,0,0-5.9.3-10.9,1.1-14.7,2.4-2.1.7-3.8,1.6-5.2,2.6-.2.2-.5.4-.7.6h0s0,0,0,0c0,0,0,0,0,0-.8.7-1.5,1.4-2,2.1.2-.2.3-.1.4,0-.2,0-.3,0-.4.1,0,0,0,0,0,0,0,0,0,0,0,0,0,0,0,0,0,0,0,.1-.2.2-.3.5h0c0,.1-.2.6-.2.6h0c0,.1,0,.1,0,.1l-.5,1.3c-1.9,5.2-2,5.5-2.7,8.9C.1,48,0,48.1,0,54.1v.8s.3,3.5.3,3.5c0-1.1.2-2.2.7-3.2.6-1.2,1.6-2.3,3-3.3,1.4-1,3.1-1.8,5.1-2.5,5.7-1.9,13.8-2.9,23.9-2.3,7.1.4,14.4,1.4,21.4,2.9,0,0,0,0,0,0,7.1,1.4,50.1,8.7,47-20.8ZM1.3,41.8c0,.4-.1.7-.2,1,0-.3.1-.7.2-1ZM2.3,52.4h-.2c.1,0,.2,0,.3,0,0,0,0,0,0,0ZM1.3,41.6c.1-.5.2-1.1.4-1.6-.1.6-.3,1.1-.4,1.6ZM1.8,39.6c0-.4.2-.7.3-1.1-.1.4-.2.7-.3,1.1ZM2.7,50.6c.8-2.8,1.5-5.8,2.1-8.5-.5,2.7-1.2,5.7-2.1,8.5ZM14.5,24.8s0,0,0,0c0,0,0,0,.1,0,0,0-.1,0-.2,0Z"/>
          <path class="st0" d="M.3,58.4c0,.2,0,.4,0,.5v-.5Z"/>
        </g>
        <path class="st11" d="M20.1,94.7c-.4-.3-.7-.6-1.1-.9.1.1.3.2.4.4l.7.5Z"/>
        <path class="st11" d="M39.2,10.8c-.8.1-1.6.3-2.8.6,1-.2,1.9-.4,2.8-.6Z"/>
        <path class="st5" d="M4.6,43.3c0,.4,0,.9,0,1.5v.8c0-.7,0-2,.3-3.5,0,.5-.2.9-.2,1.3Z"/>
        <path class="st8" d="M106.9,54.7c-.1.5-.3,1-.5,1.5-.2.4-.4.8-.7,1.2,0,0,0,0,0,.1,0,0,0,0,0,0-.2.2-.4.5-.6.7,0,0,0,0,0,0-.2.2-.5.4-.7.7,0,0,0,0,0,0-.2.2-.5.4-.8.6,0,0,0,0,0,0-.3.2-.5.4-.8.6,0,0-.1,0-.2.1-.2.1-.5.3-.7.4,0,0-.2.1-.3.2-.3.2-.6.3-.9.5,0,0,0,0,0,0-.4.2-.7.3-1.1.5,0,0,0,0,0,0,0,0,0,0-.1,0-.4.1-.7.3-1.1.4,0,0,0,0-.1,0-.4.1-.8.3-1.2.4,0,0,0,0-.1,0,0,0,0,0,0,0-.4.1-.9.2-1.3.4,0,0-.1,0-.2,0-.4.1-.9.2-1.4.3,0,0,0,0-.1,0-.5.1-1,.2-1.5.3,0,0-.2,0-.3,0-.5,0-.9.2-1.4.2,0,0-.2,0-.2,0-.5,0-1,.1-1.5.2,0,0-.1,0-.2,0,0,0-.1,0-.2,0-.5,0-1,.1-1.6.2-.1,0-.2,0-.3,0-.6,0-1.1,0-1.7.1h-1.7c-.5.1-1,.1-1.5.1-2.5,0-5.2,0-8.1-.1-26.7-1.4-56.4-11.9-66.3-23.5-3.1-3.7-3.9-7-2.7-9.8h0c0,.1,0,.2,0,.2l-.5,1.2c0,0,0,.2-.1.3,0,0,0,0,0,0,0,0,0,0,0,0,0,.1-.1.3-.2.4,0,0,0,0,0,0,0,0,0,0,0,0,0,0,0,.2,0,.2,0,0,0,0,0,.1,0,0,0,0,0,.1,0,0,0,0,0,0,0,0,0,0,0,0,0,0,0,0,0,0,0,.2-.1.3-.2.5,0,0,0,0,0,0-.1.3-.2.6-.3,1,0,0,0,0,0,0,0,0,0,.1,0,.2,0,0,0,0,0,0,0,.1,0,.3-.1.4h0c0,0,0,.1,0,.2,0,0,0,0,0,0,0,0,0,.1,0,.2,0,0,0,0,0,0,0,0,0,.1,0,.2,0,0,0,0,0,0,0,0,0,.1,0,.2,0,0,0,0,0,0,0,0,0,.1,0,.2,0,0,0,0,0,0,0,0,0,.1,0,.2,0,0,0,0,0,0,0,0,0,.2,0,.3,0,0,0,0,0,0,0,0,0,.2,0,.3,0,0,0,0,0,0,0,0,0,.2,0,.2,0,0,0,0,0,0,0,0,0,.2,0,.2,0,0,0,0,0,0,0,.3-.2.7-.3,1.1,0,0,0,0,0,0-.1.5-.2,1-.4,1.5C.1,47.7.1,47.8,0,54.1v.8c0-1,.2-3.2.5-5.9,0-.1.2-1.2.4-2.8,0-.2,0-.4.1-.7,0,0,0,0,0,0,0-.2,0-.4.1-.6,0,0,0,0,0-.1,0-.5.2-1,.3-1.5,0,0,0-.1,0-.2,0-.2,0-.4.1-.6,0,0,0-.1,0-.2,0-.3.1-.5.2-.8,0,0,0-.1,0-.2,0-.2,0-.5.1-.7,0,0,0-.2,0-.2,0-.2.1-.5.2-.7,0,0,0,0,0-.1,0-.3.1-.6.2-.8,0,0,0-.2,0-.2,0-.2,0-.4.1-.6,0,0,0-.2,0-.2,0-.3.1-.5.2-.8,0,0,0,0,0-.1,0-.2.1-.5.2-.7,0,0,0-.2,0-.2,0-.2.1-.4.2-.6h0c0-.2,0-.3.1-.5,0,0,0-.2,0-.3,0-.1,0-.3.1-.4,0-.1,0-.3.1-.4,0-.1,0-.2,0-.3h0c0-.2.2-.5.2-.7,0,.2-.2.5-.2.7,0,0,0,0,0,.1,0,.1,0,.2-.1.3,0,0,0,.1,0,.2,0,0,0,.1,0,.2,0,.1,0,.3-.1.4h0s0,0,0,0c0,0,0,.1,0,.2,0,.2,0,.3-.1.5,0,0,0,0,0,0h0c0,0,0,.2,0,.3,0,.2-.1.4-.2.6,0,0,0,.1,0,.2,0,.3-.1.5-.2.8,0,0,0,0,0,.1,0,.2-.1.4-.2.7,0,0,0,.2,0,.2,0,.2,0,.4-.1.6,0,0,0,.2,0,.3,0,.2,0,.4-.1.6,0,0,0,.2,0,.3,0,.2,0,.5-.1.7,0,0,0,.1,0,.2-.1.6-.2,1.2-.4,1.8,0,0,0,0,0,0,0,.3-.1.5-.1.8,0,0,0,.1,0,.2,0,.2,0,.5-.1.7,0,0,0,.1,0,.2,0,.2,0,.5-.1.7,0,0,0,.1,0,.2,0,.3,0,.6-.1.9,0,0,0,0,0,0h0C.4,49.7,0,52.9,0,54.9l.3,4c.2,1.9,1.2,4,3.1,6.2,9.6,11.3,38.5,21.5,64.4,22.8,2.8.1,5.4.2,7.9.1,12.7-.3,21.2-3.3,23.9-7.9l1.4-2.6c1.5-3,1.6-3.2,3.5-8.5.5-1.5,1-3.5,1.3-5.1.7-3.3.7-3.7,1.2-9.2v-.9s-.1.8-.1.8Z"/>
        <path class="st14" d="M62,101c-.3,0-.7,0-1,0-.8,0-1.6-.1-2.5-.2,0,0,0,0,0,0-.8,0-1.6-.1-2.4-.2-.2,0-.3,0-.5,0-.7,0-1.3-.1-2-.2-.8-.1-1.7-.2-2.5-.4-12.5-1.9-24.9-5.9-33.5-10.8-.5-.3-.9-.5-1.3-.8-.1,0-.3-.2-.4-.3-.3-.2-.6-.4-.9-.5-.2,0-.3-.2-.5-.3-.3-.2-.5-.3-.8-.5-.1,0-.3-.2-.4-.3-.3-.2-.5-.4-.8-.6-.1,0-.2-.2-.3-.2-.4-.3-.7-.5-1-.8-.1,0-.2-.2-.3-.3-.2-.2-.4-.4-.7-.6-.1-.1-.2-.2-.3-.3-.6-.5-1.1-1.1-1.6-1.6l-.6-.8c-.4-.5-.7-1-1-1.5l.3.6.7,1.2c.1.2,1.7,2.8,1.9,3,0,0,0,0,0,0,.8,1.2,1.7,2.3,3.6,4.7,1.7,1.9,2.7,3,3.9,4,.4.4.8.8,1.2,1.1,0,0,0,0,0,0,1.5,1.3,3,2.6,4.7,3.7.2.1.4.2.6.4.5.4,1,.7,1.5,1,1,.6,2.4,1.4,3.4,2,0,0,0,0,0,0h0s0,0,0,0c0,0,0,0,0,0h0c0,0,0,0,0,0,.2.1.4.2.6.3,4.7,2.4,10.9,4.3,17.2,5.3,2,.3,4,.5,6,.6,1.4,0,2.7,0,4,0,4-.3,5.2-.5,8.6-1.1,4.4-1,6.7-1.9,9.9-3.1,3.8-1.7,4.5-2.2,8.4-4.5.9-.6,2-1.4,2.9-2-4.3,3-12.7,4.6-24.1,4ZM8.9,82.8s0,0,0,0c0,0,0,0,0,0h0ZM9.2,83.1c0,0-.1-.1-.2-.2,0,0,0,0,0,0,.1.2.3.4.5.6,0-.1-.2-.2-.2-.3ZM16.1,88.4c.2,0,.3.1.5.2l.3.2c-.2-.1-.5-.2-.8-.4ZM16.9,88.7h.1c0,0,.2.2.2.2-.1,0-.2-.1-.3-.2ZM49,99.7c-.1,0-.3,0-.4,0,0,0,.1,0,.2,0,.5,0,1,0,1.6.2-.5,0-.9,0-1.4-.1Z"/>
        <path class="st9" d="M62.6,16.9c.1,0,.2,0,.3,0h-.2s0,0-.1,0Z"/>
        <path class="st13" d="M73.6,17.6c.1,0,.3,0,.4,0h-.4c0,0,0,0,0,0Z"/>
        <path class="st6" d="M102.8,29.3h0c-1.4-3.3-4-6.5-5-7.8,0,0,0,0,0,0-.1-.2-.3-.3-.3-.4,0,0,0,0,0,0,0,0,0,0,0,0-4.7-5.3-10.1-8.1-11.2-7.1h0s0,.2,0,.2v.2c0,0-.2.3-.2.3l-.2.3-.3.4-.4.4-.5.4-.6.4-.7.4-.9.4-1,.3-1.1.3c-.4,0-.8.2-1.2.2-.4,0-.9.1-1.3.2-.5,0-.9,0-1.4.1-.2,0-.3,0-.5,0,0,0,0,0,0,0h.4c0,0-.5,0-.5,0h-.5s-.5,0-.5,0h-.5s-.5,0-.5,0h-.5s-.5,0-.5,0h-.5s-.5,0-.5,0h-.2s-.3,0-.3,0h-.5s-.5,0-.5,0h-.4s-.4,0-.4,0h-.4s-.4,0-.4,0h-.4s-.4,0-.4,0h-.3s-.3,0-.3,0h-.3s-.3,0-.3,0h-.3s-.2,0-.2,0h-.2s-.2,0-.2,0h-.2s-.1,0-.1,0h0s0,0,0,0h0s0,0,0,0c-6.2-1-12.4-3-16.8-5.4-1.6-.9-2.9-1.8-3.9-2.5-.6-.5-1.2-1-1.6-1.5-.1-.2-.3-.3-.4-.5,0,0,0,0,0-.1-.1-.2-.2-.3-.3-.5,0,0,0,0,0,0,0-.2-.2-.3-.2-.5,0,0,0,0,0,0,0-.2-.1-.3-.2-.5,0,0,0,0,0,0,0-.2,0-.3,0-.5,0,0,0,0,0,0,0-.2,0-.3,0-.5h0c0-.3,0-.6.2-.9.9-2.1,4.3-3.5,9.5-3.8.5,0,1,0,1.5,0h-.1s0,0,0,0c-.4,0-.7,0-1,0h0s0,0,0,0c0,0-.1,0-.2,0,0,0,0,0,0,0-.3,0-.6,0-.9,0,0,0,0,0,0,0,0,0-.1,0-.2,0,0,0,0,0,0,0,0,0-.1,0-.2,0,0,0,0,0,0,0-.3,0-.6,0-1,0,0,0,0,0,0,0,0,0-.2,0-.2,0,0,0,0,0-.1,0,0,0-.2,0-.2,0,0,0,0,0-.1,0,0,0-.2,0-.3,0,0,0,0,0,0,0-.2,0-.5,0-.8,0-1.4.1-2.4.3-3.7.6,0,0,0,0,0,0-.9.2-1.9.4-3,.6-1.5.4-3.5,1-5,1.4-4.6,1.7-5.6,2.2-9.5,4.2-.2.1-.4.2-.6.4,0,0,0,0,0,0-1.4.9-3.1,1.9-4.4,2.8-4,2.8-4.5,6.8-.6,11.3,1.9,2.2,4.7,4.4,8.1,6.5,8.8,5.2,21.7,9.6,35,11.8h0s0,0,0,0h.1s.2,0,.2,0h.2s.3,0,.3,0h.3c0,0,.4.1.4.1h.4c0,0,.5.1.5.1h.5c0,0,.6.1.6.1h.6c0,0,.6.2.6.2h.7c0,0,.7.2.7.2h.8c0,0,.8.2.8.2h.8c0,0,.8.1.8.1h.9c0,0,.9.1.9.1h.6s.3,0,.3,0h.9s.9,0,.9,0h.9s1,0,1,0h1s1,0,1,0h.9s.9,0,.9,0h.9c.9,0,1.8-.2,2.7-.3.9,0,1.8-.2,2.6-.3.8-.1,1.6-.3,2.4-.4.8-.2,1.5-.3,2.2-.5.7-.2,1.3-.4,1.9-.6.6-.2,1.2-.4,1.7-.7.5-.2,1-.5,1.4-.7.4-.2.8-.5,1.2-.8l.9-.8.7-.7.5-.7.4-.6.2-.5v-.4c.1,0,.2-.2.2-.2h0c0-1.2-.4-2.4-.9-3.7ZM64.3,17.5h.2c-.1,0-.2,0-.4,0,0,0,0,0,.1,0Z"/>
      </g>
      <path class="st1" d="M35.5,18.3c8.7,5.1,21.6,9.3,34.8,11.3h0s0,0,0,0h.1s.2,0,.2,0h.2s.3,0,.3,0h.3s.4.1.4.1h.4c0,0,.5.1.5.1h.5c0,0,.6.1.6.1h.6c0,0,.6.1.6.1h.7c0,0,.7.1.7.1h.7c0,0,.8.1.8.1h.8c0,0,.8.1.8.1h.9s.9,0,.9,0h.6s.3,0,.3,0h.9s.9,0,.9,0h.9s.9,0,.9,0h.9s.9,0,.9,0h.9s.9,0,.9,0h.9c.9-.1,1.8-.2,2.7-.3.9,0,1.7-.2,2.6-.3.8-.1,1.6-.3,2.4-.4.8-.2,1.5-.3,2.2-.5.5-.2,1-.3,1.5-.5-1.7-3.9-5.3-7.9-5.5-8.2-4.7-5.2-10.1-7.9-11.1-6.9h0s0,.2,0,.2v.2c0,0-.2.3-.2.3l-.2.3-.3.4-.4.4-.5.4-.6.4-.7.4-.9.4-1,.3-1.1.3c-.4,0-.8.2-1.2.2-.4,0-.9.1-1.3.2-.4,0-.9,0-1.4.1-.2,0-.3,0-.5.1,0,0,0,0,0,0h.4c0,0-.5,0-.5,0h-.5s-.5,0-.5,0h-.5s-.5,0-.5,0h-.5s-.5,0-.5,0h-.5s-.5,0-.5,0h-.2s-.3,0-.3,0h-.5s-.4,0-.4,0h-.4s-.4,0-.4,0h-.4s-.4,0-.4,0h-.4s-.4,0-.4,0h-.3s-.3,0-.3,0h-.3s-.3,0-.3,0h-.2s-.2,0-.2,0h-.2s-.2,0-.2,0h-.2s-.1,0-.1,0h0s0,0,0,0h0s0,0,0,0c-6.2-.9-12.3-2.8-16.7-5.1-1.6-.8-2.9-1.7-3.9-2.5-.6-.5-1.2-1-1.6-1.5-3.6-4.2,0-7.4,8.2-8,.1,0,.3,0,.5,0,0,0,0,0,0,0-1.5,0-2.1.1-4.5.4-1.4.2-2.4.3-3.6.6,0,0,0,0,0,0-.9.2-1.9.4-2.9.6-1.5.4-3.4,1-4.9,1.4-4.6,1.7-5.5,2.2-9.4,4.2-.4.2-.8.5-1.3.8.4,1.2,1.2,2.5,2.3,3.8,1.9,2.2,4.7,4.3,8.1,6.3ZM64,17.3h.2c-.1,0-.2,0-.4,0,0,0,0,0,.1,0Z"/>
      <path class="st2" d="M68.3,79.3c2.8.2,5.4.2,7.9.1,12.7-.3,21.2-3.2,23.9-7.8l1.4-2.6c1.5-3,1.6-3.2,3.5-8.5.3-1,.6-2.2.9-3.4-2.3,4.5-10,7.6-21.7,8.3h-1.7c-.5.1-1,.1-1.5.1-2.5,0-5.2,0-8.1-.1-26.7-1.5-56.3-12-66.1-23.7-3.1-3.7-3.9-7-2.6-9.8h0c0,.1,0,.1,0,.2l-.5,1.2c-1.2,3.1-1.3,3.3-2.7,8.8-.2,1.5-.3,2.8-.3,3.8v.8c.7-3.6,1.8-9.8,3.2-13.7-1.1,3.2-2.3,8.8-3.2,13.7l.2,3.2c.2,1.9,1.2,4,3.1,6.2,9.6,11.3,38.3,21.6,64.3,23Z"/>
      <path class="st3" d="M61.4,102c1-.3,1.9-.5,2.7-.8-3.3-.1-6.7-.4-10.1-.8-12.9-1.6-25.7-5.4-34.7-10.1-3.4-1.8-6.2-3.7-8.4-5.7,0,0,0,0-.1,0,0,0,0,0,.1,0,0,0-.2-.2-.3-.3-.1,0-.3-.1-.4-.2.2.2.3.4.5.6-.2-.2-.3-.4-.5-.6-.3-.2-.6-.4-.9-.5,0,.4.5.9,1.2,1.5,1.1,1.6,1.9,2.5,4.2,5.3,1.8,1.9,2.9,3,4.1,4,.4.4.8.8,1.3,1.1,0,0,0,0,0,0,1.1.6,2.5,1.4,3.6,2,0,0,0,0,0,0h0s0,0,0,0c0,0,0,0,0,0h0c0,0,0,0,0,0,.3.1.4.2.6.3,4.8,2.3,11.3,4.1,17.8,5,2.1.3,4.1.4,6.2.5,1.4,0,2.8,0,4.1,0,4.1-.4,5.3-.6,8.8-1.4ZM17.8,89.5c.2,0,.3.1.5.2l.3.2c-.3-.1-.5-.2-.8-.3ZM18.7,89.9h.1c0,0,.2.2.2.2-.1,0-.2-.1-.3-.2ZM51.9,100.2c-.1,0-.3,0-.4,0,0,0,.1,0,.2,0,.5,0,1.1,0,1.6.1-.5,0-1,0-1.4,0Z"/>
    </g>
  </g>
  <path class="st10" d="M39.8,20.9"/>
</svg>